<svg width="40" height="40" viewBox="0 0 40 40" fill="none" xmlns="http://www.w3.org/2000/svg">
<path d="M15.9287 35.929H7.92869C5.71955 35.929 3.9287 34.1381 3.92871 31.929L3.92887 7.92905C3.92888 5.71993 5.71974 3.92908 7.92887 3.92908H25.9293C28.1385 3.92908 29.9293 5.71994 29.9293 7.92908V15.9291M10.9293 11.9291H22.9293M10.9293 17.9291H22.9293M10.9293 23.9291H16.9293" stroke="#164E37" stroke-width="3" stroke-linecap="round" stroke-linejoin="round"/>
<path d="M21.9292 30.8283C21.9292 30.5631 22.0346 30.3088 22.2221 30.1212L29.7074 22.6359C30.0979 22.2454 30.7311 22.2454 31.1216 22.6359L35.3642 26.8786C35.7548 27.2691 35.7548 27.9023 35.3642 28.2928L27.8789 35.7781C27.6914 35.9656 27.4371 36.071 27.1718 36.071H22.9292C22.3769 36.071 21.9292 35.6232 21.9292 35.071V30.8283Z" stroke="#164E37" stroke-width="3" stroke-linecap="round" stroke-linejoin="round"/>
</svg>
