<svg width="80" height="80" viewBox="0 0 80 80" fill="none" xmlns="http://www.w3.org/2000/svg">
<rect width="80" height="80" rx="20" fill="#53E77A"/>
<path d="M39.0588 57.4708C47.0395 57.4708 53.5702 51.2626 54.085 43.4122C54.1211 42.8611 53.6699 42.412 53.1176 42.412H40.0588C39.5065 42.412 39.0588 41.9642 39.0588 41.4119L39.0589 28.3531C39.0589 27.8008 38.6098 27.3496 38.0587 27.3858C30.2082 27.9005 24 34.4313 24 42.412C24 50.7287 30.7421 57.4708 39.0588 57.4708Z" stroke="white" stroke-width="3" stroke-linecap="round" stroke-linejoin="round"/>
<path d="M46.6459 24.5769C46.0961 24.5242 45.6471 24.977 45.6471 25.5293V34.6786C45.6471 35.2309 46.0948 35.6786 46.6471 35.6786H55.2036C55.6434 35.6786 56 35.3221 56 34.8822C56 29.5014 51.895 25.0794 46.6459 24.5769Z" stroke="white" stroke-width="3" stroke-linecap="round" stroke-linejoin="round"/>
</svg>
