<svg width="191" height="134" viewBox="0 0 191 134" fill="none" xmlns="http://www.w3.org/2000/svg">
<path d="M0 16C0 7.16345 7.16344 0 16 0H175C183.837 0 191 7.16344 191 16V134H16C7.16344 134 0 126.837 0 118V16Z" fill="white"/>
<rect x="12" y="10" width="26" height="26" rx="8" fill="#117ACA"/>
<path d="M22.9025 14.875C22.5739 14.875 22.3076 15.1412 22.3076 15.4695V19.6394H33.3224L28.3063 14.8754L22.9025 14.875Z" fill="white"/>
<path d="M33.725 20.9009C33.725 20.5718 33.4607 20.3067 33.1301 20.3067H28.9614V31.3219L33.7231 26.3035L33.725 20.9009Z" fill="white"/>
<path d="M27.6986 31.7207C28.0265 31.7207 28.2927 31.454 28.2927 31.125V26.9566H17.2776L22.2944 31.7199L27.6986 31.7207Z" fill="white"/>
<path d="M16.875 25.6955C16.875 26.0242 17.1412 26.292 17.4707 26.292H21.6386V15.2761L16.8758 20.2929L16.875 25.6955Z" fill="white"/>
<path d="M55.7195 21.7536H53.8601C53.8071 21.4486 53.7093 21.1785 53.5668 20.9432C53.4242 20.7045 53.2469 20.5024 53.0348 20.3366C52.8227 20.1709 52.5807 20.0466 52.3089 19.9638C52.0405 19.8776 51.7505 19.8345 51.4389 19.8345C50.8854 19.8345 50.3949 19.9737 49.9673 20.2521C49.5398 20.5272 49.205 20.9316 48.9631 21.4652C48.7211 21.9955 48.6001 22.6435 48.6001 23.4091C48.6001 24.188 48.7211 24.8442 48.9631 25.3778C49.2083 25.9081 49.5431 26.3092 49.9673 26.581C50.3949 26.8494 50.8838 26.9837 51.4339 26.9837C51.7389 26.9837 52.0239 26.9439 52.2891 26.8643C52.5575 26.7815 52.7978 26.6605 53.0099 26.5014C53.2254 26.3423 53.406 26.1468 53.5518 25.9148C53.701 25.6828 53.8037 25.4176 53.8601 25.1193L55.7195 25.1293C55.6499 25.6132 55.4991 26.0672 55.267 26.4915C55.0384 26.9157 54.7384 27.2902 54.3672 27.6151C53.996 27.9366 53.5618 28.1884 53.0646 28.3707C52.5675 28.5497 52.0156 28.6392 51.4091 28.6392C50.5142 28.6392 49.7154 28.4321 49.0128 28.0178C48.3101 27.6035 47.7566 27.0052 47.3523 26.223C46.9479 25.4408 46.7457 24.5028 46.7457 23.4091C46.7457 22.312 46.9496 21.3741 47.3572 20.5952C47.7649 19.813 48.3201 19.2147 49.0227 18.8004C49.7254 18.3861 50.5208 18.179 51.4091 18.179C51.9759 18.179 52.5028 18.2585 52.9901 18.4176C53.4773 18.5767 53.9115 18.8104 54.2926 19.1186C54.6738 19.4235 54.987 19.7981 55.2322 20.2422C55.4808 20.683 55.6432 21.1868 55.7195 21.7536ZM58.9887 24.0256V28.5H57.189V18.3182H58.949V22.1612H59.0384C59.2174 21.7304 59.4942 21.3906 59.8687 21.142C60.2465 20.8902 60.7271 20.7642 61.3105 20.7642C61.8408 20.7642 62.3031 20.8752 62.6975 21.0973C63.0919 21.3194 63.3969 21.6442 63.6123 22.0717C63.8311 22.4993 63.9404 23.0213 63.9404 23.6378V28.5H62.1407V23.9162C62.1407 23.4025 62.0081 23.0031 61.743 22.718C61.4812 22.4297 61.1133 22.2855 60.6393 22.2855C60.3211 22.2855 60.0361 22.3551 59.7842 22.4943C59.5356 22.6302 59.3401 22.8274 59.1975 23.0859C59.0583 23.3445 58.9887 23.6577 58.9887 24.0256ZM67.8324 28.6541C67.3485 28.6541 66.9126 28.5679 66.5249 28.3956C66.1404 28.2199 65.8355 27.9614 65.6101 27.62C65.388 27.2786 65.277 26.8577 65.277 26.3572C65.277 25.9264 65.3565 25.5701 65.5156 25.2884C65.6747 25.0066 65.8918 24.7812 66.1669 24.6122C66.442 24.4432 66.7519 24.3156 67.0966 24.2294C67.4446 24.1399 67.8042 24.0753 68.1754 24.0355C68.6229 23.9891 68.9858 23.9477 69.2642 23.9112C69.5426 23.8714 69.7448 23.8118 69.8707 23.7322C70 23.6494 70.0646 23.5218 70.0646 23.3494V23.3196C70.0646 22.9451 69.9536 22.6551 69.7315 22.4496C69.5095 22.2441 69.1896 22.1413 68.772 22.1413C68.3312 22.1413 67.9815 22.2375 67.723 22.4297C67.4678 22.6219 67.2955 22.849 67.206 23.1108L65.5256 22.8722C65.6582 22.4081 65.8769 22.0204 66.1818 21.7088C66.4867 21.3939 66.8596 21.1586 67.3004 21.0028C67.7412 20.8438 68.2285 20.7642 68.7621 20.7642C69.13 20.7642 69.4962 20.8073 69.8608 20.8935C70.2254 20.9796 70.5585 21.1222 70.8601 21.321C71.1617 21.5166 71.4037 21.7834 71.5859 22.1214C71.7716 22.4595 71.8644 22.8821 71.8644 23.3892V28.5H70.1342V27.451H70.0746C69.9652 27.6631 69.8111 27.862 69.6122 28.0476C69.4167 28.2299 69.1698 28.3774 68.8715 28.4901C68.5765 28.5994 68.2301 28.6541 67.8324 28.6541ZM68.2997 27.3317C68.661 27.3317 68.9742 27.2604 69.2394 27.1179C69.5045 26.9721 69.7083 26.7798 69.8509 26.5412C69.9967 26.3026 70.0696 26.0424 70.0696 25.7607V24.8608C70.0133 24.9072 69.9171 24.9503 69.7813 24.9901C69.6487 25.0298 69.4995 25.0646 69.3338 25.0945C69.1681 25.1243 69.004 25.1508 68.8416 25.174C68.6792 25.1972 68.5384 25.2171 68.419 25.2337C68.1506 25.2701 67.9103 25.3298 67.6982 25.4126C67.486 25.4955 67.3187 25.6115 67.196 25.7607C67.0734 25.9065 67.0121 26.0954 67.0121 26.3274C67.0121 26.6589 67.1331 26.9091 67.375 27.0781C67.617 27.2472 67.9252 27.3317 68.2997 27.3317ZM79.5695 22.8821L77.9289 23.0611C77.8825 22.8954 77.8013 22.7396 77.6853 22.5938C77.5726 22.4479 77.4201 22.3303 77.2279 22.2408C77.0357 22.1513 76.8003 22.1065 76.5219 22.1065C76.1474 22.1065 75.8325 22.1877 75.5773 22.3501C75.3254 22.5125 75.2012 22.723 75.2045 22.9815C75.2012 23.2036 75.2824 23.3842 75.4481 23.5234C75.6171 23.6626 75.8955 23.777 76.2833 23.8665L77.5859 24.1449C78.3084 24.3007 78.8453 24.5476 79.1967 24.8857C79.5513 25.2237 79.7303 25.6662 79.7336 26.2131C79.7303 26.6937 79.5894 27.1179 79.311 27.4858C79.0359 27.8504 78.6531 28.1354 78.1626 28.3409C77.672 28.5464 77.1086 28.6491 76.4722 28.6491C75.5376 28.6491 74.7852 28.4536 74.2151 28.0625C73.645 27.6681 73.3053 27.1196 73.1959 26.4169L74.9509 26.2479C75.0305 26.5926 75.1995 26.8527 75.458 27.0284C75.7165 27.2041 76.053 27.2919 76.4673 27.2919C76.8948 27.2919 77.2378 27.2041 77.4964 27.0284C77.7582 26.8527 77.8891 26.6357 77.8891 26.3771C77.8891 26.1584 77.8046 25.9777 77.6356 25.8352C77.4699 25.6927 77.2113 25.5833 76.86 25.5071L75.5575 25.2337C74.825 25.0812 74.2831 24.8243 73.9317 24.4631C73.5804 24.0985 73.4064 23.6378 73.4097 23.081C73.4064 22.6103 73.534 22.2027 73.7925 21.858C74.0544 21.5099 74.4173 21.2415 74.8813 21.0526C75.3486 20.8603 75.8872 20.7642 76.4971 20.7642C77.392 20.7642 78.0963 20.9548 78.61 21.3359C79.1271 21.7171 79.4469 22.2325 79.5695 22.8821ZM84.4583 28.6491C83.6927 28.6491 83.0314 28.4901 82.4746 28.1719C81.9211 27.8504 81.4952 27.3963 81.1969 26.8097C80.8986 26.2197 80.7495 25.5253 80.7495 24.7266C80.7495 23.9411 80.8986 23.2517 81.1969 22.6584C81.4985 22.0618 81.9195 21.5978 82.4597 21.2663C83 20.9316 83.6347 20.7642 84.3638 20.7642C84.8345 20.7642 85.2786 20.8404 85.6962 20.9929C86.1171 21.142 86.4884 21.3741 86.8098 21.6889C87.1347 22.0038 87.3899 22.4048 87.5755 22.892C87.7611 23.3759 87.8539 23.9527 87.8539 24.6222V25.174H81.5947V23.9609H86.1287C86.1254 23.6162 86.0509 23.3097 85.905 23.0412C85.7592 22.7694 85.5554 22.5556 85.2935 22.3999C85.035 22.2441 84.7334 22.1662 84.3887 22.1662C84.0208 22.1662 83.6976 22.2557 83.4192 22.4347C83.1408 22.6103 82.9237 22.8423 82.7679 23.1307C82.6155 23.4157 82.5376 23.7289 82.5343 24.0703V25.1293C82.5343 25.5734 82.6155 25.9545 82.7779 26.2727C82.9403 26.5876 83.1673 26.8295 83.459 26.9986C83.7507 27.1643 84.092 27.2472 84.4831 27.2472C84.745 27.2472 84.982 27.2107 85.1941 27.1378C85.4062 27.0616 85.5902 26.9505 85.7459 26.8047C85.9017 26.6589 86.0194 26.4782 86.0989 26.2628L87.7793 26.4517C87.6732 26.8958 87.4711 27.2836 87.1728 27.6151C86.8778 27.9432 86.5 28.1984 86.0393 28.3807C85.5786 28.5597 85.0516 28.6491 84.4583 28.6491ZM92.6486 28.5V18.3182H96.5464C97.2822 18.3182 97.8937 18.4342 98.3809 18.6662C98.8714 18.8949 99.2377 19.2081 99.4796 19.6058C99.7249 20.0036 99.8475 20.4543 99.8475 20.9581C99.8475 21.3724 99.768 21.727 99.6089 22.022C99.4498 22.3137 99.236 22.5507 98.9675 22.733C98.6991 22.9152 98.3991 23.0462 98.0677 23.1257V23.2251C98.4289 23.245 98.7753 23.3561 99.1067 23.5582C99.4415 23.7571 99.7149 24.0388 99.927 24.4034C100.139 24.768 100.245 25.2088 100.245 25.7259C100.245 26.2528 100.118 26.7268 99.8624 27.1477C99.6072 27.5653 99.2227 27.8951 98.709 28.1371C98.1953 28.379 97.549 28.5 96.7701 28.5H92.6486ZM94.4931 26.9588H96.4768C97.1463 26.9588 97.6285 26.8312 97.9235 26.576C98.2218 26.3175 98.3709 25.986 98.3709 25.5817C98.3709 25.2801 98.2964 25.0083 98.1472 24.7663C97.9981 24.5211 97.7859 24.3288 97.5109 24.1896C97.2358 24.0471 96.9076 23.9759 96.5265 23.9759H94.4931V26.9588ZM94.4931 22.6484H96.3177C96.6359 22.6484 96.9225 22.5904 97.1778 22.4744C97.433 22.3551 97.6335 22.1877 97.7793 21.9723C97.9285 21.7536 98.003 21.495 98.003 21.1967C98.003 20.8023 97.8638 20.4775 97.5854 20.2223C97.3103 19.9671 96.901 19.8395 96.3574 19.8395H94.4931V22.6484ZM103.828 28.6541C103.344 28.6541 102.908 28.5679 102.52 28.3956C102.136 28.2199 101.831 27.9614 101.605 27.62C101.383 27.2786 101.272 26.8577 101.272 26.3572C101.272 25.9264 101.352 25.5701 101.511 25.2884C101.67 25.0066 101.887 24.7812 102.162 24.6122C102.437 24.4432 102.747 24.3156 103.092 24.2294C103.44 24.1399 103.8 24.0753 104.171 24.0355C104.618 23.9891 104.981 23.9477 105.26 23.9112C105.538 23.8714 105.74 23.8118 105.866 23.7322C105.995 23.6494 106.06 23.5218 106.06 23.3494V23.3196C106.06 22.9451 105.949 22.6551 105.727 22.4496C105.505 22.2441 105.185 22.1413 104.767 22.1413C104.327 22.1413 103.977 22.2375 103.718 22.4297C103.463 22.6219 103.291 22.849 103.201 23.1108L101.521 22.8722C101.653 22.4081 101.872 22.0204 102.177 21.7088C102.482 21.3939 102.855 21.1586 103.296 21.0028C103.737 20.8438 104.224 20.7642 104.757 20.7642C105.125 20.7642 105.492 20.8073 105.856 20.8935C106.221 20.9796 106.554 21.1222 106.855 21.321C107.157 21.5166 107.399 21.7834 107.581 22.1214C107.767 22.4595 107.86 22.8821 107.86 23.3892V28.5H106.13V27.451H106.07C105.961 27.6631 105.806 27.862 105.608 28.0476C105.412 28.2299 105.165 28.3774 104.867 28.4901C104.572 28.5994 104.225 28.6541 103.828 28.6541ZM104.295 27.3317C104.656 27.3317 104.97 27.2604 105.235 27.1179C105.5 26.9721 105.704 26.7798 105.846 26.5412C105.992 26.3026 106.065 26.0424 106.065 25.7607V24.8608C106.009 24.9072 105.912 24.9503 105.777 24.9901C105.644 25.0298 105.495 25.0646 105.329 25.0945C105.163 25.1243 104.999 25.1508 104.837 25.174C104.675 25.1972 104.534 25.2171 104.414 25.2337C104.146 25.2701 103.906 25.3298 103.693 25.4126C103.481 25.4955 103.314 25.6115 103.191 25.7607C103.069 25.9065 103.007 26.0954 103.007 26.3274C103.007 26.6589 103.128 26.9091 103.37 27.0781C103.612 27.2472 103.921 27.3317 104.295 27.3317ZM111.329 24.0256V28.5H109.529V20.8636H111.249V22.1612H111.339C111.515 21.7337 111.795 21.3939 112.179 21.142C112.567 20.8902 113.046 20.7642 113.616 20.7642C114.143 20.7642 114.602 20.8769 114.993 21.1023C115.388 21.3277 115.692 21.6541 115.908 22.0817C116.127 22.5092 116.234 23.0279 116.231 23.6378V28.5H114.431V23.9162C114.431 23.4058 114.299 23.0064 114.034 22.718C113.772 22.4297 113.409 22.2855 112.945 22.2855C112.63 22.2855 112.35 22.3551 112.105 22.4943C111.863 22.6302 111.672 22.8274 111.533 23.0859C111.397 23.3445 111.329 23.6577 111.329 24.0256ZM119.561 26.1037L119.556 23.9311H119.845L122.589 20.8636H124.692L121.316 24.6222H120.943L119.561 26.1037ZM117.921 28.5V18.3182H119.72V28.5H117.921ZM122.713 28.5L120.227 25.0249L121.44 23.7571L124.866 28.5H122.713Z" fill="black"/>
<path d="M13.9787 60H12.348L16.0121 49.8182H17.7869L21.451 60H19.8203L16.9418 51.6676H16.8622L13.9787 60ZM14.2521 56.0128H19.5419V57.3054H14.2521V56.0128ZM22.662 62.8636V52.3636H24.1137V53.6016H24.238C24.3242 53.4425 24.4485 53.2585 24.6109 53.0497C24.7733 52.8409 24.9987 52.6586 25.287 52.5028C25.5754 52.3438 25.9565 52.2642 26.4305 52.2642C27.047 52.2642 27.5972 52.42 28.0811 52.7315C28.565 53.0431 28.9445 53.4922 29.2196 54.0788C29.498 54.6655 29.6372 55.3714 29.6372 56.1967C29.6372 57.022 29.4996 57.7296 29.2245 58.3196C28.9494 58.9062 28.5716 59.3587 28.091 59.6768C27.6104 59.9917 27.0619 60.1491 26.4454 60.1491C25.9814 60.1491 25.6019 60.0713 25.3069 59.9155C25.0152 59.7597 24.7866 59.5774 24.6208 59.3686C24.4551 59.1598 24.3275 58.9742 24.238 58.8118H24.1485V62.8636H22.662ZM24.1187 56.1818C24.1187 56.7187 24.1966 57.1894 24.3524 57.5938C24.5081 57.9981 24.7335 58.3146 25.0285 58.5433C25.3235 58.7687 25.6848 58.8814 26.1123 58.8814C26.5564 58.8814 26.9276 58.7637 27.2259 58.5284C27.5242 58.2898 27.7496 57.9666 27.9021 57.5589C28.0579 57.1513 28.1357 56.6922 28.1357 56.1818C28.1357 55.678 28.0595 55.2256 27.9071 54.8246C27.7579 54.4235 27.5325 54.107 27.2309 53.875C26.9326 53.643 26.5598 53.527 26.1123 53.527C25.6814 53.527 25.3169 53.638 25.0186 53.8601C24.7236 54.0821 24.4999 54.392 24.3474 54.7898C24.1949 55.1875 24.1187 55.6515 24.1187 56.1818ZM31.1626 62.8636V52.3636H32.6144V53.6016H32.7386C32.8248 53.4425 32.9491 53.2585 33.1115 53.0497C33.2739 52.8409 33.4993 52.6586 33.7876 52.5028C34.076 52.3438 34.4572 52.2642 34.9311 52.2642C35.5476 52.2642 36.0978 52.42 36.5817 52.7315C37.0656 53.0431 37.4451 53.4922 37.7202 54.0788C37.9986 54.6655 38.1378 55.3714 38.1378 56.1967C38.1378 57.022 38.0002 57.7296 37.7251 58.3196C37.4501 58.9062 37.0722 59.3587 36.5916 59.6768C36.111 59.9917 35.5625 60.1491 34.946 60.1491C34.482 60.1491 34.1025 60.0713 33.8075 59.9155C33.5159 59.7597 33.2872 59.5774 33.1215 59.3686C32.9557 59.1598 32.8281 58.9742 32.7386 58.8118H32.6492V62.8636H31.1626ZM32.6193 56.1818C32.6193 56.7187 32.6972 57.1894 32.853 57.5938C33.0088 57.9981 33.2341 58.3146 33.5291 58.5433C33.8241 58.7687 34.1854 58.8814 34.6129 58.8814C35.0571 58.8814 35.4283 58.7637 35.7266 58.5284C36.0249 58.2898 36.2502 57.9666 36.4027 57.5589C36.5585 57.1513 36.6364 56.6922 36.6364 56.1818C36.6364 55.678 36.5601 55.2256 36.4077 54.8246C36.2585 54.4235 36.0332 54.107 35.7315 53.875C35.4332 53.643 35.0604 53.527 34.6129 53.527C34.1821 53.527 33.8175 53.638 33.5192 53.8601C33.2242 54.0821 33.0005 54.392 32.848 54.7898C32.6956 55.1875 32.6193 55.6515 32.6193 56.1818ZM39.6633 60V52.3636H41.1001V53.5767H41.1796C41.3188 53.1657 41.5641 52.8426 41.9154 52.6072C42.27 52.3686 42.6711 52.2493 43.1185 52.2493C43.2113 52.2493 43.3207 52.2526 43.4467 52.2592C43.5759 52.2659 43.677 52.2741 43.7499 52.2841V53.706C43.6903 53.6894 43.5842 53.6712 43.4317 53.6513C43.2793 53.6281 43.1268 53.6165 42.9744 53.6165C42.623 53.6165 42.3098 53.6911 42.0347 53.8402C41.7629 53.986 41.5475 54.1899 41.3884 54.4517C41.2293 54.7102 41.1498 55.0052 41.1498 55.3366V60H39.6633ZM47.8395 60.1541C47.1236 60.1541 46.4988 59.9901 45.9652 59.6619C45.4316 59.3338 45.0173 58.8748 44.7223 58.2848C44.4273 57.6948 44.2798 57.0054 44.2798 56.2166C44.2798 55.4245 44.4273 54.7318 44.7223 54.1385C45.0173 53.5452 45.4316 53.0845 45.9652 52.7564C46.4988 52.4283 47.1236 52.2642 47.8395 52.2642C48.5554 52.2642 49.1802 52.4283 49.7138 52.7564C50.2474 53.0845 50.6617 53.5452 50.9567 54.1385C51.2517 54.7318 51.3992 55.4245 51.3992 56.2166C51.3992 57.0054 51.2517 57.6948 50.9567 58.2848C50.6617 58.8748 50.2474 59.3338 49.7138 59.6619C49.1802 59.9901 48.5554 60.1541 47.8395 60.1541ZM47.8445 58.9062C48.3085 58.9062 48.693 58.7836 48.9979 58.5384C49.3028 58.2931 49.5282 57.9666 49.674 57.5589C49.8232 57.1513 49.8977 56.7022 49.8977 56.2116C49.8977 55.7244 49.8232 55.277 49.674 54.8693C49.5282 54.4583 49.3028 54.1286 48.9979 53.88C48.693 53.6314 48.3085 53.5071 47.8445 53.5071C47.3771 53.5071 46.9894 53.6314 46.6811 53.88C46.3762 54.1286 46.1492 54.4583 46 54.8693C45.8542 55.277 45.7813 55.7244 45.7813 56.2116C45.7813 56.7022 45.8542 57.1513 46 57.5589C46.1492 57.9666 46.3762 58.2931 46.6811 58.5384C46.9894 58.7836 47.3771 58.9062 47.8445 58.9062ZM59.1913 52.3636L56.4222 60H54.8312L52.0571 52.3636H53.653L55.5869 58.2401H55.6665L57.5955 52.3636H59.1913ZM63.4798 60.1541C62.7274 60.1541 62.0794 59.9934 61.5359 59.6719C60.9956 59.3471 60.578 58.8913 60.283 58.3047C59.9914 57.7147 59.8455 57.0237 59.8455 56.2315C59.8455 55.4493 59.9914 54.7599 60.283 54.1634C60.578 53.5668 60.989 53.1011 61.516 52.7663C62.0463 52.4316 62.6661 52.2642 63.3754 52.2642C63.8062 52.2642 64.2239 52.3355 64.6282 52.478C65.0326 52.6205 65.3955 52.8442 65.717 53.1491C66.0385 53.4541 66.292 53.8501 66.4776 54.3374C66.6633 54.8213 66.7561 55.4096 66.7561 56.1023V56.6293H60.6857V55.5156H65.2994C65.2994 55.1245 65.2198 54.7782 65.0607 54.4766C64.9017 54.1716 64.6779 53.9313 64.3896 53.7557C64.1045 53.58 63.7698 53.4922 63.3853 53.4922C62.9677 53.4922 62.6031 53.5949 62.2916 53.8004C61.9833 54.0026 61.7447 54.2678 61.5757 54.5959C61.4099 54.9207 61.3271 55.2737 61.3271 55.6548V56.5249C61.3271 57.0353 61.4166 57.4695 61.5955 57.8274C61.7778 58.1854 62.0314 58.4588 62.3562 58.6477C62.681 58.8333 63.0605 58.9261 63.4947 58.9261C63.7764 58.9261 64.0333 58.8864 64.2653 58.8068C64.4973 58.724 64.6978 58.6013 64.8669 58.4389C65.0359 58.2765 65.1651 58.076 65.2546 57.8374L66.6616 58.0909C66.5489 58.5052 66.3467 58.8681 66.0551 59.1797C65.7667 59.4879 65.4038 59.7282 64.9663 59.9006C64.5321 60.0696 64.0366 60.1541 63.4798 60.1541ZM71.124 60.1491C70.5076 60.1491 69.9574 59.9917 69.4735 59.6768C68.9929 59.3587 68.6151 58.9062 68.34 58.3196C68.0682 57.7296 67.9323 57.022 67.9323 56.1967C67.9323 55.3714 68.0698 54.6655 68.3449 54.0788C68.6233 53.4922 69.0045 53.0431 69.4884 52.7315C69.9723 52.42 70.5208 52.2642 71.134 52.2642C71.608 52.2642 71.9891 52.3438 72.2775 52.5028C72.5691 52.6586 72.7945 52.8409 72.9536 53.0497C73.116 53.2585 73.2419 53.4425 73.3314 53.6016H73.4209V49.8182H74.9074V60H73.4557V58.8118H73.3314C73.2419 58.9742 73.1127 59.1598 72.9437 59.3686C72.7779 59.5774 72.5492 59.7597 72.2576 59.9155C71.9659 60.0713 71.5881 60.1491 71.124 60.1491ZM71.4522 58.8814C71.8797 58.8814 72.241 58.7687 72.536 58.5433C72.8343 58.3146 73.0597 57.9981 73.2121 57.5938C73.3679 57.1894 73.4458 56.7187 73.4458 56.1818C73.4458 55.6515 73.3696 55.1875 73.2171 54.7898C73.0646 54.392 72.8409 54.0821 72.5459 53.8601C72.2509 53.638 71.8864 53.527 71.4522 53.527C71.0047 53.527 70.6319 53.643 70.3336 53.875C70.0353 54.107 69.8099 54.4235 69.6574 54.8246C69.5083 55.2256 69.4337 55.678 69.4337 56.1818C69.4337 56.6922 69.5099 57.1513 69.6624 57.5589C69.8149 57.9666 70.0402 58.2898 70.3385 58.5284C70.6401 58.7637 71.0114 58.8814 71.4522 58.8814ZM78.7633 49.8182L78.6341 57.0717H77.257L77.1277 49.8182H78.7633ZM77.948 60.0945C77.6729 60.0945 77.4376 59.9983 77.242 59.8061C77.0465 59.6106 76.9504 59.3752 76.9537 59.1001C76.9504 58.8284 77.0465 58.5964 77.242 58.4041C77.4376 58.2086 77.6729 58.1108 77.948 58.1108C78.2165 58.1108 78.4485 58.2086 78.644 58.4041C78.8396 58.5964 78.939 58.8284 78.9423 59.1001C78.939 59.2824 78.891 59.4498 78.7981 59.6023C78.7087 59.7514 78.5893 59.8707 78.4402 59.9602C78.291 60.0497 78.127 60.0945 77.948 60.0945ZM84.5487 60V49.8182H86.0849V58.6776H90.6985V60H84.5487ZM92.1917 60V52.3636H93.6782V60H92.1917ZM92.9424 51.1854C92.6839 51.1854 92.4618 51.0992 92.2762 50.9268C92.0939 50.7512 92.0028 50.5424 92.0028 50.3004C92.0028 50.0552 92.0939 49.8464 92.2762 49.674C92.4618 49.4983 92.6839 49.4105 92.9424 49.4105C93.2009 49.4105 93.4214 49.4983 93.6036 49.674C93.7892 49.8464 93.8821 50.0552 93.8821 50.3004C93.8821 50.5424 93.7892 50.7512 93.6036 50.9268C93.4214 51.0992 93.2009 51.1854 92.9424 51.1854ZM95.538 60V52.3636H96.9649V53.6065H97.0593C97.2184 53.1856 97.4786 52.8575 97.8399 52.6222C98.2012 52.3835 98.6337 52.2642 99.1375 52.2642C99.6479 52.2642 100.075 52.3835 100.42 52.6222C100.768 52.8608 101.025 53.1889 101.191 53.6065H101.27C101.453 53.1989 101.743 52.8741 102.14 52.6321C102.538 52.3868 103.012 52.2642 103.562 52.2642C104.255 52.2642 104.82 52.4813 105.257 52.9155C105.698 53.3497 105.919 54.0043 105.919 54.8793V60H104.432V55.0185C104.432 54.5014 104.291 54.1269 104.01 53.8949C103.728 53.6629 103.391 53.5469 103 53.5469C102.516 53.5469 102.14 53.696 101.872 53.9943C101.603 54.2893 101.469 54.6688 101.469 55.1328V60H99.9876V54.924C99.9876 54.5097 99.8584 54.1766 99.5998 53.9247C99.3413 53.6728 99.0049 53.5469 98.5906 53.5469C98.3089 53.5469 98.0487 53.6214 97.8101 53.7706C97.5747 53.9164 97.3842 54.1203 97.2383 54.3821C97.0958 54.6439 97.0245 54.9472 97.0245 55.2919V60H95.538ZM107.771 60V52.3636H109.258V60H107.771ZM108.522 51.1854C108.263 51.1854 108.041 51.0992 107.856 50.9268C107.673 50.7512 107.582 50.5424 107.582 50.3004C107.582 50.0552 107.673 49.8464 107.856 49.674C108.041 49.4983 108.263 49.4105 108.522 49.4105C108.78 49.4105 109.001 49.4983 109.183 49.674C109.369 49.8464 109.461 50.0552 109.461 50.3004C109.461 50.5424 109.369 50.7512 109.183 50.9268C109.001 51.0992 108.78 51.1854 108.522 51.1854ZM114.682 52.3636V53.5568H110.511V52.3636H114.682ZM111.629 50.5341H113.116V57.7578C113.116 58.0462 113.159 58.2633 113.245 58.4091C113.331 58.5516 113.442 58.6494 113.578 58.7024C113.718 58.7521 113.868 58.777 114.031 58.777C114.15 58.777 114.254 58.7687 114.344 58.7521C114.433 58.7356 114.503 58.7223 114.553 58.7124L114.821 59.9403C114.735 59.9735 114.612 60.0066 114.453 60.0398C114.294 60.0762 114.095 60.0961 113.857 60.0994C113.466 60.1061 113.101 60.0365 112.763 59.8906C112.425 59.7448 112.152 59.5194 111.943 59.2145C111.734 58.9096 111.629 58.5268 111.629 58.0661V50.5341ZM124.589 56.8331V52.3636H126.08V60H124.619V58.6776H124.539C124.363 59.0852 124.082 59.425 123.694 59.6967C123.309 59.9652 122.831 60.0994 122.257 60.0994C121.767 60.0994 121.332 59.9917 120.955 59.7763C120.58 59.5575 120.285 59.2344 120.07 58.8068C119.858 58.3793 119.751 57.8506 119.751 57.2209V52.3636H121.238V57.0419C121.238 57.5623 121.382 57.9766 121.671 58.2848C121.959 58.593 122.333 58.7472 122.794 58.7472C123.073 58.7472 123.349 58.6776 123.624 58.5384C123.903 58.3991 124.133 58.1887 124.315 57.907C124.501 57.6252 124.592 57.2673 124.589 56.8331ZM127.938 62.8636V52.3636H129.389V53.6016H129.514C129.6 53.4425 129.724 53.2585 129.887 53.0497C130.049 52.8409 130.274 52.6586 130.563 52.5028C130.851 52.3438 131.232 52.2642 131.706 52.2642C132.323 52.2642 132.873 52.42 133.357 52.7315C133.841 53.0431 134.22 53.4922 134.495 54.0788C134.774 54.6655 134.913 55.3714 134.913 56.1967C134.913 57.022 134.775 57.7296 134.5 58.3196C134.225 58.9062 133.847 59.3587 133.367 59.6768C132.886 59.9917 132.338 60.1491 131.721 60.1491C131.257 60.1491 130.878 60.0713 130.583 59.9155C130.291 59.7597 130.062 59.5774 129.896 59.3686C129.731 59.1598 129.603 58.9742 129.514 58.8118H129.424V62.8636H127.938ZM129.394 56.1818C129.394 56.7187 129.472 57.1894 129.628 57.5938C129.784 57.9981 130.009 58.3146 130.304 58.5433C130.599 58.7687 130.96 58.8814 131.388 58.8814C131.832 58.8814 132.203 58.7637 132.502 58.5284C132.8 58.2898 133.025 57.9666 133.178 57.5589C133.333 57.1513 133.411 56.6922 133.411 56.1818C133.411 55.678 133.335 55.2256 133.183 54.8246C133.034 54.4235 132.808 54.107 132.507 53.875C132.208 53.643 131.835 53.527 131.388 53.527C130.957 53.527 130.592 53.638 130.294 53.8601C129.999 54.0821 129.775 54.392 129.623 54.7898C129.471 55.1875 129.394 55.6515 129.394 56.1818ZM143.568 52.3636V53.5568H139.397V52.3636H143.568ZM140.515 50.5341H142.002V57.7578C142.002 58.0462 142.045 58.2633 142.131 58.4091C142.217 58.5516 142.328 58.6494 142.464 58.7024C142.603 58.7521 142.754 58.777 142.917 58.777C143.036 58.777 143.14 58.7687 143.23 58.7521C143.319 58.7356 143.389 58.7223 143.439 58.7124L143.707 59.9403C143.621 59.9735 143.498 60.0066 143.339 60.0398C143.18 60.0762 142.981 60.0961 142.743 60.0994C142.352 60.1061 141.987 60.0365 141.649 59.8906C141.311 59.7448 141.037 59.5194 140.829 59.2145C140.62 58.9096 140.515 58.5268 140.515 58.0661V50.5341ZM148.207 60.1541C147.491 60.1541 146.866 59.9901 146.333 59.6619C145.799 59.3338 145.385 58.8748 145.09 58.2848C144.795 57.6948 144.647 57.0054 144.647 56.2166C144.647 55.4245 144.795 54.7318 145.09 54.1385C145.385 53.5452 145.799 53.0845 146.333 52.7564C146.866 52.4283 147.491 52.2642 148.207 52.2642C148.923 52.2642 149.548 52.4283 150.081 52.7564C150.615 53.0845 151.029 53.5452 151.324 54.1385C151.619 54.7318 151.767 55.4245 151.767 56.2166C151.767 57.0054 151.619 57.6948 151.324 58.2848C151.029 58.8748 150.615 59.3338 150.081 59.6619C149.548 59.9901 148.923 60.1541 148.207 60.1541ZM148.212 58.9062C148.676 58.9062 149.06 58.7836 149.365 58.5384C149.67 58.2931 149.896 57.9666 150.041 57.5589C150.191 57.1513 150.265 56.7022 150.265 56.2116C150.265 55.7244 150.191 55.277 150.041 54.8693C149.896 54.4583 149.67 54.1286 149.365 53.88C149.06 53.6314 148.676 53.5071 148.212 53.5071C147.745 53.5071 147.357 53.6314 147.049 53.88C146.744 54.1286 146.517 54.4583 146.367 54.8693C146.222 55.277 146.149 55.7244 146.149 56.2116C146.149 56.7022 146.222 57.1513 146.367 57.5589C146.517 57.9666 146.744 58.2931 147.049 58.5384C147.357 58.7836 147.745 58.9062 148.212 58.9062ZM16.1214 79.2727V66.5455H16.9368V79.2727H16.1214ZM18.6719 70.4929C18.6188 70.0223 18.4001 69.6577 18.0156 69.3991C17.6312 69.1373 17.1473 69.0064 16.5639 69.0064C16.1463 69.0064 15.785 69.0727 15.4801 69.2053C15.1752 69.3345 14.9382 69.5135 14.7692 69.7422C14.6035 69.9676 14.5206 70.2244 14.5206 70.5128C14.5206 70.7547 14.5769 70.9635 14.6896 71.1392C14.8056 71.3149 14.9564 71.4624 15.142 71.5817C15.331 71.6977 15.5331 71.7955 15.7486 71.875C15.964 71.9512 16.1712 72.0142 16.37 72.0639L17.3643 72.3224C17.6892 72.402 18.0223 72.5097 18.3636 72.6456C18.705 72.7815 19.0215 72.9605 19.3132 73.1825C19.6049 73.4046 19.8402 73.6797 20.0192 74.0078C20.2015 74.3359 20.2926 74.7287 20.2926 75.1861C20.2926 75.7628 20.1435 76.2749 19.8452 76.7223C19.5502 77.1697 19.121 77.5227 18.5575 77.7812C17.9974 78.0398 17.3196 78.169 16.5241 78.169C15.7618 78.169 15.1023 78.0481 14.5455 77.8061C13.9886 77.5642 13.5528 77.2211 13.2379 76.777C12.9231 76.3295 12.7491 75.7992 12.7159 75.1861H14.2571C14.2869 75.554 14.4063 75.8606 14.6151 76.1058C14.8272 76.3478 15.0973 76.5284 15.4254 76.6477C15.7569 76.7637 16.1198 76.8217 16.5142 76.8217C16.9484 76.8217 17.3345 76.7538 17.6726 76.6179C18.014 76.4787 18.2824 76.2865 18.478 76.0412C18.6735 75.7926 18.7713 75.5026 18.7713 75.1712C18.7713 74.8696 18.6851 74.6226 18.5128 74.4304C18.3438 74.2382 18.1134 74.0791 17.8217 73.9531C17.5334 73.8272 17.2069 73.7161 16.8423 73.62L15.6392 73.2919C14.8239 73.0698 14.1776 72.7434 13.7003 72.3125C13.2263 71.8816 12.9893 71.3116 12.9893 70.6023C12.9893 70.0156 13.1484 69.5036 13.4666 69.0661C13.7848 68.6286 14.2157 68.2888 14.7592 68.0469C15.3028 67.8016 15.916 67.679 16.5987 67.679C17.2881 67.679 17.8963 67.8 18.4233 68.0419C18.9536 68.2839 19.3712 68.617 19.6761 69.0412C19.9811 69.4621 20.1402 69.946 20.1534 70.4929H18.6719ZM21.8492 78V76.8864L25.2945 73.3168C25.6624 72.929 25.9656 72.5893 26.2043 72.2976C26.4462 72.0026 26.6269 71.7225 26.7462 71.4574C26.8655 71.1922 26.9252 70.9105 26.9252 70.6122C26.9252 70.2741 26.8456 69.9825 26.6865 69.7372C26.5274 69.4886 26.3103 69.2981 26.0352 69.1655C25.7602 69.0296 25.4503 68.9616 25.1056 68.9616C24.741 68.9616 24.4228 69.0362 24.151 69.1854C23.8792 69.3345 23.6704 69.545 23.5246 69.8168C23.3788 70.0885 23.3058 70.4067 23.3058 70.7713H21.8392C21.8392 70.1515 21.9817 69.6096 22.2668 69.1456C22.5518 68.6816 22.9429 68.322 23.4401 68.0668C23.9372 67.8082 24.5023 67.679 25.1354 67.679C25.7751 67.679 26.3385 67.8066 26.8257 68.0618C27.3163 68.3137 27.6991 68.6584 27.9742 69.0959C28.2493 69.5301 28.3868 70.0206 28.3868 70.5675C28.3868 70.9453 28.3156 71.3149 28.173 71.6761C28.0338 72.0374 27.7902 72.4401 27.4422 72.8842C27.0942 73.325 26.6103 73.8603 25.9905 74.4901L23.9671 76.608V76.6825H28.5509V78H21.8492ZM33.8399 78.169C33.0543 78.1657 32.3832 77.9586 31.8264 77.5476C31.2695 77.1366 30.8436 76.5384 30.5487 75.7528C30.2537 74.9673 30.1062 74.0211 30.1062 72.9141C30.1062 71.8104 30.2537 70.8674 30.5487 70.0852C30.847 69.303 31.2745 68.7064 31.8313 68.2955C32.3915 67.8845 33.061 67.679 33.8399 67.679C34.6187 67.679 35.2866 67.8861 35.8434 68.3004C36.4002 68.7114 36.8261 69.308 37.1211 70.0902C37.4194 70.8691 37.5685 71.8104 37.5685 72.9141C37.5685 74.0244 37.4211 74.9723 37.1261 75.7578C36.8311 76.54 36.4052 77.1383 35.8484 77.5526C35.2916 77.9635 34.622 78.169 33.8399 78.169ZM33.8399 76.8416C34.5292 76.8416 35.0678 76.5052 35.4556 75.8324C35.8467 75.1596 36.0423 74.1868 36.0423 72.9141C36.0423 72.0689 35.9528 71.3546 35.7738 70.7713C35.5981 70.1847 35.3446 69.7405 35.0131 69.4389C34.685 69.134 34.2939 68.9815 33.8399 68.9815C33.1538 68.9815 32.6152 69.3196 32.2241 69.9957C31.833 70.6719 31.6358 71.6446 31.6325 72.9141C31.6325 73.7625 31.7203 74.4801 31.896 75.0668C32.0749 75.6501 32.3285 76.0926 32.6566 76.3942C32.9847 76.6925 33.3791 76.8416 33.8399 76.8416ZM40.7769 76.608L40.7023 77.1499C40.6526 77.5476 40.5681 77.9619 40.4488 78.3928C40.3328 78.8269 40.2118 79.2296 40.0859 79.6009C39.9632 79.9721 39.8621 80.267 39.7826 80.4858H38.7286C38.7717 80.2803 38.8314 80.0019 38.9076 79.6506C38.9838 79.3026 39.0584 78.9131 39.1313 78.4822C39.2042 78.0514 39.2589 77.6122 39.2954 77.1648L39.3451 76.608H40.7769ZM45.8919 78.169C45.1064 78.1657 44.4352 77.9586 43.8784 77.5476C43.3216 77.1366 42.8957 76.5384 42.6007 75.7528C42.3057 74.9673 42.1582 74.0211 42.1582 72.9141C42.1582 71.8104 42.3057 70.8674 42.6007 70.0852C42.899 69.303 43.3265 68.7064 43.8834 68.2955C44.4435 67.8845 45.113 67.679 45.8919 67.679C46.6708 67.679 47.3386 67.8861 47.8954 68.3004C48.4523 68.7114 48.8782 69.308 49.1731 70.0902C49.4714 70.8691 49.6206 71.8104 49.6206 72.9141C49.6206 74.0244 49.4731 74.9723 49.1781 75.7578C48.8831 76.54 48.4572 77.1383 47.9004 77.5526C47.3436 77.9635 46.6741 78.169 45.8919 78.169ZM45.8919 76.8416C46.5813 76.8416 47.1199 76.5052 47.5076 75.8324C47.8987 75.1596 48.0943 74.1868 48.0943 72.9141C48.0943 72.0689 48.0048 71.3546 47.8258 70.7713C47.6502 70.1847 47.3966 69.7405 47.0652 69.4389C46.7371 69.134 46.346 68.9815 45.8919 68.9815C45.2058 68.9815 44.6672 69.3196 44.2761 69.9957C43.885 70.6719 43.6878 71.6446 43.6845 72.9141C43.6845 73.7625 43.7723 74.4801 43.948 75.0668C44.127 75.6501 44.3805 76.0926 44.7086 76.3942C45.0368 76.6925 45.4312 76.8416 45.8919 76.8416ZM54.789 78.169C54.0035 78.1657 53.3323 77.9586 52.7755 77.5476C52.2187 77.1366 51.7928 76.5384 51.4978 75.7528C51.2028 74.9673 51.0553 74.0211 51.0553 72.9141C51.0553 71.8104 51.2028 70.8674 51.4978 70.0852C51.7961 69.303 52.2236 68.7064 52.7805 68.2955C53.3406 67.8845 54.0101 67.679 54.789 67.679C55.5679 67.679 56.2357 67.8861 56.7925 68.3004C57.3494 68.7114 57.7753 69.308 58.0702 70.0902C58.3685 70.8691 58.5177 71.8104 58.5177 72.9141C58.5177 74.0244 58.3702 74.9723 58.0752 75.7578C57.7802 76.54 57.3543 77.1383 56.7975 77.5526C56.2407 77.9635 55.5712 78.169 54.789 78.169ZM54.789 76.8416C55.4784 76.8416 56.017 76.5052 56.4048 75.8324C56.7959 75.1596 56.9914 74.1868 56.9914 72.9141C56.9914 72.0689 56.9019 71.3546 56.7229 70.7713C56.5473 70.1847 56.2937 69.7405 55.9623 69.4389C55.6342 69.134 55.2431 68.9815 54.789 68.9815C54.1029 68.9815 53.5643 69.3196 53.1732 69.9957C52.7821 70.6719 52.5849 71.6446 52.5816 72.9141C52.5816 73.7625 52.6694 74.4801 52.8451 75.0668C53.0241 75.6501 53.2776 76.0926 53.6058 76.3942C53.9339 76.6925 54.3283 76.8416 54.789 76.8416ZM63.6861 78.169C62.9006 78.1657 62.2294 77.9586 61.6726 77.5476C61.1158 77.1366 60.6899 76.5384 60.3949 75.7528C60.0999 74.9673 59.9524 74.0211 59.9524 72.9141C59.9524 71.8104 60.0999 70.8674 60.3949 70.0852C60.6932 69.303 61.1208 68.7064 61.6776 68.2955C62.2377 67.8845 62.9072 67.679 63.6861 67.679C64.465 67.679 65.1328 67.8861 65.6897 68.3004C66.2465 68.7114 66.6724 69.308 66.9674 70.0902C67.2656 70.8691 67.4148 71.8104 67.4148 72.9141C67.4148 74.0244 67.2673 74.9723 66.9723 75.7578C66.6773 76.54 66.2514 77.1383 65.6946 77.5526C65.1378 77.9635 64.4683 78.169 63.6861 78.169ZM63.6861 76.8416C64.3755 76.8416 64.9141 76.5052 65.3019 75.8324C65.693 75.1596 65.8885 74.1868 65.8885 72.9141C65.8885 72.0689 65.799 71.3546 65.62 70.7713C65.4444 70.1847 65.1908 69.7405 64.8594 69.4389C64.5313 69.134 64.1402 68.9815 63.6861 68.9815C63 68.9815 62.4614 69.3196 62.0703 69.9957C61.6792 70.6719 61.482 71.6446 61.4787 72.9141C61.4787 73.7625 61.5665 74.4801 61.7422 75.0668C61.9212 75.6501 62.1747 76.0926 62.5029 76.3942C62.831 76.6925 63.2254 76.8416 63.6861 76.8416ZM70.6232 76.608L70.5486 77.1499C70.4989 77.5476 70.4144 77.9619 70.295 78.3928C70.179 78.8269 70.0581 79.2296 69.9321 79.6009C69.8095 79.9721 69.7084 80.267 69.6288 80.4858H68.5749C68.618 80.2803 68.6776 80.0019 68.7538 79.6506C68.8301 79.3026 68.9046 78.9131 68.9776 78.4822C69.0505 78.0514 69.1052 77.6122 69.1416 77.1648L69.1913 76.608H70.6232ZM79.1056 79.2727V66.5455H79.9209V79.2727H79.1056ZM81.656 70.4929C81.603 70.0223 81.3842 69.6577 80.9998 69.3991C80.6153 69.1373 80.1314 69.0064 79.5481 69.0064C79.1304 69.0064 78.7692 69.0727 78.4643 69.2053C78.1593 69.3345 77.9224 69.5135 77.7533 69.7422C77.5876 69.9676 77.5047 70.2244 77.5047 70.5128C77.5047 70.7547 77.5611 70.9635 77.6738 71.1392C77.7898 71.3149 77.9406 71.4624 78.1262 71.5817C78.3151 71.6977 78.5173 71.7955 78.7327 71.875C78.9482 71.9512 79.1553 72.0142 79.3542 72.0639L80.3485 72.3224C80.6733 72.402 81.0064 72.5097 81.3478 72.6456C81.6892 72.7815 82.0057 72.9605 82.2974 73.1825C82.589 73.4046 82.8243 73.6797 83.0033 74.0078C83.1856 74.3359 83.2768 74.7287 83.2768 75.1861C83.2768 75.7628 83.1276 76.2749 82.8293 76.7223C82.5343 77.1697 82.1051 77.5227 81.5417 77.7812C80.9815 78.0398 80.3037 78.169 79.5083 78.169C78.746 78.169 78.0864 78.0481 77.5296 77.8061C76.9728 77.5642 76.5369 77.2211 76.2221 76.777C75.9072 76.3295 75.7332 75.7992 75.7001 75.1861H77.2412C77.2711 75.554 77.3904 75.8606 77.5992 76.1058C77.8113 76.3478 78.0814 76.5284 78.4096 76.6477C78.741 76.7637 79.1039 76.8217 79.4983 76.8217C79.9325 76.8217 80.3187 76.7538 80.6567 76.6179C80.9981 76.4787 81.2666 76.2865 81.4621 76.0412C81.6577 75.7926 81.7554 75.5026 81.7554 75.1712C81.7554 74.8696 81.6693 74.6226 81.4969 74.4304C81.3279 74.2382 81.0975 74.0791 80.8059 73.9531C80.5175 73.8272 80.1911 73.7161 79.8265 73.62L78.6233 73.2919C77.808 73.0698 77.1617 72.7434 76.6844 72.3125C76.2105 71.8816 75.9735 71.3116 75.9735 70.6023C75.9735 70.0156 76.1326 69.5036 76.4508 69.0661C76.7689 68.6286 77.1998 68.2888 77.7434 68.0469C78.2869 67.8016 78.9001 67.679 79.5829 67.679C80.2723 67.679 80.8804 67.8 81.4074 68.0419C81.9377 68.2839 82.3554 68.617 82.6603 69.0412C82.9652 69.4621 83.1243 69.946 83.1376 70.4929H81.656ZM88.3781 78.1392C87.6953 78.1392 87.0854 78.0215 86.5485 77.7862C86.0149 77.5509 85.5923 77.2244 85.2808 76.8068C84.9725 76.3859 84.8068 75.8987 84.7836 75.3452H86.3447C86.3646 75.6468 86.4656 75.9086 86.6479 76.1307C86.8335 76.3494 87.0755 76.5185 87.3738 76.6378C87.6721 76.7571 88.0035 76.8168 88.3681 76.8168C88.7692 76.8168 89.1238 76.7472 89.432 76.608C89.7436 76.4687 89.9872 76.2749 90.1629 76.0263C90.3385 75.7744 90.4263 75.4844 90.4263 75.1562C90.4263 74.8149 90.3385 74.5149 90.1629 74.2564C89.9905 73.9946 89.737 73.7891 89.4022 73.6399C89.0708 73.4908 88.6697 73.4162 88.1991 73.4162H87.339V72.1634H88.1991C88.5769 72.1634 88.9084 72.0954 89.1934 71.9595C89.4817 71.8236 89.7071 71.6347 89.8695 71.3928C90.0319 71.1475 90.1131 70.8608 90.1131 70.5327C90.1131 70.2178 90.0419 69.9444 89.8994 69.7124C89.7602 69.477 89.5613 69.2931 89.3028 69.1605C89.0476 69.0279 88.746 68.9616 88.3979 68.9616C88.0665 68.9616 87.7566 69.023 87.4683 69.1456C87.1832 69.2649 86.9512 69.4373 86.7722 69.6626C86.5933 69.8847 86.4971 70.1515 86.4839 70.4631H84.9974C85.0139 69.9129 85.1763 69.429 85.4846 69.0114C85.7961 68.5937 86.2071 68.2673 86.7175 68.032C87.228 67.7966 87.7947 67.679 88.4178 67.679C89.0708 67.679 89.6342 67.8066 90.1082 68.0618C90.5854 68.3137 90.9533 68.6501 91.2119 69.071C91.4737 69.492 91.603 69.9527 91.5996 70.4531C91.603 71.0232 91.4439 71.5071 91.1224 71.9048C90.8042 72.3026 90.3799 72.5694 89.8496 72.7053V72.7848C90.5258 72.8875 91.0495 73.156 91.4207 73.5902C91.7952 74.0244 91.9808 74.563 91.9775 75.206C91.9808 75.7661 91.825 76.2682 91.5102 76.7124C91.1986 77.1565 90.7727 77.5062 90.2325 77.7614C89.6922 78.0133 89.0741 78.1392 88.3781 78.1392ZM97.2615 78.169C96.476 78.1657 95.8048 77.9586 95.248 77.5476C94.6912 77.1366 94.2653 76.5384 93.9703 75.7528C93.6753 74.9673 93.5278 74.0211 93.5278 72.9141C93.5278 71.8104 93.6753 70.8674 93.9703 70.0852C94.2686 69.303 94.6961 68.7064 95.253 68.2955C95.8131 67.8845 96.4826 67.679 97.2615 67.679C98.0404 67.679 98.7082 67.8861 99.265 68.3004C99.8219 68.7114 100.248 69.308 100.543 70.0902C100.841 70.8691 100.99 71.8104 100.99 72.9141C100.99 74.0244 100.843 74.9723 100.548 75.7578C100.253 76.54 99.8268 77.1383 99.27 77.5526C98.7132 77.9635 98.0437 78.169 97.2615 78.169ZM97.2615 76.8416C97.9509 76.8416 98.4895 76.5052 98.8773 75.8324C99.2684 75.1596 99.4639 74.1868 99.4639 72.9141C99.4639 72.0689 99.3744 71.3546 99.1954 70.7713C99.0198 70.1847 98.7662 69.7405 98.4348 69.4389C98.1067 69.134 97.7156 68.9815 97.2615 68.9815C96.5754 68.9815 96.0368 69.3196 95.6457 69.9957C95.2546 70.6719 95.0574 71.6446 95.0541 72.9141C95.0541 73.7625 95.1419 74.4801 95.3176 75.0668C95.4966 75.6501 95.7501 76.0926 96.0783 76.3942C96.4064 76.6925 96.8008 76.8416 97.2615 76.8416ZM106.159 78.169C105.373 78.1657 104.702 77.9586 104.145 77.5476C103.588 77.1366 103.162 76.5384 102.867 75.7528C102.572 74.9673 102.425 74.0211 102.425 72.9141C102.425 71.8104 102.572 70.8674 102.867 70.0852C103.166 69.303 103.593 68.7064 104.15 68.2955C104.71 67.8845 105.38 67.679 106.159 67.679C106.937 67.679 107.605 67.8861 108.162 68.3004C108.719 68.7114 109.145 69.308 109.44 70.0902C109.738 70.8691 109.887 71.8104 109.887 72.9141C109.887 74.0244 109.74 74.9723 109.445 75.7578C109.15 76.54 108.724 77.1383 108.167 77.5526C107.61 77.9635 106.941 78.169 106.159 78.169ZM106.159 76.8416C106.848 76.8416 107.387 76.5052 107.774 75.8324C108.165 75.1596 108.361 74.1868 108.361 72.9141C108.361 72.0689 108.272 71.3546 108.093 70.7713C107.917 70.1847 107.663 69.7405 107.332 69.4389C107.004 69.134 106.613 68.9815 106.159 68.9815C105.473 68.9815 104.934 69.3196 104.543 69.9957C104.152 70.6719 103.955 71.6446 103.951 72.9141C103.951 73.7625 104.039 74.4801 104.215 75.0668C104.394 75.6501 104.647 76.0926 104.975 76.3942C105.303 76.6925 105.698 76.8416 106.159 76.8416ZM118.73 70.3636V71.5568H114.415V70.3636H118.73ZM115.598 78V69.4787C115.598 69.0014 115.702 68.6053 115.911 68.2905C116.12 67.9723 116.397 67.7353 116.742 67.5795C117.086 67.4205 117.461 67.3409 117.865 67.3409C118.163 67.3409 118.419 67.3658 118.631 67.4155C118.843 67.4619 119 67.505 119.103 67.5447L118.755 68.7479C118.685 68.728 118.596 68.7048 118.487 68.6783C118.377 68.6484 118.245 68.6335 118.089 68.6335C117.728 68.6335 117.469 68.723 117.313 68.902C117.161 69.081 117.085 69.3395 117.085 69.6776V78H115.598ZM123.04 78.1541C122.324 78.1541 121.699 77.9901 121.165 77.6619C120.632 77.3338 120.218 76.8748 119.923 76.2848C119.628 75.6948 119.48 75.0054 119.48 74.2166C119.48 73.4245 119.628 72.7318 119.923 72.1385C120.218 71.5452 120.632 71.0845 121.165 70.7564C121.699 70.4283 122.324 70.2642 123.04 70.2642C123.756 70.2642 124.38 70.4283 124.914 70.7564C125.448 71.0845 125.862 71.5452 126.157 72.1385C126.452 72.7318 126.599 73.4245 126.599 74.2166C126.599 75.0054 126.452 75.6948 126.157 76.2848C125.862 76.8748 125.448 77.3338 124.914 77.6619C124.38 77.9901 123.756 78.1541 123.04 78.1541ZM123.045 76.9062C123.509 76.9062 123.893 76.7836 124.198 76.5384C124.503 76.2931 124.728 75.9666 124.874 75.5589C125.023 75.1513 125.098 74.7022 125.098 74.2116C125.098 73.7244 125.023 73.277 124.874 72.8693C124.728 72.4583 124.503 72.1286 124.198 71.88C123.893 71.6314 123.509 71.5071 123.045 71.5071C122.577 71.5071 122.19 71.6314 121.881 71.88C121.576 72.1286 121.349 72.4583 121.2 72.8693C121.054 73.277 120.982 73.7244 120.982 74.2116C120.982 74.7022 121.054 75.1513 121.2 75.5589C121.349 75.9666 121.576 76.2931 121.881 76.5384C122.19 76.7836 122.577 76.9062 123.045 76.9062ZM128.119 78V70.3636H129.555V71.5767H129.635C129.774 71.1657 130.019 70.8426 130.371 70.6072C130.725 70.3686 131.126 70.2493 131.574 70.2493C131.667 70.2493 131.776 70.2526 131.902 70.2592C132.031 70.2659 132.132 70.2741 132.205 70.2841V71.706C132.146 71.6894 132.04 71.6712 131.887 71.6513C131.735 71.6281 131.582 71.6165 131.43 71.6165C131.078 71.6165 130.765 71.6911 130.49 71.8402C130.218 71.986 130.003 72.1899 129.844 72.4517C129.685 72.7102 129.605 73.0052 129.605 73.3366V78H128.119ZM140.481 70.3636V71.5568H136.31V70.3636H140.481ZM137.429 68.5341H138.915V75.7578C138.915 76.0462 138.958 76.2633 139.045 76.4091C139.131 76.5516 139.242 76.6494 139.378 76.7024C139.517 76.7521 139.668 76.777 139.83 76.777C139.949 76.777 140.054 76.7687 140.143 76.7521C140.233 76.7356 140.302 76.7223 140.352 76.7124L140.621 77.9403C140.534 77.9735 140.412 78.0066 140.253 78.0398C140.094 78.0762 139.895 78.0961 139.656 78.0994C139.265 78.1061 138.9 78.0365 138.562 77.8906C138.224 77.7448 137.951 77.5194 137.742 77.2145C137.533 76.9096 137.429 76.5268 137.429 76.0661V68.5341ZM141.986 78V70.3636H143.423V71.5767H143.502C143.641 71.1657 143.887 70.8426 144.238 70.6072C144.593 70.3686 144.994 70.2493 145.441 70.2493C145.534 70.2493 145.643 70.2526 145.769 70.2592C145.898 70.2659 146 70.2741 146.072 70.2841V71.706C146.013 71.6894 145.907 71.6712 145.754 71.6513C145.602 71.6281 145.449 71.6165 145.297 71.6165C144.946 71.6165 144.632 71.6911 144.357 71.8402C144.085 71.986 143.87 72.1899 143.711 72.4517C143.552 72.7102 143.472 73.0052 143.472 73.3366V78H141.986ZM149.373 78.169C148.889 78.169 148.451 78.0795 148.06 77.9006C147.669 77.7183 147.359 77.4548 147.131 77.1101C146.905 76.7654 146.793 76.3428 146.793 75.8423C146.793 75.4115 146.875 75.0568 147.041 74.7784C147.207 74.5 147.431 74.2796 147.712 74.1172C147.994 73.9548 148.309 73.8321 148.657 73.7493C149.005 73.6664 149.36 73.6035 149.721 73.5604C150.178 73.5073 150.549 73.4643 150.834 73.4311C151.119 73.3946 151.327 73.3366 151.456 73.2571C151.585 73.1776 151.65 73.0483 151.65 72.8693V72.8345C151.65 72.4003 151.527 72.0639 151.282 71.8253C151.04 71.5866 150.679 71.4673 150.198 71.4673C149.698 71.4673 149.303 71.5784 149.015 71.8004C148.73 72.0192 148.533 72.2628 148.423 72.5312L147.026 72.2131C147.192 71.7491 147.434 71.3745 147.752 71.0895C148.074 70.8011 148.443 70.5923 148.861 70.4631C149.278 70.3305 149.717 70.2642 150.178 70.2642C150.483 70.2642 150.806 70.3007 151.148 70.3736C151.492 70.4432 151.814 70.5724 152.112 70.7614C152.414 70.9503 152.661 71.2204 152.853 71.5717C153.045 71.9197 153.141 72.3722 153.141 72.929V78H151.69V76.956H151.63C151.534 77.1482 151.39 77.3371 151.197 77.5227C151.005 77.7083 150.758 77.8625 150.457 77.9851C150.155 78.1077 149.794 78.169 149.373 78.169ZM149.696 76.9759C150.107 76.9759 150.458 76.8946 150.75 76.7322C151.045 76.5698 151.269 76.3577 151.421 76.0959C151.577 75.8307 151.655 75.5473 151.655 75.2457V74.2614C151.602 74.3144 151.499 74.3641 151.346 74.4105C151.197 74.4536 151.027 74.4917 150.834 74.5249C150.642 74.5547 150.455 74.5829 150.273 74.6094C150.09 74.6326 149.938 74.6525 149.815 74.669C149.527 74.7055 149.263 74.7668 149.025 74.853C148.789 74.9392 148.601 75.0634 148.458 75.2259C148.319 75.3849 148.249 75.5971 148.249 75.8622C148.249 76.2301 148.385 76.5085 148.657 76.6974C148.929 76.883 149.275 76.9759 149.696 76.9759ZM161.24 70.3636L158.471 78H156.88L154.106 70.3636H155.702L157.636 76.2401H157.716L159.645 70.3636H161.24ZM165.529 78.1541C164.776 78.1541 164.129 77.9934 163.585 77.6719C163.045 77.3471 162.627 76.8913 162.332 76.3047C162.04 75.7147 161.895 75.0237 161.895 74.2315C161.895 73.4493 162.04 72.7599 162.332 72.1634C162.627 71.5668 163.038 71.1011 163.565 70.7663C164.095 70.4316 164.715 70.2642 165.424 70.2642C165.855 70.2642 166.273 70.3355 166.677 70.478C167.082 70.6205 167.445 70.8442 167.766 71.1491C168.088 71.4541 168.341 71.8501 168.527 72.3374C168.712 72.8213 168.805 73.4096 168.805 74.1023V74.6293H162.735V73.5156H167.348C167.348 73.1245 167.269 72.7782 167.11 72.4766C166.951 72.1716 166.727 71.9313 166.439 71.7557C166.154 71.58 165.819 71.4922 165.434 71.4922C165.017 71.4922 164.652 71.5949 164.341 71.8004C164.032 72.0026 163.794 72.2678 163.625 72.5959C163.459 72.9207 163.376 73.2737 163.376 73.6548V74.5249C163.376 75.0353 163.466 75.4695 163.645 75.8274C163.827 76.1854 164.08 76.4588 164.405 76.6477C164.73 76.8333 165.11 76.9261 165.544 76.9261C165.825 76.9261 166.082 76.8864 166.314 76.8068C166.546 76.724 166.747 76.6013 166.916 76.4389C167.085 76.2765 167.214 76.076 167.304 75.8374L168.711 76.0909C168.598 76.5052 168.396 76.8681 168.104 77.1797C167.816 77.4879 167.453 77.7282 167.015 77.9006C166.581 78.0696 166.086 78.1541 165.529 78.1541ZM171.801 67.8182V78H170.314V67.8182H171.801ZM175.595 76.608L175.52 77.1499C175.47 77.5476 175.386 77.9619 175.267 78.3928C175.151 78.8269 175.03 79.2296 174.904 79.6009C174.781 79.9721 174.68 80.267 174.6 80.4858H173.546C173.59 80.2803 173.649 80.0019 173.725 79.6506C173.802 79.3026 173.876 78.9131 173.949 78.4822C174.022 78.0514 174.077 77.6122 174.113 77.1648L174.163 76.608H175.595ZM14.0085 85.8182L16.8423 94.1108H16.9567L19.7905 85.8182H21.451L17.7869 96H16.0121L12.348 85.8182H14.0085ZM24.3176 85.8182V96H22.7813V85.8182H24.3176ZM26.4148 96V85.8182H30.044C30.8362 85.8182 31.4924 85.9624 32.0128 86.2507C32.5332 86.5391 32.9226 86.9335 33.1811 87.4339C33.4396 87.9311 33.5689 88.4912 33.5689 89.1143C33.5689 89.7408 33.438 90.3042 33.1761 90.8047C32.9176 91.3018 32.5265 91.6963 32.0028 91.9879C31.4825 92.2763 30.8279 92.4205 30.0391 92.4205H27.5433V91.1179H29.8999C30.4003 91.1179 30.8064 91.0317 31.1179 90.8594C31.4295 90.6837 31.6582 90.4451 31.804 90.1435C31.9498 89.8419 32.0227 89.4988 32.0227 89.1143C32.0227 88.7299 31.9498 88.3885 31.804 88.0902C31.6582 87.7919 31.4278 87.5582 31.1129 87.3892C30.8014 87.2202 30.3904 87.1357 29.88 87.1357H27.951V96H26.4148ZM40.1621 85.8182V96H38.6756V85.8182H40.1621ZM45.2386 96.1541C44.5227 96.1541 43.8979 95.9901 43.3643 95.6619C42.8307 95.3338 42.4164 94.8748 42.1214 94.2848C41.8264 93.6948 41.6789 93.0054 41.6789 92.2166C41.6789 91.4245 41.8264 90.7318 42.1214 90.1385C42.4164 89.5452 42.8307 89.0845 43.3643 88.7564C43.8979 88.4283 44.5227 88.2642 45.2386 88.2642C45.9545 88.2642 46.5792 88.4283 47.1129 88.7564C47.6465 89.0845 48.0608 89.5452 48.3558 90.1385C48.6507 90.7318 48.7982 91.4245 48.7982 92.2166C48.7982 93.0054 48.6507 93.6948 48.3558 94.2848C48.0608 94.8748 47.6465 95.3338 47.1129 95.6619C46.5792 95.9901 45.9545 96.1541 45.2386 96.1541ZM45.2435 94.9062C45.7076 94.9062 46.092 94.7836 46.3969 94.5384C46.7019 94.2931 46.9272 93.9666 47.0731 93.5589C47.2222 93.1513 47.2968 92.7022 47.2968 92.2116C47.2968 91.7244 47.2222 91.277 47.0731 90.8693C46.9272 90.4583 46.7019 90.1286 46.3969 89.88C46.092 89.6314 45.7076 89.5071 45.2435 89.5071C44.7762 89.5071 44.3884 89.6314 44.0802 89.88C43.7753 90.1286 43.5482 90.4583 43.3991 90.8693C43.2532 91.277 43.1803 91.7244 43.1803 92.2116C43.1803 92.7022 43.2532 93.1513 43.3991 93.5589C43.5482 93.9666 43.7753 94.2931 44.0802 94.5384C44.3884 94.7836 44.7762 94.9062 45.2435 94.9062ZM55.1549 92.8331V88.3636H56.6463V96H55.1847V94.6776H55.1051C54.9295 95.0852 54.6477 95.425 54.26 95.6967C53.8755 95.9652 53.3966 96.0994 52.8232 96.0994C52.3326 96.0994 51.8985 95.9917 51.5206 95.7763C51.1461 95.5575 50.8511 95.2344 50.6357 94.8068C50.4236 94.3793 50.3175 93.8506 50.3175 93.2209V88.3636H51.804V93.0419C51.804 93.5623 51.9482 93.9766 52.2365 94.2848C52.5249 94.593 52.8994 94.7472 53.3601 94.7472C53.6385 94.7472 53.9153 94.6776 54.1904 94.5384C54.4688 94.3991 54.6991 94.1887 54.8814 93.907C55.067 93.6252 55.1582 93.2673 55.1549 92.8331ZM59.9902 91.4659V96H58.5037V88.3636H59.9305V89.6065H60.025C60.2006 89.2022 60.4757 88.8774 60.8503 88.6321C61.2281 88.3868 61.7037 88.2642 62.2771 88.2642C62.7975 88.2642 63.2532 88.3736 63.6443 88.5923C64.0354 88.8078 64.3387 89.1293 64.5541 89.5568C64.7695 89.9844 64.8772 90.513 64.8772 91.1428V96H63.3907V91.3217C63.3907 90.7682 63.2466 90.3357 62.9582 90.0241C62.6699 89.7093 62.2738 89.5518 61.77 89.5518C61.4253 89.5518 61.1187 89.6264 60.8503 89.7756C60.5851 89.9247 60.3746 90.1435 60.2189 90.4318C60.0664 90.7169 59.9902 91.0616 59.9902 91.4659ZM69.9326 99.0227C69.326 99.0227 68.804 98.9432 68.3665 98.7841C67.9323 98.625 67.5777 98.4145 67.3026 98.1527C67.0275 97.8909 66.822 97.6042 66.6861 97.2926L67.9638 96.7656C68.0533 96.9115 68.1726 97.0656 68.3218 97.228C68.4742 97.3937 68.6797 97.5346 68.9382 97.6506C69.2001 97.7666 69.5365 97.8246 69.9475 97.8246C70.5109 97.8246 70.9766 97.687 71.3445 97.4119C71.7124 97.1402 71.8963 96.706 71.8963 96.1094V94.608H71.8019C71.7124 94.7704 71.5831 94.951 71.4141 95.1499C71.2484 95.3487 71.0197 95.5211 70.728 95.6669C70.4363 95.8127 70.0568 95.8857 69.5895 95.8857C68.9863 95.8857 68.4427 95.7448 67.9588 95.4631C67.4782 95.178 67.0971 94.7588 66.8154 94.2053C66.537 93.6484 66.3978 92.964 66.3978 92.152C66.3978 91.34 66.5353 90.6439 66.8104 90.0639C67.0888 89.4839 67.47 89.0398 67.9539 88.7315C68.4378 88.42 68.9863 88.2642 69.5995 88.2642C70.0734 88.2642 70.4562 88.3438 70.7479 88.5028C71.0396 88.6586 71.2666 88.8409 71.429 89.0497C71.5947 89.2585 71.7223 89.4425 71.8118 89.6016H71.9212V88.3636H73.3779V96.169C73.3779 96.8253 73.2254 97.3639 72.9205 97.7848C72.6156 98.2057 72.2029 98.5173 71.6826 98.7195C71.1655 98.9216 70.5822 99.0227 69.9326 99.0227ZM69.9176 94.6527C70.3452 94.6527 70.7065 94.5533 71.0015 94.3544C71.2997 94.1522 71.5251 93.8639 71.6776 93.4893C71.8334 93.1115 71.9113 92.6591 71.9113 92.1321C71.9113 91.6184 71.835 91.166 71.6826 90.7749C71.5301 90.3838 71.3064 90.0788 71.0114 89.8601C70.7164 89.638 70.3518 89.527 69.9176 89.527C69.4702 89.527 69.0973 89.643 68.799 89.875C68.5007 90.1037 68.2754 90.4152 68.1229 90.8097C67.9738 91.2041 67.8992 91.6449 67.8992 92.1321C67.8992 92.6326 67.9754 93.0717 68.1279 93.4496C68.2803 93.8274 68.5057 94.1224 68.804 94.3345C69.1056 94.5466 69.4768 94.6527 69.9176 94.6527ZM78.5227 96.1541C77.7703 96.1541 77.1223 95.9934 76.5788 95.6719C76.0385 95.3471 75.6209 94.8913 75.3259 94.3047C75.0343 93.7147 74.8884 93.0237 74.8884 92.2315C74.8884 91.4493 75.0343 90.7599 75.3259 90.1634C75.6209 89.5668 76.0319 89.1011 76.5589 88.7663C77.0892 88.4316 77.709 88.2642 78.4183 88.2642C78.8491 88.2642 79.2668 88.3355 79.6711 88.478C80.0755 88.6205 80.4384 88.8442 80.7599 89.1491C81.0814 89.4541 81.3349 89.8501 81.5205 90.3374C81.7061 90.8213 81.799 91.4096 81.799 92.1023V92.6293H75.7286V91.5156H80.3423C80.3423 91.1245 80.2627 90.7782 80.1036 90.4766C79.9445 90.1716 79.7208 89.9313 79.4325 89.7557C79.1474 89.58 78.8127 89.4922 78.4282 89.4922C78.0106 89.4922 77.646 89.5949 77.3345 89.8004C77.0262 90.0026 76.7876 90.2678 76.6186 90.5959C76.4528 90.9207 76.37 91.2737 76.37 91.6548V92.5249C76.37 93.0353 76.4595 93.4695 76.6384 93.8274C76.8207 94.1854 77.0743 94.4588 77.3991 94.6477C77.7239 94.8333 78.1034 94.9261 78.5376 94.9261C78.8193 94.9261 79.0762 94.8864 79.3082 94.8068C79.5402 94.724 79.7407 94.6013 79.9097 94.4389C80.0788 94.2765 80.208 94.076 80.2975 93.8374L81.7045 94.0909C81.5918 94.5052 81.3896 94.8681 81.098 95.1797C80.8096 95.4879 80.4467 95.7282 80.0092 95.9006C79.575 96.0696 79.0795 96.1541 78.5227 96.1541ZM89.0957 96.169C88.6118 96.169 88.1743 96.0795 87.7832 95.9006C87.3921 95.7183 87.0822 95.4548 86.8535 95.1101C86.6281 94.7654 86.5154 94.3428 86.5154 93.8423C86.5154 93.4115 86.5983 93.0568 86.764 92.7784C86.9297 92.5 87.1534 92.2796 87.4351 92.1172C87.7169 91.9548 88.0317 91.8321 88.3797 91.7493C88.7278 91.6664 89.0824 91.6035 89.4437 91.5604C89.9011 91.5073 90.2723 91.4643 90.5573 91.4311C90.8423 91.3946 91.0495 91.3366 91.1787 91.2571C91.308 91.1776 91.3726 91.0483 91.3726 90.8693V90.8345C91.3726 90.4003 91.25 90.0639 91.0047 89.8253C90.7628 89.5866 90.4015 89.4673 89.9209 89.4673C89.4205 89.4673 89.0261 89.5784 88.7377 89.8004C88.4527 90.0192 88.2555 90.2628 88.1461 90.5312L86.7491 90.2131C86.9148 89.7491 87.1567 89.3745 87.4749 89.0895C87.7964 88.8011 88.166 88.5923 88.5836 88.4631C89.0012 88.3305 89.4403 88.2642 89.9011 88.2642C90.206 88.2642 90.5291 88.3007 90.8705 88.3736C91.2152 88.4432 91.5367 88.5724 91.835 88.7614C92.1366 88.9503 92.3835 89.2204 92.5758 89.5717C92.768 89.9197 92.8641 90.3722 92.8641 90.929V96H91.4124V94.956H91.3528C91.2566 95.1482 91.1125 95.3371 90.9202 95.5227C90.728 95.7083 90.4811 95.8625 90.1795 95.9851C89.8778 96.1077 89.5166 96.169 89.0957 96.169ZM89.4188 94.9759C89.8298 94.9759 90.1811 94.8946 90.4728 94.7322C90.7678 94.5698 90.9915 94.3577 91.1439 94.0959C91.2997 93.8307 91.3776 93.5473 91.3776 93.2457V92.2614C91.3246 92.3144 91.2218 92.3641 91.0694 92.4105C90.9202 92.4536 90.7495 92.4917 90.5573 92.5249C90.3651 92.5547 90.1778 92.5829 89.9955 92.6094C89.8132 92.6326 89.6608 92.6525 89.5381 92.669C89.2498 92.7055 88.9863 92.7668 88.7476 92.853C88.5123 92.9392 88.3234 93.0634 88.1809 93.2259C88.0417 93.3849 87.9721 93.5971 87.9721 93.8622C87.9721 94.2301 88.108 94.5085 88.3797 94.6974C88.6515 94.883 88.9979 94.9759 89.4188 94.9759ZM97.9207 96.1541C97.1816 96.1541 96.5452 95.9867 96.0116 95.652C95.4813 95.3139 95.0736 94.8482 94.7886 94.255C94.5035 93.6617 94.361 92.9822 94.361 92.2166C94.361 91.4411 94.5068 90.7566 94.7985 90.1634C95.0902 89.5668 95.5012 89.1011 96.0315 88.7663C96.5618 88.4316 97.1865 88.2642 97.9058 88.2642C98.4858 88.2642 99.0028 88.3719 99.4569 88.5874C99.911 88.7995 100.277 89.0978 100.556 89.4822C100.837 89.8667 101.005 90.3158 101.058 90.8295H99.611C99.5315 90.4716 99.3492 90.1634 99.0641 89.9048C98.7824 89.6463 98.4046 89.517 97.9306 89.517C97.5163 89.517 97.1534 89.6264 96.8418 89.8452C96.5336 90.0606 96.2933 90.3688 96.121 90.7699C95.9486 91.1676 95.8624 91.6383 95.8624 92.1818C95.8624 92.7386 95.947 93.2192 96.116 93.6236C96.285 94.0279 96.5237 94.3411 96.8319 94.5632C97.1434 94.7853 97.5097 94.8963 97.9306 94.8963C98.2123 94.8963 98.4675 94.8449 98.6962 94.7422C98.9283 94.6361 99.1221 94.4853 99.2779 94.2898C99.437 94.0942 99.548 93.8589 99.611 93.5838H101.058C101.005 94.0777 100.844 94.5185 100.576 94.9062C100.307 95.294 99.9474 95.599 99.4967 95.821C99.0492 96.0431 98.5239 96.1541 97.9207 96.1541ZM105.724 96.1541C104.985 96.1541 104.349 95.9867 103.815 95.652C103.285 95.3139 102.877 94.8482 102.592 94.255C102.307 93.6617 102.164 92.9822 102.164 92.2166C102.164 91.4411 102.31 90.7566 102.602 90.1634C102.894 89.5668 103.305 89.1011 103.835 88.7663C104.365 88.4316 104.99 88.2642 105.709 88.2642C106.289 88.2642 106.806 88.3719 107.26 88.5874C107.714 88.7995 108.081 89.0978 108.359 89.4822C108.641 89.8667 108.808 90.3158 108.861 90.8295H107.414C107.335 90.4716 107.153 90.1634 106.868 89.9048C106.586 89.6463 106.208 89.517 105.734 89.517C105.32 89.517 104.957 89.6264 104.645 89.8452C104.337 90.0606 104.097 90.3688 103.924 90.7699C103.752 91.1676 103.666 91.6383 103.666 92.1818C103.666 92.7386 103.75 93.2192 103.919 93.6236C104.088 94.0279 104.327 94.3411 104.635 94.5632C104.947 94.7853 105.313 94.8963 105.734 94.8963C106.016 94.8963 106.271 94.8449 106.5 94.7422C106.732 94.6361 106.926 94.4853 107.081 94.2898C107.24 94.0942 107.351 93.8589 107.414 93.5838H108.861C108.808 94.0777 108.647 94.5185 108.379 94.9062C108.11 95.294 107.751 95.599 107.3 95.821C106.853 96.0431 106.327 96.1541 105.724 96.1541ZM113.602 96.1541C112.85 96.1541 112.202 95.9934 111.658 95.6719C111.118 95.3471 110.7 94.8913 110.405 94.3047C110.114 93.7147 109.968 93.0237 109.968 92.2315C109.968 91.4493 110.114 90.7599 110.405 90.1634C110.7 89.5668 111.111 89.1011 111.638 88.7663C112.168 88.4316 112.788 88.2642 113.498 88.2642C113.928 88.2642 114.346 88.3355 114.75 88.478C115.155 88.6205 115.518 88.8442 115.839 89.1491C116.161 89.4541 116.414 89.8501 116.6 90.3374C116.785 90.8213 116.878 91.4096 116.878 92.1023V92.6293H110.808V91.5156H115.422C115.422 91.1245 115.342 90.7782 115.183 90.4766C115.024 90.1716 114.8 89.9313 114.512 89.7557C114.227 89.58 113.892 89.4922 113.508 89.4922C113.09 89.4922 112.725 89.5949 112.414 89.8004C112.106 90.0026 111.867 90.2678 111.698 90.5959C111.532 90.9207 111.449 91.2737 111.449 91.6548V92.5249C111.449 93.0353 111.539 93.4695 111.718 93.8274C111.9 94.1854 112.154 94.4588 112.478 94.6477C112.803 94.8333 113.183 94.9261 113.617 94.9261C113.899 94.9261 114.155 94.8864 114.387 94.8068C114.619 94.724 114.82 94.6013 114.989 94.4389C115.158 94.2765 115.287 94.076 115.377 93.8374L116.784 94.0909C116.671 94.5052 116.469 94.8681 116.177 95.1797C115.889 95.4879 115.526 95.7282 115.088 95.9006C114.654 96.0696 114.159 96.1541 113.602 96.1541ZM124.11 90.228L122.763 90.4666C122.706 90.2943 122.617 90.1302 122.494 89.9744C122.375 89.8187 122.212 89.6911 122.007 89.5916C121.801 89.4922 121.545 89.4425 121.236 89.4425C120.815 89.4425 120.464 89.5369 120.182 89.7259C119.901 89.9115 119.76 90.1518 119.76 90.4467C119.76 90.7019 119.854 90.9074 120.043 91.0632C120.232 91.219 120.537 91.3466 120.958 91.446L122.171 91.7244C122.874 91.8868 123.397 92.1371 123.742 92.4751C124.087 92.8132 124.259 93.2524 124.259 93.7926C124.259 94.25 124.126 94.6577 123.861 95.0156C123.599 95.3703 123.233 95.6487 122.763 95.8509C122.295 96.053 121.753 96.1541 121.137 96.1541C120.282 96.1541 119.584 95.9718 119.044 95.6072C118.504 95.2393 118.172 94.7173 118.05 94.0412L119.486 93.8224C119.576 94.197 119.76 94.4804 120.038 94.6726C120.317 94.8615 120.679 94.956 121.127 94.956C121.614 94.956 122.004 94.8549 122.295 94.6527C122.587 94.4472 122.733 94.197 122.733 93.902C122.733 93.6634 122.643 93.4628 122.464 93.3004C122.289 93.138 122.018 93.0154 121.654 92.9325L120.361 92.6491C119.649 92.4867 119.122 92.2282 118.78 91.8736C118.442 91.5189 118.273 91.0698 118.273 90.5263C118.273 90.0755 118.399 89.6811 118.651 89.343C118.903 89.005 119.251 88.7415 119.695 88.5526C120.139 88.3603 120.648 88.2642 121.221 88.2642C122.047 88.2642 122.696 88.4432 123.17 88.8011C123.644 89.1558 123.957 89.6314 124.11 90.228ZM131.476 90.228L130.128 90.4666C130.072 90.2943 129.983 90.1302 129.86 89.9744C129.741 89.8187 129.578 89.6911 129.373 89.5916C129.167 89.4922 128.91 89.4425 128.602 89.4425C128.181 89.4425 127.83 89.5369 127.548 89.7259C127.266 89.9115 127.126 90.1518 127.126 90.4467C127.126 90.7019 127.22 90.9074 127.409 91.0632C127.598 91.219 127.903 91.3466 128.324 91.446L129.537 91.7244C130.239 91.8868 130.763 92.1371 131.108 92.4751C131.453 92.8132 131.625 93.2524 131.625 93.7926C131.625 94.25 131.492 94.6577 131.227 95.0156C130.965 95.3703 130.599 95.6487 130.128 95.8509C129.661 96.053 129.119 96.1541 128.503 96.1541C127.648 96.1541 126.95 95.9718 126.41 95.6072C125.869 95.2393 125.538 94.7173 125.415 94.0412L126.852 93.8224C126.942 94.197 127.126 94.4804 127.404 94.6726C127.682 94.8615 128.045 94.956 128.493 94.956C128.98 94.956 129.369 94.8549 129.661 94.6527C129.953 94.4472 130.099 94.197 130.099 93.902C130.099 93.6634 130.009 93.4628 129.83 93.3004C129.654 93.138 129.384 93.0154 129.02 92.9325L127.727 92.6491C127.015 92.4867 126.488 92.2282 126.146 91.8736C125.808 91.5189 125.639 91.0698 125.639 90.5263C125.639 90.0755 125.765 89.6811 126.017 89.343C126.269 89.005 126.617 88.7415 127.061 88.5526C127.505 88.3603 128.014 88.2642 128.587 88.2642C129.413 88.2642 130.062 88.4432 130.536 88.8011C131.01 89.1558 131.323 89.6314 131.476 90.228ZM134.099 96.0945C133.827 96.0945 133.593 95.9983 133.398 95.8061C133.202 95.6106 133.104 95.3752 133.104 95.1001C133.104 94.8284 133.202 94.5964 133.398 94.4041C133.593 94.2086 133.827 94.1108 134.099 94.1108C134.37 94.1108 134.604 94.2086 134.8 94.4041C134.995 94.5964 135.093 94.8284 135.093 95.1001C135.093 95.2824 135.047 95.4498 134.954 95.6023C134.864 95.7514 134.745 95.8707 134.596 95.9602C134.447 96.0497 134.281 96.0945 134.099 96.0945ZM140.464 96V85.8182H146.848V87.1406H142.001V90.2429H146.515V91.5604H142.001V94.6776H146.908V96H140.464ZM150.127 85.8182V96H148.641V85.8182H150.127ZM151.987 96V88.3636H153.474V96H151.987ZM152.738 87.1854C152.479 87.1854 152.257 87.0992 152.072 86.9268C151.889 86.7512 151.798 86.5424 151.798 86.3004C151.798 86.0552 151.889 85.8464 152.072 85.674C152.257 85.4983 152.479 85.4105 152.738 85.4105C152.996 85.4105 153.217 85.4983 153.399 85.674C153.585 85.8464 153.677 86.0552 153.677 86.3004C153.677 86.5424 153.585 86.7512 153.399 86.9268C153.217 87.0992 152.996 87.1854 152.738 87.1854ZM158.898 88.3636V89.5568H154.727V88.3636H158.898ZM155.845 86.5341H157.332V93.7578C157.332 94.0462 157.375 94.2633 157.461 94.4091C157.547 94.5516 157.658 94.6494 157.794 94.7024C157.933 94.7521 158.084 94.777 158.247 94.777C158.366 94.777 158.47 94.7687 158.56 94.7521C158.649 94.7356 158.719 94.7223 158.769 94.7124L159.037 95.9403C158.951 95.9735 158.828 96.0066 158.669 96.0398C158.51 96.0762 158.311 96.0961 158.073 96.0994C157.682 96.1061 157.317 96.0365 156.979 95.8906C156.641 95.7448 156.367 95.5194 156.159 95.2145C155.95 94.9096 155.845 94.5268 155.845 94.0661V86.5341ZM163.611 96.1541C162.859 96.1541 162.211 95.9934 161.668 95.6719C161.127 95.3471 160.71 94.8913 160.415 94.3047C160.123 93.7147 159.977 93.0237 159.977 92.2315C159.977 91.4493 160.123 90.7599 160.415 90.1634C160.71 89.5668 161.121 89.1011 161.648 88.7663C162.178 88.4316 162.798 88.2642 163.507 88.2642C163.938 88.2642 164.356 88.3355 164.76 88.478C165.164 88.6205 165.527 88.8442 165.849 89.1491C166.17 89.4541 166.424 89.8501 166.609 90.3374C166.795 90.8213 166.888 91.4096 166.888 92.1023V92.6293H160.817V91.5156H165.431C165.431 91.1245 165.352 90.7782 165.192 90.4766C165.033 90.1716 164.81 89.9313 164.521 89.7557C164.236 89.58 163.902 89.4922 163.517 89.4922C163.099 89.4922 162.735 89.5949 162.423 89.8004C162.115 90.0026 161.876 90.2678 161.707 90.5959C161.542 90.9207 161.459 91.2737 161.459 91.6548V92.5249C161.459 93.0353 161.548 93.4695 161.727 93.8274C161.91 94.1854 162.163 94.4588 162.488 94.6477C162.813 94.8333 163.192 94.9261 163.626 94.9261C163.908 94.9261 164.165 94.8864 164.397 94.8068C164.629 94.724 164.83 94.6013 164.999 94.4389C165.168 94.2765 165.297 94.076 165.386 93.8374L166.793 94.0909C166.681 94.5052 166.478 94.8681 166.187 95.1797C165.898 95.4879 165.536 95.7282 165.098 95.9006C164.664 96.0696 164.168 96.1541 163.611 96.1541ZM14.4858 103.818V114H12.9993V103.818H14.4858ZM19.6368 114.154C18.8844 114.154 18.2365 113.993 17.6929 113.672C17.1527 113.347 16.7351 112.891 16.4401 112.305C16.1484 111.715 16.0026 111.024 16.0026 110.232C16.0026 109.449 16.1484 108.76 16.4401 108.163C16.7351 107.567 17.146 107.101 17.673 106.766C18.2033 106.432 18.8231 106.264 19.5324 106.264C19.9633 106.264 20.3809 106.335 20.7852 106.478C21.1896 106.621 21.5525 106.844 21.874 107.149C22.1955 107.454 22.4491 107.85 22.6347 108.337C22.8203 108.821 22.9131 109.41 22.9131 110.102V110.629H16.8428V109.516H21.4564C21.4564 109.125 21.3769 108.778 21.2178 108.477C21.0587 108.172 20.835 107.931 20.5466 107.756C20.2616 107.58 19.9268 107.492 19.5424 107.492C19.1247 107.492 18.7602 107.595 18.4486 107.8C18.1404 108.003 17.9017 108.268 17.7327 108.596C17.567 108.921 17.4841 109.274 17.4841 109.655V110.525C17.4841 111.035 17.5736 111.469 17.7526 111.827C17.9349 112.185 18.1884 112.459 18.5132 112.648C18.838 112.833 19.2175 112.926 19.6517 112.926C19.9334 112.926 20.1903 112.886 20.4223 112.807C20.6543 112.724 20.8549 112.601 21.0239 112.439C21.1929 112.277 21.3222 112.076 21.4117 111.837L22.8186 112.091C22.7059 112.505 22.5038 112.868 22.2121 113.18C21.9237 113.488 21.5608 113.728 21.1233 113.901C20.6891 114.07 20.1936 114.154 19.6368 114.154ZM30.7363 106.364L27.9672 114H26.3763L23.6021 106.364H25.198L27.1319 112.24H27.2115L29.1405 106.364H30.7363ZM35.0248 114.154C34.2724 114.154 33.6244 113.993 33.0809 113.672C32.5406 113.347 32.123 112.891 31.828 112.305C31.5364 111.715 31.3905 111.024 31.3905 110.232C31.3905 109.449 31.5364 108.76 31.828 108.163C32.123 107.567 32.534 107.101 33.061 106.766C33.5913 106.432 34.2111 106.264 34.9204 106.264C35.3512 106.264 35.7689 106.335 36.1732 106.478C36.5776 106.621 36.9405 106.844 37.262 107.149C37.5835 107.454 37.837 107.85 38.0226 108.337C38.2083 108.821 38.3011 109.41 38.3011 110.102V110.629H32.2307V109.516H36.8444C36.8444 109.125 36.7648 108.778 36.6057 108.477C36.4467 108.172 36.2229 107.931 35.9346 107.756C35.6495 107.58 35.3148 107.492 34.9303 107.492C34.5127 107.492 34.1481 107.595 33.8366 107.8C33.5283 108.003 33.2897 108.268 33.1207 108.596C32.9549 108.921 32.8721 109.274 32.8721 109.655V110.525C32.8721 111.035 32.9616 111.469 33.1405 111.827C33.3228 112.185 33.5764 112.459 33.9012 112.648C34.226 112.833 34.6055 112.926 35.0397 112.926C35.3214 112.926 35.5783 112.886 35.8103 112.807C36.0423 112.724 36.2428 112.601 36.4119 112.439C36.5809 112.277 36.7101 112.076 36.7996 111.837L38.2066 112.091C38.0939 112.505 37.8917 112.868 37.6001 113.18C37.3117 113.488 36.9488 113.728 36.5113 113.901C36.0771 114.07 35.5816 114.154 35.0248 114.154ZM41.2969 103.818V114H39.8104V103.818H41.2969ZM49.9384 114.154C49.2225 114.154 48.5977 113.99 48.0641 113.662C47.5305 113.334 47.1162 112.875 46.8212 112.285C46.5262 111.695 46.3787 111.005 46.3787 110.217C46.3787 109.424 46.5262 108.732 46.8212 108.138C47.1162 107.545 47.5305 107.085 48.0641 106.756C48.5977 106.428 49.2225 106.264 49.9384 106.264C50.6543 106.264 51.2791 106.428 51.8127 106.756C52.3463 107.085 52.7606 107.545 53.0556 108.138C53.3506 108.732 53.4981 109.424 53.4981 110.217C53.4981 111.005 53.3506 111.695 53.0556 112.285C52.7606 112.875 52.3463 113.334 51.8127 113.662C51.2791 113.99 50.6543 114.154 49.9384 114.154ZM49.9434 112.906C50.4074 112.906 50.7919 112.784 51.0968 112.538C51.4017 112.293 51.6271 111.967 51.7729 111.559C51.9221 111.151 51.9966 110.702 51.9966 110.212C51.9966 109.724 51.9221 109.277 51.7729 108.869C51.6271 108.458 51.4017 108.129 51.0968 107.88C50.7919 107.631 50.4074 107.507 49.9434 107.507C49.4761 107.507 49.0883 107.631 48.78 107.88C48.4751 108.129 48.2481 108.458 48.0989 108.869C47.9531 109.277 47.8802 109.724 47.8802 110.212C47.8802 110.702 47.9531 111.151 48.0989 111.559C48.2481 111.967 48.4751 112.293 48.78 112.538C49.0883 112.784 49.4761 112.906 49.9434 112.906ZM55.0173 116.864V106.364H56.469V107.602H56.5933C56.6795 107.442 56.8038 107.259 56.9662 107.05C57.1286 106.841 57.354 106.659 57.6423 106.503C57.9307 106.344 58.3118 106.264 58.7858 106.264C59.4023 106.264 59.9525 106.42 60.4364 106.732C60.9203 107.043 61.2998 107.492 61.5749 108.079C61.8533 108.665 61.9925 109.371 61.9925 110.197C61.9925 111.022 61.8549 111.73 61.5798 112.32C61.3047 112.906 60.9269 113.359 60.4463 113.677C59.9657 113.992 59.4172 114.149 58.8007 114.149C58.3367 114.149 57.9572 114.071 57.6622 113.915C57.3706 113.76 57.1419 113.577 56.9761 113.369C56.8104 113.16 56.6828 112.974 56.5933 112.812H56.5038V116.864H55.0173ZM56.474 110.182C56.474 110.719 56.5519 111.189 56.7077 111.594C56.8635 111.998 57.0888 112.315 57.3838 112.543C57.6788 112.769 58.0401 112.881 58.4676 112.881C58.9118 112.881 59.283 112.764 59.5813 112.528C59.8796 112.29 60.1049 111.967 60.2574 111.559C60.4132 111.151 60.4911 110.692 60.4911 110.182C60.4911 109.678 60.4148 109.226 60.2624 108.825C60.1132 108.424 59.8878 108.107 59.5862 107.875C59.2879 107.643 58.9151 107.527 58.4676 107.527C58.0368 107.527 57.6722 107.638 57.3739 107.86C57.0789 108.082 56.8552 108.392 56.7027 108.79C56.5502 109.187 56.474 109.652 56.474 110.182ZM66.8092 114.154C66.0568 114.154 65.4088 113.993 64.8653 113.672C64.325 113.347 63.9074 112.891 63.6124 112.305C63.3208 111.715 63.1749 111.024 63.1749 110.232C63.1749 109.449 63.3208 108.76 63.6124 108.163C63.9074 107.567 64.3184 107.101 64.8454 106.766C65.3757 106.432 65.9955 106.264 66.7048 106.264C67.1356 106.264 67.5532 106.335 67.9576 106.478C68.3619 106.621 68.7249 106.844 69.0464 107.149C69.3679 107.454 69.6214 107.85 69.807 108.337C69.9926 108.821 70.0854 109.41 70.0854 110.102V110.629H64.0151V109.516H68.6288C68.6288 109.125 68.5492 108.778 68.3901 108.477C68.231 108.172 68.0073 107.931 67.719 107.756C67.4339 107.58 67.0992 107.492 66.7147 107.492C66.2971 107.492 65.9325 107.595 65.6209 107.8C65.3127 108.003 65.0741 108.268 64.905 108.596C64.7393 108.921 64.6565 109.274 64.6565 109.655V110.525C64.6565 111.035 64.7459 111.469 64.9249 111.827C65.1072 112.185 65.3608 112.459 65.6856 112.648C66.0104 112.833 66.3899 112.926 66.8241 112.926C67.1058 112.926 67.3627 112.886 67.5947 112.807C67.8267 112.724 68.0272 112.601 68.1962 112.439C68.3653 112.277 68.4945 112.076 68.584 111.837L69.991 112.091C69.8783 112.505 69.6761 112.868 69.3844 113.18C69.0961 113.488 68.7332 113.728 68.2957 113.901C67.8615 114.07 67.366 114.154 66.8092 114.154ZM73.0813 109.466V114H71.5948V106.364H73.0216V107.607H73.1161C73.2917 107.202 73.5668 106.877 73.9414 106.632C74.3192 106.387 74.7948 106.264 75.3682 106.264C75.8886 106.264 76.3443 106.374 76.7354 106.592C77.1265 106.808 77.4298 107.129 77.6452 107.557C77.8606 107.984 77.9683 108.513 77.9683 109.143V114H76.4818V109.322C76.4818 108.768 76.3377 108.336 76.0493 108.024C75.761 107.709 75.3649 107.552 74.8611 107.552C74.5164 107.552 74.2098 107.626 73.9414 107.776C73.6762 107.925 73.4657 108.143 73.31 108.432C73.1575 108.717 73.0813 109.062 73.0813 109.466ZM80.8013 114.094C80.5296 114.094 80.2959 113.998 80.1004 113.806C79.9048 113.611 79.807 113.375 79.807 113.1C79.807 112.828 79.9048 112.596 80.1004 112.404C80.2959 112.209 80.5296 112.111 80.8013 112.111C81.0731 112.111 81.3068 112.209 81.5023 112.404C81.6979 112.596 81.7957 112.828 81.7957 113.1C81.7957 113.282 81.7493 113.45 81.6565 113.602C81.567 113.751 81.4477 113.871 81.2985 113.96C81.1494 114.05 80.9836 114.094 80.8013 114.094Z" fill="black"/>
</svg>
