<svg width="214" height="152" viewBox="0 0 214 152" fill="none" xmlns="http://www.w3.org/2000/svg">
<path d="M0 16C0 7.16345 7.16344 0 16 0H198C206.837 0 214 7.16344 214 16V152H16C7.16344 152 0 144.837 0 136V16Z" fill="white"/>
<rect x="12.25" y="10.25" width="25.5" height="25.5" rx="7.75" fill="white" stroke="#E6E6E6" stroke-width="0.5"/>
<g clip-path="url(#clip0_696_270)">
<path d="M26.8362 28.5007C26.8362 28.2344 27.0512 28.018 27.3324 28.018C27.6136 28.018 27.8287 28.2344 27.8287 28.5007C27.8287 28.767 27.6136 29 27.3324 29C27.0512 29 26.8362 28.7836 26.8362 28.5007ZM26.9354 28.5007C26.9354 28.7171 27.1174 28.9001 27.349 28.9001C27.564 28.9001 27.746 28.7337 27.746 28.5007C27.746 28.2843 27.564 28.1179 27.349 28.1179C27.1008 28.1179 26.9354 28.301 26.9354 28.5007Z" fill="#E31837"/>
<path d="M27.5805 28.7836H27.4812L27.3158 28.534H27.2166V28.7836H27.1504V28.2344H27.3985C27.4481 28.2344 27.4978 28.2344 27.5308 28.2677C27.5805 28.2843 27.597 28.3343 27.597 28.3842C27.597 28.4841 27.5143 28.534 27.4151 28.534L27.5805 28.7836ZM27.3158 28.4674C27.3985 28.4674 27.4978 28.4841 27.4978 28.3842C27.4978 28.3176 27.4316 28.301 27.3654 28.301H27.2166V28.4674H27.3158Z" fill="#E31837"/>
<path d="M24.9669 29C28.4406 26.0042 33.3203 23.0915 36 22.043C35.5864 21.7767 34.9413 21.3939 34.2135 20.9778C30.7564 22.1262 26.7203 24.6727 23.1143 27.552C23.7263 28.018 24.3714 28.5007 24.9669 29Z" fill="#E31837"/>
<path d="M23.3791 20.8613C22.8663 20.6117 22.3039 20.3786 21.8738 20.1789C20.567 20.828 18.8633 21.81 16.7129 23.3578C17.176 23.6075 17.6723 23.9071 18.2016 24.2067C19.8557 22.975 21.5264 21.81 23.3791 20.8613Z" fill="#012169"/>
<path d="M26.4722 19.43C25.8436 19.0805 23.6602 18.2649 22.1549 17.9154C21.7083 18.0818 21.0797 18.3315 20.6497 18.5146C21.1955 18.6644 23.2301 19.2136 24.967 20.0957C25.4136 19.8793 26.0421 19.613 26.4722 19.43Z" fill="#E31837"/>
<path d="M19.0782 19.2136C17.1429 20.1123 15.1083 21.344 14 22.0596C14.397 22.2427 14.794 22.3925 15.3398 22.6588C17.788 20.9945 19.7068 19.9792 20.4677 19.6463C19.9218 19.4466 19.409 19.3135 19.0782 19.2136Z" fill="#012169"/>
<path d="M27.9278 18.914C28.3745 18.7642 28.8872 18.6311 29.3339 18.4979C28.0436 17.9487 26.4226 17.3662 24.9669 17C24.7354 17.0666 24.0406 17.2497 23.5609 17.3994C24.0572 17.5492 25.6948 17.932 27.9278 18.914ZM19.7729 25.172C20.3023 25.4882 20.8647 25.9209 21.4105 26.2871C25.0331 23.4577 28.606 21.2774 32.5263 20.0458C31.9805 19.7628 31.5008 19.5132 30.8887 19.2136C28.5399 19.8128 24.5203 21.4272 19.7729 25.172Z" fill="#E31837"/>
</g>
<path d="M47.0043 28.5V18.3182H50.902C51.6378 18.3182 52.2493 18.4342 52.7365 18.6662C53.227 18.8949 53.5933 19.2081 53.8352 19.6058C54.0805 20.0036 54.2031 20.4543 54.2031 20.9581C54.2031 21.3724 54.1236 21.727 53.9645 22.022C53.8054 22.3137 53.5916 22.5507 53.3232 22.733C53.0547 22.9152 52.7547 23.0462 52.4233 23.1257V23.2251C52.7846 23.245 53.1309 23.3561 53.4624 23.5582C53.7971 23.7571 54.0705 24.0388 54.2827 24.4034C54.4948 24.768 54.6009 25.2088 54.6009 25.7259C54.6009 26.2528 54.4732 26.7268 54.218 27.1477C53.9628 27.5653 53.5784 27.8951 53.0646 28.1371C52.5509 28.379 51.9046 28.5 51.1257 28.5H47.0043ZM48.8487 26.9588H50.8324C51.5019 26.9588 51.9841 26.8312 52.2791 26.576C52.5774 26.3175 52.7266 25.986 52.7266 25.5817C52.7266 25.2801 52.652 25.0083 52.5028 24.7663C52.3537 24.5211 52.1416 24.3288 51.8665 24.1896C51.5914 24.0471 51.2633 23.9759 50.8821 23.9759H48.8487V26.9588ZM48.8487 22.6484H50.6733C50.9915 22.6484 51.2782 22.5904 51.5334 22.4744C51.7886 22.3551 51.9891 22.1877 52.1349 21.9723C52.2841 21.7536 52.3587 21.495 52.3587 21.1967C52.3587 20.8023 52.2195 20.4775 51.9411 20.2223C51.666 19.9671 51.2566 19.8395 50.7131 19.8395H48.8487V22.6484ZM58.1833 28.6541C57.6994 28.6541 57.2636 28.5679 56.8758 28.3956C56.4913 28.2199 56.1864 27.9614 55.961 27.62C55.739 27.2786 55.6279 26.8577 55.6279 26.3572C55.6279 25.9264 55.7075 25.5701 55.8666 25.2884C56.0257 25.0066 56.2428 24.7812 56.5178 24.6122C56.7929 24.4432 57.1028 24.3156 57.4475 24.2294C57.7955 24.1399 58.1552 24.0753 58.5264 24.0355C58.9738 23.9891 59.3367 23.9477 59.6151 23.9112C59.8936 23.8714 60.0957 23.8118 60.2217 23.7322C60.3509 23.6494 60.4156 23.5218 60.4156 23.3494V23.3196C60.4156 22.9451 60.3045 22.6551 60.0825 22.4496C59.8604 22.2441 59.5406 22.1413 59.123 22.1413C58.6821 22.1413 58.3325 22.2375 58.074 22.4297C57.8187 22.6219 57.6464 22.849 57.5569 23.1108L55.8765 22.8722C56.0091 22.4081 56.2278 22.0204 56.5328 21.7088C56.8377 21.3939 57.2106 21.1586 57.6514 21.0028C58.0922 20.8438 58.5794 20.7642 59.113 20.7642C59.4809 20.7642 59.8472 20.8073 60.2117 20.8935C60.5763 20.9796 60.9094 21.1222 61.211 21.321C61.5126 21.5166 61.7546 21.7834 61.9369 22.1214C62.1225 22.4595 62.2153 22.8821 62.2153 23.3892V28.5H60.4852V27.451H60.4255C60.3161 27.6631 60.162 27.862 59.9632 28.0476C59.7676 28.2299 59.5207 28.3774 59.2224 28.4901C58.9274 28.5994 58.5811 28.6541 58.1833 28.6541ZM58.6507 27.3317C59.0119 27.3317 59.3251 27.2604 59.5903 27.1179C59.8554 26.9721 60.0593 26.7798 60.2018 26.5412C60.3476 26.3026 60.4205 26.0424 60.4205 25.7607V24.8608C60.3642 24.9072 60.2681 24.9503 60.1322 24.9901C59.9996 25.0298 59.8505 25.0646 59.6848 25.0945C59.519 25.1243 59.355 25.1508 59.1926 25.174C59.0302 25.1972 58.8893 25.2171 58.77 25.2337C58.5015 25.2701 58.2612 25.3298 58.0491 25.4126C57.837 25.4955 57.6696 25.6115 57.547 25.7607C57.4243 25.9065 57.363 26.0954 57.363 26.3274C57.363 26.6589 57.484 26.9091 57.7259 27.0781C57.9679 27.2472 58.2761 27.3317 58.6507 27.3317ZM65.6847 24.0256V28.5H63.8849V20.8636H65.6051V22.1612H65.6946C65.8703 21.7337 66.1503 21.3939 66.5348 21.142C66.9226 20.8902 67.4015 20.7642 67.9716 20.7642C68.4986 20.7642 68.9576 20.8769 69.3487 21.1023C69.7431 21.3277 70.0481 21.6541 70.2635 22.0817C70.4823 22.5092 70.59 23.0279 70.5867 23.6378V28.5H68.7869V23.9162C68.7869 23.4058 68.6544 23.0064 68.3892 22.718C68.1274 22.4297 67.7644 22.2855 67.3004 22.2855C66.9856 22.2855 66.7055 22.3551 66.4602 22.4943C66.2183 22.6302 66.0277 22.8274 65.8885 23.0859C65.7526 23.3445 65.6847 23.6577 65.6847 24.0256ZM73.9168 26.1037L73.9119 23.9311H74.2002L76.9445 20.8636H79.0475L75.6718 24.6222H75.2989L73.9168 26.1037ZM72.2762 28.5V18.3182H74.0759V28.5H72.2762ZM77.0688 28.5L74.583 25.0249L75.7961 23.7571L79.2215 28.5H77.0688ZM86.7705 28.6491C86.0248 28.6491 85.3785 28.4851 84.8316 28.157C84.2847 27.8288 83.8605 27.3698 83.5589 26.7798C83.2606 26.1899 83.1114 25.5005 83.1114 24.7116C83.1114 23.9228 83.2606 23.2318 83.5589 22.6385C83.8605 22.0452 84.2847 21.5845 84.8316 21.2564C85.3785 20.9283 86.0248 20.7642 86.7705 20.7642C87.5163 20.7642 88.1626 20.9283 88.7094 21.2564C89.2563 21.5845 89.6789 22.0452 89.9772 22.6385C90.2788 23.2318 90.4296 23.9228 90.4296 24.7116C90.4296 25.5005 90.2788 26.1899 89.9772 26.7798C89.6789 27.3698 89.2563 27.8288 88.7094 28.157C88.1626 28.4851 87.5163 28.6491 86.7705 28.6491ZM86.7805 27.2074C87.1848 27.2074 87.5229 27.0964 87.7947 26.8743C88.0665 26.6489 88.2686 26.3473 88.4012 25.9695C88.5371 25.5916 88.605 25.1707 88.605 24.7067C88.605 24.2393 88.5371 23.8168 88.4012 23.4389C88.2686 23.0578 88.0665 22.7545 87.7947 22.5291C87.5229 22.3037 87.1848 22.1911 86.7805 22.1911C86.3662 22.1911 86.0215 22.3037 85.7464 22.5291C85.4746 22.7545 85.2708 23.0578 85.1349 23.4389C85.0023 23.8168 84.936 24.2393 84.936 24.7067C84.936 25.1707 85.0023 25.5916 85.1349 25.9695C85.2708 26.3473 85.4746 26.6489 85.7464 26.8743C86.0215 27.0964 86.3662 27.2074 86.7805 27.2074ZM95.685 20.8636V22.2557H91.1708V20.8636H95.685ZM92.2994 28.5V20.1428C92.2994 19.629 92.4054 19.2015 92.6176 18.8601C92.833 18.5187 93.1214 18.2635 93.4826 18.0945C93.8439 17.9254 94.2449 17.8409 94.6857 17.8409C94.9973 17.8409 95.2741 17.8658 95.516 17.9155C95.758 17.9652 95.9369 18.0099 96.0529 18.0497L95.695 19.4418C95.6187 19.4186 95.5226 19.3954 95.4066 19.3722C95.2906 19.3456 95.1614 19.3324 95.0188 19.3324C94.6841 19.3324 94.4471 19.4136 94.3079 19.576C94.172 19.7351 94.1041 19.9638 94.1041 20.2621V28.5H92.2994ZM101.674 28.5H99.7055L103.29 18.3182H105.567L109.156 28.5H107.188L104.468 20.4062H104.389L101.674 28.5ZM101.739 24.5078H107.108V25.9893H101.739V24.5078ZM110.278 28.5V20.8636H111.998V22.1612H112.088C112.247 21.7237 112.51 21.3823 112.878 21.1371C113.246 20.8885 113.685 20.7642 114.196 20.7642C114.713 20.7642 115.149 20.8902 115.503 21.142C115.861 21.3906 116.113 21.7304 116.259 22.1612H116.338C116.507 21.737 116.792 21.3989 117.193 21.147C117.598 20.8918 118.077 20.7642 118.63 20.7642C119.333 20.7642 119.906 20.9863 120.35 21.4304C120.795 21.8745 121.017 22.5225 121.017 23.3743V28.5H119.212V23.6527C119.212 23.1787 119.086 22.8324 118.834 22.6136C118.582 22.3916 118.274 22.2805 117.909 22.2805C117.475 22.2805 117.135 22.4164 116.89 22.6882C116.648 22.9567 116.527 23.3063 116.527 23.7372V28.5H114.762V23.5781C114.762 23.1837 114.643 22.8688 114.404 22.6335C114.169 22.3982 113.861 22.2805 113.48 22.2805C113.221 22.2805 112.986 22.3468 112.774 22.4794C112.562 22.6087 112.393 22.7926 112.267 23.0312C112.141 23.2666 112.078 23.5417 112.078 23.8565V28.5H110.278ZM126.083 28.6491C125.318 28.6491 124.656 28.4901 124.099 28.1719C123.546 27.8504 123.12 27.3963 122.822 26.8097C122.523 26.2197 122.374 25.5253 122.374 24.7266C122.374 23.9411 122.523 23.2517 122.822 22.6584C123.123 22.0618 123.544 21.5978 124.085 21.2663C124.625 20.9316 125.26 20.7642 125.989 20.7642C126.459 20.7642 126.903 20.8404 127.321 20.9929C127.742 21.142 128.113 21.3741 128.435 21.6889C128.76 22.0038 129.015 22.4048 129.2 22.892C129.386 23.3759 129.479 23.9527 129.479 24.6222V25.174H123.219V23.9609H127.754C127.75 23.6162 127.676 23.3097 127.53 23.0412C127.384 22.7694 127.18 22.5556 126.918 22.3999C126.66 22.2441 126.358 22.1662 126.014 22.1662C125.646 22.1662 125.322 22.2557 125.044 22.4347C124.766 22.6103 124.549 22.8423 124.393 23.1307C124.24 23.4157 124.162 23.7289 124.159 24.0703V25.1293C124.159 25.5734 124.24 25.9545 124.403 26.2727C124.565 26.5876 124.792 26.8295 125.084 26.9986C125.376 27.1643 125.717 27.2472 126.108 27.2472C126.37 27.2472 126.607 27.2107 126.819 27.1378C127.031 27.0616 127.215 26.9505 127.371 26.8047C127.527 26.6589 127.644 26.4782 127.724 26.2628L129.404 26.4517C129.298 26.8958 129.096 27.2836 128.798 27.6151C128.503 27.9432 128.125 28.1984 127.664 28.3807C127.203 28.5597 126.676 28.6491 126.083 28.6491ZM130.861 28.5V20.8636H132.606V22.1364H132.686C132.825 21.6955 133.064 21.3558 133.402 21.1172C133.743 20.8752 134.133 20.7543 134.57 20.7543C134.67 20.7543 134.781 20.7592 134.903 20.7692C135.029 20.7758 135.134 20.7874 135.216 20.804V22.4595C135.14 22.433 135.019 22.4098 134.853 22.3899C134.691 22.3667 134.534 22.3551 134.381 22.3551C134.053 22.3551 133.758 22.4264 133.496 22.5689C133.238 22.7081 133.034 22.902 132.885 23.1506C132.736 23.3991 132.661 23.6858 132.661 24.0107V28.5H130.861ZM136.272 28.5V20.8636H138.072V28.5H136.272ZM137.177 19.7798C136.892 19.7798 136.647 19.6854 136.441 19.4964C136.236 19.3042 136.133 19.0739 136.133 18.8054C136.133 18.5336 136.236 18.3033 136.441 18.1143C136.647 17.9221 136.892 17.826 137.177 17.826C137.465 17.826 137.711 17.9221 137.913 18.1143C138.118 18.3033 138.221 18.5336 138.221 18.8054C138.221 19.0739 138.118 19.3042 137.913 19.4964C137.711 19.6854 137.465 19.7798 137.177 19.7798ZM143.113 28.6491C142.351 28.6491 141.697 28.4818 141.15 28.147C140.606 27.8123 140.187 27.3499 139.892 26.7599C139.6 26.1667 139.454 25.4839 139.454 24.7116C139.454 23.9361 139.603 23.2517 139.902 22.6584C140.2 22.0618 140.621 21.5978 141.165 21.2663C141.711 20.9316 142.358 20.7642 143.103 20.7642C143.723 20.7642 144.272 20.8786 144.749 21.1072C145.23 21.3326 145.612 21.6525 145.898 22.0668C146.183 22.4777 146.345 22.9583 146.385 23.5085H144.665C144.595 23.1406 144.429 22.834 144.167 22.5888C143.909 22.3402 143.563 22.2159 143.128 22.2159C142.76 22.2159 142.437 22.3153 142.159 22.5142C141.88 22.7098 141.663 22.9915 141.508 23.3594C141.355 23.7273 141.279 24.1681 141.279 24.6818C141.279 25.2022 141.355 25.6496 141.508 26.0241C141.66 26.3954 141.874 26.6821 142.149 26.8842C142.427 27.0831 142.754 27.1825 143.128 27.1825C143.393 27.1825 143.63 27.1328 143.839 27.0334C144.051 26.9306 144.229 26.7831 144.371 26.5909C144.514 26.3987 144.612 26.165 144.665 25.8899H146.385C146.342 26.4302 146.183 26.9091 145.907 27.3267C145.632 27.741 145.258 28.0658 144.784 28.3011C144.31 28.5331 143.753 28.6491 143.113 28.6491ZM149.92 28.6541C149.436 28.6541 149 28.5679 148.612 28.3956C148.228 28.2199 147.923 27.9614 147.698 27.62C147.476 27.2786 147.365 26.8577 147.365 26.3572C147.365 25.9264 147.444 25.5701 147.603 25.2884C147.762 25.0066 147.979 24.7812 148.254 24.6122C148.53 24.4432 148.839 24.3156 149.184 24.2294C149.532 24.1399 149.892 24.0753 150.263 24.0355C150.71 23.9891 151.073 23.9477 151.352 23.9112C151.63 23.8714 151.832 23.8118 151.958 23.7322C152.088 23.6494 152.152 23.5218 152.152 23.3494V23.3196C152.152 22.9451 152.041 22.6551 151.819 22.4496C151.597 22.2441 151.277 22.1413 150.86 22.1413C150.419 22.1413 150.069 22.2375 149.811 22.4297C149.555 22.6219 149.383 22.849 149.294 23.1108L147.613 22.8722C147.746 22.4081 147.964 22.0204 148.269 21.7088C148.574 21.3939 148.947 21.1586 149.388 21.0028C149.829 20.8438 150.316 20.7642 150.85 20.7642C151.218 20.7642 151.584 20.8073 151.948 20.8935C152.313 20.9796 152.646 21.1222 152.948 21.321C153.249 21.5166 153.491 21.7834 153.674 22.1214C153.859 22.4595 153.952 22.8821 153.952 23.3892V28.5H152.222V27.451H152.162C152.053 27.6631 151.899 27.862 151.7 28.0476C151.504 28.2299 151.257 28.3774 150.959 28.4901C150.664 28.5994 150.318 28.6541 149.92 28.6541ZM150.387 27.3317C150.749 27.3317 151.062 27.2604 151.327 27.1179C151.592 26.9721 151.796 26.7798 151.938 26.5412C152.084 26.3026 152.157 26.0424 152.157 25.7607V24.8608C152.101 24.9072 152.005 24.9503 151.869 24.9901C151.736 25.0298 151.587 25.0646 151.421 25.0945C151.256 25.1243 151.092 25.1508 150.929 25.174C150.767 25.1972 150.626 25.2171 150.507 25.2337C150.238 25.2701 149.998 25.3298 149.786 25.4126C149.574 25.4955 149.406 25.6115 149.284 25.7607C149.161 25.9065 149.1 26.0954 149.1 26.3274C149.1 26.6589 149.221 26.9091 149.463 27.0781C149.705 27.2472 150.013 27.3317 150.387 27.3317Z" fill="black"/>
<path d="M12.3331 49.8182H14.0781L16.7379 54.4467H16.8473L19.5071 49.8182H21.2521L17.5582 56.0028V60H16.027V56.0028L12.3331 49.8182ZM24.4021 60.1541C23.6862 60.1541 23.0614 59.9901 22.5278 59.6619C21.9942 59.3338 21.5799 58.8748 21.2849 58.2848C20.9899 57.6948 20.8424 57.0054 20.8424 56.2166C20.8424 55.4245 20.9899 54.7318 21.2849 54.1385C21.5799 53.5452 21.9942 53.0845 22.5278 52.7564C23.0614 52.4283 23.6862 52.2642 24.4021 52.2642C25.118 52.2642 25.7428 52.4283 26.2764 52.7564C26.81 53.0845 27.2243 53.5452 27.5193 54.1385C27.8142 54.7318 27.9617 55.4245 27.9617 56.2166C27.9617 57.0054 27.8142 57.6948 27.5193 58.2848C27.2243 58.8748 26.81 59.3338 26.2764 59.6619C25.7428 59.9901 25.118 60.1541 24.4021 60.1541ZM24.4071 58.9062C24.8711 58.9062 25.2555 58.7836 25.5605 58.5384C25.8654 58.2931 26.0908 57.9666 26.2366 57.5589C26.3857 57.1513 26.4603 56.7022 26.4603 56.2116C26.4603 55.7244 26.3857 55.277 26.2366 54.8693C26.0908 54.4583 25.8654 54.1286 25.5605 53.88C25.2555 53.6314 24.8711 53.5071 24.4071 53.5071C23.9397 53.5071 23.5519 53.6314 23.2437 53.88C22.9388 54.1286 22.7117 54.4583 22.5626 54.8693C22.4168 55.277 22.3438 55.7244 22.3438 56.2116C22.3438 56.7022 22.4168 57.1513 22.5626 57.5589C22.7117 57.9666 22.9388 58.2931 23.2437 58.5384C23.5519 58.7836 23.9397 58.9062 24.4071 58.9062ZM34.3184 56.8331V52.3636H35.8098V60H34.3482V58.6776H34.2686C34.093 59.0852 33.8113 59.425 33.4235 59.6967C33.039 59.9652 32.5601 60.0994 31.9867 60.0994C31.4962 60.0994 31.062 59.9917 30.6841 59.7763C30.3096 59.5575 30.0146 59.2344 29.7992 58.8068C29.5871 58.3793 29.481 57.8506 29.481 57.2209V52.3636H30.9675V57.0419C30.9675 57.5623 31.1117 57.9766 31.4 58.2848C31.6884 58.593 32.0629 58.7472 32.5236 58.7472C32.802 58.7472 33.0788 58.6776 33.3539 58.5384C33.6323 58.3991 33.8626 58.1887 34.0449 57.907C34.2305 57.6252 34.3217 57.2673 34.3184 56.8331ZM38.7957 49.8182V53.4425H37.5628V49.8182H38.7957ZM47.1087 52.3636L44.3395 60H42.7486L39.9744 52.3636H41.5703L43.5043 58.2401H43.5838L45.5128 52.3636H47.1087ZM51.3971 60.1541C50.6448 60.1541 49.9968 59.9934 49.4532 59.6719C48.913 59.3471 48.4954 58.8913 48.2004 58.3047C47.9087 57.7147 47.7629 57.0237 47.7629 56.2315C47.7629 55.4493 47.9087 54.7599 48.2004 54.1634C48.4954 53.5668 48.9064 53.1011 49.4333 52.7663C49.9636 52.4316 50.5834 52.2642 51.2927 52.2642C51.7236 52.2642 52.1412 52.3355 52.5456 52.478C52.9499 52.6205 53.3128 52.8442 53.6343 53.1491C53.9558 53.4541 54.2094 53.8501 54.395 54.3374C54.5806 54.8213 54.6734 55.4096 54.6734 56.1023V56.6293H48.6031V55.5156H53.2167C53.2167 55.1245 53.1372 54.7782 52.9781 54.4766C52.819 54.1716 52.5953 53.9313 52.3069 53.7557C52.0219 53.58 51.6871 53.4922 51.3027 53.4922C50.885 53.4922 50.5205 53.5949 50.2089 53.8004C49.9007 54.0026 49.662 54.2678 49.493 54.5959C49.3273 54.9207 49.2444 55.2737 49.2444 55.6548V56.5249C49.2444 57.0353 49.3339 57.4695 49.5129 57.8274C49.6952 58.1854 49.9487 58.4588 50.2735 58.6477C50.5984 58.8333 50.9779 58.9261 51.412 58.9261C51.6938 58.9261 51.9506 58.8864 52.1826 58.8068C52.4146 58.724 52.6152 58.6013 52.7842 58.4389C52.9532 58.2765 53.0825 58.076 53.172 57.8374L54.5789 58.0909C54.4663 58.5052 54.2641 58.8681 53.9724 59.1797C53.6841 59.4879 53.3211 59.7282 52.8836 59.9006C52.4494 60.0696 51.9539 60.1541 51.3971 60.1541ZM64.9033 62.8636V58.8118H64.8139C64.7244 58.9742 64.5951 59.1598 64.4261 59.3686C64.2604 59.5774 64.0317 59.7597 63.74 59.9155C63.4483 60.0713 63.0705 60.1491 62.6065 60.1491C61.99 60.1491 61.4398 59.9917 60.9559 59.6768C60.4753 59.3587 60.0975 58.9062 59.8224 58.3196C59.5506 57.7296 59.4147 57.022 59.4147 56.1967C59.4147 55.3714 59.5523 54.6655 59.8274 54.0788C60.1058 53.4922 60.4869 53.0431 60.9708 52.7315C61.4547 52.42 62.0033 52.2642 62.6164 52.2642C63.0904 52.2642 63.4715 52.3438 63.7599 52.5028C64.0515 52.6586 64.2769 52.8409 64.436 53.0497C64.5984 53.2585 64.7244 53.4425 64.8139 53.6016H64.9381V52.3636H66.3899V62.8636H64.9033ZM62.9346 58.8814C63.3622 58.8814 63.7234 58.7687 64.0184 58.5433C64.3167 58.3146 64.5421 57.9981 64.6945 57.5938C64.8503 57.1894 64.9282 56.7187 64.9282 56.1818C64.9282 55.6515 64.852 55.1875 64.6995 54.7898C64.547 54.392 64.3233 54.0821 64.0283 53.8601C63.7334 53.638 63.3688 53.527 62.9346 53.527C62.4872 53.527 62.1143 53.643 61.816 53.875C61.5177 54.107 61.2923 54.4235 61.1399 54.8246C60.9907 55.2256 60.9161 55.678 60.9161 56.1818C60.9161 56.6922 60.9924 57.1513 61.1448 57.5589C61.2973 57.9666 61.5227 58.2898 61.821 58.5284C62.1226 58.7637 62.4938 58.8814 62.9346 58.8814ZM73.0858 56.8331V52.3636H74.5773V60H73.1156V58.6776H73.0361C72.8604 59.0852 72.5787 59.425 72.1909 59.6967C71.8064 59.9652 71.3275 60.0994 70.7541 60.0994C70.2636 60.0994 69.8294 59.9917 69.4516 59.7763C69.077 59.5575 68.782 59.2344 68.5666 58.8068C68.3545 58.3793 68.2484 57.8506 68.2484 57.2209V52.3636H69.7349V57.0419C69.7349 57.5623 69.8791 57.9766 70.1675 58.2848C70.4558 58.593 70.8303 58.7472 71.291 58.7472C71.5695 58.7472 71.8462 58.6776 72.1213 58.5384C72.3997 58.3991 72.6301 58.1887 72.8124 57.907C72.998 57.6252 73.0891 57.2673 73.0858 56.8331ZM78.6569 60.169C78.173 60.169 77.7355 60.0795 77.3444 59.9006C76.9533 59.7183 76.6434 59.4548 76.4147 59.1101C76.1893 58.7654 76.0766 58.3428 76.0766 57.8423C76.0766 57.4115 76.1595 57.0568 76.3252 56.7784C76.4909 56.5 76.7147 56.2796 76.9964 56.1172C77.2781 55.9548 77.593 55.8321 77.941 55.7493C78.289 55.6664 78.6436 55.6035 79.0049 55.5604C79.4623 55.5073 79.8335 55.4643 80.1186 55.4311C80.4036 55.3946 80.6107 55.3366 80.74 55.2571C80.8693 55.1776 80.9339 55.0483 80.9339 54.8693V54.8345C80.9339 54.4003 80.8113 54.0639 80.566 53.8253C80.324 53.5866 79.9628 53.4673 79.4822 53.4673C78.9817 53.4673 78.5873 53.5784 78.299 53.8004C78.0139 54.0192 77.8167 54.2628 77.7073 54.5312L76.3103 54.2131C76.476 53.7491 76.718 53.3745 77.0362 53.0895C77.3577 52.8011 77.7272 52.5923 78.1448 52.4631C78.5624 52.3305 79.0016 52.2642 79.4623 52.2642C79.7672 52.2642 80.0904 52.3007 80.4318 52.3736C80.7765 52.4432 81.098 52.5724 81.3963 52.7614C81.6979 52.9503 81.9448 53.2204 82.137 53.5717C82.3293 53.9197 82.4254 54.3722 82.4254 54.929V60H80.9737V58.956H80.914C80.8179 59.1482 80.6737 59.3371 80.4815 59.5227C80.2892 59.7083 80.0423 59.8625 79.7407 59.9851C79.4391 60.1077 79.0778 60.169 78.6569 60.169ZM78.9801 58.9759C79.391 58.9759 79.7424 58.8946 80.034 58.7322C80.329 58.5698 80.5527 58.3577 80.7052 58.0959C80.861 57.8307 80.9389 57.5473 80.9389 57.2457V56.2614C80.8858 56.3144 80.7831 56.3641 80.6306 56.4105C80.4815 56.4536 80.3108 56.4917 80.1186 56.5249C79.9263 56.5547 79.7391 56.5829 79.5568 56.6094C79.3745 56.6326 79.222 56.6525 79.0994 56.669C78.811 56.7055 78.5475 56.7668 78.3089 56.853C78.0736 56.9392 77.8847 57.0634 77.7421 57.2259C77.6029 57.3849 77.5333 57.5971 77.5333 57.8622C77.5333 58.2301 77.6692 58.5085 77.941 58.6974C78.2128 58.883 78.5591 58.9759 78.9801 58.9759ZM85.7518 49.8182V60H84.2653V49.8182H85.7518ZM87.6116 60V52.3636H89.0981V60H87.6116ZM88.3623 51.1854C88.1038 51.1854 87.8818 51.0992 87.6961 50.9268C87.5139 50.7512 87.4227 50.5424 87.4227 50.3004C87.4227 50.0552 87.5139 49.8464 87.6961 49.674C87.8818 49.4983 88.1038 49.4105 88.3623 49.4105C88.6209 49.4105 88.8413 49.4983 89.0236 49.674C89.2092 49.8464 89.302 50.0552 89.302 50.3004C89.302 50.5424 89.2092 50.7512 89.0236 50.9268C88.8413 51.0992 88.6209 51.1854 88.3623 51.1854ZM94.5922 52.3636V53.5568H90.2769V52.3636H94.5922ZM91.4601 60V51.4787C91.4601 51.0014 91.5645 50.6053 91.7733 50.2905C91.9821 49.9723 92.2589 49.7353 92.6036 49.5795C92.9483 49.4205 93.3228 49.3409 93.7271 49.3409C94.0254 49.3409 94.2806 49.3658 94.4928 49.4155C94.7049 49.4619 94.8623 49.505 94.9651 49.5447L94.6171 50.7479C94.5475 50.728 94.458 50.7048 94.3486 50.6783C94.2392 50.6484 94.1066 50.6335 93.9509 50.6335C93.5896 50.6335 93.3311 50.723 93.1753 50.902C93.0228 51.081 92.9466 51.3395 92.9466 51.6776V60H91.4601ZM95.9859 60V52.3636H97.4724V60H95.9859ZM96.7366 51.1854C96.4781 51.1854 96.2561 51.0992 96.0704 50.9268C95.8882 50.7512 95.797 50.5424 95.797 50.3004C95.797 50.0552 95.8882 49.8464 96.0704 49.674C96.2561 49.4983 96.4781 49.4105 96.7366 49.4105C96.9952 49.4105 97.2156 49.4983 97.3979 49.674C97.5835 49.8464 97.6763 50.0552 97.6763 50.3004C97.6763 50.5424 97.5835 50.7512 97.3979 50.9268C97.2156 51.0992 96.9952 51.1854 96.7366 51.1854ZM102.623 60.1541C101.871 60.1541 101.223 59.9934 100.68 59.6719C100.139 59.3471 99.7217 58.8913 99.4267 58.3047C99.1351 57.7147 98.9892 57.0237 98.9892 56.2315C98.9892 55.4493 99.1351 54.7599 99.4267 54.1634C99.7217 53.5668 100.133 53.1011 100.66 52.7663C101.19 52.4316 101.81 52.2642 102.519 52.2642C102.95 52.2642 103.368 52.3355 103.772 52.478C104.176 52.6205 104.539 52.8442 104.861 53.1491C105.182 53.4541 105.436 53.8501 105.621 54.3374C105.807 54.8213 105.9 55.4096 105.9 56.1023V56.6293H99.8294V55.5156H104.443C104.443 55.1245 104.364 54.7782 104.204 54.4766C104.045 54.1716 103.822 53.9313 103.533 53.7557C103.248 53.58 102.913 53.4922 102.529 53.4922C102.111 53.4922 101.747 53.5949 101.435 53.8004C101.127 54.0026 100.888 54.2678 100.719 54.5959C100.554 54.9207 100.471 55.2737 100.471 55.6548V56.5249C100.471 57.0353 100.56 57.4695 100.739 57.8274C100.922 58.1854 101.175 58.4588 101.5 58.6477C101.825 58.8333 102.204 58.9261 102.638 58.9261C102.92 58.9261 103.177 58.8864 103.409 58.8068C103.641 58.724 103.841 58.6013 104.011 58.4389C104.18 58.2765 104.309 58.076 104.398 57.8374L105.805 58.0909C105.693 58.5052 105.49 58.8681 105.199 59.1797C104.91 59.4879 104.547 59.7282 104.11 59.9006C103.676 60.0696 103.18 60.1541 102.623 60.1541ZM110.268 60.1491C109.651 60.1491 109.101 59.9917 108.617 59.6768C108.137 59.3587 107.759 58.9062 107.484 58.3196C107.212 57.7296 107.076 57.022 107.076 56.1967C107.076 55.3714 107.214 54.6655 107.489 54.0788C107.767 53.4922 108.148 53.0431 108.632 52.7315C109.116 52.42 109.665 52.2642 110.278 52.2642C110.752 52.2642 111.133 52.3438 111.421 52.5028C111.713 52.6586 111.938 52.8409 112.097 53.0497C112.26 53.2585 112.386 53.4425 112.475 53.6016H112.565V49.8182H114.051V60H112.599V58.8118H112.475C112.386 58.9742 112.256 59.1598 112.087 59.3686C111.922 59.5774 111.693 59.7597 111.401 59.9155C111.11 60.0713 110.732 60.1491 110.268 60.1491ZM110.596 58.8814C111.023 58.8814 111.385 58.7687 111.68 58.5433C111.978 58.3146 112.203 57.9981 112.356 57.5938C112.512 57.1894 112.589 56.7187 112.589 56.1818C112.589 55.6515 112.513 55.1875 112.361 54.7898C112.208 54.392 111.985 54.0821 111.69 53.8601C111.395 53.638 111.03 53.527 110.596 53.527C110.148 53.527 109.776 53.643 109.477 53.875C109.179 54.107 108.954 54.4235 108.801 54.8246C108.652 55.2256 108.577 55.678 108.577 56.1818C108.577 56.6922 108.654 57.1513 108.806 57.5589C108.959 57.9666 109.184 58.2898 109.482 58.5284C109.784 58.7637 110.155 58.8814 110.596 58.8814ZM123.232 52.3636V53.5568H118.917V52.3636H123.232ZM120.1 60V51.4787C120.1 51.0014 120.204 50.6053 120.413 50.2905C120.622 49.9723 120.899 49.7353 121.243 49.5795C121.588 49.4205 121.963 49.3409 122.367 49.3409C122.665 49.3409 122.92 49.3658 123.133 49.4155C123.345 49.4619 123.502 49.505 123.605 49.5447L123.257 50.7479C123.187 50.728 123.098 50.7048 122.988 50.6783C122.879 50.6484 122.746 50.6335 122.591 50.6335C122.229 50.6335 121.971 50.723 121.815 50.902C121.663 51.081 121.586 51.3395 121.586 51.6776V60H120.1ZM127.542 60.1541C126.826 60.1541 126.201 59.9901 125.667 59.6619C125.134 59.3338 124.719 58.8748 124.424 58.2848C124.129 57.6948 123.982 57.0054 123.982 56.2166C123.982 55.4245 124.129 54.7318 124.424 54.1385C124.719 53.5452 125.134 53.0845 125.667 52.7564C126.201 52.4283 126.826 52.2642 127.542 52.2642C128.258 52.2642 128.882 52.4283 129.416 52.7564C129.95 53.0845 130.364 53.5452 130.659 54.1385C130.954 54.7318 131.101 55.4245 131.101 56.2166C131.101 57.0054 130.954 57.6948 130.659 58.2848C130.364 58.8748 129.95 59.3338 129.416 59.6619C128.882 59.9901 128.258 60.1541 127.542 60.1541ZM127.547 58.9062C128.011 58.9062 128.395 58.7836 128.7 58.5384C129.005 58.2931 129.23 57.9666 129.376 57.5589C129.525 57.1513 129.6 56.7022 129.6 56.2116C129.6 55.7244 129.525 55.277 129.376 54.8693C129.23 54.4583 129.005 54.1286 128.7 53.88C128.395 53.6314 128.011 53.5071 127.547 53.5071C127.079 53.5071 126.691 53.6314 126.383 53.88C126.078 54.1286 125.851 54.4583 125.702 54.8693C125.556 55.277 125.483 55.7244 125.483 56.2116C125.483 56.7022 125.556 57.1513 125.702 57.5589C125.851 57.9666 126.078 58.2931 126.383 58.5384C126.691 58.7836 127.079 58.9062 127.547 58.9062ZM132.621 60V52.3636H134.057V53.5767H134.137C134.276 53.1657 134.521 52.8426 134.873 52.6072C135.227 52.3686 135.628 52.2493 136.076 52.2493C136.169 52.2493 136.278 52.2526 136.404 52.2592C136.533 52.2659 136.634 52.2741 136.707 52.2841V53.706C136.648 53.6894 136.541 53.6712 136.389 53.6513C136.237 53.6281 136.084 53.6165 135.932 53.6165C135.58 53.6165 135.267 53.6911 134.992 53.8402C134.72 53.986 134.505 54.1899 134.346 54.4517C134.187 54.7102 134.107 55.0052 134.107 55.3366V60H132.621ZM143.641 60.169C143.157 60.169 142.72 60.0795 142.328 59.9006C141.937 59.7183 141.627 59.4548 141.399 59.1101C141.173 58.7654 141.061 58.3428 141.061 57.8423C141.061 57.4115 141.144 57.0568 141.309 56.7784C141.475 56.5 141.699 56.2796 141.98 56.1172C142.262 55.9548 142.577 55.8321 142.925 55.7493C143.273 55.6664 143.628 55.6035 143.989 55.5604C144.446 55.5073 144.818 55.4643 145.103 55.4311C145.388 55.3946 145.595 55.3366 145.724 55.2571C145.853 55.1776 145.918 55.0483 145.918 54.8693V54.8345C145.918 54.4003 145.795 54.0639 145.55 53.8253C145.308 53.5866 144.947 53.4673 144.466 53.4673C143.966 53.4673 143.571 53.5784 143.283 53.8004C142.998 54.0192 142.801 54.2628 142.691 54.5312L141.294 54.2131C141.46 53.7491 141.702 53.3745 142.02 53.0895C142.342 52.8011 142.711 52.5923 143.129 52.4631C143.547 52.3305 143.986 52.2642 144.446 52.2642C144.751 52.2642 145.074 52.3007 145.416 52.3736C145.761 52.4432 146.082 52.5724 146.38 52.7614C146.682 52.9503 146.929 53.2204 147.121 53.5717C147.313 53.9197 147.409 54.3722 147.409 54.929V60H145.958V58.956H145.898C145.802 59.1482 145.658 59.3371 145.466 59.5227C145.273 59.7083 145.026 59.8625 144.725 59.9851C144.423 60.1077 144.062 60.169 143.641 60.169ZM143.964 58.9759C144.375 58.9759 144.726 58.8946 145.018 58.7322C145.313 58.5698 145.537 58.3577 145.689 58.0959C145.845 57.8307 145.923 57.5473 145.923 57.2457V56.2614C145.87 56.3144 145.767 56.3641 145.615 56.4105C145.466 56.4536 145.295 56.4917 145.103 56.5249C144.91 56.5547 144.723 56.5829 144.541 56.6094C144.359 56.6326 144.206 56.6525 144.083 56.669C143.795 56.7055 143.532 56.7668 143.293 56.853C143.058 56.9392 142.869 57.0634 142.726 57.2259C142.587 57.3849 142.517 57.5971 142.517 57.8622C142.517 58.2301 142.653 58.5085 142.925 58.6974C143.197 58.883 143.543 58.9759 143.964 58.9759ZM16.1214 79.2727V66.5455H16.9368V79.2727H16.1214ZM18.6719 70.4929C18.6188 70.0223 18.4001 69.6577 18.0156 69.3991C17.6312 69.1373 17.1473 69.0064 16.5639 69.0064C16.1463 69.0064 15.785 69.0727 15.4801 69.2053C15.1752 69.3345 14.9382 69.5135 14.7692 69.7422C14.6035 69.9676 14.5206 70.2244 14.5206 70.5128C14.5206 70.7547 14.5769 70.9635 14.6896 71.1392C14.8056 71.3149 14.9564 71.4624 15.142 71.5817C15.331 71.6977 15.5331 71.7955 15.7486 71.875C15.964 71.9512 16.1712 72.0142 16.37 72.0639L17.3643 72.3224C17.6892 72.402 18.0223 72.5097 18.3636 72.6456C18.705 72.7815 19.0215 72.9605 19.3132 73.1825C19.6049 73.4046 19.8402 73.6797 20.0192 74.0078C20.2015 74.3359 20.2926 74.7287 20.2926 75.1861C20.2926 75.7628 20.1435 76.2749 19.8452 76.7223C19.5502 77.1697 19.121 77.5227 18.5575 77.7812C17.9974 78.0398 17.3196 78.169 16.5241 78.169C15.7618 78.169 15.1023 78.0481 14.5455 77.8061C13.9886 77.5642 13.5528 77.2211 13.2379 76.777C12.9231 76.3295 12.7491 75.7992 12.7159 75.1861H14.2571C14.2869 75.554 14.4063 75.8606 14.6151 76.1058C14.8272 76.3478 15.0973 76.5284 15.4254 76.6477C15.7569 76.7637 16.1198 76.8217 16.5142 76.8217C16.9484 76.8217 17.3345 76.7538 17.6726 76.6179C18.014 76.4787 18.2824 76.2865 18.478 76.0412C18.6735 75.7926 18.7713 75.5026 18.7713 75.1712C18.7713 74.8696 18.6851 74.6226 18.5128 74.4304C18.3438 74.2382 18.1134 74.0791 17.8217 73.9531C17.5334 73.8272 17.2069 73.7161 16.8423 73.62L15.6392 73.2919C14.8239 73.0698 14.1776 72.7434 13.7003 72.3125C13.2263 71.8816 12.9893 71.3116 12.9893 70.6023C12.9893 70.0156 13.1484 69.5036 13.4666 69.0661C13.7848 68.6286 14.2157 68.2888 14.7592 68.0469C15.3028 67.8016 15.916 67.679 16.5987 67.679C17.2881 67.679 17.8963 67.8 18.4233 68.0419C18.9536 68.2839 19.3712 68.617 19.6761 69.0412C19.9811 69.4621 20.1402 69.946 20.1534 70.4929H18.6719ZM21.6354 76.0114V74.7685L26.0352 67.8182H27.0147V69.6477H26.3932L23.2462 74.6293V74.7088H29.2767V76.0114H21.6354ZM26.4628 78V75.6335L26.4727 75.0668V67.8182H27.9294V78H26.4628ZM34.2301 78.1392C33.607 78.1392 33.0469 78.0199 32.5497 77.7812C32.0559 77.5393 31.6615 77.2079 31.3665 76.7869C31.0715 76.366 30.9141 75.8854 30.8942 75.3452H32.3857C32.4221 75.7827 32.616 76.1423 32.9673 76.424C33.3187 76.7057 33.7396 76.8466 34.2301 76.8466C34.6212 76.8466 34.9676 76.7571 35.2692 76.5781C35.5741 76.3958 35.8127 76.1456 35.9851 75.8274C36.1608 75.5092 36.2486 75.1463 36.2486 74.7386C36.2486 74.3243 36.1591 73.9548 35.9801 73.63C35.8011 73.3052 35.5542 73.05 35.2394 72.8643C34.9278 72.6787 34.5698 72.5843 34.1655 72.581C33.8573 72.581 33.5474 72.634 33.2358 72.7401C32.9242 72.8461 32.6724 72.9853 32.4801 73.1577L31.0732 72.9489L31.6449 67.8182H37.2429V69.1357H32.9226L32.5994 71.9844H32.6591C32.858 71.7921 33.1215 71.6314 33.4496 71.5021C33.781 71.3729 34.1357 71.3082 34.5135 71.3082C35.1333 71.3082 35.6851 71.4557 36.169 71.7507C36.6563 72.0457 37.0391 72.4484 37.3175 72.9588C37.5992 73.4659 37.7384 74.0492 37.7351 74.7088C37.7384 75.3684 37.5893 75.9567 37.2876 76.4737C36.9894 76.9908 36.5751 77.3984 36.0448 77.6967C35.5178 77.9917 34.9129 78.1392 34.2301 78.1392ZM40.9957 76.608L40.9211 77.1499C40.8714 77.5476 40.7869 77.9619 40.6675 78.3928C40.5515 78.8269 40.4306 79.2296 40.3046 79.6009C40.182 79.9721 40.0809 80.267 40.0013 80.4858H38.9474C38.9905 80.2803 39.0501 80.0019 39.1263 79.6506C39.2026 79.3026 39.2771 78.9131 39.3501 78.4822C39.423 78.0514 39.4777 77.6122 39.5141 77.1648L39.5638 76.608H40.9957ZM46.1106 78.169C45.3251 78.1657 44.654 77.9586 44.0971 77.5476C43.5403 77.1366 43.1144 76.5384 42.8194 75.7528C42.5245 74.9673 42.377 74.0211 42.377 72.9141C42.377 71.8104 42.5245 70.8674 42.8194 70.0852C43.1177 69.303 43.5453 68.7064 44.1021 68.2955C44.6622 67.8845 45.3318 67.679 46.1106 67.679C46.8895 67.679 47.5574 67.8861 48.1142 68.3004C48.671 68.7114 49.0969 69.308 49.3919 70.0902C49.6902 70.8691 49.8393 71.8104 49.8393 72.9141C49.8393 74.0244 49.6918 74.9723 49.3969 75.7578C49.1019 76.54 48.676 77.1383 48.1192 77.5526C47.5623 77.9635 46.8928 78.169 46.1106 78.169ZM46.1106 76.8416C46.8 76.8416 47.3386 76.5052 47.7264 75.8324C48.1175 75.1596 48.313 74.1868 48.313 72.9141C48.313 72.0689 48.2236 71.3546 48.0446 70.7713C47.8689 70.1847 47.6154 69.7405 47.2839 69.4389C46.9558 69.134 46.5647 68.9815 46.1106 68.9815C45.4246 68.9815 44.886 69.3196 44.4949 69.9957C44.1038 70.6719 43.9066 71.6446 43.9032 72.9141C43.9032 73.7625 43.9911 74.4801 44.1667 75.0668C44.3457 75.6501 44.5993 76.0926 44.9274 76.3942C45.2555 76.6925 45.6499 76.8416 46.1106 76.8416ZM55.0077 78.169C54.2222 78.1657 53.5511 77.9586 52.9942 77.5476C52.4374 77.1366 52.0115 76.5384 51.7165 75.7528C51.4216 74.9673 51.2741 74.0211 51.2741 72.9141C51.2741 71.8104 51.4216 70.8674 51.7165 70.0852C52.0148 69.303 52.4424 68.7064 52.9992 68.2955C53.5594 67.8845 54.2289 67.679 55.0077 67.679C55.7866 67.679 56.4545 67.8861 57.0113 68.3004C57.5681 68.7114 57.994 69.308 58.289 70.0902C58.5873 70.8691 58.7364 71.8104 58.7364 72.9141C58.7364 74.0244 58.5889 74.9723 58.294 75.7578C57.999 76.54 57.5731 77.1383 57.0163 77.5526C56.4594 77.9635 55.7899 78.169 55.0077 78.169ZM55.0077 76.8416C55.6971 76.8416 56.2357 76.5052 56.6235 75.8324C57.0146 75.1596 57.2102 74.1868 57.2102 72.9141C57.2102 72.0689 57.1207 71.3546 56.9417 70.7713C56.766 70.1847 56.5125 69.7405 56.181 69.4389C55.8529 69.134 55.4618 68.9815 55.0077 68.9815C54.3217 68.9815 53.7831 69.3196 53.392 69.9957C53.0009 70.6719 52.8037 71.6446 52.8004 72.9141C52.8004 73.7625 52.8882 74.4801 53.0638 75.0668C53.2428 75.6501 53.4964 76.0926 53.8245 76.3942C54.1526 76.6925 54.547 76.8416 55.0077 76.8416ZM63.9049 78.169C63.1193 78.1657 62.4482 77.9586 61.8914 77.5476C61.3345 77.1366 60.9086 76.5384 60.6137 75.7528C60.3187 74.9673 60.1712 74.0211 60.1712 72.9141C60.1712 71.8104 60.3187 70.8674 60.6137 70.0852C60.912 69.303 61.3395 68.7064 61.8963 68.2955C62.4565 67.8845 63.126 67.679 63.9049 67.679C64.6837 67.679 65.3516 67.8861 65.9084 68.3004C66.4652 68.7114 66.8911 69.308 67.1861 70.0902C67.4844 70.8691 67.6335 71.8104 67.6335 72.9141C67.6335 74.0244 67.4861 74.9723 67.1911 75.7578C66.8961 76.54 66.4702 77.1383 65.9134 77.5526C65.3566 77.9635 64.687 78.169 63.9049 78.169ZM63.9049 76.8416C64.5942 76.8416 65.1328 76.5052 65.5206 75.8324C65.9117 75.1596 66.1073 74.1868 66.1073 72.9141C66.1073 72.0689 66.0178 71.3546 65.8388 70.7713C65.6631 70.1847 65.4096 69.7405 65.0781 69.4389C64.75 69.134 64.3589 68.9815 63.9049 68.9815C63.2188 68.9815 62.6802 69.3196 62.2891 69.9957C61.898 70.6719 61.7008 71.6446 61.6975 72.9141C61.6975 73.7625 61.7853 74.4801 61.961 75.0668C62.1399 75.6501 62.3935 76.0926 62.7216 76.3942C63.0497 76.6925 63.4442 76.8416 63.9049 76.8416ZM78.5645 72.228L77.2172 72.4666C77.1608 72.2943 77.0713 72.1302 76.9487 71.9744C76.8294 71.8187 76.667 71.6911 76.4615 71.5916C76.256 71.4922 75.9991 71.4425 75.6909 71.4425C75.27 71.4425 74.9186 71.5369 74.6369 71.7259C74.3552 71.9115 74.2143 72.1518 74.2143 72.4467C74.2143 72.7019 74.3088 72.9074 74.4977 73.0632C74.6866 73.219 74.9916 73.3466 75.4125 73.446L76.6256 73.7244C77.3282 73.8868 77.8519 74.1371 78.1966 74.4751C78.5413 74.8132 78.7136 75.2524 78.7136 75.7926C78.7136 76.25 78.5811 76.6577 78.3159 77.0156C78.0541 77.3703 77.6878 77.6487 77.2172 77.8509C76.7499 78.053 76.2079 78.1541 75.5915 78.1541C74.7364 78.1541 74.0387 77.9718 73.4984 77.6072C72.9582 77.2393 72.6267 76.7173 72.5041 76.0412L73.9409 75.8224C74.0304 76.197 74.2143 76.4804 74.4927 76.6726C74.7712 76.8615 75.1341 76.956 75.5815 76.956C76.0687 76.956 76.4582 76.8549 76.7499 76.6527C77.0415 76.4472 77.1874 76.197 77.1874 75.902C77.1874 75.6634 77.0979 75.4628 76.9189 75.3004C76.7432 75.138 76.4731 75.0154 76.1085 74.9325L74.8159 74.6491C74.1033 74.4867 73.5763 74.2282 73.2349 73.8736C72.8969 73.5189 72.7278 73.0698 72.7278 72.5263C72.7278 72.0755 72.8538 71.6811 73.1057 71.343C73.3576 71.005 73.7056 70.7415 74.1497 70.5526C74.5938 70.3603 75.1026 70.2642 75.676 70.2642C76.5013 70.2642 77.1509 70.4432 77.6249 70.8011C78.0988 71.1558 78.412 71.6314 78.5645 72.228ZM80.208 78V70.3636H81.6349V71.6065H81.7293C81.8884 71.1856 82.1486 70.8575 82.5099 70.6222C82.8712 70.3835 83.3037 70.2642 83.8075 70.2642C84.3179 70.2642 84.7454 70.3835 85.0901 70.6222C85.4382 70.8608 85.695 71.1889 85.8607 71.6065H85.9403C86.1226 71.1989 86.4126 70.8741 86.8103 70.6321C87.208 70.3868 87.682 70.2642 88.2322 70.2642C88.9249 70.2642 89.49 70.4813 89.9275 70.9155C90.3683 71.3497 90.5887 72.0043 90.5887 72.8793V78H89.1022V73.0185C89.1022 72.5014 88.9614 72.1269 88.6796 71.8949C88.3979 71.6629 88.0615 71.5469 87.6704 71.5469C87.1865 71.5469 86.8103 71.696 86.5418 71.9943C86.2734 72.2893 86.1391 72.6688 86.1391 73.1328V78H84.6576V72.924C84.6576 72.5097 84.5284 72.1766 84.2698 71.9247C84.0113 71.6728 83.6749 71.5469 83.2606 71.5469C82.9789 71.5469 82.7187 71.6214 82.4801 71.7706C82.2447 71.9164 82.0542 72.1203 81.9083 72.3821C81.7658 72.6439 81.6945 72.9472 81.6945 73.2919V78H80.208ZM94.6634 78.169C94.1795 78.169 93.742 78.0795 93.3509 77.9006C92.9598 77.7183 92.6499 77.4548 92.4212 77.1101C92.1958 76.7654 92.0831 76.3428 92.0831 75.8423C92.0831 75.4115 92.166 75.0568 92.3317 74.7784C92.4974 74.5 92.7212 74.2796 93.0029 74.1172C93.2846 73.9548 93.5995 73.8321 93.9475 73.7493C94.2955 73.6664 94.6501 73.6035 95.0114 73.5604C95.4688 73.5073 95.84 73.4643 96.125 73.4311C96.4101 73.3946 96.6172 73.3366 96.7465 73.2571C96.8757 73.1776 96.9404 73.0483 96.9404 72.8693V72.8345C96.9404 72.4003 96.8177 72.0639 96.5725 71.8253C96.3305 71.5866 95.9693 71.4673 95.4887 71.4673C94.9882 71.4673 94.5938 71.5784 94.3054 71.8004C94.0204 72.0192 93.8232 72.2628 93.7138 72.5312L92.3168 72.2131C92.4825 71.7491 92.7245 71.3745 93.0426 71.0895C93.3641 70.8011 93.7337 70.5923 94.1513 70.4631C94.5689 70.3305 95.0081 70.2642 95.4688 70.2642C95.7737 70.2642 96.0969 70.3007 96.4382 70.3736C96.7829 70.4432 97.1044 70.5724 97.4027 70.7614C97.7043 70.9503 97.9513 71.2204 98.1435 71.5717C98.3357 71.9197 98.4319 72.3722 98.4319 72.929V78H96.9801V76.956H96.9205C96.8244 77.1482 96.6802 77.3371 96.488 77.5227C96.2957 77.7083 96.0488 77.8625 95.7472 77.9851C95.4456 78.1077 95.0843 78.169 94.6634 78.169ZM94.9865 76.9759C95.3975 76.9759 95.7489 76.8946 96.0405 76.7322C96.3355 76.5698 96.5592 76.3577 96.7117 76.0959C96.8675 75.8307 96.9453 75.5473 96.9453 75.2457V74.2614C96.8923 74.3144 96.7896 74.3641 96.6371 74.4105C96.488 74.4536 96.3173 74.4917 96.125 74.5249C95.9328 74.5547 95.7455 74.5829 95.5632 74.6094C95.381 74.6326 95.2285 74.6525 95.1059 74.669C94.8175 74.7055 94.554 74.7668 94.3154 74.853C94.0801 74.9392 93.8911 75.0634 93.7486 75.2259C93.6094 75.3849 93.5398 75.5971 93.5398 75.8622C93.5398 76.2301 93.6757 76.5085 93.9475 76.6974C94.2193 76.883 94.5656 76.9759 94.9865 76.9759ZM101.758 67.8182V78H100.272V67.8182H101.758ZM105.105 67.8182V78H103.618V67.8182H105.105ZM110.649 78V67.8182H112.135V71.6016H112.225C112.311 71.4425 112.435 71.2585 112.598 71.0497C112.76 70.8409 112.985 70.6586 113.274 70.5028C113.562 70.3438 113.943 70.2642 114.417 70.2642C115.034 70.2642 115.584 70.42 116.068 70.7315C116.552 71.0431 116.931 71.4922 117.206 72.0788C117.485 72.6655 117.624 73.3714 117.624 74.1967C117.624 75.022 117.486 75.7296 117.211 76.3196C116.936 76.9062 116.558 77.3587 116.078 77.6768C115.597 77.9917 115.049 78.1491 114.432 78.1491C113.968 78.1491 113.589 78.0713 113.294 77.9155C113.002 77.7597 112.773 77.5774 112.608 77.3686C112.442 77.1598 112.314 76.9742 112.225 76.8118H112.101V78H110.649ZM112.106 74.1818C112.106 74.7187 112.183 75.1894 112.339 75.5938C112.495 75.9981 112.72 76.3146 113.015 76.5433C113.31 76.7687 113.672 76.8814 114.099 76.8814C114.543 76.8814 114.914 76.7637 115.213 76.5284C115.511 76.2898 115.736 75.9666 115.889 75.5589C116.045 75.1513 116.123 74.6922 116.123 74.1818C116.123 73.678 116.046 73.2256 115.894 72.8246C115.745 72.4235 115.519 72.107 115.218 71.875C114.919 71.643 114.547 71.527 114.099 71.527C113.668 71.527 113.304 71.638 113.005 71.8601C112.71 72.0821 112.487 72.392 112.334 72.7898C112.182 73.1875 112.106 73.6515 112.106 74.1818ZM123.991 74.8331V70.3636H125.482V78H124.02V76.6776H123.941C123.765 77.0852 123.483 77.425 123.096 77.6967C122.711 77.9652 122.232 78.0994 121.659 78.0994C121.168 78.0994 120.734 77.9917 120.356 77.7763C119.982 77.5575 119.687 77.2344 119.471 76.8068C119.259 76.3793 119.153 75.8506 119.153 75.2209V70.3636H120.64V75.0419C120.64 75.5623 120.784 75.9766 121.072 76.2848C121.361 76.593 121.735 76.7472 122.196 76.7472C122.474 76.7472 122.751 76.6776 123.026 76.5384C123.304 76.3991 123.535 76.1887 123.717 75.907C123.903 75.6252 123.994 75.2673 123.991 74.8331ZM133.062 72.228L131.714 72.4666C131.658 72.2943 131.569 72.1302 131.446 71.9744C131.327 71.8187 131.164 71.6911 130.959 71.5916C130.753 71.4922 130.496 71.4425 130.188 71.4425C129.767 71.4425 129.416 71.5369 129.134 71.7259C128.852 71.9115 128.712 72.1518 128.712 72.4467C128.712 72.7019 128.806 72.9074 128.995 73.0632C129.184 73.219 129.489 73.3466 129.91 73.446L131.123 73.7244C131.825 73.8868 132.349 74.1371 132.694 74.4751C133.038 74.8132 133.211 75.2524 133.211 75.7926C133.211 76.25 133.078 76.6577 132.813 77.0156C132.551 77.3703 132.185 77.6487 131.714 77.8509C131.247 78.053 130.705 78.1541 130.089 78.1541C129.234 78.1541 128.536 77.9718 127.996 77.6072C127.455 77.2393 127.124 76.7173 127.001 76.0412L128.438 75.8224C128.528 76.197 128.712 76.4804 128.99 76.6726C129.268 76.8615 129.631 76.956 130.079 76.956C130.566 76.956 130.955 76.8549 131.247 76.6527C131.539 76.4472 131.685 76.197 131.685 75.902C131.685 75.6634 131.595 75.4628 131.416 75.3004C131.24 75.138 130.97 75.0154 130.606 74.9325L129.313 74.6491C128.6 74.4867 128.074 74.2282 127.732 73.8736C127.394 73.5189 127.225 73.0698 127.225 72.5263C127.225 72.0755 127.351 71.6811 127.603 71.343C127.855 71.005 128.203 70.7415 128.647 70.5526C129.091 70.3603 129.6 70.2642 130.173 70.2642C130.998 70.2642 131.648 70.4432 132.122 70.8011C132.596 71.1558 132.909 71.6314 133.062 72.228ZM134.705 78V70.3636H136.192V78H134.705ZM135.456 69.1854C135.197 69.1854 134.975 69.0992 134.79 68.9268C134.607 68.7512 134.516 68.5424 134.516 68.3004C134.516 68.0552 134.607 67.8464 134.79 67.674C134.975 67.4983 135.197 67.4105 135.456 67.4105C135.714 67.4105 135.935 67.4983 136.117 67.674C136.303 67.8464 136.396 68.0552 136.396 68.3004C136.396 68.5424 136.303 68.7512 136.117 68.9268C135.935 69.0992 135.714 69.1854 135.456 69.1854ZM139.538 73.4659V78H138.052V70.3636H139.478V71.6065H139.573C139.749 71.2022 140.024 70.8774 140.398 70.6321C140.776 70.3868 141.252 70.2642 141.825 70.2642C142.345 70.2642 142.801 70.3736 143.192 70.5923C143.583 70.8078 143.887 71.1293 144.102 71.5568C144.317 71.9844 144.425 72.513 144.425 73.1428V78H142.939V73.3217C142.939 72.7682 142.794 72.3357 142.506 72.0241C142.218 71.7093 141.822 71.5518 141.318 71.5518C140.973 71.5518 140.667 71.6264 140.398 71.7756C140.133 71.9247 139.923 72.1435 139.767 72.4318C139.614 72.7169 139.538 73.0616 139.538 73.4659ZM149.57 78.1541C148.818 78.1541 148.17 77.9934 147.626 77.6719C147.086 77.3471 146.668 76.8913 146.373 76.3047C146.082 75.7147 145.936 75.0237 145.936 74.2315C145.936 73.4493 146.082 72.7599 146.373 72.1634C146.668 71.5668 147.079 71.1011 147.606 70.7663C148.136 70.4316 148.756 70.2642 149.466 70.2642C149.896 70.2642 150.314 70.3355 150.718 70.478C151.123 70.6205 151.486 70.8442 151.807 71.1491C152.129 71.4541 152.382 71.8501 152.568 72.3374C152.753 72.8213 152.846 73.4096 152.846 74.1023V74.6293H146.776V73.5156H151.39C151.39 73.1245 151.31 72.7782 151.151 72.4766C150.992 72.1716 150.768 71.9313 150.48 71.7557C150.195 71.58 149.86 71.4922 149.475 71.4922C149.058 71.4922 148.693 71.5949 148.382 71.8004C148.073 72.0026 147.835 72.2678 147.666 72.5959C147.5 72.9207 147.417 73.2737 147.417 73.6548V74.5249C147.417 75.0353 147.507 75.4695 147.686 75.8274C147.868 76.1854 148.122 76.4588 148.446 76.6477C148.771 76.8333 149.151 76.9261 149.585 76.9261C149.867 76.9261 150.123 76.8864 150.355 76.8068C150.587 76.724 150.788 76.6013 150.957 76.4389C151.126 76.2765 151.255 76.076 151.345 75.8374L152.752 76.0909C152.639 76.5052 152.437 76.8681 152.145 77.1797C151.857 77.4879 151.494 77.7282 151.056 77.9006C150.622 78.0696 150.127 78.1541 149.57 78.1541ZM160.078 72.228L158.731 72.4666C158.674 72.2943 158.585 72.1302 158.462 71.9744C158.343 71.8187 158.18 71.6911 157.975 71.5916C157.769 71.4922 157.512 71.4425 157.204 71.4425C156.783 71.4425 156.432 71.5369 156.15 71.7259C155.869 71.9115 155.728 72.1518 155.728 72.4467C155.728 72.7019 155.822 72.9074 156.011 73.0632C156.2 73.219 156.505 73.3466 156.926 73.446L158.139 73.7244C158.842 73.8868 159.365 74.1371 159.71 74.4751C160.055 74.8132 160.227 75.2524 160.227 75.7926C160.227 76.25 160.094 76.6577 159.829 77.0156C159.567 77.3703 159.201 77.6487 158.731 77.8509C158.263 78.053 157.721 78.1541 157.105 78.1541C156.25 78.1541 155.552 77.9718 155.012 77.6072C154.472 77.2393 154.14 76.7173 154.017 76.0412L155.454 75.8224C155.544 76.197 155.728 76.4804 156.006 76.6726C156.285 76.8615 156.647 76.956 157.095 76.956C157.582 76.956 157.972 76.8549 158.263 76.6527C158.555 76.4472 158.701 76.197 158.701 75.902C158.701 75.6634 158.611 75.4628 158.432 75.3004C158.257 75.138 157.986 75.0154 157.622 74.9325L156.329 74.6491C155.617 74.4867 155.09 74.2282 154.748 73.8736C154.41 73.5189 154.241 73.0698 154.241 72.5263C154.241 72.0755 154.367 71.6811 154.619 71.343C154.871 71.005 155.219 70.7415 155.663 70.5526C156.107 70.3603 156.616 70.2642 157.189 70.2642C158.015 70.2642 158.664 70.4432 159.138 70.8011C159.612 71.1558 159.925 71.6314 160.078 72.228ZM167.444 72.228L166.096 72.4666C166.04 72.2943 165.951 72.1302 165.828 71.9744C165.709 71.8187 165.546 71.6911 165.341 71.5916C165.135 71.4922 164.878 71.4425 164.57 71.4425C164.149 71.4425 163.798 71.5369 163.516 71.7259C163.234 71.9115 163.094 72.1518 163.094 72.4467C163.094 72.7019 163.188 72.9074 163.377 73.0632C163.566 73.219 163.871 73.3466 164.292 73.446L165.505 73.7244C166.207 73.8868 166.731 74.1371 167.076 74.4751C167.42 74.8132 167.593 75.2524 167.593 75.7926C167.593 76.25 167.46 76.6577 167.195 77.0156C166.933 77.3703 166.567 77.6487 166.096 77.8509C165.629 78.053 165.087 78.1541 164.471 78.1541C163.616 78.1541 162.918 77.9718 162.378 77.6072C161.837 77.2393 161.506 76.7173 161.383 76.0412L162.82 75.8224C162.91 76.197 163.094 76.4804 163.372 76.6726C163.65 76.8615 164.013 76.956 164.461 76.956C164.948 76.956 165.337 76.8549 165.629 76.6527C165.921 76.4472 166.067 76.197 166.067 75.902C166.067 75.6634 165.977 75.4628 165.798 75.3004C165.622 75.138 165.352 75.0154 164.988 74.9325L163.695 74.6491C162.983 74.4867 162.456 74.2282 162.114 73.8736C161.776 73.5189 161.607 73.0698 161.607 72.5263C161.607 72.0755 161.733 71.6811 161.985 71.343C162.237 71.005 162.585 70.7415 163.029 70.5526C163.473 70.3603 163.982 70.2642 164.555 70.2642C165.38 70.2642 166.03 70.4432 166.504 70.8011C166.978 71.1558 167.291 71.6314 167.444 72.228ZM174.139 67.8182V78H172.652V67.8182H174.139ZM175.999 78V70.3636H177.485V78H175.999ZM176.749 69.1854C176.491 69.1854 176.269 69.0992 176.083 68.9268C175.901 68.7512 175.81 68.5424 175.81 68.3004C175.81 68.0552 175.901 67.8464 176.083 67.674C176.269 67.4983 176.491 67.4105 176.749 67.4105C177.008 67.4105 177.228 67.4983 177.411 67.674C177.596 67.8464 177.689 68.0552 177.689 68.3004C177.689 68.5424 177.596 68.7512 177.411 68.9268C177.228 69.0992 177.008 69.1854 176.749 69.1854ZM180.831 73.4659V78H179.345V70.3636H180.772V71.6065H180.866C181.042 71.2022 181.317 70.8774 181.692 70.6321C182.069 70.3868 182.545 70.2642 183.118 70.2642C183.639 70.2642 184.095 70.3736 184.486 70.5923C184.877 70.8078 185.18 71.1293 185.395 71.5568C185.611 71.9844 185.719 72.513 185.719 73.1428V78H184.232V73.3217C184.232 72.7682 184.088 72.3357 183.8 72.0241C183.511 71.7093 183.115 71.5518 182.611 71.5518C182.267 71.5518 181.96 71.6264 181.692 71.7756C181.426 71.9247 181.216 72.1435 181.06 72.4318C180.908 72.7169 180.831 73.0616 180.831 73.4659ZM190.863 78.1541C190.111 78.1541 189.463 77.9934 188.919 77.6719C188.379 77.3471 187.962 76.8913 187.667 76.3047C187.375 75.7147 187.229 75.0237 187.229 74.2315C187.229 73.4493 187.375 72.7599 187.667 72.1634C187.962 71.5668 188.373 71.1011 188.9 70.7663C189.43 70.4316 190.05 70.2642 190.759 70.2642C191.19 70.2642 191.607 70.3355 192.012 70.478C192.416 70.6205 192.779 70.8442 193.101 71.1491C193.422 71.4541 193.676 71.8501 193.861 72.3374C194.047 72.8213 194.14 73.4096 194.14 74.1023V74.6293H188.069V73.5156H192.683C192.683 73.1245 192.603 72.7782 192.444 72.4766C192.285 72.1716 192.062 71.9313 191.773 71.7557C191.488 71.58 191.153 71.4922 190.769 71.4922C190.351 71.4922 189.987 71.5949 189.675 71.8004C189.367 72.0026 189.128 72.2678 188.959 72.5959C188.794 72.9207 188.711 73.2737 188.711 73.6548V74.5249C188.711 75.0353 188.8 75.4695 188.979 75.8274C189.161 76.1854 189.415 76.4588 189.74 76.6477C190.065 76.8333 190.444 76.9261 190.878 76.9261C191.16 76.9261 191.417 76.8864 191.649 76.8068C191.881 76.724 192.081 76.6013 192.25 76.4389C192.419 76.2765 192.549 76.076 192.638 75.8374L194.045 76.0909C193.933 76.5052 193.73 76.8681 193.439 77.1797C193.15 77.4879 192.787 77.7282 192.35 77.9006C191.916 78.0696 191.42 78.1541 190.863 78.1541ZM16.2159 96.1541C15.5 96.1541 14.8752 95.9901 14.3416 95.6619C13.808 95.3338 13.3937 94.8748 13.0987 94.2848C12.8037 93.6948 12.6562 93.0054 12.6562 92.2166C12.6562 91.4245 12.8037 90.7318 13.0987 90.1385C13.3937 89.5452 13.808 89.0845 14.3416 88.7564C14.8752 88.4283 15.5 88.2642 16.2159 88.2642C16.9318 88.2642 17.5566 88.4283 18.0902 88.7564C18.6238 89.0845 19.0381 89.5452 19.3331 90.1385C19.6281 90.7318 19.7756 91.4245 19.7756 92.2166C19.7756 93.0054 19.6281 93.6948 19.3331 94.2848C19.0381 94.8748 18.6238 95.3338 18.0902 95.6619C17.5566 95.9901 16.9318 96.1541 16.2159 96.1541ZM16.2209 94.9062C16.6849 94.9062 17.0694 94.7836 17.3743 94.5384C17.6792 94.2931 17.9046 93.9666 18.0504 93.5589C18.1996 93.1513 18.2741 92.7022 18.2741 92.2116C18.2741 91.7244 18.1996 91.277 18.0504 90.8693C17.9046 90.4583 17.6792 90.1286 17.3743 89.88C17.0694 89.6314 16.6849 89.5071 16.2209 89.5071C15.7536 89.5071 15.3658 89.6314 15.0575 89.88C14.7526 90.1286 14.5256 90.4583 14.3764 90.8693C14.2306 91.277 14.1577 91.7244 14.1577 92.2116C14.1577 92.7022 14.2306 93.1513 14.3764 93.5589C14.5256 93.9666 14.7526 94.2931 15.0575 94.5384C15.3658 94.7836 15.7536 94.9062 16.2209 94.9062ZM24.9291 88.3636V89.5568H20.6137V88.3636H24.9291ZM21.797 96V87.4787C21.797 87.0014 21.9014 86.6053 22.1102 86.2905C22.319 85.9723 22.5957 85.7353 22.9404 85.5795C23.2851 85.4205 23.6597 85.3409 24.064 85.3409C24.3623 85.3409 24.6175 85.3658 24.8296 85.4155C25.0418 85.4619 25.1992 85.505 25.3019 85.5447L24.9539 86.7479C24.8843 86.728 24.7948 86.7048 24.6855 86.6783C24.5761 86.6484 24.4435 86.6335 24.2877 86.6335C23.9265 86.6335 23.6679 86.723 23.5122 86.902C23.3597 87.081 23.2835 87.3395 23.2835 87.6776V96H21.797ZM33.1045 96.1541C32.3654 96.1541 31.729 95.9867 31.1954 95.652C30.6651 95.3139 30.2574 94.8482 29.9724 94.255C29.6874 93.6617 29.5448 92.9822 29.5448 92.2166C29.5448 91.4411 29.6907 90.7566 29.9823 90.1634C30.274 89.5668 30.685 89.1011 31.2153 88.7663C31.7456 88.4316 32.3704 88.2642 33.0896 88.2642C33.6696 88.2642 34.1867 88.3719 34.6407 88.5874C35.0948 88.7995 35.461 89.0978 35.7394 89.4822C36.0212 89.8667 36.1885 90.3158 36.2416 90.8295H34.7948C34.7153 90.4716 34.533 90.1634 34.248 89.9048C33.9662 89.6463 33.5884 89.517 33.1144 89.517C32.7001 89.517 32.3372 89.6264 32.0257 89.8452C31.7174 90.0606 31.4771 90.3688 31.3048 90.7699C31.1324 91.1676 31.0463 91.6383 31.0463 92.1818C31.0463 92.7386 31.1308 93.2192 31.2998 93.6236C31.4688 94.0279 31.7075 94.3411 32.0157 94.5632C32.3273 94.7853 32.6935 94.8963 33.1144 94.8963C33.3962 94.8963 33.6514 94.8449 33.8801 94.7422C34.1121 94.6361 34.306 94.4853 34.4617 94.2898C34.6208 94.0942 34.7319 93.8589 34.7948 93.5838H36.2416C36.1885 94.0777 36.0278 94.5185 35.7593 94.9062C35.4909 95.294 35.1313 95.599 34.6805 95.821C34.2331 96.0431 33.7077 96.1541 33.1045 96.1541ZM37.6912 96V88.3636H39.128V89.5767H39.2076C39.3468 89.1657 39.592 88.8426 39.9434 88.6072C40.298 88.3686 40.6991 88.2493 41.1465 88.2493C41.2393 88.2493 41.3487 88.2526 41.4746 88.2592C41.6039 88.2659 41.705 88.2741 41.7779 88.2841V89.706C41.7182 89.6894 41.6122 89.6712 41.4597 89.6513C41.3072 89.6281 41.1548 89.6165 41.0023 89.6165C40.651 89.6165 40.3378 89.6911 40.0627 89.8402C39.7909 89.986 39.5755 90.1899 39.4164 90.4517C39.2573 90.7102 39.1777 91.0052 39.1777 91.3366V96H37.6912ZM45.942 96.1541C45.1897 96.1541 44.5417 95.9934 43.9982 95.6719C43.4579 95.3471 43.0403 94.8913 42.7453 94.3047C42.4536 93.7147 42.3078 93.0237 42.3078 92.2315C42.3078 91.4493 42.4536 90.7599 42.7453 90.1634C43.0403 89.5668 43.4513 89.1011 43.9783 88.7663C44.5086 88.4316 45.1284 88.2642 45.8376 88.2642C46.2685 88.2642 46.6861 88.3355 47.0905 88.478C47.4948 88.6205 47.8578 88.8442 48.1793 89.1491C48.5008 89.4541 48.7543 89.8501 48.9399 90.3374C49.1255 90.8213 49.2183 91.4096 49.2183 92.1023V92.6293H43.148V91.5156H47.7616C47.7616 91.1245 47.6821 90.7782 47.523 90.4766C47.3639 90.1716 47.1402 89.9313 46.8518 89.7557C46.5668 89.58 46.2321 89.4922 45.8476 89.4922C45.43 89.4922 45.0654 89.5949 44.7538 89.8004C44.4456 90.0026 44.207 90.2678 44.0379 90.5959C43.8722 90.9207 43.7893 91.2737 43.7893 91.6548V92.5249C43.7893 93.0353 43.8788 93.4695 44.0578 93.8274C44.2401 94.1854 44.4937 94.4588 44.8185 94.6477C45.1433 94.8333 45.5228 94.9261 45.957 94.9261C46.2387 94.9261 46.4955 94.8864 46.7276 94.8068C46.9596 94.724 47.1601 94.6013 47.3291 94.4389C47.4982 94.2765 47.6274 94.076 47.7169 93.8374L49.1239 94.0909C49.0112 94.5052 48.809 94.8681 48.5173 95.1797C48.229 95.4879 47.8661 95.7282 47.4286 95.9006C46.9944 96.0696 46.4989 96.1541 45.942 96.1541ZM53.5863 96.1491C52.9698 96.1491 52.4196 95.9917 51.9357 95.6768C51.4552 95.3587 51.0773 94.9062 50.8022 94.3196C50.5304 93.7296 50.3946 93.022 50.3946 92.1967C50.3946 91.3714 50.5321 90.6655 50.8072 90.0788C51.0856 89.4922 51.4668 89.0431 51.9507 88.7315C52.4346 88.42 52.9831 88.2642 53.5963 88.2642C54.0702 88.2642 54.4514 88.3438 54.7397 88.5028C55.0314 88.6586 55.2568 88.8409 55.4159 89.0497C55.5783 89.2585 55.7042 89.4425 55.7937 89.6016H55.8832V85.8182H57.3697V96H55.918V94.8118H55.7937C55.7042 94.9742 55.575 95.1598 55.4059 95.3686C55.2402 95.5774 55.0115 95.7597 54.7198 95.9155C54.4282 96.0713 54.0503 96.1491 53.5863 96.1491ZM53.9144 94.8814C54.342 94.8814 54.7033 94.7687 54.9982 94.5433C55.2965 94.3146 55.5219 93.9981 55.6744 93.5938C55.8302 93.1894 55.908 92.7187 55.908 92.1818C55.908 91.6515 55.8318 91.1875 55.6794 90.7898C55.5269 90.392 55.3032 90.0821 55.0082 89.8601C54.7132 89.638 54.3486 89.527 53.9144 89.527C53.467 89.527 53.0941 89.643 52.7958 89.875C52.4975 90.107 52.2722 90.4235 52.1197 90.8246C51.9705 91.2256 51.896 91.678 51.896 92.1818C51.896 92.6922 51.9722 93.1513 52.1247 93.5589C52.2771 93.9666 52.5025 94.2898 52.8008 94.5284C53.1024 94.7637 53.4736 94.8814 53.9144 94.8814ZM59.3513 96V88.3636H60.8378V96H59.3513ZM60.102 87.1854C59.8435 87.1854 59.6214 87.0992 59.4358 86.9268C59.2535 86.7512 59.1624 86.5424 59.1624 86.3004C59.1624 86.0552 59.2535 85.8464 59.4358 85.674C59.6214 85.4983 59.8435 85.4105 60.102 85.4105C60.3606 85.4105 60.581 85.4983 60.7633 85.674C60.9489 85.8464 61.0417 86.0552 61.0417 86.3004C61.0417 86.5424 60.9489 86.7512 60.7633 86.9268C60.581 87.0992 60.3606 87.1854 60.102 87.1854ZM66.2623 88.3636V89.5568H62.0911V88.3636H66.2623ZM63.2097 86.5341H64.6962V93.7578C64.6962 94.0462 64.7393 94.2633 64.8255 94.4091C64.9117 94.5516 65.0227 94.6494 65.1586 94.7024C65.2978 94.7521 65.4486 94.777 65.611 94.777C65.7303 94.777 65.8347 94.7687 65.9242 94.7521C66.0137 94.7356 66.0833 94.7223 66.133 94.7124L66.4015 95.9403C66.3153 95.9735 66.1927 96.0066 66.0336 96.0398C65.8745 96.0762 65.6756 96.0961 65.437 96.0994C65.0459 96.1061 64.6813 96.0365 64.3432 95.8906C64.0052 95.7448 63.7317 95.5194 63.5229 95.2145C63.3141 94.9096 63.2097 94.5268 63.2097 94.0661V86.5341ZM72.9872 96L70.7401 88.3636H72.2763L73.7728 93.9716H73.8473L75.3488 88.3636H76.885L78.3765 93.9467H78.451L79.9375 88.3636H81.4738L79.2316 96H77.7152L76.1641 90.4865H76.0497L74.4986 96H72.9872ZM82.7444 96V88.3636H84.231V96H82.7444ZM83.4952 87.1854C83.2366 87.1854 83.0146 87.0992 82.829 86.9268C82.6467 86.7512 82.5555 86.5424 82.5555 86.3004C82.5555 86.0552 82.6467 85.8464 82.829 85.674C83.0146 85.4983 83.2366 85.4105 83.4952 85.4105C83.7537 85.4105 83.9741 85.4983 84.1564 85.674C84.342 85.8464 84.4348 86.0552 84.4348 86.3004C84.4348 86.5424 84.342 86.7512 84.1564 86.9268C83.9741 87.0992 83.7537 87.1854 83.4952 87.1854ZM89.6554 88.3636V89.5568H85.4842V88.3636H89.6554ZM86.6028 86.5341H88.0894V93.7578C88.0894 94.0462 88.1324 94.2633 88.2186 94.4091C88.3048 94.5516 88.4158 94.6494 88.5517 94.7024C88.6909 94.7521 88.8417 94.777 89.0041 94.777C89.1234 94.777 89.2278 94.7687 89.3173 94.7521C89.4068 94.7356 89.4764 94.7223 89.5261 94.7124L89.7946 95.9403C89.7084 95.9735 89.5858 96.0066 89.4267 96.0398C89.2676 96.0762 89.0688 96.0961 88.8301 96.0994C88.439 96.1061 88.0744 96.0365 87.7364 95.8906C87.3983 95.7448 87.1249 95.5194 86.9161 95.2145C86.7073 94.9096 86.6028 94.5268 86.6028 94.0661V86.5341ZM92.8103 91.4659V96H91.3238V85.8182H92.7904V89.6065H92.8849C93.0639 89.1955 93.3373 88.8691 93.7052 88.6271C94.0731 88.3852 94.5537 88.2642 95.147 88.2642C95.6706 88.2642 96.128 88.3719 96.5191 88.5874C96.9135 88.8028 97.2185 89.1243 97.4339 89.5518C97.6527 89.9761 97.762 90.5064 97.762 91.1428V96H96.2755V91.3217C96.2755 90.7616 96.1313 90.3274 95.843 90.0192C95.5546 89.7076 95.1536 89.5518 94.6399 89.5518C94.2885 89.5518 93.9737 89.6264 93.6953 89.7756C93.4202 89.9247 93.2031 90.1435 93.044 90.4318C92.8882 90.7169 92.8103 91.0616 92.8103 91.4659ZM106.696 96.169C105.91 96.1657 105.239 95.9586 104.682 95.5476C104.125 95.1366 103.699 94.5384 103.404 93.7528C103.109 92.9673 102.962 92.0211 102.962 90.9141C102.962 89.8104 103.109 88.8674 103.404 88.0852C103.703 87.303 104.13 86.7064 104.687 86.2955C105.247 85.8845 105.917 85.679 106.696 85.679C107.475 85.679 108.142 85.8861 108.699 86.3004C109.256 86.7114 109.682 87.308 109.977 88.0902C110.275 88.8691 110.424 89.8104 110.424 90.9141C110.424 92.0244 110.277 92.9723 109.982 93.7578C109.687 94.54 109.261 95.1383 108.704 95.5526C108.147 95.9635 107.478 96.169 106.696 96.169ZM106.696 94.8416C107.385 94.8416 107.924 94.5052 108.311 93.8324C108.702 93.1596 108.898 92.1868 108.898 90.9141C108.898 90.0689 108.809 89.3546 108.63 88.7713C108.454 88.1847 108.2 87.7405 107.869 87.4389C107.541 87.134 107.15 86.9815 106.696 86.9815C106.01 86.9815 105.471 87.3196 105.08 87.9957C104.689 88.6719 104.492 89.6446 104.488 90.9141C104.488 91.7625 104.576 92.4801 104.752 93.0668C104.931 93.6501 105.184 94.0926 105.512 94.3942C105.841 94.6925 106.235 94.8416 106.696 94.8416ZM117.363 94.0909V93.554C117.363 93.1695 117.442 92.8182 117.601 92.5C117.764 92.1785 117.999 91.9216 118.307 91.7294C118.619 91.5339 118.995 91.4361 119.436 91.4361C119.887 91.4361 120.264 91.5322 120.569 91.7244C120.874 91.9167 121.105 92.1735 121.26 92.495C121.419 92.8165 121.499 93.1695 121.499 93.554V94.0909C121.499 94.4754 121.419 94.8284 121.26 95.1499C121.101 95.468 120.868 95.7249 120.559 95.9205C120.254 96.1127 119.88 96.2088 119.436 96.2088C118.988 96.2088 118.61 96.1127 118.302 95.9205C117.994 95.7249 117.76 95.468 117.601 95.1499C117.442 94.8284 117.363 94.4754 117.363 94.0909ZM118.521 93.554V94.0909C118.521 94.3759 118.589 94.6345 118.725 94.8665C118.861 95.0985 119.098 95.2145 119.436 95.2145C119.771 95.2145 120.004 95.0985 120.137 94.8665C120.269 94.6345 120.336 94.3759 120.336 94.0909V93.554C120.336 93.2689 120.271 93.0104 120.142 92.7784C120.016 92.5464 119.78 92.4304 119.436 92.4304C119.104 92.4304 118.869 92.5464 118.73 92.7784C118.591 93.0104 118.521 93.2689 118.521 93.554ZM112.242 88.2642V87.7273C112.242 87.3428 112.321 86.9898 112.481 86.6683C112.643 86.3468 112.878 86.09 113.186 85.8977C113.498 85.7055 113.874 85.6094 114.315 85.6094C114.766 85.6094 115.144 85.7055 115.449 85.8977C115.753 86.09 115.984 86.3468 116.14 86.6683C116.295 86.9898 116.373 87.3428 116.373 87.7273V88.2642C116.373 88.6487 116.294 89.0017 116.135 89.3232C115.979 89.6413 115.747 89.8982 115.439 90.0938C115.134 90.286 114.759 90.3821 114.315 90.3821C113.864 90.3821 113.485 90.286 113.177 90.0938C112.872 89.8982 112.64 89.6413 112.481 89.3232C112.321 89.0017 112.242 88.6487 112.242 88.2642ZM113.405 87.7273V88.2642C113.405 88.5492 113.472 88.8078 113.604 89.0398C113.74 89.2718 113.977 89.3878 114.315 89.3878C114.646 89.3878 114.878 89.2718 115.011 89.0398C115.147 88.8078 115.215 88.5492 115.215 88.2642V87.7273C115.215 87.4422 115.15 87.1837 115.021 86.9517C114.892 86.7197 114.656 86.6037 114.315 86.6037C113.984 86.6037 113.748 86.7197 113.609 86.9517C113.473 87.1837 113.405 87.4422 113.405 87.7273ZM112.714 96L119.714 85.8182H120.902L113.902 96H112.714ZM127.087 96V88.3636H128.573V96H127.087ZM127.837 87.1854C127.579 87.1854 127.357 87.0992 127.171 86.9268C126.989 86.7512 126.898 86.5424 126.898 86.3004C126.898 86.0552 126.989 85.8464 127.171 85.674C127.357 85.4983 127.579 85.4105 127.837 85.4105C128.096 85.4105 128.316 85.4983 128.499 85.674C128.684 85.8464 128.777 86.0552 128.777 86.3004C128.777 86.5424 128.684 86.7512 128.499 86.9268C128.316 87.0992 128.096 87.1854 127.837 87.1854ZM131.92 91.4659V96H130.433V88.3636H131.86V89.6065H131.954C132.13 89.2022 132.405 88.8774 132.78 88.6321C133.157 88.3868 133.633 88.2642 134.206 88.2642C134.727 88.2642 135.183 88.3736 135.574 88.5923C135.965 88.8078 136.268 89.1293 136.483 89.5568C136.699 89.9844 136.807 90.513 136.807 91.1428V96H135.32V91.3217C135.32 90.7682 135.176 90.3357 134.888 90.0241C134.599 89.7093 134.203 89.5518 133.699 89.5518C133.355 89.5518 133.048 89.6264 132.78 89.7756C132.514 89.9247 132.304 90.1435 132.148 90.4318C131.996 90.7169 131.92 91.0616 131.92 91.4659ZM142.225 88.3636V89.5568H138.054V88.3636H142.225ZM139.172 86.5341H140.659V93.7578C140.659 94.0462 140.702 94.2633 140.788 94.4091C140.874 94.5516 140.985 94.6494 141.121 94.7024C141.26 94.7521 141.411 94.777 141.574 94.777C141.693 94.777 141.797 94.7687 141.887 94.7521C141.976 94.7356 142.046 94.7223 142.096 94.7124L142.364 95.9403C142.278 95.9735 142.155 96.0066 141.996 96.0398C141.837 96.0762 141.638 96.0961 141.4 96.0994C141.008 96.1061 140.644 96.0365 140.306 95.8906C139.968 95.7448 139.694 95.5194 139.486 95.2145C139.277 94.9096 139.172 94.5268 139.172 94.0661V86.5341ZM143.729 96V88.3636H145.166V89.5767H145.246C145.385 89.1657 145.63 88.8426 145.981 88.6072C146.336 88.3686 146.737 88.2493 147.184 88.2493C147.277 88.2493 147.387 88.2526 147.513 88.2592C147.642 88.2659 147.743 88.2741 147.816 88.2841V89.706C147.756 89.6894 147.65 89.6712 147.498 89.6513C147.345 89.6281 147.193 89.6165 147.04 89.6165C146.689 89.6165 146.376 89.6911 146.101 89.8402C145.829 89.986 145.613 90.1899 145.454 90.4517C145.295 90.7102 145.216 91.0052 145.216 91.3366V96H143.729ZM151.905 96.1541C151.19 96.1541 150.565 95.9901 150.031 95.6619C149.498 95.3338 149.083 94.8748 148.788 94.2848C148.493 93.6948 148.346 93.0054 148.346 92.2166C148.346 91.4245 148.493 90.7318 148.788 90.1385C149.083 89.5452 149.498 89.0845 150.031 88.7564C150.565 88.4283 151.19 88.2642 151.905 88.2642C152.621 88.2642 153.246 88.4283 153.78 88.7564C154.313 89.0845 154.728 89.5452 155.023 90.1385C155.318 90.7318 155.465 91.4245 155.465 92.2166C155.465 93.0054 155.318 93.6948 155.023 94.2848C154.728 94.8748 154.313 95.3338 153.78 95.6619C153.246 95.9901 152.621 96.1541 151.905 96.1541ZM151.91 94.9062C152.374 94.9062 152.759 94.7836 153.064 94.5384C153.369 94.2931 153.594 93.9666 153.74 93.5589C153.889 93.1513 153.964 92.7022 153.964 92.2116C153.964 91.7244 153.889 91.277 153.74 90.8693C153.594 90.4583 153.369 90.1286 153.064 89.88C152.759 89.6314 152.374 89.5071 151.91 89.5071C151.443 89.5071 151.055 89.6314 150.747 89.88C150.442 90.1286 150.215 90.4583 150.066 90.8693C149.92 91.277 149.847 91.7244 149.847 92.2116C149.847 92.7022 149.92 93.1513 150.066 93.5589C150.215 93.9666 150.442 94.2931 150.747 94.5384C151.055 94.7836 151.443 94.9062 151.91 94.9062ZM161.529 96H159.898L163.562 85.8182H165.337L169.001 96H167.37L164.492 87.6676H164.412L161.529 96ZM161.802 92.0128H167.092V93.3054H161.802V92.0128ZM170.331 96V85.8182H173.961C174.753 85.8182 175.409 85.9624 175.93 86.2507C176.45 86.5391 176.839 86.9335 177.098 87.4339C177.356 87.9311 177.486 88.4912 177.486 89.1143C177.486 89.7408 177.355 90.3042 177.093 90.8047C176.834 91.3018 176.443 91.6963 175.92 91.9879C175.399 92.2763 174.745 92.4205 173.956 92.4205H171.46V91.1179H173.817C174.317 91.1179 174.723 91.0317 175.035 90.8594C175.346 90.6837 175.575 90.4451 175.721 90.1435C175.867 89.8419 175.939 89.4988 175.939 89.1143C175.939 88.7299 175.867 88.3885 175.721 88.0902C175.575 87.7919 175.345 87.5582 175.03 87.3892C174.718 87.2202 174.307 87.1357 173.797 87.1357H171.868V96H170.331ZM179.147 96V85.8182H182.776C183.565 85.8182 184.219 85.9541 184.74 86.2259C185.263 86.4976 185.654 86.8738 185.913 87.3544C186.171 87.8317 186.301 88.3835 186.301 89.0099C186.301 89.633 186.17 90.1816 185.908 90.6555C185.649 91.1262 185.258 91.4924 184.735 91.7543C184.214 92.0161 183.56 92.147 182.771 92.147H180.022V90.8246H182.632C183.129 90.8246 183.533 90.7533 183.845 90.6108C184.16 90.4683 184.39 90.2611 184.536 89.9893C184.682 89.7176 184.755 89.3911 184.755 89.0099C184.755 88.6255 184.68 88.2924 184.531 88.0107C184.385 87.7289 184.155 87.5135 183.84 87.3643C183.528 87.2119 183.119 87.1357 182.612 87.1357H180.683V96H179.147ZM184.173 91.4062L186.688 96H184.938L182.473 91.4062H184.173ZM16.6335 106.364V107.557H12.3182V106.364H16.6335ZM13.5014 114V105.479C13.5014 105.001 13.6058 104.605 13.8146 104.29C14.0234 103.972 14.3002 103.735 14.6449 103.58C14.9896 103.42 15.3641 103.341 15.7685 103.341C16.0668 103.341 16.322 103.366 16.5341 103.415C16.7462 103.462 16.9036 103.505 17.0064 103.545L16.6584 104.748C16.5888 104.728 16.4993 104.705 16.3899 104.678C16.2805 104.648 16.148 104.634 15.9922 104.634C15.6309 104.634 15.3724 104.723 15.2166 104.902C15.0642 105.081 14.9879 105.339 14.9879 105.678V114H13.5014ZM20.9431 114.154C20.2272 114.154 19.6024 113.99 19.0688 113.662C18.5352 113.334 18.1209 112.875 17.8259 112.285C17.5309 111.695 17.3834 111.005 17.3834 110.217C17.3834 109.424 17.5309 108.732 17.8259 108.138C18.1209 107.545 18.5352 107.085 19.0688 106.756C19.6024 106.428 20.2272 106.264 20.9431 106.264C21.659 106.264 22.2838 106.428 22.8174 106.756C23.351 107.085 23.7653 107.545 24.0603 108.138C24.3553 108.732 24.5028 109.424 24.5028 110.217C24.5028 111.005 24.3553 111.695 24.0603 112.285C23.7653 112.875 23.351 113.334 22.8174 113.662C22.2838 113.99 21.659 114.154 20.9431 114.154ZM20.9481 112.906C21.4121 112.906 21.7966 112.784 22.1015 112.538C22.4064 112.293 22.6318 111.967 22.7776 111.559C22.9268 111.151 23.0013 110.702 23.0013 110.212C23.0013 109.724 22.9268 109.277 22.7776 108.869C22.6318 108.458 22.4064 108.129 22.1015 107.88C21.7966 107.631 21.4121 107.507 20.9481 107.507C20.4807 107.507 20.093 107.631 19.7847 107.88C19.4798 108.129 19.2528 108.458 19.1036 108.869C18.9578 109.277 18.8849 109.724 18.8849 110.212C18.8849 110.702 18.9578 111.151 19.1036 111.559C19.2528 111.967 19.4798 112.293 19.7847 112.538C20.093 112.784 20.4807 112.906 20.9481 112.906ZM26.022 114V106.364H27.4588V107.577H27.5384C27.6776 107.166 27.9228 106.843 28.2742 106.607C28.6288 106.369 29.0298 106.249 29.4773 106.249C29.5701 106.249 29.6795 106.253 29.8054 106.259C29.9347 106.266 30.0358 106.274 30.1087 106.284V107.706C30.049 107.689 29.943 107.671 29.7905 107.651C29.638 107.628 29.4856 107.616 29.3331 107.616C28.9818 107.616 28.6686 107.691 28.3935 107.84C28.1217 107.986 27.9063 108.19 27.7472 108.452C27.5881 108.71 27.5085 109.005 27.5085 109.337V114H26.022ZM38.6632 103.818V114H37.122V105.359H37.0623L34.6263 106.95V105.479L37.1667 103.818H38.6632ZM41.2774 114V112.886L44.7228 109.317C45.0907 108.929 45.3939 108.589 45.6326 108.298C45.8745 108.003 46.0551 107.723 46.1745 107.457C46.2938 107.192 46.3534 106.911 46.3534 106.612C46.3534 106.274 46.2739 105.982 46.1148 105.737C45.9557 105.489 45.7386 105.298 45.4635 105.165C45.1884 105.03 44.8785 104.962 44.5338 104.962C44.1693 104.962 43.8511 105.036 43.5793 105.185C43.3075 105.335 43.0987 105.545 42.9529 105.817C42.807 106.089 42.7341 106.407 42.7341 106.771H41.2675C41.2675 106.152 41.41 105.61 41.6951 105.146C41.9801 104.682 42.3712 104.322 42.8684 104.067C43.3655 103.808 43.9306 103.679 44.5637 103.679C45.2033 103.679 45.7668 103.807 46.254 104.062C46.7445 104.314 47.1274 104.658 47.4024 105.096C47.6775 105.53 47.8151 106.021 47.8151 106.567C47.8151 106.945 47.7438 107.315 47.6013 107.676C47.4621 108.037 47.2185 108.44 46.8705 108.884C46.5225 109.325 46.0386 109.86 45.4188 110.49L43.3953 112.608V112.683H47.9792V114H41.2774ZM53.3084 114V106.364H54.7352V107.607H54.8297C54.9888 107.186 55.2489 106.857 55.6102 106.622C55.9715 106.384 56.404 106.264 56.9078 106.264C57.4182 106.264 57.8458 106.384 58.1905 106.622C58.5385 106.861 58.7953 107.189 58.9611 107.607H59.0406C59.2229 107.199 59.5129 106.874 59.9106 106.632C60.3084 106.387 60.7823 106.264 61.3325 106.264C62.0252 106.264 62.5903 106.481 63.0278 106.915C63.4686 107.35 63.689 108.004 63.689 108.879V114H62.2025V109.018C62.2025 108.501 62.0617 108.127 61.7799 107.895C61.4982 107.663 61.1618 107.547 60.7707 107.547C60.2868 107.547 59.9106 107.696 59.6422 107.994C59.3737 108.289 59.2395 108.669 59.2395 109.133V114H57.7579V108.924C57.7579 108.51 57.6287 108.177 57.3701 107.925C57.1116 107.673 56.7752 107.547 56.3609 107.547C56.0792 107.547 55.819 107.621 55.5804 107.771C55.345 107.916 55.1545 108.12 55.0086 108.382C54.8661 108.644 54.7949 108.947 54.7949 109.292V114H53.3084ZM68.758 114.154C68.0421 114.154 67.4173 113.99 66.8837 113.662C66.3501 113.334 65.9358 112.875 65.6408 112.285C65.3459 111.695 65.1984 111.005 65.1984 110.217C65.1984 109.424 65.3459 108.732 65.6408 108.138C65.9358 107.545 66.3501 107.085 66.8837 106.756C67.4173 106.428 68.0421 106.264 68.758 106.264C69.4739 106.264 70.0987 106.428 70.6323 106.756C71.1659 107.085 71.5802 107.545 71.8752 108.138C72.1702 108.732 72.3177 109.424 72.3177 110.217C72.3177 111.005 72.1702 111.695 71.8752 112.285C71.5802 112.875 71.1659 113.334 70.6323 113.662C70.0987 113.99 69.4739 114.154 68.758 114.154ZM68.763 112.906C69.227 112.906 69.6115 112.784 69.9164 112.538C70.2213 112.293 70.4467 111.967 70.5925 111.559C70.7417 111.151 70.8163 110.702 70.8163 110.212C70.8163 109.724 70.7417 109.277 70.5925 108.869C70.4467 108.458 70.2213 108.129 69.9164 107.88C69.6115 107.631 69.227 107.507 68.763 107.507C68.2957 107.507 67.9079 107.631 67.5996 107.88C67.2947 108.129 67.0677 108.458 66.9185 108.869C66.7727 109.277 66.6998 109.724 66.6998 110.212C66.6998 110.702 66.7727 111.151 66.9185 111.559C67.0677 111.967 67.2947 112.293 67.5996 112.538C67.9079 112.784 68.2957 112.906 68.763 112.906ZM75.3235 109.466V114H73.8369V106.364H75.2638V107.607H75.3583C75.5339 107.202 75.809 106.877 76.1835 106.632C76.5614 106.387 77.037 106.264 77.6104 106.264C78.1307 106.264 78.5865 106.374 78.9776 106.592C79.3687 106.808 79.6719 107.129 79.8874 107.557C80.1028 107.984 80.2105 108.513 80.2105 109.143V114H78.724V109.322C78.724 108.768 78.5798 108.336 78.2915 108.024C78.0031 107.709 77.6071 107.552 77.1033 107.552C76.7586 107.552 76.452 107.626 76.1835 107.776C75.9184 107.925 75.7079 108.143 75.5521 108.432C75.3997 108.717 75.3235 109.062 75.3235 109.466ZM85.6288 106.364V107.557H81.4576V106.364H85.6288ZM82.5762 104.534H84.0627V111.758C84.0627 112.046 84.1058 112.263 84.192 112.409C84.2781 112.552 84.3892 112.649 84.5251 112.702C84.6643 112.752 84.8151 112.777 84.9775 112.777C85.0968 112.777 85.2012 112.769 85.2907 112.752C85.3802 112.736 85.4498 112.722 85.4995 112.712L85.768 113.94C85.6818 113.973 85.5592 114.007 85.4001 114.04C85.241 114.076 85.0421 114.096 84.8035 114.099C84.4124 114.106 84.0478 114.036 83.7097 113.891C83.3717 113.745 83.0982 113.519 82.8894 113.214C82.6806 112.91 82.5762 112.527 82.5762 112.066V104.534ZM88.7837 109.466V114H87.2972V103.818H88.7638V107.607H88.8583C89.0372 107.196 89.3107 106.869 89.6786 106.627C90.0465 106.385 90.5271 106.264 91.1203 106.264C91.644 106.264 92.1014 106.372 92.4925 106.587C92.8869 106.803 93.1918 107.124 93.4073 107.552C93.626 107.976 93.7354 108.506 93.7354 109.143V114H92.2489V109.322C92.2489 108.762 92.1047 108.327 91.8164 108.019C91.528 107.708 91.127 107.552 90.6132 107.552C90.2619 107.552 89.947 107.626 89.6686 107.776C89.3935 107.925 89.1764 108.143 89.0174 108.432C88.8616 108.717 88.7837 109.062 88.7837 109.466ZM101.301 108.228L99.9541 108.467C99.8977 108.294 99.8082 108.13 99.6856 107.974C99.5663 107.819 99.4039 107.691 99.1984 107.592C98.9929 107.492 98.736 107.442 98.4278 107.442C98.0068 107.442 97.6555 107.537 97.3738 107.726C97.0921 107.911 96.9512 108.152 96.9512 108.447C96.9512 108.702 97.0457 108.907 97.2346 109.063C97.4235 109.219 97.7284 109.347 98.1494 109.446L99.3624 109.724C100.065 109.887 100.589 110.137 100.933 110.475C101.278 110.813 101.451 111.252 101.451 111.793C101.451 112.25 101.318 112.658 101.053 113.016C100.791 113.37 100.425 113.649 99.9541 113.851C99.4867 114.053 98.9448 114.154 98.3283 114.154C97.4732 114.154 96.7756 113.972 96.2353 113.607C95.6951 113.239 95.3636 112.717 95.241 112.041L96.6778 111.822C96.7673 112.197 96.9512 112.48 97.2296 112.673C97.508 112.862 97.871 112.956 98.3184 112.956C98.8056 112.956 99.1951 112.855 99.4867 112.653C99.7784 112.447 99.9242 112.197 99.9242 111.902C99.9242 111.663 99.8347 111.463 99.6558 111.3C99.4801 111.138 99.21 111.015 98.8454 110.933L97.5528 110.649C96.8402 110.487 96.3132 110.228 95.9718 109.874C95.6337 109.519 95.4647 109.07 95.4647 108.526C95.4647 108.076 95.5907 107.681 95.8425 107.343C96.0944 107.005 96.4425 106.741 96.8866 106.553C97.3307 106.36 97.8395 106.264 98.4129 106.264C99.2381 106.264 99.8878 106.443 100.362 106.801C100.836 107.156 101.149 107.631 101.301 108.228ZM103.924 114.094C103.653 114.094 103.419 113.998 103.223 113.806C103.028 113.611 102.93 113.375 102.93 113.1C102.93 112.828 103.028 112.596 103.223 112.404C103.419 112.209 103.653 112.111 103.924 112.111C104.196 112.111 104.43 112.209 104.625 112.404C104.821 112.596 104.919 112.828 104.919 113.1C104.919 113.282 104.872 113.45 104.779 113.602C104.69 113.751 104.571 113.871 104.421 113.96C104.272 114.05 104.107 114.094 103.924 114.094ZM110.29 114V103.818H116.604V105.141H111.826V108.243H116.152V109.56H111.826V114H110.29ZM122.593 110.833V106.364H124.084V114H122.623V112.678H122.543C122.367 113.085 122.086 113.425 121.698 113.697C121.313 113.965 120.834 114.099 120.261 114.099C119.771 114.099 119.336 113.992 118.959 113.776C118.584 113.558 118.289 113.234 118.074 112.807C117.861 112.379 117.755 111.851 117.755 111.221V106.364H119.242V111.042C119.242 111.562 119.386 111.977 119.674 112.285C119.963 112.593 120.337 112.747 120.798 112.747C121.076 112.747 121.353 112.678 121.628 112.538C121.907 112.399 122.137 112.189 122.319 111.907C122.505 111.625 122.596 111.267 122.593 110.833ZM129.233 114.154C128.48 114.154 127.832 113.993 127.289 113.672C126.749 113.347 126.331 112.891 126.036 112.305C125.744 111.715 125.599 111.024 125.599 110.232C125.599 109.449 125.744 108.76 126.036 108.163C126.331 107.567 126.742 107.101 127.269 106.766C127.799 106.432 128.419 106.264 129.128 106.264C129.559 106.264 129.977 106.335 130.381 106.478C130.786 106.621 131.148 106.844 131.47 107.149C131.791 107.454 132.045 107.85 132.231 108.337C132.416 108.821 132.509 109.41 132.509 110.102V110.629H126.439V109.516H131.052C131.052 109.125 130.973 108.778 130.814 108.477C130.655 108.172 130.431 107.931 130.143 107.756C129.858 107.58 129.523 107.492 129.138 107.492C128.721 107.492 128.356 107.595 128.045 107.8C127.736 108.003 127.498 108.268 127.329 108.596C127.163 108.921 127.08 109.274 127.08 109.655V110.525C127.08 111.035 127.17 111.469 127.349 111.827C127.531 112.185 127.784 112.459 128.109 112.648C128.434 112.833 128.813 112.926 129.248 112.926C129.529 112.926 129.786 112.886 130.018 112.807C130.25 112.724 130.451 112.601 130.62 112.439C130.789 112.277 130.918 112.076 131.008 111.837L132.415 112.091C132.302 112.505 132.1 112.868 131.808 113.18C131.52 113.488 131.157 113.728 130.719 113.901C130.285 114.07 129.79 114.154 129.233 114.154ZM135.505 103.818V114H134.018V103.818H135.505ZM141.869 116.864C141.647 116.864 141.445 116.845 141.263 116.809C141.081 116.776 140.945 116.739 140.855 116.7L141.213 115.482C141.485 115.554 141.727 115.586 141.939 115.576C142.151 115.566 142.338 115.487 142.501 115.337C142.666 115.188 142.812 114.945 142.938 114.607L143.122 114.099L140.328 106.364H141.919L143.853 112.29H143.933L145.867 106.364H147.462L144.315 115.019C144.17 115.417 143.984 115.753 143.759 116.028C143.533 116.307 143.265 116.516 142.953 116.655C142.642 116.794 142.28 116.864 141.869 116.864ZM151.676 114.154C150.96 114.154 150.336 113.99 149.802 113.662C149.268 113.334 148.854 112.875 148.559 112.285C148.264 111.695 148.117 111.005 148.117 110.217C148.117 109.424 148.264 108.732 148.559 108.138C148.854 107.545 149.268 107.085 149.802 106.756C150.336 106.428 150.96 106.264 151.676 106.264C152.392 106.264 153.017 106.428 153.551 106.756C154.084 107.085 154.499 107.545 154.793 108.138C155.088 108.732 155.236 109.424 155.236 110.217C155.236 111.005 155.088 111.695 154.793 112.285C154.499 112.875 154.084 113.334 153.551 113.662C153.017 113.99 152.392 114.154 151.676 114.154ZM151.681 112.906C152.145 112.906 152.53 112.784 152.835 112.538C153.14 112.293 153.365 111.967 153.511 111.559C153.66 111.151 153.735 110.702 153.735 110.212C153.735 109.724 153.66 109.277 153.511 108.869C153.365 108.458 153.14 108.129 152.835 107.88C152.53 107.631 152.145 107.507 151.681 107.507C151.214 107.507 150.826 107.631 150.518 107.88C150.213 108.129 149.986 108.458 149.837 108.869C149.691 109.277 149.618 109.724 149.618 110.212C149.618 110.702 149.691 111.151 149.837 111.559C149.986 111.967 150.213 112.293 150.518 112.538C150.826 112.784 151.214 112.906 151.681 112.906ZM161.593 110.833V106.364H163.084V114H161.622V112.678H161.543C161.367 113.085 161.085 113.425 160.698 113.697C160.313 113.965 159.834 114.099 159.261 114.099C158.77 114.099 158.336 113.992 157.958 113.776C157.584 113.558 157.289 113.234 157.073 112.807C156.861 112.379 156.755 111.851 156.755 111.221V106.364H158.242V111.042C158.242 111.562 158.386 111.977 158.674 112.285C158.963 112.593 159.337 112.747 159.798 112.747C160.076 112.747 160.353 112.678 160.628 112.538C160.907 112.399 161.137 112.189 161.319 111.907C161.505 111.625 161.596 111.267 161.593 110.833ZM164.941 114V106.364H166.378V107.577H166.458C166.597 107.166 166.842 106.843 167.194 106.607C167.548 106.369 167.949 106.249 168.397 106.249C168.489 106.249 168.599 106.253 168.725 106.259C168.854 106.266 168.955 106.274 169.028 106.284V107.706C168.968 107.689 168.862 107.671 168.71 107.651C168.557 107.628 168.405 107.616 168.252 107.616C167.901 107.616 167.588 107.691 167.313 107.84C167.041 107.986 166.826 108.19 166.667 108.452C166.507 108.71 166.428 109.005 166.428 109.337V114H164.941ZM18.7216 126.228L17.3743 126.467C17.3179 126.294 17.2285 126.13 17.1058 125.974C16.9865 125.819 16.8241 125.691 16.6186 125.592C16.4131 125.492 16.1563 125.442 15.848 125.442C15.4271 125.442 15.0758 125.537 14.794 125.726C14.5123 125.911 14.3714 126.152 14.3714 126.447C14.3714 126.702 14.4659 126.907 14.6548 127.063C14.8438 127.219 15.1487 127.347 15.5696 127.446L16.7827 127.724C17.4853 127.887 18.009 128.137 18.3537 128.475C18.6984 128.813 18.8707 129.252 18.8707 129.793C18.8707 130.25 18.7382 130.658 18.473 131.016C18.2112 131.37 17.8449 131.649 17.3743 131.851C16.907 132.053 16.3651 132.154 15.7486 132.154C14.8935 132.154 14.1958 131.972 13.6555 131.607C13.1153 131.239 12.7839 130.717 12.6612 130.041L14.098 129.822C14.1875 130.197 14.3714 130.48 14.6499 130.673C14.9283 130.862 15.2912 130.956 15.7386 130.956C16.2259 130.956 16.6153 130.855 16.907 130.653C17.1986 130.447 17.3445 130.197 17.3445 129.902C17.3445 129.663 17.255 129.463 17.076 129.3C16.9003 129.138 16.6302 129.015 16.2656 128.933L14.973 128.649C14.2604 128.487 13.7334 128.228 13.392 127.874C13.054 127.519 12.8849 127.07 12.8849 126.526C12.8849 126.076 13.0109 125.681 13.2628 125.343C13.5147 125.005 13.8627 124.741 14.3068 124.553C14.7509 124.36 15.2597 124.264 15.8331 124.264C16.6584 124.264 17.308 124.443 17.782 124.801C18.2559 125.156 18.5691 125.631 18.7216 126.228ZM23.9298 124.364V125.557H19.7586V124.364H23.9298ZM20.8772 122.534H22.3637V129.758C22.3637 130.046 22.4068 130.263 22.493 130.409C22.5792 130.552 22.6902 130.649 22.8261 130.702C22.9653 130.752 23.1161 130.777 23.2785 130.777C23.3978 130.777 23.5022 130.769 23.5917 130.752C23.6812 130.736 23.7508 130.722 23.8005 130.712L24.069 131.94C23.9828 131.973 23.8602 132.007 23.7011 132.04C23.542 132.076 23.3431 132.096 23.1045 132.099C22.7134 132.106 22.3488 132.036 22.0107 131.891C21.6727 131.745 21.3992 131.519 21.1904 131.214C20.9816 130.91 20.8772 130.527 20.8772 130.066V122.534ZM27.6564 132.169C27.1725 132.169 26.735 132.08 26.3439 131.901C25.9528 131.718 25.6429 131.455 25.4142 131.11C25.1889 130.765 25.0762 130.343 25.0762 129.842C25.0762 129.411 25.159 129.057 25.3248 128.778C25.4905 128.5 25.7142 128.28 25.9959 128.117C26.2776 127.955 26.5925 127.832 26.9405 127.749C27.2885 127.666 27.6432 127.603 28.0044 127.56C28.4618 127.507 28.833 127.464 29.1181 127.431C29.4031 127.395 29.6103 127.337 29.7395 127.257C29.8688 127.178 29.9334 127.048 29.9334 126.869V126.835C29.9334 126.4 29.8108 126.064 29.5655 125.825C29.3236 125.587 28.9623 125.467 28.4817 125.467C27.9812 125.467 27.5868 125.578 27.2985 125.8C27.0134 126.019 26.8162 126.263 26.7069 126.531L25.3098 126.213C25.4756 125.749 25.7175 125.375 26.0357 125.089C26.3572 124.801 26.7267 124.592 27.1444 124.463C27.562 124.33 28.0011 124.264 28.4618 124.264C28.7668 124.264 29.0899 124.301 29.4313 124.374C29.776 124.443 30.0975 124.572 30.3958 124.761C30.6974 124.95 30.9443 125.22 31.1365 125.572C31.3288 125.92 31.4249 126.372 31.4249 126.929V132H29.9732V130.956H29.9135C29.8174 131.148 29.6732 131.337 29.481 131.523C29.2888 131.708 29.0419 131.862 28.7402 131.985C28.4386 132.108 28.0774 132.169 27.6564 132.169ZM27.9796 130.976C28.3906 130.976 28.7419 130.895 29.0336 130.732C29.3285 130.57 29.5523 130.358 29.7047 130.096C29.8605 129.831 29.9384 129.547 29.9384 129.246V128.261C29.8854 128.314 29.7826 128.364 29.6302 128.411C29.481 128.454 29.3103 128.492 29.1181 128.525C28.9258 128.555 28.7386 128.583 28.5563 128.609C28.374 128.633 28.2215 128.652 28.0989 128.669C27.8106 128.705 27.5471 128.767 27.3084 128.853C27.0731 128.939 26.8842 129.063 26.7417 129.226C26.6025 129.385 26.5329 129.597 26.5329 129.862C26.5329 130.23 26.6687 130.509 26.9405 130.697C27.2123 130.883 27.5587 130.976 27.9796 130.976ZM33.2648 132V124.364H34.7016V125.577H34.7812C34.9204 125.166 35.1656 124.843 35.517 124.607C35.8716 124.369 36.2726 124.249 36.7201 124.249C36.8129 124.249 36.9223 124.253 37.0482 124.259C37.1775 124.266 37.2786 124.274 37.3515 124.284V125.706C37.2918 125.689 37.1858 125.671 37.0333 125.651C36.8808 125.628 36.7284 125.616 36.5759 125.616C36.2246 125.616 35.9114 125.691 35.6363 125.84C35.3645 125.986 35.1491 126.19 34.99 126.452C34.8309 126.71 34.7513 127.005 34.7513 127.337V132H33.2648ZM42.5137 124.364V125.557H38.3425V124.364H42.5137ZM39.4611 122.534H40.9476V129.758C40.9476 130.046 40.9907 130.263 41.0769 130.409C41.1631 130.552 41.2741 130.649 41.41 130.702C41.5492 130.752 41.7 130.777 41.8624 130.777C41.9817 130.777 42.0861 130.769 42.1756 130.752C42.2651 130.736 42.3347 130.722 42.3844 130.712L42.6529 131.94C42.5667 131.973 42.4441 132.007 42.285 132.04C42.1259 132.076 41.927 132.096 41.6884 132.099C41.2973 132.106 40.9327 132.036 40.5947 131.891C40.2566 131.745 39.9831 131.519 39.7743 131.214C39.5655 130.91 39.4611 130.527 39.4611 130.066V122.534ZM48.8554 128.833V124.364H50.3469V132H48.8852V130.678H48.8057C48.63 131.085 48.3483 131.425 47.9605 131.697C47.576 131.965 47.0971 132.099 46.5237 132.099C46.0332 132.099 45.599 131.992 45.2212 131.776C44.8466 131.558 44.5517 131.234 44.3362 130.807C44.1241 130.379 44.018 129.851 44.018 129.221V124.364H45.5045V129.042C45.5045 129.562 45.6487 129.977 45.9371 130.285C46.2254 130.593 46.6 130.747 47.0607 130.747C47.3391 130.747 47.6158 130.678 47.8909 130.538C48.1693 130.399 48.3997 130.189 48.582 129.907C48.7676 129.625 48.8587 129.267 48.8554 128.833ZM52.2042 134.864V124.364H53.6559V125.602H53.7802C53.8664 125.442 53.9907 125.259 54.1531 125.05C54.3155 124.841 54.5409 124.659 54.8292 124.503C55.1176 124.344 55.4987 124.264 55.9727 124.264C56.5892 124.264 57.1393 124.42 57.6232 124.732C58.1071 125.043 58.4866 125.492 58.7617 126.079C59.0401 126.665 59.1794 127.371 59.1794 128.197C59.1794 129.022 59.0418 129.73 58.7667 130.32C58.4916 130.906 58.1138 131.359 57.6332 131.677C57.1526 131.992 56.6041 132.149 55.9876 132.149C55.5236 132.149 55.1441 132.071 54.8491 131.915C54.5574 131.76 54.3287 131.577 54.163 131.369C53.9973 131.16 53.8697 130.974 53.7802 130.812H53.6907V134.864H52.2042ZM53.6609 128.182C53.6609 128.719 53.7388 129.189 53.8946 129.594C54.0503 129.998 54.2757 130.315 54.5707 130.543C54.8657 130.769 55.2269 130.881 55.6545 130.881C56.0986 130.881 56.4698 130.764 56.7681 130.528C57.0664 130.29 57.2918 129.967 57.4443 129.559C57.6 129.151 57.6779 128.692 57.6779 128.182C57.6779 127.678 57.6017 127.226 57.4492 126.825C57.3001 126.424 57.0747 126.107 56.7731 125.875C56.4748 125.643 56.1019 125.527 55.6545 125.527C55.2236 125.527 54.859 125.638 54.5607 125.86C54.2658 126.082 54.042 126.392 53.8896 126.79C53.7371 127.187 53.6609 127.652 53.6609 128.182ZM67.1286 132.149C66.5121 132.149 65.9619 131.992 65.478 131.677C64.9974 131.359 64.6196 130.906 64.3445 130.32C64.0727 129.73 63.9368 129.022 63.9368 128.197C63.9368 127.371 64.0744 126.665 64.3495 126.079C64.6279 125.492 65.009 125.043 65.4929 124.732C65.9768 124.42 66.5254 124.264 67.1385 124.264C67.6125 124.264 67.9936 124.344 68.282 124.503C68.5737 124.659 68.799 124.841 68.9581 125.05C69.1205 125.259 69.2465 125.442 69.336 125.602H69.4255V121.818H70.912V132H69.4603V130.812H69.336C69.2465 130.974 69.1172 131.16 68.9482 131.369C68.7825 131.577 68.5538 131.76 68.2621 131.915C67.9704 132.071 67.5926 132.149 67.1286 132.149ZM67.4567 130.881C67.8843 130.881 68.2455 130.769 68.5405 130.543C68.8388 130.315 69.0642 129.998 69.2166 129.594C69.3724 129.189 69.4503 128.719 69.4503 128.182C69.4503 127.652 69.3741 127.187 69.2216 126.79C69.0692 126.392 68.8454 126.082 68.5505 125.86C68.2555 125.638 67.8909 125.527 67.4567 125.527C67.0093 125.527 66.6364 125.643 66.3381 125.875C66.0398 126.107 65.8144 126.424 65.662 126.825C65.5128 127.226 65.4382 127.678 65.4382 128.182C65.4382 128.692 65.5145 129.151 65.6669 129.559C65.8194 129.967 66.0448 130.29 66.3431 130.528C66.6447 130.764 67.0159 130.881 67.4567 130.881ZM72.8936 132V124.364H74.3304V125.577H74.4099C74.5491 125.166 74.7944 124.843 75.1457 124.607C75.5004 124.369 75.9014 124.249 76.3488 124.249C76.4416 124.249 76.551 124.253 76.677 124.259C76.8062 124.266 76.9073 124.274 76.9802 124.284V125.706C76.9206 125.689 76.8145 125.671 76.6621 125.651C76.5096 125.628 76.3571 125.616 76.2047 125.616C75.8533 125.616 75.5401 125.691 75.265 125.84C74.9933 125.986 74.7778 126.19 74.6187 126.452C74.4596 126.71 74.3801 127.005 74.3801 127.337V132H72.8936ZM81.1444 132.154C80.392 132.154 79.7441 131.993 79.2005 131.672C78.6602 131.347 78.2426 130.891 77.9477 130.305C77.656 129.715 77.5102 129.024 77.5102 128.232C77.5102 127.449 77.656 126.76 77.9477 126.163C78.2426 125.567 78.6536 125.101 79.1806 124.766C79.7109 124.432 80.3307 124.264 81.04 124.264C81.4709 124.264 81.8885 124.335 82.2928 124.478C82.6972 124.621 83.0601 124.844 83.3816 125.149C83.7031 125.454 83.9567 125.85 84.1423 126.337C84.3279 126.821 84.4207 127.41 84.4207 128.102V128.629H78.3504V127.516H82.964C82.964 127.125 82.8844 126.778 82.7254 126.477C82.5663 126.172 82.3425 125.931 82.0542 125.756C81.7692 125.58 81.4344 125.492 81.0499 125.492C80.6323 125.492 80.2677 125.595 79.9562 125.8C79.6479 126.003 79.4093 126.268 79.2403 126.596C79.0745 126.921 78.9917 127.274 78.9917 127.655V128.525C78.9917 129.035 79.0812 129.469 79.2602 129.827C79.4424 130.185 79.696 130.459 80.0208 130.648C80.3456 130.833 80.7251 130.926 81.1593 130.926C81.441 130.926 81.6979 130.886 81.9299 130.807C82.1619 130.724 82.3624 130.601 82.5315 130.439C82.7005 130.277 82.8298 130.076 82.9192 129.837L84.3262 130.091C84.2135 130.505 84.0113 130.868 83.7197 131.18C83.4313 131.488 83.0684 131.728 82.6309 131.901C82.1967 132.07 81.7012 132.154 81.1444 132.154ZM88.1523 132.169C87.6684 132.169 87.2309 132.08 86.8398 131.901C86.4487 131.718 86.1388 131.455 85.9101 131.11C85.6847 130.765 85.572 130.343 85.572 129.842C85.572 129.411 85.6549 129.057 85.8206 128.778C85.9863 128.5 86.2101 128.28 86.4918 128.117C86.7735 127.955 87.0884 127.832 87.4364 127.749C87.7844 127.666 88.139 127.603 88.5003 127.56C88.9577 127.507 89.3289 127.464 89.6139 127.431C89.899 127.395 90.1061 127.337 90.2354 127.257C90.3647 127.178 90.4293 127.048 90.4293 126.869V126.835C90.4293 126.4 90.3066 126.064 90.0614 125.825C89.8194 125.587 89.4582 125.467 88.9776 125.467C88.4771 125.467 88.0827 125.578 87.7943 125.8C87.5093 126.019 87.3121 126.263 87.2027 126.531L85.8057 126.213C85.9714 125.749 86.2134 125.375 86.5316 125.089C86.8531 124.801 87.2226 124.592 87.6402 124.463C88.0578 124.33 88.497 124.264 88.9577 124.264C89.2626 124.264 89.5858 124.301 89.9272 124.374C90.2718 124.443 90.5933 124.572 90.8916 124.761C91.1932 124.95 91.4402 125.22 91.6324 125.572C91.8246 125.92 91.9208 126.372 91.9208 126.929V132H90.4691V130.956H90.4094C90.3133 131.148 90.1691 131.337 89.9769 131.523C89.7846 131.708 89.5377 131.862 89.2361 131.985C88.9345 132.108 88.5732 132.169 88.1523 132.169ZM88.4754 130.976C88.8864 130.976 89.2378 130.895 89.5294 130.732C89.8244 130.57 90.0481 130.358 90.2006 130.096C90.3564 129.831 90.4343 129.547 90.4343 129.246V128.261C90.3812 128.314 90.2785 128.364 90.126 128.411C89.9769 128.454 89.8062 128.492 89.6139 128.525C89.4217 128.555 89.2344 128.583 89.0522 128.609C88.8699 128.633 88.7174 128.652 88.5948 128.669C88.3064 128.705 88.0429 128.767 87.8043 128.853C87.569 128.939 87.38 129.063 87.2375 129.226C87.0983 129.385 87.0287 129.597 87.0287 129.862C87.0287 130.23 87.1646 130.509 87.4364 130.697C87.7082 130.883 88.0545 130.976 88.4754 130.976ZM93.7607 132V124.364H95.1875V125.607H95.282C95.4411 125.186 95.7013 124.857 96.0625 124.622C96.4238 124.384 96.8563 124.264 97.3601 124.264C97.8705 124.264 98.2981 124.384 98.6428 124.622C98.9908 124.861 99.2477 125.189 99.4134 125.607H99.4929C99.6752 125.199 99.9652 124.874 100.363 124.632C100.761 124.387 101.235 124.264 101.785 124.264C102.478 124.264 103.043 124.481 103.48 124.915C103.921 125.35 104.141 126.004 104.141 126.879V132H102.655V127.018C102.655 126.501 102.514 126.127 102.232 125.895C101.951 125.663 101.614 125.547 101.223 125.547C100.739 125.547 100.363 125.696 100.095 125.994C99.826 126.289 99.6918 126.669 99.6918 127.133V132H98.2103V126.924C98.2103 126.51 98.081 126.177 97.8225 125.925C97.564 125.673 97.2276 125.547 96.8133 125.547C96.5315 125.547 96.2713 125.621 96.0327 125.771C95.7974 125.916 95.6068 126.12 95.461 126.382C95.3185 126.644 95.2472 126.947 95.2472 127.292V132H93.7607ZM111.716 126.228L110.369 126.467C110.312 126.294 110.223 126.13 110.1 125.974C109.981 125.819 109.819 125.691 109.613 125.592C109.408 125.492 109.151 125.442 108.842 125.442C108.422 125.442 108.07 125.537 107.788 125.726C107.507 125.911 107.366 126.152 107.366 126.447C107.366 126.702 107.46 126.907 107.649 127.063C107.838 127.219 108.143 127.347 108.564 127.446L109.777 127.724C110.48 127.887 111.003 128.137 111.348 128.475C111.693 128.813 111.865 129.252 111.865 129.793C111.865 130.25 111.733 130.658 111.467 131.016C111.206 131.37 110.839 131.649 110.369 131.851C109.901 132.053 109.36 132.154 108.743 132.154C107.888 132.154 107.19 131.972 106.65 131.607C106.11 131.239 105.778 130.717 105.656 130.041L107.092 129.822C107.182 130.197 107.366 130.48 107.644 130.673C107.923 130.862 108.286 130.956 108.733 130.956C109.22 130.956 109.61 130.855 109.901 130.653C110.193 130.447 110.339 130.197 110.339 129.902C110.339 129.663 110.249 129.463 110.07 129.3C109.895 129.138 109.625 129.015 109.26 128.933L107.967 128.649C107.255 128.487 106.728 128.228 106.386 127.874C106.048 127.519 105.879 127.07 105.879 126.526C105.879 126.076 106.005 125.681 106.257 125.343C106.509 125.005 106.857 124.741 107.301 124.553C107.745 124.36 108.254 124.264 108.828 124.264C109.653 124.264 110.302 124.443 110.776 124.801C111.25 125.156 111.564 125.631 111.716 126.228ZM114.339 132.094C114.067 132.094 113.834 131.998 113.638 131.806C113.442 131.611 113.345 131.375 113.345 131.1C113.345 130.828 113.442 130.596 113.638 130.404C113.834 130.209 114.067 130.111 114.339 130.111C114.611 130.111 114.844 130.209 115.04 130.404C115.236 130.596 115.333 130.828 115.333 131.1C115.333 131.282 115.287 131.45 115.194 131.602C115.105 131.751 114.985 131.871 114.836 131.96C114.687 132.05 114.521 132.094 114.339 132.094Z" fill="black"/>
<defs>
<clipPath id="clip0_696_270">
<rect width="22" height="12" fill="white" transform="translate(14 17)"/>
</clipPath>
</defs>
</svg>
