<svg width="227" height="23" viewBox="0 0 227 23" fill="none" xmlns="http://www.w3.org/2000/svg">
<g opacity="0.6">
<path d="M205.382 22.7147C211.984 17.0439 221.258 11.5306 226.351 9.54582C225.565 9.04175 224.339 8.31715 222.956 7.52954C216.386 9.70334 208.715 14.5235 201.861 19.9738C203.025 20.8559 204.251 21.7695 205.382 22.7147Z" fill="black" fill-opacity="0.6"/>
<path d="M202.364 7.30901C201.39 6.83645 200.321 6.39539 199.504 6.01733C197.02 7.246 193.782 9.10476 189.695 12.0347C190.575 12.5072 191.519 13.0743 192.525 13.6414C195.668 11.3101 198.843 9.10476 202.364 7.30901Z" fill="black"/>
<path d="M208.243 4.59963C207.049 3.93803 202.899 2.39432 200.038 1.73273C199.189 2.04777 197.995 2.52034 197.177 2.86688C198.215 3.15042 202.081 4.19007 205.382 5.8598C206.231 5.45024 207.426 4.94617 208.243 4.59963Z" fill="black" fill-opacity="0.6"/>
<path d="M194.189 4.19006C190.511 5.8913 186.644 8.22262 184.538 9.57731C185.293 9.92386 186.047 10.2074 187.085 10.7115C191.737 7.56103 195.384 5.63926 196.83 5.00918C195.793 4.63112 194.818 4.37909 194.189 4.19006Z" fill="black"/>
<path d="M211.008 3.623C211.857 3.33946 212.832 3.08743 213.681 2.83539C211.228 1.79575 208.148 0.693096 205.381 0C204.941 0.126018 203.621 0.472566 202.709 0.756105C203.652 1.03964 206.764 1.76425 211.008 3.623ZM195.51 15.4686C196.516 16.0672 197.585 16.8863 198.622 17.5794C205.507 12.2237 212.297 8.09662 219.748 5.7653C218.711 5.22973 217.799 4.75716 216.636 4.19008C212.172 5.32424 204.532 8.38016 195.51 15.4686Z" fill="black" fill-opacity="0.6"/>
<path d="M0 21.0765H5.03001C7.57646 21.0765 8.77109 19.7533 8.77109 17.8946C8.77109 16.3824 7.98515 15.3742 6.35039 15.0592C7.79652 14.7126 8.45671 13.8305 8.45671 12.5388C8.45671 10.9006 7.26208 9.57743 4.71564 9.57743H0.0314376V21.0765H0ZM4.36982 16.1934C5.31295 16.1934 5.97314 16.6659 5.97314 17.6111C5.97314 18.6192 5.34439 19.0287 4.36982 19.0287H2.73507V16.1618H4.36982V16.1934ZM4.05545 11.5937C4.99858 11.5937 5.65877 12.0033 5.65877 12.9484C5.65877 13.8935 5.03001 14.3031 4.05545 14.3031H2.73507V11.5937H4.05545ZM18.9254 9.54593H16.096L11.7891 21.0765H14.6499L15.4359 18.6822H19.5856L20.3716 21.0765H23.2638L18.9254 9.54593ZM17.5107 12.3183L18.8626 16.5714H16.096L17.5107 12.3183ZM37.5994 9.54593H34.99V17.2645L30.0858 9.54593H27.1621V21.0765H29.7714V13.3895L34.6757 21.0765H37.5994V9.54593ZM49.64 21.0765L45.8674 15.2167V21.0765H43.0695V9.54593H45.8674V15.0907L49.4513 9.54593H52.5637L48.7911 15.0907L52.9095 21.0765H49.64ZM62.8123 15.3112C62.8123 17.611 64.1956 19.0287 65.9875 19.0287C67.7794 19.0287 69.1627 17.611 69.1627 15.3112C69.1627 13.0114 67.7794 11.5937 65.9875 11.5937C64.1956 11.5937 62.8123 13.0114 62.8123 15.3112ZM59.8572 15.3112C59.8886 11.9403 62.2464 9.29389 65.9875 9.29389C69.7286 9.29389 72.0864 11.9403 72.1178 15.3112C72.0864 18.6822 69.7286 21.3286 65.9875 21.3286C62.2464 21.3286 59.8886 18.6822 59.8572 15.3112ZM75.9532 21.0765H78.7512V16.5399H82.3979V14.3346H78.7512V11.7512H83.1524L83.6554 9.54593H75.9532V21.0765ZM96.702 9.54593H93.8726L89.5657 21.0765H92.4265L93.2125 18.6822H97.3622L98.1482 21.0765H101.04L96.702 9.54593ZM95.2873 12.3183L96.6392 16.5714H93.8726L95.2873 12.3183ZM117.639 9.54593H114.37L111.383 15.7838L108.397 9.54593H105.127V21.0765H107.642V13.358L111.352 21.0765L115.062 13.358V21.0765H117.671L117.639 9.54593ZM123.078 21.0765H130.938V18.8712H125.876V16.2879H129.869V14.1456H125.876V11.7512H130.497L131 9.54593H123.078V21.0765ZM141.595 21.0765H144.644L141.784 16.1934C143.355 15.7523 144.11 14.6496 144.11 13.0429C144.11 10.9636 142.852 9.57743 140.023 9.57743H135.59V21.108H138.325V16.5714H139.08L141.595 21.0765ZM139.489 11.6882C140.652 11.6882 141.249 12.1923 141.249 13.1689C141.249 14.1456 140.652 14.6496 139.489 14.6496H138.294V11.6882H139.489ZM148.826 21.0765H151.623V9.57743H148.826V21.0765ZM165.393 17.9891C164.324 18.7452 163.381 18.9972 162.407 18.9972C160.269 18.9972 158.76 17.5165 158.76 15.3112C158.76 13.1059 160.237 11.6252 162.312 11.6252C163.255 11.6252 164.199 11.8773 165.236 12.6334V10.0185C164.293 9.48292 163.193 9.26239 161.966 9.26239C158.163 9.26239 155.773 11.9088 155.742 15.2797C155.773 18.6822 158.1 21.2971 161.966 21.2971C163.255 21.2971 164.356 21.0765 165.362 20.541V17.9891H165.393ZM175.642 9.54593H172.812L168.505 21.0765H171.366L172.152 18.6822H176.302L177.088 21.0765H179.98L175.642 9.54593ZM174.227 12.3183L175.579 16.5714H172.812L174.227 12.3183Z" fill="black"/>
</g>
</svg>
