<svg width="55" height="36" viewBox="0 0 55 36" fill="none" xmlns="http://www.w3.org/2000/svg">
<g clip-path="url(#clip0_0_62)">
<g opacity="0.6">
<path d="M17.3035 27.8003L17.2052 27.8955C15.6615 29.4684 13.8751 30.2994 12.0349 30.2994C8.19172 30.2994 5.40382 27.4163 5.40382 23.4395C5.40382 19.4688 8.19172 16.581 12.0349 16.581C13.8751 16.581 15.6615 17.4167 17.2052 18.9957L17.3035 19.0894L19.775 16.1003L19.7089 16.0204C17.6537 13.5919 15.1868 12.4107 12.1547 12.4107C9.11488 12.4107 6.33159 13.4352 4.32859 15.28C2.14742 17.2799 1 20.1001 1 23.4395C1 26.7788 2.14742 29.6051 4.32859 31.605C6.33159 33.4606 9.11488 34.4774 12.1547 34.4774C15.1868 34.4774 17.6537 33.2947 19.7089 30.8647L19.775 30.7909L17.3035 27.8003Z" fill="black"/>
<path d="M22.2712 34.0698H26.6366V12.7557H22.2712V34.0698Z" fill="black"/>
<path d="M43.7396 29.4363C42.5737 30.1459 41.4908 30.5038 40.517 30.5038C39.1054 30.5038 38.4664 29.7573 38.4664 28.0984V16.7886H42.9163V12.7764H38.4664V6.14383L34.1885 8.4356V12.7764H30.4959V16.7886H34.1885V28.8188C34.1885 32.0952 36.1301 34.3378 39.0301 34.3962C40.9978 34.4346 42.1836 33.8478 42.9025 33.4177L42.9485 33.3885L43.9976 29.2781L43.7396 29.4363Z" fill="black"/>
<path d="M47.3531 34.0698H51.7247V12.7557H47.3531V34.0698Z" fill="black"/>
<path d="M54.271 9.01963C50.2819 3.37008 43.6585 1.59258e-05 36.9199 1.59258e-05C30.1828 1.59258e-05 23.5579 3.37008 19.5765 9.01963L19.3707 9.30994H24.3935L24.4488 9.25003C27.8665 5.72022 32.3302 3.85547 36.9199 3.85547C41.5096 3.85547 45.9702 5.72022 49.3956 9.25003L49.4509 9.30994H54.4706L54.271 9.01963Z" fill="black" fill-opacity="0.6"/>
</g>
</g>
<defs>
<clipPath id="clip0_0_62">
<rect width="54.1932" height="35.2" fill="white"/>
</clipPath>
</defs>
</svg>
