<svg width="84" height="32" viewBox="0 0 84 32" fill="none" xmlns="http://www.w3.org/2000/svg">
<path opacity="0.6" fill-rule="evenodd" clip-rule="evenodd" d="M77.9871 14.8732H74.6907V2.79466H77.7952V4.14677C78.1818 3.33434 79.1513 2.61525 80.4122 2.52336C82.5473 2.43293 84 3.60563 84 6.12899V14.8732H80.6069V5.76872C80.6069 4.68791 80.6069 3.78504 79.8308 3.60563C79.5394 3.5152 79.0546 3.60563 78.6666 3.87547C78.1819 4.32764 77.9871 4.86731 77.9871 5.76872V14.8732ZM20.6652 8.83322C20.6652 11.0867 20.6652 12.8896 20.2771 13.7924C19.9857 14.2417 19.6943 14.513 19.0148 14.513C18.4334 14.513 18.0453 14.2417 17.852 13.791C17.3673 12.8896 17.3673 11.0867 17.3673 8.83322C17.3673 6.67013 17.3673 4.77834 17.8505 3.87547C18.0453 3.42477 18.4334 3.15493 19.0148 3.15493C19.6943 3.15493 19.9857 3.42477 20.2771 3.87547C20.7618 4.77688 20.6652 6.66867 20.6652 8.83322ZM21.9246 3.60563C21.1484 2.97406 20.179 2.52336 19.0148 2.52336C17.852 2.52336 16.9792 2.97552 16.1064 3.60563C14.7474 4.68791 13.8746 6.67013 13.8746 8.83322C13.8746 11.0867 14.7474 12.98 16.1064 14.0623C16.9792 14.6924 17.852 15.1431 19.0148 15.1431C20.179 15.1431 21.1499 14.6924 21.926 14.0623C23.3802 12.98 24.1564 11.0867 24.1564 8.83322C24.1564 6.67013 23.3787 4.68791 21.9246 3.60563ZM55.7762 19.4707V22.7146H55.0981C54.7101 21.3625 54.1272 20.1913 52.5749 20.1008C51.6055 20.0119 50.7327 20.553 50.6361 21.3625C50.5394 22.1749 50.8294 22.894 52.5749 23.7983C54.8067 24.9681 56.5523 25.5093 56.5523 27.9437C56.5523 30.5575 54.1272 31.8206 52.0902 31.8206H48.2095V27.3135H48.889C49.3752 29.656 50.1499 31.0986 51.9936 31.189C53.1578 31.189 54.0291 30.5575 54.0291 29.3862C54.0291 28.2135 53.2544 27.493 51.4122 26.5011C49.3752 25.3299 48.1143 24.6079 48.1143 22.9859C48.1143 20.8228 49.7633 19.4707 52.3816 19.4707H55.7762ZM60.0435 14.8732V6.12899C60.0435 3.60563 58.5893 2.43293 56.4557 2.52336C55 2.61379 54.1272 3.5152 53.7392 4.23574C53.2544 2.97406 52.1869 2.43293 50.6346 2.52336C49.3752 2.61379 48.4043 3.33434 48.0162 4.14677V2.79466H45.0097V14.8718H48.3076V5.77018C48.3076 4.86877 48.4043 4.32764 48.9871 3.87693C49.3752 3.60709 49.7633 3.51666 50.0532 3.60709C50.8294 3.7865 50.8294 4.68937 50.8294 5.77018V14.8747H54.1272V5.67829C54.1272 4.86586 54.3205 4.32472 54.8067 3.87401C55.1948 3.60418 55.5829 3.51374 55.8728 3.60418C56.649 3.78358 56.7456 4.68645 56.7456 5.76726V14.8718H60.0435V14.8732ZM26.3867 14.8732H29.7812V0.269839H26.3867V14.8732ZM37.8311 3.7865C38.5106 4.68791 38.5106 6.84954 38.5106 8.56338C38.5106 10.3662 38.6087 12.7101 37.8326 13.7005C37.5412 14.0623 37.2498 14.2417 36.765 14.2417C36.087 14.2417 35.6989 13.5211 35.5056 12.3484C35.4075 11.2676 35.4075 9.91549 35.4075 8.47295C35.4075 6.04002 35.6008 3.33434 36.8632 3.33434C37.3464 3.33434 37.5397 3.5152 37.8311 3.7865ZM41.81 14.8732V0.269839H38.414V3.69607C38.124 3.0645 37.4445 2.61379 36.4751 2.61379C34.05 2.61379 32.1111 4.95775 32.013 8.56338C31.9163 10.9978 32.7891 15.0541 36.1837 15.0541C37.5412 15.0541 38.3173 14.3321 38.6087 13.7005V14.8732H41.81ZM68.1916 7.66197L67.124 8.29208C66.0579 8.92365 65.8646 9.73609 65.7665 10.636C65.6698 11.358 65.6698 11.9881 65.7665 13.0704C65.8631 14.0623 66.5426 14.2417 67.124 14.0623C67.8035 13.791 68.1916 12.6197 68.1916 11.358V7.66197ZM70.1305 3.15493C71.0047 3.60709 71.5861 4.32618 71.5861 5.94959V14.8732H68.3849V13.5211C67.9983 14.513 66.9307 15.1431 65.4751 15.1431C64.3123 15.1431 62.2753 14.6034 62.2753 11.8087C62.2753 9.19349 64.1175 8.65381 66.156 7.84138C67.9983 7.12083 68.1916 7.0304 68.1916 6.30986V4.32618C68.1916 3.5152 67.7068 3.15493 66.7359 3.15493C66.3493 3.24536 65.6698 3.42477 65.6698 3.87547C65.5717 4.41661 66.2512 4.41661 66.3493 5.22759C66.446 6.49072 65.3784 6.93997 64.409 6.851C63.7295 6.851 62.9533 6.49072 62.8567 5.49888C62.76 3.87547 64.6989 2.52336 67.4154 2.52336C68.6763 2.52336 69.4524 2.79466 70.1305 3.15493ZM20.179 24.5174L19.1129 25.149C18.0453 25.7806 17.852 26.5915 17.7539 27.493C17.6587 28.2135 17.6587 28.9355 17.7539 29.9259C17.7539 31.0082 18.4334 31.189 19.0148 30.9177C19.7909 30.6479 20.179 29.5671 20.179 28.2135V24.5174ZM22.1193 20.0104C22.9921 20.5515 23.4769 21.1831 23.4769 22.805V31.8191H20.3752V30.467C19.9871 31.3684 18.921 31.9985 17.4654 31.9985C16.2045 31.9985 14.2642 31.5493 14.2642 28.7546C14.2642 26.1408 16.1079 25.5997 18.0468 24.7873C19.9871 23.9778 20.1804 23.8873 20.1804 23.2558V21.2721C20.1804 20.3721 19.6957 20.0119 18.7263 20.1008C18.3382 20.1008 17.6602 20.2817 17.6602 20.7324C17.5621 21.364 18.2415 21.364 18.3382 22.1749C18.4349 23.3462 17.3688 23.7969 16.3978 23.7969C15.7198 23.7065 14.9437 23.3462 14.8456 22.3543C14.7489 20.8228 16.6893 19.4693 19.4043 19.4693C20.6666 19.4693 21.4413 19.6501 22.1208 20.0119L22.1193 20.0104ZM45.5926 23.0763C45.5926 20.553 44.1369 19.2898 42.0033 19.4707C40.9372 19.5597 40.0629 20.0104 39.5782 20.642V17.1268H36.2788V25.4203C36.2788 28.4833 33.9504 31.3684 31.622 31.278C29.9745 31.278 29.5864 30.1068 29.3917 28.8451C29.1017 27.0423 29.1017 24.9696 29.295 22.7146C29.4898 21.2735 29.8779 20.1008 31.0421 20.1008C31.9149 20.1008 32.0115 20.642 31.6234 21.0022C31.2354 21.4544 30.654 21.9036 30.944 22.8955C31.2354 23.9778 33.0776 24.1572 33.9519 23.3476C34.6299 22.6256 34.5333 21.4529 34.0485 20.7324C33.4657 19.831 32.4962 19.4707 31.0421 19.4707C29.1984 19.4707 25.7072 21.0022 25.7072 25.8695C25.7072 31.0986 29.295 32 31.332 32C33.6605 32 35.696 30.1067 36.2788 28.5738V31.8191H39.5767V22.7146C39.5767 21.8147 39.77 21.2735 40.2562 20.8214C40.6443 20.5515 41.129 20.4611 41.4204 20.5515C42.1966 20.7324 42.1966 21.6338 42.1966 22.7146V31.8191H45.5911L45.5926 23.0763ZM11.6443 0V5.13861H10.9648C10.3835 2.61525 9.12259 0.720543 7.37699 0.631569C6.21278 0.541137 5.53329 1.17125 4.95191 2.07266C4.37053 3.15493 4.07911 5.40845 4.07911 8.11122C4.07911 10.636 4.17577 12.5293 4.46719 13.8814C4.66049 14.513 5.14521 15.5033 6.40608 15.5033C7.08557 15.5033 7.5703 15.3239 7.86172 14.9637C8.34498 14.4225 8.44309 13.3403 8.44309 12.6197V10.1853C8.44309 9.28392 8.15314 8.74424 7.66695 8.47295C7.28034 8.29208 6.6975 8.29208 6.40755 8.20165V7.57154H11.8376V20.4626H11.1596C10.8682 19.4707 10.6749 18.7487 10.1887 17.9377C9.70543 17.1268 8.83117 16.2254 7.37699 16.2254C5.82471 16.1349 4.66049 17.0363 4.66049 18.3884C4.66049 20.1913 5.82471 20.642 7.95837 21.7242C9.99538 22.8051 12.6152 23.7079 12.6152 26.8614C12.6152 29.9259 9.80061 31.8206 6.60085 31.8206H1.46073V25.5997H2.13875C3.01155 30.2876 5.14521 31.0986 6.60085 31.0986C8.44309 31.0986 9.31589 30.0163 9.31589 28.4848C9.21924 26.5011 7.7636 25.7806 5.72805 24.7887C2.81825 23.2572 1.46073 22.5352 1.46073 20.0119C1.55738 17.8473 3.39962 16.4966 5.43663 15.9555C1.1693 15.5033 -0.091563 11.8992 0.00508895 8.02224C0.00508895 4.14677 2.43017 0 7.18223 0H11.6443Z" fill="black"/>
</svg>
