<svg width="169" height="25" viewBox="0 0 169 25" fill="none" xmlns="http://www.w3.org/2000/svg">
<path opacity="0.6" d="M45.0307 17.8659C45.4532 18.0389 46.0793 18.1503 46.9092 18.2017V18.5633H37.5435V18.2017C38.3717 18.1503 38.9995 18.0389 39.422 17.8659C39.8445 17.6945 40.1374 17.4186 40.2973 17.0382C40.4572 16.6595 40.538 16.0992 40.538 15.3589V3.8333H40.4623L34.0406 18.8992H33.9649L27.0854 3.88642H27.0097V15.3589C27.0097 16.0992 27.0938 16.6595 27.2638 17.0382C27.4322 17.4169 27.725 17.6928 28.1391 17.8659C28.5532 18.0389 29.176 18.1503 30.0042 18.2017V18.5633H22.8587V18.2017C23.6869 18.1503 24.3097 18.0389 24.7238 17.8659C25.1379 17.6945 25.4308 17.4186 25.5991 17.0382C25.7674 16.6595 25.8533 16.0992 25.8533 15.3589V3.80759C25.8533 3.06732 25.7691 2.50698 25.5991 2.12828C25.4291 1.74957 25.1379 1.47369 24.7238 1.30061C24.308 1.12925 23.6869 1.01616 22.8587 0.96475V0.603183H29.2686L35.123 13.6145L40.8006 0.603183H46.9092V0.96475C46.0793 1.01616 45.4532 1.12925 45.0307 1.30061C44.6082 1.47369 44.3119 1.753 44.1419 2.14027C43.9719 2.52754 43.8877 3.08274 43.8877 3.80759V15.3589C43.8877 16.0992 43.9719 16.6595 44.1419 17.0382C44.3119 17.4186 44.6082 17.6928 45.0307 17.8659ZM57.7562 9.15741C58.2796 10.1393 58.5422 11.2497 58.5422 12.4903C58.5422 13.731 58.2796 14.8414 57.7562 15.8233C57.231 16.8052 56.5004 17.5643 55.5612 18.0972C54.6219 18.6318 53.5514 18.8992 52.3495 18.8992C51.1477 18.8992 50.0822 18.6318 49.1513 18.0972C48.2205 17.5643 47.4882 16.8052 46.9563 15.8233C46.4227 14.8414 46.1568 13.731 46.1568 12.4903C46.1568 11.2497 46.4227 10.1393 46.9563 9.15741C47.4899 8.17552 48.2205 7.41812 49.1513 6.88348C50.0822 6.34884 51.1477 6.08152 52.3495 6.08152C53.5514 6.08152 54.6219 6.34884 55.5612 6.88348C56.5004 7.41812 57.231 8.17552 57.7562 9.15741ZM55.2178 12.4903C55.2178 11.2668 55.1033 10.2164 54.8744 9.33734C54.6455 8.45827 54.3156 7.79168 53.8846 7.33415C53.4537 6.87834 52.9403 6.64872 52.3495 6.64872C51.757 6.64872 51.2453 6.87663 50.8144 7.33415C50.3835 7.79168 50.0535 8.45827 49.8246 9.33734C49.5957 10.2164 49.4812 11.2668 49.4812 12.4903C49.4812 13.7138 49.5957 14.7643 49.8246 15.6433C50.0535 16.5224 50.3835 17.189 50.8144 17.6465C51.2453 18.1041 51.757 18.332 52.3495 18.332C52.942 18.332 53.4537 18.1041 53.8846 17.6465C54.3156 17.1907 54.6455 16.5224 54.8744 15.6433C55.1033 14.7643 55.2178 13.7138 55.2178 12.4903ZM67.1488 8.84725C67.5881 8.84725 67.987 8.92436 68.3422 9.0803V6.23746C68.1217 6.13464 67.8608 6.08324 67.5561 6.08324C66.7768 6.08324 66.0883 6.43281 65.4874 7.13024C64.8865 7.82767 64.4185 8.62963 63.9842 10.2267H63.927V6.18605H63.826L58.7998 7.65974V7.9956C59.3755 7.9956 59.8198 8.05215 60.1329 8.16353C60.446 8.27491 60.6699 8.45655 60.8062 8.70674C60.9409 8.95692 61.0099 9.29621 61.0099 9.72804V16.1369C61.0099 16.6715 60.9594 17.0673 60.8584 17.3261C60.7574 17.5848 60.5706 17.7785 60.2996 17.907C60.0286 18.0355 59.5976 18.1349 59.0051 18.2034V18.565H66.0614V18.2034C65.4689 18.152 65.0245 18.0612 64.7282 17.9327C64.432 17.8042 64.2249 17.6054 64.1071 17.3381C63.9893 17.0708 63.9287 16.6698 63.9287 16.1369V11.0578C64.4606 9.78458 65.6321 8.84725 67.1488 8.84725ZM104.189 17.3107C104.088 17.0433 104.037 16.6441 104.037 16.1094V10.2164C104.037 7.44896 102.533 6.08152 100.56 6.08152C98.5871 6.08152 97.3196 7.5038 96.7776 8.2612H96.7271V6.18605H96.6261L91.5999 7.65974V7.9956C92.1587 7.9956 92.598 8.05215 92.9195 8.16353C93.241 8.27491 93.47 8.45141 93.6046 8.69303C93.7393 8.93464 93.8083 9.27051 93.8083 9.70062V16.1077C93.8083 16.6424 93.7578 17.0433 93.6568 17.3089C93.5558 17.5763 93.369 17.7733 93.098 17.9036C92.827 18.0321 92.396 18.1315 91.8035 18.2V18.5616H98.4036V18.2C97.9474 18.1315 97.5956 18.0321 97.3499 17.9036C97.1041 17.775 96.9392 17.5763 96.855 17.3089C96.7708 17.0416 96.7288 16.6424 96.7288 16.1077V9.20025C97.3129 8.47883 97.9996 7.78654 99.1156 7.78654C100.649 7.78654 101.12 8.96378 101.12 10.2935V16.1077C101.12 16.6424 101.073 17.0433 100.981 17.3089C100.888 17.5763 100.727 17.7733 100.498 17.9036C100.269 18.0321 99.9186 18.1315 99.4439 18.2V18.5616H105.968V18.2C105.409 18.1315 104.999 18.0321 104.738 17.9036C104.472 17.775 104.292 17.578 104.189 17.3107ZM168.326 14.9973C167.766 16.2431 166.202 18.8992 163.021 18.8992C159.999 18.8992 157.488 16.3836 157.488 12.5949C157.488 11.4056 157.742 10.3124 158.249 9.31335C158.757 8.31433 159.445 7.52608 160.317 6.9486C161.189 6.37112 162.149 6.08324 163.199 6.08324C166.248 6.08324 167.768 8.26977 167.768 10.5488V11.0629H160.205C160.205 11.1092 160.203 11.1537 160.203 11.2C160.203 13.9417 161.401 16.5755 164.416 16.5755C166.709 16.5755 167.668 15.2835 168.045 14.8191L168.326 14.9973ZM160.257 10.1907H165C164.968 8.31775 164.42 6.68299 162.92 6.67614C161.513 6.671 160.492 8.00759 160.257 10.1907ZM134.659 17.3107C134.558 17.0433 134.508 16.6441 134.508 16.1094V10.2164C134.508 9.3202 134.36 8.5628 134.064 7.94248C133.767 7.32216 133.357 6.85778 132.833 6.54762C132.308 6.23746 131.707 6.08324 131.03 6.08324C130.251 6.08324 129.563 6.28544 128.962 6.68985C128.361 7.09425 127.79 7.67687 127.248 8.43428H127.198V0H127.097L122.07 1.47369V1.80955C122.629 1.80955 123.068 1.8661 123.39 1.97748C123.711 2.08886 123.94 2.26536 124.075 2.50698C124.21 2.74859 124.279 3.08446 124.279 3.51457V16.1077C124.279 16.6424 124.228 17.0433 124.127 17.3089C124.026 17.5763 123.839 17.7733 123.568 17.9036C123.297 18.0321 122.866 18.1315 122.274 18.2V18.5616H128.874V18.2C128.418 18.1315 128.066 18.0321 127.82 17.9036C127.575 17.775 127.41 17.5763 127.325 17.3089C127.241 17.0416 127.199 16.6424 127.199 16.1077V9.20025C127.783 8.47883 128.47 7.78654 129.586 7.78654C130.212 7.78654 130.702 7.99731 131.059 8.41885C131.414 8.8404 131.593 9.46586 131.593 10.2918V16.1077C131.593 16.6424 131.545 17.0433 131.453 17.3089C131.36 17.5763 131.199 17.7733 130.97 17.9036C130.741 18.0321 130.391 18.1315 129.916 18.2V18.5616H136.44V18.2C135.881 18.1315 135.471 18.0321 135.21 17.9036C134.942 17.775 134.762 17.578 134.659 17.3107ZM116.223 17.4477C112.479 17.4735 109.51 14.4096 109.51 9.43844C109.51 4.18458 112.275 1.12069 115.438 1.12069C118.601 1.12069 119.958 4.02179 120.65 6.87148L121.156 6.86292V1.61934C119.968 0.949327 118.019 0.193635 115.186 0.193635C109.722 0.193635 105.598 4.26341 105.598 9.69719C105.598 14.8739 109.038 18.9677 114.959 18.942C118.222 18.9163 120.498 16.9337 121.586 15.4137L121.232 15.0282C120.498 15.8781 119.03 17.422 116.223 17.4477ZM153.909 11.3799L152.159 10.5266C150.996 9.99707 150.331 9.29621 150.331 8.43428C150.331 7.45753 151.209 6.78923 152.438 6.78923C154.227 6.78923 155.155 7.79682 155.539 10.0365H156.067V6.78067C155.542 6.57332 154.155 6.08324 152.743 6.08324C149.95 6.08324 148.25 7.87051 148.25 9.93367C148.25 10.7271 148.457 11.4193 148.871 12.014C149.285 12.6086 149.908 13.1209 150.736 13.551L152.564 14.4815C153.815 15.0624 154.317 15.6348 154.317 16.4967C154.317 17.4495 153.562 18.1949 152.133 18.1949C150.044 18.1949 149.051 16.178 148.779 14.5586H148.25V17.8916C149.046 18.4159 150.544 18.8992 151.931 18.8992C154.608 18.8992 156.475 17.2301 156.475 14.8688C156.473 13.1672 155.581 12.1031 153.909 11.3799ZM15.1544 10.7339V15.3589C15.1544 16.082 15.2554 16.6372 15.4591 17.0262C15.6628 17.4135 16.0011 17.6945 16.4741 17.8659C16.9471 18.0389 17.6675 18.1503 18.632 18.2017V18.5633H8.80852V18.2017C9.63669 18.1503 10.2595 18.0389 10.6736 17.8659C11.0877 17.6945 11.3805 17.4186 11.5489 17.0382C11.7172 16.6595 11.803 16.0992 11.803 15.3589V3.88642C11.803 1.52338 10.7544 1.04357 9.16201 1.04357C7.41478 1.04357 6.34591 1.52167 6.34591 3.8093V16.6458C6.34591 19.5469 4.49431 22.3058 0.838265 22.3058C0.555477 22.3058 0.276055 22.2886 0 22.2561V21.9459C0.868564 21.8928 1.57217 21.5929 2.10745 21.0394C2.69996 20.4277 2.99621 19.4252 2.99621 18.0287V3.80759C2.99621 3.08446 2.91205 2.52754 2.74204 2.14027C2.57203 1.753 2.27577 1.47369 1.85327 1.30061C1.43077 1.12925 0.813016 1.01616 0 0.96475V0.603183H17.346C21.2916 0.603183 23.734 2.61151 23.734 5.64284C23.734 9.11286 20.386 10.7339 17.3932 10.7339H15.1544ZM15.1544 10.0399H16.3647C18.4233 10.0399 20.1554 8.81298 20.1554 5.66855C20.1554 1.82497 17.6625 1.29719 16.427 1.29719H15.1544V10.0399ZM90.5764 17.5317C90.9956 17.5317 91.3642 17.3449 91.5982 17.1839V17.7973C91.1302 18.2429 90.2617 18.8906 88.9554 18.8906C87.8546 18.8906 86.9305 18.1794 86.6847 17.0947H86.6191C86.1899 17.9207 84.8786 18.9643 83.4478 18.9643C81.7309 18.9643 80.4668 17.799 80.4668 16.0272C80.4668 14.6426 81.3976 13.7207 82.9462 13.1621L86.6191 11.8152V10.0793C86.6191 8.50111 85.498 7.77283 84.2827 7.77283C83.0421 7.77283 81.8975 8.30747 80.7058 9.54468L80.3489 9.20539C81.3976 7.48152 83.0674 6.07295 85.4761 6.07295C87.7654 6.07295 89.6018 7.60319 89.5783 10.0793L89.5311 16.2705C89.5278 17.1427 89.8863 17.5317 90.5764 17.5317ZM86.6191 12.624L85.1412 13.234C83.9966 13.695 83.2576 14.2296 83.2576 15.4668C83.2576 16.5104 83.973 17.2387 84.9745 17.2387C85.4997 17.2387 86.2622 16.8257 86.6208 16.3648V12.624H86.6191ZM146.614 17.5317C147.035 17.5317 147.402 17.3432 147.637 17.1839V17.7973C147.169 18.2429 146.301 18.8923 144.993 18.8923C143.892 18.8923 142.968 18.1812 142.722 17.0965H142.657C142.227 17.9224 140.916 18.966 139.485 18.966C137.768 18.966 136.504 17.8007 136.504 16.0289C136.504 14.6443 137.435 13.7224 138.984 13.1638L142.657 11.8169V10.0793C142.657 8.50111 141.536 7.77283 140.32 7.77283C139.08 7.77283 137.935 8.30747 136.743 9.54468L136.385 9.20539C137.433 7.48152 139.103 6.07295 141.512 6.07295C143.801 6.07295 145.638 7.60319 145.614 10.0793L145.567 16.2705C145.565 17.1427 145.922 17.5317 146.614 17.5317ZM142.655 12.624L141.177 13.234C140.032 13.695 139.293 14.2296 139.293 15.4668C139.293 16.5104 140.009 17.2387 141.01 17.2387C141.536 17.2387 142.298 16.8257 142.657 16.3648V12.624H142.655ZM77.452 6.93146C78.5377 7.7934 79.0175 9.03403 79.0175 10.093C79.0175 12.8742 76.6828 14.3153 74.0249 14.3153C73.3247 14.3153 72.648 14.2142 72.0302 14.0154C71.6868 14.2845 71.3923 14.6357 71.3923 15.047C71.3923 15.9312 72.8079 16.1094 73.6529 16.1591L76.5346 16.3613C78.8441 16.5138 80.3085 17.3466 80.3085 19.4458C80.3085 22.1001 77.2248 24.3004 72.7338 24.3004C70.1265 24.3004 68.2631 23.3905 68.2631 21.7711C68.2631 20.3643 69.0239 19.5589 70.9799 18.6027C69.7006 18.224 69.4043 17.4477 69.4043 16.6886C69.4043 15.6502 70.315 14.718 71.5488 13.8338C70.0709 13.1998 69.0323 11.9437 69.0323 10.0896C69.0323 7.30845 71.367 5.86732 74.0249 5.86732C75.2469 5.86732 76.2199 6.15006 76.9689 6.59388C77.5278 5.45092 78.6303 4.12118 80.6065 4.12118V6.4945C79.5511 6.16206 78.2634 6.33513 77.452 6.93146ZM70.3486 20.6624C70.3486 22.1293 71.9881 22.7856 74.1242 22.7856C76.161 22.7856 78.9165 21.85 78.9165 20.3574C78.9165 19.4972 78.4451 19.295 77.2029 19.1939L72.212 18.8169C71.9191 18.7946 71.6549 18.7604 71.4175 18.7141C70.6988 19.2847 70.3486 19.8708 70.3486 20.6624ZM75.9371 10.0947C75.9371 7.718 75.1678 6.58018 74.0249 6.58018C72.882 6.58018 72.1127 7.718 72.1127 10.0947C72.1127 12.4715 72.882 13.6093 74.0249 13.6093C75.1678 13.6093 75.9371 12.4715 75.9371 10.0947Z" fill="black"/>
</svg>
