<svg width="138" height="32" viewBox="0 0 138 32" fill="none" xmlns="http://www.w3.org/2000/svg">
<g opacity="0.6" clip-path="url(#clip0_0_77)">
<path fill-rule="evenodd" clip-rule="evenodd" d="M122.207 0.0441537C135.499 0.0662227 135.825 0.0717399 136.399 0.33105C136.719 0.474499 137.122 0.755878 137.293 0.954499C137.465 1.15312 137.691 1.6276 137.801 2.00829C137.972 2.60415 138 4.53519 138.006 16C138.006 26.5711 137.967 29.4235 137.829 29.8924C137.735 30.2179 137.536 30.6648 137.387 30.88C137.238 31.1007 136.819 31.4262 135.809 31.9338H122.075C114.523 31.9338 108.12 31.8897 107.844 31.8345C107.574 31.7793 107.127 31.5421 106.862 31.3104C106.597 31.0731 106.266 30.6428 106.133 30.3559C105.907 29.8538 105.896 29.0759 105.896 16C105.896 2.92415 105.907 2.14622 106.133 1.64415C106.266 1.35726 106.597 0.926912 106.862 0.689671C107.149 0.441395 107.552 0.23174 107.844 0.187602C108.12 0.143464 108.402 0.0882917 108.474 0.0662227C108.551 0.0386365 114.728 0.027602 122.207 0.0441537ZM108.678 14.4883H116.638V8.68967H119.823V23.3104H116.638V17.5117H108.678V29.2359H135.212L135.146 17.5779H127.186L127.12 23.3104H123.935V8.68967H127.12V14.4883L135.146 14.4221L135.196 2.76415H108.678V14.4883ZM74.3102 6.46622C74.7077 6.46071 75.4418 6.51588 75.9331 6.5876C76.4244 6.65933 77.3076 6.88002 78.9581 7.44277V9.12002C78.9526 10.0414 78.9084 10.7807 78.8532 10.7586C78.798 10.7366 78.3674 10.5324 77.8927 10.3062C77.418 10.0745 76.6673 9.79312 76.2312 9.68277C75.7951 9.57243 75.0168 9.47864 74.509 9.48415C73.9956 9.48415 73.3553 9.53933 73.0793 9.61657C72.8088 9.68829 72.3672 9.93657 72.1078 10.1738C71.8152 10.4386 71.5834 10.8028 71.5006 11.1283C71.4288 11.4152 71.4012 11.8455 71.4454 12.0828C71.484 12.32 71.6827 12.6952 71.887 12.9214C72.0857 13.1531 72.5935 13.5062 73.013 13.7159C73.4326 13.92 74.4482 14.3173 75.2707 14.5986C76.0932 14.88 77.1365 15.2938 77.5891 15.52C78.0473 15.7462 78.6986 16.1876 79.0354 16.4966C79.3721 16.8 79.7806 17.2911 79.9462 17.5779C80.1118 17.8704 80.3215 18.4331 80.4154 18.8304C80.5147 19.2497 80.5479 19.9173 80.5092 20.4138C80.4651 20.8828 80.2994 21.6221 80.1338 22.0579C79.9075 22.6593 79.626 23.0566 78.9636 23.7131C78.2902 24.3752 77.8817 24.6566 77.1917 24.9324C76.7004 25.1255 75.7786 25.3462 75.1382 25.4235C74.3268 25.5173 73.6368 25.5173 72.8474 25.4235C72.2292 25.3462 71.3294 25.1697 70.8602 25.0373C70.3855 24.8993 69.7121 24.6621 68.735 24.2317V22.5159C68.735 21.5779 68.7626 20.8055 68.8013 20.8055C68.8399 20.8055 69.149 20.9766 69.4968 21.1807C69.8446 21.3848 70.5456 21.7159 71.059 21.9145C71.5668 22.1186 72.312 22.3393 72.715 22.4166C73.1179 22.4883 73.8631 22.5214 74.3765 22.4938C75.0168 22.4607 75.5081 22.3393 75.9662 22.1131C76.4686 21.8648 76.7059 21.6442 76.9378 21.1973C77.1475 20.789 77.2303 20.4469 77.1972 20.0828C77.1696 19.7904 77.0482 19.3931 76.9212 19.1945C76.7998 18.9959 76.4741 18.6869 76.1981 18.5048C75.9276 18.3228 74.7132 17.8152 73.5098 17.3793C72.3065 16.9379 71.0258 16.4193 70.667 16.2207C70.3138 16.0276 69.7562 15.6138 69.4416 15.3104C69.127 15.0014 68.7516 14.5269 68.6136 14.2566C68.4756 13.9862 68.2879 13.3738 68.1941 12.9048C68.0671 12.2428 68.0616 11.8455 68.183 11.1283C68.2658 10.6207 68.4866 9.89243 68.6688 9.51174C68.851 9.13657 69.2705 8.55726 69.5962 8.23174C69.9274 7.90622 70.5677 7.45381 71.0258 7.2276C71.4785 7.0014 72.2402 6.73657 72.715 6.64829C73.1897 6.5545 73.9073 6.47174 74.3102 6.46622ZM0 6.84691H14.8598V9.87588H9.15768L9.09144 25.0869L5.84016 25.1531V9.87588H0V6.84691ZM19.2593 6.83036L23.6587 6.88002C27.8318 6.92415 28.1078 6.94071 28.8586 7.22208C29.3002 7.38208 29.8963 7.65795 30.1889 7.82346C30.4814 7.9945 31.0003 8.43588 31.3481 8.81105C31.6958 9.18071 32.1264 9.79312 32.3086 10.1738C32.4852 10.5545 32.7005 11.2221 32.7833 11.6524C32.8661 12.0883 32.8992 12.8166 32.855 13.269C32.8109 13.7214 32.6563 14.4 32.5073 14.7807C32.3582 15.1614 32.0767 15.7076 31.878 15.989C31.6793 16.2759 31.1549 16.7669 30.7188 17.0814C30.2827 17.4014 29.6369 17.7435 28.6598 18.0414L29.0076 18.4717C29.2008 18.7035 29.67 19.4593 30.0509 20.149C30.4373 20.8386 30.923 21.5338 31.1328 21.6993C31.3426 21.8648 31.7234 22.069 31.9774 22.1462C32.2368 22.2235 32.6398 22.2511 33.3077 22.1242V25.1531L32.6729 25.2248C32.3306 25.269 31.6848 25.2469 31.2487 25.1752C30.8126 25.109 30.1558 24.9269 29.7914 24.7669C29.3995 24.5959 28.8641 24.1986 28.4832 23.7959C28.0802 23.36 27.5338 22.5048 27.0038 21.4676C26.5402 20.5573 25.9606 19.6304 25.7177 19.3986C25.4748 19.1669 25.116 18.9186 24.9118 18.8414C24.713 18.7642 24.1003 18.6979 22.5602 18.6979V25.1531L19.309 25.0869L19.2593 6.83036ZM22.5602 15.8014C25.4858 15.7959 26.7002 15.7242 27.1418 15.6359C27.5834 15.5476 28.152 15.3214 28.4059 15.1338C28.6543 14.9517 29.0076 14.5048 29.1842 14.1462C29.405 13.6993 29.5099 13.269 29.5099 12.7724C29.5099 12.2593 29.4161 11.8621 29.1787 11.3931C28.9358 10.9186 28.6654 10.6207 28.2017 10.3393L27.5558 9.94208L22.5713 9.85933L22.5602 15.8014ZM38.0825 6.84691H41.4L41.3945 12.8717C41.3945 18.4993 41.411 18.9517 41.6539 19.7517C41.825 20.2979 42.101 20.8166 42.4212 21.1862C42.6972 21.5062 43.2271 21.92 43.5914 22.1021C44.1545 22.389 44.4305 22.4442 45.4462 22.4497C46.4232 22.4497 46.7654 22.3945 47.3064 22.1517C47.6707 21.9807 48.162 21.6552 48.3994 21.4235C48.6367 21.1917 48.9955 20.6511 49.5586 19.4262L49.6248 6.84691L52.8761 6.91312L52.9147 12.3145C52.9423 15.4097 52.8982 18.2179 52.8209 18.8966C52.7491 19.5476 52.5614 20.4359 52.4124 20.8717C52.2634 21.3076 51.8825 22.0469 51.5623 22.5159C51.2422 22.9904 50.6626 23.6193 50.2706 23.9173C49.8787 24.2207 49.3046 24.5904 48.9955 24.7448C48.6864 24.8938 48.0571 25.12 47.6045 25.2414C47.0966 25.3738 46.2631 25.4621 45.4462 25.4621C44.563 25.4621 43.8564 25.3848 43.3265 25.2304C42.8849 25.1035 42.1728 24.8111 41.7312 24.5793C41.2951 24.3531 40.6051 23.84 40.2022 23.4428C39.7385 22.9848 39.2803 22.3504 38.9657 21.7269C38.6621 21.12 38.3971 20.3366 38.2812 19.6855C38.1377 18.88 38.0935 17.2579 38.088 12.7393L38.0825 6.84691ZM59.1799 6.84691H62.4974V25.1531L59.2462 25.0869L59.1799 6.84691ZM83.065 6.84691H97.9248V9.87588H92.0902V25.1531H88.9051V9.87588H83.065V6.84691Z" fill="black"/>
</g>
<defs>
<clipPath id="clip0_0_77">
<rect width="138" height="32" fill="white"/>
</clipPath>
</defs>
</svg>
