<svg width="128" height="23" viewBox="0 0 128 23" fill="none" xmlns="http://www.w3.org/2000/svg">
<g opacity="0.5" clip-path="url(#clip0_0_40)">
<path opacity="0.6" d="M30.2646 0V17.8545L15.1328 23L0 17.8545V0H30.2646ZM22.3193 4.41406C19.8005 4.41406 16.3841 5.23909 16.3838 8.41016C16.3838 10.5638 17.8617 11.7257 21.5186 12.3545C23.7472 12.7418 24.1591 12.96 24.1592 13.6855C24.1592 14.4135 23.1663 14.6553 22.5361 14.6553C21.9562 14.6553 21.4943 14.5095 21.2529 14.291C20.889 13.9771 20.6958 13.6142 20.6709 13.1787H16.0938C16.1654 16.4225 19.4119 17.6084 22.3672 17.6084C25.42 17.6084 28.7626 16.663 28.7627 13.1787C28.7627 11.1205 27.3576 10.1758 25.7588 9.66699C24.1599 9.13529 22.3439 9.0386 21.5439 8.69922C21.2777 8.57917 20.9864 8.41067 20.9863 8.04688C20.9863 7.22428 21.7604 7.07817 22.4404 7.07812C22.8266 7.07812 23.2157 7.19945 23.5068 7.44141C23.8217 7.65919 24.0385 7.97375 24.0625 8.38574H28.4219C28.3023 5.16705 25.0322 4.41413 22.3193 4.41406ZM2.04297 4.72949V13.3467C2.04297 16.2275 4.10309 17.6073 6.35449 17.6074C8.26819 17.6074 9.55348 16.9546 10.4492 15.6953H10.4971V17.293H15.123V4.72949H10.3271V11.3623C10.3271 13.3707 9.23771 13.7821 8.41406 13.7822C7.00808 13.7822 6.83984 12.7668 6.83984 11.3135V4.72949H2.04297Z" fill="black"/>
<path d="M31.9858 0.00921631H36.7819V6.10997H36.8309C37.557 5.04484 38.8406 4.41418 40.2698 4.41418C44.4845 4.41418 45.6231 7.99827 45.6231 10.9512C45.6231 14.0986 43.9036 17.6079 40.3434 17.6079C37.9934 17.6079 37.2654 16.712 36.661 15.9133H36.612V17.293H31.9858V0.00921631ZM38.7195 7.90121C36.9996 7.90121 36.6118 9.52317 36.6118 11C36.6118 12.5007 36.9998 14.122 38.7195 14.122C40.4396 14.122 40.8268 12.5007 40.8268 11C40.827 9.52294 40.4396 7.90121 38.7195 7.90121Z" fill="black"/>
<path d="M58.9936 14.4863C58.9936 15.4296 59.0408 16.4954 59.5752 17.2933H54.6822C54.5616 16.9549 54.4875 16.4459 54.5121 16.1067H54.4643C53.447 17.2684 51.9699 17.6081 50.4203 17.6081C47.9987 17.6081 45.9888 16.4462 45.9888 13.8083C45.9888 9.83804 50.6383 9.98248 53.0834 9.52386C53.7377 9.40288 54.3918 9.2083 54.3918 8.41066C54.3918 7.56311 53.5929 7.2487 52.8178 7.2487C51.3411 7.2487 51.05 7.9985 51.0254 8.5298H46.5687C46.7147 4.99723 50.0576 4.4151 53.0353 4.4151C59.041 4.4151 58.9939 6.90876 58.9939 9.32951V14.4863M54.3918 11.6539C53.8095 11.943 53.1566 12.113 52.5039 12.259C51.4378 12.5012 50.8808 12.7673 50.8808 13.614C50.8808 14.1949 51.5098 14.7755 52.3819 14.7755C53.4716 14.7755 54.3193 14.1218 54.3918 12.8147V11.6539Z" fill="black"/>
<path d="M60.7117 4.72973H65.3366V6.32823H65.3859C66.2823 5.06829 67.5651 4.41486 69.4795 4.41486C71.7313 4.41486 73.7914 5.79486 73.7914 8.67538V17.2937H68.996V10.7088C68.996 9.25751 68.8252 8.23999 67.4218 8.23999C66.598 8.23999 65.5067 8.65146 65.5067 10.66V17.2937H60.712V4.72973" fill="black"/>
<path d="M83.3357 9.49925C83.2892 8.98957 83.1201 8.57995 82.8034 8.31361C82.5138 8.0468 82.1003 7.90122 81.593 7.90122C79.7511 7.90122 79.4862 9.49926 79.4862 11.0242C79.4862 12.5493 79.7511 14.122 81.593 14.122C82.6335 14.122 83.3612 13.2749 83.4577 12.2823H88.0365C87.576 15.6959 84.8878 17.6081 81.4947 17.6081C77.7173 17.6081 74.6901 14.9926 74.6901 11.0242C74.6901 7.05366 77.7173 4.41418 81.4947 4.41418C84.7905 4.41418 87.5992 6.03706 87.8911 9.49925H83.3357Z" fill="black"/>
<path d="M95.64 17.6081C90.9171 17.6081 88.7859 14.4854 88.7859 11C88.7859 7.51293 90.9171 4.41437 95.64 4.41437C100.363 4.41437 102.496 7.51293 102.496 11C102.496 14.4854 100.363 17.6081 95.64 17.6081ZM95.64 7.90117C93.8239 7.90117 93.5822 9.66734 93.5822 11C93.5822 12.3319 93.8241 14.122 95.64 14.122C97.4579 14.122 97.7003 12.3319 97.7003 11C97.7003 9.66711 97.4579 7.90117 95.64 7.90117Z" fill="black"/>
<path d="M103.56 4.72973H108.162V6.73901H108.211C108.986 5.23895 110.003 4.41486 111.748 4.41486C112.232 4.41486 112.693 4.488 113.152 4.60921V8.84512C112.67 8.67538 112.232 8.53025 111.262 8.53025C109.374 8.53025 108.356 9.64322 108.356 12.331V17.2937H103.56V4.72973" fill="black"/>
<path d="M114.361 4.7297H118.988V6.1097H119.037C119.643 5.3116 120.368 4.41437 122.718 4.41437C126.28 4.41437 128 7.92463 128 11.0719C128 14.0258 126.861 17.6079 122.646 17.6079C121.216 17.6079 119.935 16.9795 119.206 15.9139H119.156V21.3594H114.361V4.7297M121.095 14.1217C122.817 14.1217 123.205 12.5005 123.205 11.0234C123.205 9.52359 122.817 7.90094 121.095 7.90094C119.375 7.90094 118.988 9.52359 118.988 11.0234C118.988 12.5007 119.375 14.1217 121.095 14.1217Z" fill="black"/>
</g>
<defs>
<clipPath id="clip0_0_40">
<rect width="128" height="23" fill="white"/>
</clipPath>
</defs>
</svg>
