<svg width="71" height="34" viewBox="0 0 71 34" fill="none" xmlns="http://www.w3.org/2000/svg">
<path opacity="0.6" d="M24.2055 1.80261V5.81262H25.1226C26.2801 5.81262 26.8051 5.24971 26.8051 3.67479V3.42812H28.1523V9.65187H26.8051V9.38622C26.8051 7.82396 26.2801 7.22941 25.1226 7.22941H24.2055V11.7138H28.0511C29.8031 11.7138 30.4356 10.5563 30.6443 8.3426H32.0421V13.1432H19.4112V11.7138H20.4801C21.1442 11.7138 21.4984 11.5304 21.4984 10.3729V2.8905C21.4984 2.05561 21.1189 1.80261 20.2271 1.80261H19.835C18.9179 1.80261 18.4814 2.01766 18.1589 2.97273L14.6738 13.1432H12.0237L10.006 6.51469H9.96812L7.72907 13.1432H5.04729L1.42943 2.4857C1.27124 1.96073 0.999329 1.80261 0.265644 1.80261H0V0.379497H5.5786V1.80261H4.76901C4.34523 1.80261 4.17446 2.05561 4.17446 2.30861C4.17446 2.49835 4.24408 2.7387 4.34523 3.00435L6.76137 10.1262H6.79925L9.10154 3.42812L8.77897 2.51733C8.5829 1.94808 8.19708 1.80261 7.63416 1.80261H7.17876V0.379497H12.9408V1.80261H11.9225C11.5303 1.80261 11.3785 1.97338 11.3785 2.22638C11.3785 2.42245 11.4734 2.69443 11.5367 2.87785L13.6492 9.99974H13.6871L16.1412 3.0423C16.2172 2.8146 16.2866 2.62485 16.2866 2.3845C16.2866 2.08091 16.1412 1.80261 15.4644 1.80261H14.5346V0.379497H32.0421V4.74371H30.6063C30.3153 2.89682 30.1509 1.80261 27.5893 1.80261H24.2055ZM45.1854 13.1432V8.3426H43.7116C43.5156 10.5374 43.1171 11.7138 41.1184 11.7138H38.2153V2.6881C38.2153 1.97971 38.5062 1.80261 39.3538 1.80261H40.4353V0.379497H33.383V1.80261H34.4962C35.2679 1.80261 35.5272 2.05561 35.5272 2.6375V10.8599C35.5272 11.5304 35.1603 11.7138 34.6164 11.7138H33.383V13.1432H45.1854ZM58.2843 13.1432V8.3426H56.8043C56.6082 10.5374 56.1971 11.7138 54.2237 11.7138H51.3142V2.6881C51.3142 1.97971 51.6052 1.80261 52.4527 1.80261H53.528V0.379497H46.4693V1.80261H47.5888C48.3668 1.80261 48.6261 2.05561 48.6261 2.6375V10.8599C48.6261 11.5304 48.253 11.7138 47.7153 11.7138H46.4693V13.1432H58.2843ZM67.9994 1.34089C67.8793 1.22071 66.7028 0 64.4069 0C61.9971 0 59.562 1.22072 59.562 3.83924C59.562 6.2111 61.4531 7.29266 63.6289 7.76071C64.3499 7.91251 64.78 7.99473 65.4378 8.13388C67.0697 8.48175 68.1576 8.9751 68.1576 10.1073C68.1576 10.9675 67.2468 11.8909 65.4442 11.8909C62.9268 11.8909 61.4341 10.4868 61.1242 8.3426H59.6442V13.1432H60.9535L61.3772 11.9984C61.6871 12.2704 62.9142 13.5227 65.2481 13.5227C68.2208 13.5227 70.4662 12.2008 70.4662 9.58862C70.4662 7.05864 68.3726 5.97075 65.8173 5.45843C65.3619 5.34458 64.9445 5.275 64.4765 5.16748C62.8889 4.82593 61.8706 4.43379 61.8706 3.2953C61.8706 2.30861 62.9142 1.63184 64.4828 1.63184C66.842 1.63184 67.7528 3.13085 68.2398 4.74371H69.6756V0.379497H68.6383L67.9994 1.34089ZM9.41779 33.0415V31.6058H8.4564C7.56458 31.6058 7.23569 31.3401 7.23569 30.6191V27.1403H8.02631C9.22172 27.1403 9.74036 27.659 9.74036 29.0125V29.4363H11.0813V23.5604H9.74036V23.8134C9.74036 24.8064 9.37983 25.7172 8.14015 25.7172H7.23569V21.6946H9.74669C12.5739 21.6946 12.8712 23.1177 13.061 24.6293H14.4398V20.2715H2.35915V21.6946H3.63679C4.21236 21.6946 4.53494 21.9539 4.53494 22.4156V30.6633C4.53494 31.201 4.24398 31.6058 3.56088 31.6058H2.35915V33.0415H9.41779ZM62.8699 19.8856C58.6828 19.8856 55.9125 22.8141 55.9125 26.6533C55.9125 30.4862 58.6828 33.44 62.8699 33.44C67.0444 33.44 69.821 30.4862 69.821 26.6533C69.821 22.8141 67.0444 19.8856 62.8699 19.8856ZM62.8699 21.391C65.8932 21.391 66.7977 23.902 66.7977 26.6533C66.7977 29.4047 65.8932 31.922 62.8699 31.922C59.8276 31.922 58.9295 29.4047 58.9295 26.6533C58.9295 23.902 59.8276 21.391 62.8699 21.391ZM51.0929 21.3151C50.8146 21.0684 49.6192 19.8856 47.2599 19.8856C43.4839 19.8856 41.1121 22.7635 41.1121 26.6533C41.1121 30.5748 43.5219 33.44 47.2599 33.44C49.6634 33.44 50.9664 32.3395 51.2636 32.0675L51.9784 33.0415H53.2876V28.6141C53.2876 27.8614 53.5659 27.659 54.3123 27.659H54.6664V26.2296H48.7716V27.659H49.6444C50.2769 27.659 50.6628 27.9436 50.6628 28.5635V29.3098C50.6628 30.7709 49.7646 31.7892 47.8102 31.7892C45.3625 31.7892 44.1354 29.5881 44.1354 26.6533C44.1354 23.7628 45.3625 21.5491 47.7343 21.5491C50.2074 21.5491 51.0486 23.8514 51.3332 24.6293H52.9144V20.2715H51.5672L51.0929 21.3151ZM40.4733 30.0435V30.3914C40.4733 32.5925 39.4233 33.44 37.8295 33.44C35.9636 33.44 35.3374 32.5419 35.3374 30.8025V30.1384C35.3374 27.9436 34.4013 27.0581 32.2635 27.0581H31.2515V30.9163C31.2515 31.4287 31.4855 31.6058 32.0421 31.6058H33.4463V33.0415H20.6952V31.6058H22.112C22.5041 31.6058 22.6496 31.5109 22.6496 31.2832C22.6496 31.163 22.6117 30.9669 22.5358 30.7582C22.4661 30.5874 21.8653 28.943 21.8653 28.943H17.3114C17.3114 28.943 16.7484 30.4609 16.6536 30.7139C16.5902 30.9037 16.5397 31.0618 16.5397 31.2452C16.5397 31.5172 16.7674 31.6058 17.1469 31.6058H18.5005V33.0415H12.4918V31.6058C13.5101 31.6058 14.1552 31.4603 14.5157 30.5685L18.589 20.2715H21.0368L25.2112 30.5685C25.5591 31.4729 26.2169 31.6058 27.2352 31.6058H27.7539C28.3041 31.6058 28.5508 31.4287 28.5508 30.9163V22.3903C28.5508 21.878 28.3547 21.6946 27.7539 21.6946H26.413V20.2715H34.7998C37.5828 20.2715 38.8921 21.587 38.8921 23.5794C38.8921 26.0525 36.4317 26.5395 35.2805 26.6027V26.6344C36.6278 26.7356 37.7662 27.2921 37.7662 29.2592V30.0056C37.7662 31.3148 38.0445 31.6058 38.5063 31.6058C38.9617 31.6058 39.202 31.2452 39.202 30.3914V30.0435H40.4733ZM21.3403 27.5262L19.6199 22.8773H19.5631L17.8427 27.5262H21.3403ZM36.2103 23.6616C36.2103 22.5421 35.407 21.6946 33.6234 21.6946H31.2515V25.635H33.6234C35.2679 25.635 36.2103 24.895 36.2103 23.6616Z" fill="black"/>
</svg>
