<svg width="60" height="40" viewBox="0 0 60 40" fill="none" xmlns="http://www.w3.org/2000/svg">
<g clip-path="url(#clip0_97_145)">
<path d="M58 0H2C0.89543 0 0 0.89543 0 2V38C0 39.1046 0.89543 40 2 40H58C59.1046 40 60 39.1046 60 38V2C60 0.89543 59.1046 0 58 0Z" fill="white"/>
<path d="M27.7766 11.4524C30.5515 11.4524 32.4837 13.3651 32.4837 16.1499C32.4837 18.9447 30.5117 20.8673 27.7071 20.8673H24.6348V25.7532H22.415V11.4524H27.7766ZM24.6347 19.0041H27.1817C29.1144 19.0041 30.2143 17.9636 30.2143 16.1599C30.2143 14.3563 29.1144 13.3255 27.1917 13.3255H24.6347V19.0041Z" fill="black"/>
<path d="M33.0637 22.7899C33.0637 20.9662 34.4611 19.8464 36.9389 19.7076L39.7929 19.5392V18.7365C39.7929 17.577 39.0099 16.8832 37.702 16.8832C36.4629 16.8832 35.6899 17.4777 35.5018 18.4095H33.4801C33.599 16.5263 35.2043 15.1389 37.7812 15.1389C40.3083 15.1389 41.9236 16.4768 41.9236 18.5679V25.753H39.8721V24.0385H39.8227C39.2183 25.1981 37.9001 25.9314 36.5325 25.9314C34.4909 25.9314 33.0637 24.6628 33.0637 22.7899ZM39.7929 21.8484V21.0258L37.226 21.1843C35.9476 21.2736 35.2242 21.8385 35.2242 22.7304C35.2242 23.642 35.9774 24.2367 37.127 24.2367C38.6234 24.2367 39.7929 23.206 39.7929 21.8484Z" fill="black"/>
<path d="M43.8603 29.5886V27.8542C44.0186 27.8938 44.3753 27.8938 44.5538 27.8938C45.5448 27.8938 46.08 27.4776 46.4069 26.4073C46.4069 26.3874 46.5954 25.773 46.5954 25.7631L42.8296 15.3274H45.1483L47.7848 23.8108H47.8242L50.4605 15.3274H52.72L48.8151 26.2982C47.9236 28.8255 46.8928 29.6381 44.7324 29.6381C44.5538 29.6381 44.0186 29.6182 43.8603 29.5886Z" fill="black"/>
<path d="M15.8679 12.8478C16.4029 12.1787 16.766 11.2802 16.6702 10.3621C15.8871 10.401 14.9314 10.8787 14.3781 11.5484C13.8813 12.1219 13.4416 13.058 13.5562 13.9376C14.4354 14.0139 15.3137 13.4982 15.8679 12.8478Z" fill="black"/>
<path d="M16.6602 14.1093C15.3836 14.0333 14.2981 14.8339 13.6884 14.8339C13.0784 14.8339 12.1447 14.1476 11.1349 14.1661C9.82061 14.1854 8.60111 14.9286 7.93411 16.1105C6.56231 18.4749 7.57211 21.9821 8.90611 23.9078C9.55396 24.8605 10.3347 25.9095 11.3635 25.8718C12.3355 25.8336 12.7164 25.2424 13.8979 25.2424C15.0786 25.2424 15.4218 25.8718 16.4507 25.8527C17.5177 25.8336 18.1848 24.8995 18.8326 23.9459C19.5758 22.8599 19.88 21.8113 19.8991 21.7537C19.88 21.7346 17.8416 20.9527 17.8227 18.6079C17.8035 16.6446 19.4231 15.7108 19.4993 15.6529C18.5847 14.3002 17.1557 14.1476 16.6602 14.1093Z" fill="black"/>
</g>
<defs>
<clipPath id="clip0_97_145">
<rect width="60" height="40" fill="white"/>
</clipPath>
</defs>
</svg>
