<svg width="60" height="40" viewBox="0 0 60 40" fill="none" xmlns="http://www.w3.org/2000/svg">
<g clip-path="url(#clip0_97_153)">
<path d="M58 0H2C0.89543 0 0 0.89543 0 2V38C0 39.1046 0.89543 40 2 40H58C59.1046 40 60 39.1046 60 38V2C60 0.89543 59.1046 0 58 0Z" fill="white"/>
<path d="M28.7718 13.4984V17.9897H31.5416C32.2016 17.9897 32.7472 17.7675 33.1784 17.3242C33.6217 16.882 33.8439 16.354 33.8439 15.7435C33.8439 15.1451 33.6217 14.6237 33.1784 14.1793C32.7472 13.725 32.2016 13.4973 31.5416 13.4973H28.7718V13.4984ZM28.7718 19.5704V24.78H27.1174V11.9177H31.5064C32.6207 11.9177 33.5667 12.2884 34.3466 13.0309C35.1386 13.7734 35.5346 14.6776 35.5346 15.7435C35.5346 16.8336 35.1386 17.7444 34.3466 18.4737C33.5799 19.2052 32.6317 19.5693 31.5053 19.5693H28.7718V19.5704ZM37.2066 22.0861C37.2066 22.5173 37.3892 22.8759 37.7555 23.1641C38.1207 23.4501 38.5497 23.5942 39.0403 23.5942C39.7366 23.5942 40.3559 23.3368 40.9015 22.8231C41.4482 22.3072 41.7199 21.7022 41.7199 21.0081C41.204 20.6011 40.4846 20.3976 39.5617 20.3976C38.8907 20.3976 38.3297 20.5604 37.8809 20.8838C37.431 21.2072 37.2066 21.6065 37.2066 22.0861ZM39.3472 15.6896C40.5704 15.6896 41.5351 16.0163 42.2435 16.6686C42.9497 17.322 43.3039 18.2174 43.3039 19.3548V24.78H41.721V23.559H41.6495C40.9653 24.5644 40.0545 25.0682 38.9149 25.0682C37.9447 25.0682 37.1318 24.78 36.4784 24.2058C35.825 23.6305 35.4983 22.9122 35.4983 22.0498C35.4983 21.139 35.8426 20.4152 36.5323 19.8762C37.222 19.3372 38.1416 19.0677 39.2933 19.0677C40.2745 19.0677 41.0852 19.247 41.7199 19.6067V19.2283C41.7199 18.6541 41.4922 18.1657 41.0368 17.7653C40.598 17.3705 40.0265 17.1556 39.4363 17.1636C38.5123 17.1636 37.7819 17.5519 37.2418 18.3318L35.7854 17.4144C36.5884 16.2649 37.7764 15.6896 39.3472 15.6896ZM52.3855 15.9778L46.8635 28.6608H45.1552L47.2056 24.2234L43.5734 15.9778H45.3719L47.9976 22.3017H48.0328L50.587 15.9767L52.3855 15.9778Z" fill="#3C4043"/>
<path d="M22.0861 18.4474C22.0861 17.9271 22.0421 17.4244 21.9585 16.9448H14.9801V19.7916H18.9775C18.812 20.7108 18.2779 21.5223 17.4991 22.0378V23.8858H19.885C21.282 22.5988 22.0861 20.6958 22.0861 18.4474Z" fill="#4285F4"/>
<path d="M14.9801 25.6699C16.9777 25.6699 18.6585 25.0154 19.885 23.8868L17.4991 22.0377C16.8358 22.4843 15.9811 22.745 14.9801 22.745C13.0507 22.745 11.4117 21.4448 10.8265 19.6936H8.36914V21.5977C9.62634 24.0954 12.1839 25.6712 14.9801 25.671" fill="#34A853"/>
<path d="M10.8265 19.6938C10.5178 18.776 10.5178 17.7823 10.8265 16.8645V14.9604H8.36907C7.84957 15.9891 7.57937 17.1256 7.58032 18.278C7.58032 19.4715 7.86637 20.5991 8.36907 21.5968L10.8265 19.6926V19.6938Z" fill="#FABB05"/>
<path d="M14.98 13.8131C16.0712 13.8131 17.048 14.1871 17.818 14.9219V14.923L19.93 12.8132C18.6496 11.6208 16.9776 10.8882 14.9811 10.8882C12.1852 10.8878 9.62767 12.4632 8.37012 14.9604L10.8275 16.8645C11.4127 15.1133 13.0517 13.8131 14.9811 13.8131" fill="#E94235"/>
</g>
<defs>
<clipPath id="clip0_97_153">
<rect width="60" height="40" fill="white"/>
</clipPath>
</defs>
</svg>
