<svg width="60" height="40" viewBox="0 0 60 40" fill="none" xmlns="http://www.w3.org/2000/svg">
<g clip-path="url(#clip0_97_168)">
<path d="M58 0H2C0.89543 0 0 0.89543 0 2V38C0 39.1046 0.89543 40 2 40H58C59.1046 40 60 39.1046 60 38V2C60 0.89543 59.1046 0 58 0Z" fill="white"/>
<path fill-rule="evenodd" clip-rule="evenodd" d="M48.7644 24.078V23.6191H48.6445L48.5069 23.9348L48.3689 23.6191H48.249V24.078H48.3338V23.7318L48.4629 24.0304H48.5506L48.68 23.7311V24.078H48.7644ZM48.0056 24.078V23.6973H48.159V23.6198H47.7681V23.6973H47.9215V24.078H48.0056Z" fill="#F79E1B"/>
<path fill-rule="evenodd" clip-rule="evenodd" d="M24.826 26.0474H35.174V7.45215H24.826V26.0474Z" fill="#FF5F00"/>
<path fill-rule="evenodd" clip-rule="evenodd" d="M49.1338 16.7502C49.1338 23.2816 43.8396 28.5761 37.3086 28.5761C34.5498 28.5761 32.0115 27.6313 30 26.0479C32.7506 23.8824 34.5169 20.5225 34.5169 16.7502C34.5169 12.9777 32.7506 9.61776 30 7.45226C32.0115 5.86886 34.5498 4.92407 37.3086 4.92407C43.8396 4.92407 49.1338 10.2186 49.1338 16.7502Z" fill="#F79E1B"/>
<path fill-rule="evenodd" clip-rule="evenodd" d="M25.483 16.7502C25.483 12.9777 27.2494 9.61776 30 7.45226C27.9885 5.86886 25.4502 4.92407 22.6914 4.92407C16.1604 4.92407 10.8662 10.2186 10.8662 16.7502C10.8662 23.2816 16.1604 28.5761 22.6914 28.5761C25.4502 28.5761 27.9885 27.6313 30 26.0479C27.2494 23.8824 25.483 20.5225 25.483 16.7502Z" fill="#EB001B"/>
<path fill-rule="evenodd" clip-rule="evenodd" d="M17.4601 34.8975V32.9625C17.4601 32.2207 17.0117 31.7369 16.2428 31.7369C15.8583 31.7369 15.4418 31.8659 15.1535 32.2852C14.9292 31.9304 14.6088 31.7369 14.1282 31.7369C13.8078 31.7369 13.4874 31.8337 13.2311 32.1884V31.8014H12.5583V34.8975H13.2311V33.1882C13.2311 32.6399 13.5195 32.3819 13.968 32.3819C14.4166 32.3819 14.6408 32.6722 14.6408 33.1882V34.8975H15.3136V33.1882C15.3136 32.6399 15.634 32.3819 16.0505 32.3819C16.4991 32.3819 16.7233 32.6722 16.7233 33.1882V34.8975H17.4601ZM27.424 31.8016H26.3347V30.8662H25.6619V31.8016H25.0532V32.4145H25.6619V33.8339C25.6619 34.5435 25.9503 34.9629 26.7192 34.9629C27.0075 34.9629 27.3279 34.8661 27.5522 34.7371L27.3599 34.1564C27.1677 34.2855 26.9435 34.3177 26.7833 34.3177C26.4629 34.3177 26.3347 34.1242 26.3347 33.8016V32.4145H27.424V31.8016ZM33.1268 31.7369C32.7423 31.7369 32.4861 31.9304 32.3259 32.1884V31.8014H31.653V34.8975H32.3259V33.156C32.3259 32.6399 32.5501 32.3497 32.9666 32.3497C33.0947 32.3497 33.2549 32.3819 33.3831 32.4142L33.5753 31.7692C33.4471 31.7369 33.255 31.7369 33.1268 31.7369ZM24.5086 32.0594C24.1882 31.8337 23.7397 31.7369 23.2591 31.7369C22.4902 31.7369 21.9776 32.1239 21.9776 32.7367C21.9776 33.2527 22.362 33.543 23.0348 33.6397L23.3552 33.672C23.7076 33.7365 23.8999 33.8332 23.8999 33.9945C23.8999 34.2202 23.6435 34.3815 23.195 34.3815C22.7464 34.3815 22.3941 34.2202 22.1698 34.059L21.8494 34.575C22.2018 34.833 22.6824 34.962 23.163 34.962C24.06 34.962 24.5727 34.5427 24.5727 33.9622C24.5727 33.414 24.1562 33.1237 23.5154 33.027L23.195 32.9947C22.9066 32.9625 22.6824 32.898 22.6824 32.7044C22.6824 32.4787 22.9067 32.3497 23.2591 32.3497C23.6435 32.3497 24.028 32.5109 24.2202 32.6077L24.5086 32.0594ZM42.3858 31.7369C42.0013 31.7369 41.7451 31.9304 41.5849 32.1884V31.8014H40.912V34.8975H41.5849V33.156C41.5849 32.6399 41.8091 32.3497 42.2256 32.3497C42.3538 32.3497 42.514 32.3819 42.6421 32.4142L42.8343 31.7692C42.7062 31.7369 42.514 31.7369 42.3858 31.7369ZM33.7996 33.3495C33.7996 34.2847 34.4404 34.962 35.4336 34.962C35.8821 34.962 36.2024 34.8652 36.5228 34.6072L36.2024 34.059C35.9461 34.2525 35.6898 34.3492 35.4015 34.3492C34.8569 34.3492 34.4724 33.9622 34.4724 33.3495C34.4724 32.769 34.8569 32.3819 35.4015 32.3497C35.6898 32.3497 35.9461 32.4464 36.2024 32.6399L36.5228 32.0917C36.2024 31.8337 35.8821 31.7369 35.4336 31.7369C34.4404 31.7369 33.7996 32.4142 33.7996 33.3495ZM40.0149 31.8014H39.3422V32.1884C39.1179 31.8982 38.7976 31.7369 38.3811 31.7369C37.516 31.7369 36.8432 32.4142 36.8432 33.3495C36.8432 34.2847 37.516 34.962 38.3811 34.962C38.8295 34.962 39.15 34.8007 39.3422 34.5105V34.8975H40.0149V31.8014ZM37.548 33.3495C37.548 32.8012 37.9004 32.3497 38.4771 32.3497C39.0218 32.3497 39.4062 32.769 39.4062 33.3495C39.4062 33.8977 39.0218 34.3492 38.4771 34.3492C37.9004 34.317 37.548 33.8977 37.548 33.3495ZM29.5065 31.7369C28.6094 31.7369 27.9687 32.3819 27.9687 33.3495C27.9687 34.317 28.6094 34.962 29.5385 34.962C29.987 34.962 30.4356 34.833 30.788 34.5427L30.4676 34.059C30.2113 34.2525 29.891 34.3815 29.5706 34.3815C29.1541 34.3815 28.7376 34.188 28.6415 33.6397H30.9161V33.3817C30.9482 32.3819 30.3715 31.7369 29.5065 31.7369ZM29.5065 32.3174C29.923 32.3174 30.2113 32.5754 30.2754 33.0592H28.6735C28.7376 32.6399 29.0259 32.3174 29.5065 32.3174ZM46.1983 30.5759H45.5255V32.1884C45.3013 31.8982 44.9809 31.7369 44.5644 31.7369C43.6994 31.7369 43.0266 32.4142 43.0266 33.3495C43.0266 34.2847 43.6994 34.962 44.5644 34.962C45.0129 34.962 45.3333 34.8007 45.5255 34.5105V34.8975H46.1983V30.5759ZM43.7314 33.3495C43.7314 32.8012 44.0838 32.3497 44.6605 32.3497C45.2052 32.3497 45.5896 32.769 45.5896 33.3495C45.5896 33.8977 45.2052 34.3492 44.6605 34.3492C44.0838 34.317 43.7314 33.8977 43.7314 33.3495ZM21.2407 31.8014H20.5679V32.1884C20.3436 31.8982 20.0232 31.7369 19.6067 31.7369C18.7417 31.7369 18.0689 32.4142 18.0689 33.3495C18.0689 34.2847 18.7417 34.962 19.6067 34.962C20.0553 34.962 20.3756 34.8007 20.5679 34.5105V34.8975H21.2407V31.8014ZM18.7417 33.3495C18.7417 32.8012 19.0941 32.3497 19.6708 32.3497C20.2154 32.3497 20.5999 32.769 20.5999 33.3495C20.5999 33.8977 20.2154 34.3492 19.6708 34.3492C19.0941 34.317 18.7417 33.8977 18.7417 33.3495Z" fill="black"/>
<path fill-rule="evenodd" clip-rule="evenodd" d="M47.1551 34.7578V34.8186H47.2101C47.2228 34.8186 47.2327 34.816 47.2403 34.8111C47.2476 34.8062 47.2514 34.7984 47.2514 34.7878C47.2514 34.778 47.2476 34.7705 47.2403 34.7653C47.2327 34.7604 47.2228 34.7578 47.2101 34.7578H47.1551ZM47.2106 34.7151C47.2395 34.7151 47.2616 34.7216 47.2771 34.7345C47.2928 34.7477 47.3004 34.7653 47.3004 34.7878C47.3004 34.8067 47.2943 34.8225 47.2819 34.8346C47.2694 34.8468 47.252 34.8543 47.2289 34.8571L47.3021 34.9433H47.2449L47.1772 34.8579H47.1551V34.9433H47.1075V34.7151H47.2106ZM47.1964 35.0217C47.2225 35.0217 47.2466 35.0168 47.2692 35.0067C47.2918 34.9966 47.3113 34.9829 47.3283 34.9658C47.3452 34.9485 47.3584 34.928 47.3681 34.9047C47.3777 34.8815 47.3825 34.8566 47.3825 34.83C47.3825 34.8036 47.3777 34.7788 47.3681 34.7555C47.3584 34.7322 47.3452 34.7118 47.3283 34.6944C47.3113 34.6773 47.2918 34.6639 47.2692 34.6538C47.2466 34.644 47.2225 34.6391 47.1964 34.6391C47.1701 34.6391 47.1455 34.644 47.1224 34.6538C47.0993 34.6639 47.0796 34.6773 47.0626 34.6944C47.0456 34.7118 47.0324 34.7322 47.0228 34.7555C47.0132 34.7788 47.0083 34.8036 47.0083 34.83C47.0083 34.8566 47.0132 34.8815 47.0228 34.9047C47.0324 34.928 47.0456 34.9485 47.0626 34.9658C47.0796 34.9829 47.0993 34.9966 47.1224 35.0067C47.1455 35.0168 47.1701 35.0217 47.1964 35.0217ZM47.1964 34.5842C47.2304 34.5842 47.2621 34.5907 47.292 34.6036C47.3217 34.6165 47.3475 34.6339 47.3698 34.6564C47.3919 34.6786 47.4096 34.7048 47.4223 34.7345C47.435 34.7645 47.4416 34.7964 47.4416 34.83C47.4416 34.8639 47.435 34.8957 47.4223 34.9254C47.4096 34.9549 47.3919 34.9811 47.3698 35.0033C47.3475 35.0256 47.3217 35.0432 47.292 35.0564C47.2621 35.0693 47.2304 35.076 47.1964 35.076C47.162 35.076 47.1295 35.0693 47.0993 35.0564C47.0694 35.0432 47.0433 35.0256 47.0213 35.0033C46.9992 34.9811 46.9817 34.9549 46.969 34.9254C46.9561 34.8957 46.9498 34.8639 46.9498 34.83C46.9498 34.7964 46.9561 34.7645 46.969 34.7345C46.9817 34.7048 46.9992 34.6786 47.0213 34.6564C47.0433 34.6339 47.0694 34.6165 47.0993 34.6036C47.1295 34.5907 47.162 34.5842 47.1964 34.5842Z" fill="black"/>
</g>
<defs>
<clipPath id="clip0_97_168">
<rect width="60" height="40" fill="white"/>
</clipPath>
</defs>
</svg>
