<svg width="60" height="40" viewBox="0 0 60 40" fill="none" xmlns="http://www.w3.org/2000/svg">
<g clip-path="url(#clip0_97_160)">
<path d="M58 0H2C0.89543 0 0 0.89543 0 2V38C0 39.1046 0.89543 40 2 40H58C59.1046 40 60 39.1046 60 38V2C60 0.89543 59.1046 0 58 0Z" fill="white"/>
<path fill-rule="evenodd" clip-rule="evenodd" d="M38.1157 17.3351C37.9279 18.5672 36.9863 18.5672 36.0752 18.5672H35.557L35.9207 16.2667C35.9424 16.1277 36.0624 16.0255 36.2032 16.0255H36.4411C37.0612 16.0255 37.6467 16.0255 37.9487 16.3782C38.1294 16.5893 38.1839 16.9027 38.1157 17.3351ZM37.7193 14.1201H34.2841C34.0489 14.1201 33.8492 14.291 33.8124 14.5229L32.4235 23.325C32.396 23.4985 32.5306 23.6557 32.706 23.6557H34.4688C34.6331 23.6557 34.7731 23.5362 34.7988 23.3742L35.193 20.8784C35.2293 20.6465 35.4295 20.4757 35.6642 20.4757H36.7511C39.0139 20.4757 40.3201 19.3816 40.6611 17.2125C40.8148 16.2645 40.6673 15.5192 40.2231 14.9973C39.7346 14.4238 38.8687 14.1201 37.7193 14.1201Z" fill="#009CDE"/>
<path fill-rule="evenodd" clip-rule="evenodd" d="M13.614 17.3351C13.4262 18.5672 12.4846 18.5672 11.5735 18.5672H11.0553L11.419 16.2667C11.4407 16.1277 11.5607 16.0255 11.7015 16.0255H11.9394C12.5595 16.0255 13.145 16.0255 13.447 16.3782C13.6278 16.5893 13.6822 16.9027 13.614 17.3351ZM13.2176 14.1201H9.78244C9.54724 14.1201 9.34749 14.291 9.31074 14.5229L7.92179 23.325C7.89434 23.4985 8.02854 23.6557 8.20434 23.6557H9.84489C10.0796 23.6557 10.2794 23.4848 10.3161 23.2533L10.6913 20.8784C10.7276 20.6465 10.9278 20.4757 11.1625 20.4757H12.2494C14.5122 20.4757 15.8184 19.3816 16.1594 17.2125C16.3131 16.2645 16.1656 15.5192 15.7214 14.9973C15.2329 14.4238 14.367 14.1201 13.2176 14.1201Z" fill="#003087"/>
<path fill-rule="evenodd" clip-rule="evenodd" d="M21.1929 20.495C21.0339 21.4342 20.2881 22.0648 19.3362 22.0648C18.8592 22.0648 18.477 21.9113 18.2316 21.6209C17.9885 21.3333 17.8968 20.923 17.9739 20.4667C18.1218 19.5355 18.8801 18.8849 19.8172 18.8849C20.2845 18.8849 20.6636 19.0398 20.9139 19.3328C21.1659 19.628 21.2651 20.0405 21.1929 20.495ZM23.4854 17.2955H21.8404C21.6996 17.2955 21.5796 17.3978 21.5574 17.5372L21.4852 17.9966L21.3705 17.8302C21.014 17.3137 20.2198 17.1406 19.427 17.1406C17.6098 17.1406 16.0574 18.5171 15.7553 20.4472C15.5981 21.4103 15.8213 22.3304 16.3679 22.9726C16.8697 23.5626 17.5859 23.8082 18.4394 23.8082C19.9045 23.8082 20.7168 22.8681 20.7168 22.8681L20.6433 23.3249C20.6158 23.4984 20.75 23.6555 20.9263 23.6555H22.4074C22.6426 23.6555 22.8423 23.4851 22.8791 23.2532L23.7684 17.6262C23.7959 17.4527 23.6612 17.2955 23.4854 17.2955Z" fill="#003087"/>
<path fill-rule="evenodd" clip-rule="evenodd" d="M45.6944 20.495C45.5354 21.4342 44.7895 22.0648 43.8377 22.0648C43.3607 22.0648 42.9785 21.9113 42.7331 21.6209C42.4895 21.3333 42.3983 20.923 42.4753 20.4667C42.6233 19.5355 43.3815 18.8849 44.3187 18.8849C44.786 18.8849 45.1651 19.0398 45.4153 19.3328C45.6674 19.628 45.7666 20.0405 45.6944 20.495ZM47.9869 17.2955H46.3419C46.2011 17.2955 46.081 17.3978 46.0589 17.5372L45.9867 17.9966L45.8715 17.8302C45.5154 17.3137 44.7213 17.1406 43.9285 17.1406C42.1113 17.1406 40.5589 18.5171 40.2568 20.4472C40.0996 21.4103 40.3228 22.3304 40.8693 22.9726C41.3712 23.5626 42.0873 23.8082 42.9408 23.8082C44.406 23.8082 45.2183 22.8681 45.2183 22.8681L45.1447 23.3249C45.1173 23.4984 45.2515 23.6555 45.4278 23.6555H46.9088C47.144 23.6555 47.3438 23.4851 47.3805 23.2532L48.2699 17.6262C48.2974 17.4527 48.1627 17.2955 47.9869 17.2955Z" fill="#009CDE"/>
<path fill-rule="evenodd" clip-rule="evenodd" d="M32.2463 17.2957H30.593C30.4348 17.2957 30.2869 17.374 30.1983 17.505L27.9173 20.8616L26.9509 17.636C26.8902 17.4342 26.7042 17.2957 26.4934 17.2957H24.8684C24.6722 17.2957 24.534 17.4886 24.5973 17.6741L26.4177 23.0143L24.7054 25.4286C24.5712 25.6181 24.7067 25.8801 24.9392 25.8801H26.5908C26.7472 25.8801 26.8938 25.8035 26.9832 25.6752L32.4815 17.7449C32.6131 17.555 32.4775 17.2957 32.2463 17.2957Z" fill="#003087"/>
<path fill-rule="evenodd" clip-rule="evenodd" d="M49.9258 14.362L48.516 23.3253C48.4885 23.4987 48.6227 23.6559 48.7986 23.6559H50.217C50.4515 23.6559 50.6515 23.485 50.688 23.2531L52.0785 14.451C52.106 14.2775 51.9715 14.1204 51.7955 14.1204H50.209C50.0675 14.1204 49.9475 14.2226 49.9258 14.362Z" fill="#009CDE"/>
</g>
<defs>
<clipPath id="clip0_97_160">
<rect width="60" height="40" fill="white"/>
</clipPath>
</defs>
</svg>
