<svg width="60" height="40" viewBox="0 0 60 40" fill="none" xmlns="http://www.w3.org/2000/svg">
<g clip-path="url(#clip0_97_176)">
<path d="M58 0H2C0.89543 0 0 0.89543 0 2V38C0 39.1046 0.89543 40 2 40H58C59.1046 40 60 39.1046 60 38V2C60 0.89543 59.1046 0 58 0Z" fill="white"/>
<path fill-rule="evenodd" clip-rule="evenodd" d="M43.3333 22.4688L45.1619 17.5313L46.1905 22.4688H43.3333ZM50.476 26.4188L47.9043 13.5813H44.3692C43.1763 13.5813 42.8862 14.538 42.8862 14.538L38.0952 26.4188H41.4434L42.1135 24.5122H46.1974L46.574 26.4188H50.476Z" fill="#182E66"/>
<path fill-rule="evenodd" clip-rule="evenodd" d="M38.5933 16.7856L39.0476 14.122C39.0476 14.122 37.6448 13.5813 36.1824 13.5813C34.6016 13.5813 30.8478 14.2819 30.8478 17.6869C30.8478 20.8913 35.2536 20.9311 35.2536 22.6133C35.2536 24.2956 31.3017 23.9951 29.9978 22.9338L29.5238 25.7181C29.5238 25.7181 30.946 26.4188 33.1199 26.4188C35.2935 26.4188 38.5734 25.2772 38.5734 22.1728C38.5734 18.9482 34.1276 18.648 34.1276 17.2461C34.1276 15.8441 37.2301 16.0242 38.5933 16.7856Z" fill="#182E66"/>
<path fill-rule="evenodd" clip-rule="evenodd" d="M27.3259 26.4188H23.8096L26.0072 13.5813H29.5239L27.3259 26.4188Z" fill="#182E66"/>
<path fill-rule="evenodd" clip-rule="evenodd" d="M21.1557 13.5813L17.9609 22.4107L17.5832 20.5093L17.5835 20.51L16.4557 14.7375C16.4557 14.7375 16.3197 13.5813 14.8662 13.5813H9.58545L9.5238 13.7983C9.5238 13.7983 11.1391 14.1335 13.0285 15.2663L15.9397 26.4188H19.4309L24.7619 13.5813H21.1557Z" fill="#182E66"/>
<path fill-rule="evenodd" clip-rule="evenodd" d="M17.1429 20.4938L16.0767 14.7348C16.0767 14.7348 15.9482 13.5813 14.5741 13.5813H9.58205L9.5238 13.7978C9.5238 13.7978 11.9234 14.3216 14.2252 16.2826C16.4253 18.1573 17.1429 20.4938 17.1429 20.4938Z" fill="#182E66"/>
</g>
<defs>
<clipPath id="clip0_97_176">
<rect width="60" height="40" fill="white"/>
</clipPath>
</defs>
</svg>
