<svg width="32" height="32" viewBox="0 0 32 32" fill="none" xmlns="http://www.w3.org/2000/svg">
<g clip-path="url(#clip0_855_275)">
<path d="M32 15.52C32 24.4379 25.0132 31.04 16 31.04C14.3813 31.04 12.8281 30.8266 11.3683 30.4253C11.0846 30.3468 10.7831 30.3691 10.5139 30.4875L7.33796 31.8896C6.50743 32.2565 5.56975 31.6656 5.5419 30.7579L5.45458 27.9114C5.44369 27.5609 5.28604 27.2327 5.02457 26.9996C1.91128 24.2153 0 20.1849 0 15.52C0 6.60247 6.98676 0 16 0C25.0132 0 32 6.60247 32 15.52Z" fill="#0866FF"/>
<path d="M20.3443 19.9875L25.9149 11.3784C26.4751 10.5131 25.4376 9.50588 24.5892 10.0911L18.7741 14.102C18.5781 14.2374 18.3198 14.2411 18.1202 14.1117L12.9591 10.7725C12.5222 10.49 11.9389 10.6149 11.6565 11.0518L6.08547 19.6614C5.5253 20.5267 6.56279 21.5339 7.4111 20.9486L13.2274 16.9373C13.4234 16.8019 13.6817 16.7982 13.8817 16.9276L19.0421 20.2668C19.479 20.5493 20.0622 20.4244 20.3447 19.9875H20.3443Z" fill="white"/>
</g>
<defs>
<clipPath id="clip0_855_275">
<rect width="32" height="32" fill="white"/>
</clipPath>
</defs>
</svg>
