<svg width="32" height="32" viewBox="0 0 32 32" fill="none" xmlns="http://www.w3.org/2000/svg">
<g clip-path="url(#clip0_855_279)">
<path d="M0 32.0821L2.26055 23.8443C0.864009 21.4277 0.130453 18.6864 0.133827 15.8966C0.137508 7.13112 7.28447 0 16.067 0C20.3289 0.00216134 24.3292 1.65753 27.3377 4.66244C30.3462 7.66735 32.0015 11.6615 32 15.9094C31.9961 24.6743 24.8481 31.8067 16.0668 31.8067H16.0599C13.3935 31.8056 10.7735 31.138 8.44625 29.8714L0 32.0821Z" fill="url(#paint0_linear_855_279)"/>
<path d="M16.0717 2.6851C8.76691 2.6851 2.82634 8.61213 2.82374 15.8974C2.82015 18.3851 3.52203 20.823 4.84825 22.9293L5.16333 23.4292L3.82528 28.3047L8.83751 26.993L9.32149 27.2792C11.3542 28.4833 13.6849 29.12 16.0618 29.1213H16.0668C23.366 29.1213 29.3065 23.1936 29.3093 15.9079C29.3148 14.1714 28.9752 12.4511 28.31 10.8465C27.6448 9.2419 26.6674 7.78493 25.4342 6.55994C24.2079 5.32826 22.7489 4.35158 21.1419 3.68646C19.5348 3.02134 17.8115 2.68099 16.0717 2.6851Z" fill="url(#paint1_linear_855_279)"/>
<path fill-rule="evenodd" clip-rule="evenodd" d="M12.0847 9.25091C11.7863 8.58933 11.4723 8.57592 11.1888 8.56447L10.4257 8.55518C10.1602 8.55518 9.72886 8.6546 9.36419 9.05228C8.99952 9.44997 7.9707 10.4111 7.9707 12.366C7.9707 14.321 9.39732 16.21 9.59612 16.4754C9.79491 16.7408 12.3502 20.8804 16.3968 22.4731C19.7596 23.7967 20.4439 23.5335 21.1741 23.4673C21.9043 23.4012 23.5295 22.5062 23.861 21.5783C24.1926 20.6505 24.1928 19.8555 24.0934 19.6893C23.994 19.5231 23.7285 19.4243 23.33 19.2255C22.9316 19.0266 20.9746 18.0655 20.6098 17.9328C20.2449 17.8001 19.9796 17.7342 19.7139 18.1319C19.4482 18.5295 18.6862 19.4241 18.4538 19.6893C18.2215 19.9545 17.9895 19.9878 17.5911 19.7892C17.1926 19.5905 15.9107 19.1708 14.3896 17.8172C13.2062 16.7639 12.4073 15.4632 12.1748 15.0658C11.9422 14.6683 12.1501 14.453 12.3497 14.2551C12.5284 14.077 12.7478 13.791 12.9472 13.5591C13.1466 13.3272 13.2123 13.1614 13.3448 12.8967C13.4773 12.6319 13.4113 12.3993 13.3117 12.2007C13.212 12.0021 12.4385 10.0368 12.0847 9.25091Z" fill="white"/>
</g>
<defs>
<linearGradient id="paint0_linear_855_279" x1="15.6742" y1="1.92527" x2="15.8373" y2="29.3414" gradientUnits="userSpaceOnUse">
<stop stop-color="#57D163"/>
<stop offset="1" stop-color="#23B33A"/>
</linearGradient>
<linearGradient id="paint1_linear_855_279" x1="15.7969" y1="4.27152" x2="15.9307" y2="26.8629" gradientUnits="userSpaceOnUse">
<stop stop-color="#57D163"/>
<stop offset="1" stop-color="#23B33A"/>
</linearGradient>
<clipPath id="clip0_855_279">
<rect width="32" height="32" fill="white"/>
</clipPath>
</defs>
</svg>
