<svg width="142" height="140" viewBox="0 0 142 140" fill="none" xmlns="http://www.w3.org/2000/svg">
<circle cx="71.2024" cy="70" r="70" fill="#F8F8F8"/>
<path fill-rule="evenodd" clip-rule="evenodd" d="M48.9801 35H86.2081C90.7771 35 94.4809 38.7039 94.4808 43.2729L94.4799 92.9093C94.4798 97.4781 90.776 101.182 86.2071 101.182L48.9797 101.182C44.4108 101.182 40.707 97.4778 40.707 92.9089L40.7074 43.2727C40.7074 38.7038 44.4112 35 48.9801 35ZM55.1852 49.1591C53.8673 49.1591 52.7989 50.2275 52.7989 51.5455C52.7989 52.8634 53.8673 53.9319 55.1852 53.9319H80.0034C81.3214 53.9319 82.3898 52.8634 82.3898 51.5455C82.3898 50.2275 81.3214 49.1591 80.0034 49.1591H55.1852ZM55.1852 61.5682C53.8673 61.5682 52.7989 62.6366 52.7989 63.9546C52.7989 65.2725 53.8673 66.3409 55.1852 66.3409H80.0034C81.3214 66.3409 82.3898 65.2725 82.3898 63.9546C82.3898 62.6366 81.3214 61.5682 80.0034 61.5682H55.1852ZM55.1852 73.9773C53.8673 73.9773 52.7989 75.0457 52.7989 76.3637C52.7989 77.6816 53.8673 78.75 55.1852 78.75H67.5943C68.9123 78.75 69.9807 77.6816 69.9807 76.3637C69.9807 75.0457 68.9123 73.9773 67.5943 73.9773H55.1852Z" fill="#22674B"/>
<circle cx="87.6389" cy="91.4773" r="13.5227" fill="#F79E1B"/>
<path d="M82.0708 92.114L85.5708 95.614L93.2072 87.9773" stroke="#F8F8F8" stroke-width="4.5" stroke-linecap="round" stroke-linejoin="round"/>
</svg>
