<svg width="142" height="140" viewBox="0 0 142 140" fill="none" xmlns="http://www.w3.org/2000/svg">
<circle cx="70.7976" cy="70" r="70" fill="#F8F8F8"/>
<path d="M38.5 71.1893C38.5 66.734 42.3445 63.1223 46.6937 63.1223H93.9437C94.4114 63.1223 94.8696 63.164 95.315 63.2441C99.0105 63.9089 104 67.2132 104 71.1893V80.3608C104 84.8161 98.2929 88.4279 93.9437 88.4279H46.6937C42.3445 88.4279 38.5 84.8161 38.5 80.3608V71.1893Z" fill="#22674B"/>
<path d="M46.6937 63.1223H93.9437C94.4114 63.1223 94.8696 63.164 95.315 63.2441M46.6937 63.1223C42.3445 63.1223 38.5 66.734 38.5 71.1893V80.3608C38.5 84.8161 42.3445 88.4279 46.6937 88.4279H93.9437C98.2929 88.4279 104 84.8161 104 80.3608V71.1893C104 67.2132 99.0105 63.9089 95.315 63.2441M46.6937 63.1223L51.7838 46.9469C52.3967 44.5927 54.4781 42.9546 56.8566 42.9546H85.7891C88.0489 42.9546 90.0551 44.4359 90.7697 46.6319L95.315 63.2441" stroke="#22674B" stroke-width="4" stroke-linecap="round" stroke-linejoin="round"/>
<path d="M36.5 80.361H49.8437V96.0797C49.8437 97.1843 48.9483 98.0797 47.8437 98.0797H38.5C37.3954 98.0797 36.5 97.1843 36.5 96.0797V80.361Z" fill="#22674B"/>
<path d="M92.8538 80.361H106V96.0797C106 97.1843 105.105 98.0797 104 98.0797L94.8538 98.0797C93.7492 98.0797 92.8538 97.1843 92.8538 96.0797V80.361Z" fill="#22674B"/>
<path d="M48.8838 75.2229H58.0713M84.3213 75.2229H93.5088" stroke="#F79E1B" stroke-width="4" stroke-linecap="round" stroke-linejoin="round"/>
</svg>
