<svg width="140" height="140" viewBox="0 0 140 140" fill="none" xmlns="http://www.w3.org/2000/svg">
<circle cx="70" cy="70" r="70" fill="#F8F8F8"/>
<path fill-rule="evenodd" clip-rule="evenodd" d="M34.8181 44.5454C33.1613 44.5454 31.8181 45.8886 31.8181 47.5454V92.4545C31.8181 94.1114 33.1613 95.4545 34.8181 95.4545H105.182C106.839 95.4545 108.182 94.1114 108.182 92.4545V65.2272H31.8182V55.6818H108.182V47.5454C108.182 45.8886 106.839 44.5454 105.182 44.5454H34.8181Z" fill="#22674B"/>
<path d="M39.7727 77.3636C39.7727 76.8114 40.2204 76.3636 40.7727 76.3636H53.0909C53.6432 76.3636 54.0909 76.8114 54.0909 77.3636V86.5C54.0909 87.0523 53.6432 87.5 53.0909 87.5H40.7727C40.2204 87.5 39.7727 87.0523 39.7727 86.5V77.3636Z" fill="#F79E1B"/>
</svg>
