<svg width="142" height="140" viewBox="0 0 142 140" fill="none" xmlns="http://www.w3.org/2000/svg">
<circle cx="70.7925" cy="70" r="70" fill="#F8F8F8"/>
<path fill-rule="evenodd" clip-rule="evenodd" d="M35.9546 42.9545C34.2977 42.9545 32.9546 44.2976 32.9546 45.9545V87.4833C32.9546 89.1402 34.2977 90.4833 35.9546 90.4833H48.2022C48.7545 90.4833 49.2022 90.931 49.2022 91.4833V101.338C49.2022 102.132 50.0827 102.609 50.748 102.176L67.9528 90.9695C68.4399 90.6522 69.0088 90.4833 69.5901 90.4833H106.318C107.975 90.4833 109.318 89.1402 109.318 87.4833V45.9545C109.318 44.2976 107.975 42.9545 106.318 42.9545H35.9546ZM44.1228 73.8249V59.6452H47.1208V65.4957H53.2067V59.6452H56.1977V73.8249H53.2067V67.9675H47.1208V73.8249H44.1228ZM58.6694 59.6452V73.8249H68.2518V71.3532H61.6673V67.9675H67.7325V65.4957H61.6673V62.117H68.2241V59.6452H58.6694ZM70.6074 73.8249V59.6452H73.6054V71.3532H79.6844V73.8249H70.6074ZM81.6692 73.8249V59.6452H87.2635C88.339 59.6452 89.2552 59.8506 90.0122 60.2614C90.7692 60.6676 91.3462 61.2331 91.7431 61.9577C92.1447 62.6778 92.3455 63.5086 92.3455 64.4503C92.3455 65.3919 92.1424 66.2227 91.7362 66.9428C91.33 67.6629 90.7415 68.2237 89.9707 68.6252C89.2045 69.0268 88.2767 69.2276 87.1874 69.2276H84.6671V73.8249H81.6692ZM86.7027 66.8251H84.6671V62.0962H86.6889C87.2704 62.0962 87.7505 62.1954 88.129 62.3939C88.5075 62.5878 88.789 62.8624 88.9737 63.2178C89.1629 63.5686 89.2576 63.9795 89.2576 64.4503C89.2576 64.9165 89.1629 65.3296 88.9737 65.6896C88.789 66.045 88.5075 66.3243 88.129 66.5274C87.7551 66.7258 87.2797 66.8251 86.7027 66.8251Z" fill="#22674B"/>
<path d="M97.7623 59.6453L97.4923 69.5738H94.9582L94.6813 59.6453H97.7623ZM96.2253 74.005C95.7683 74.005 95.376 73.8434 95.0482 73.5203C94.7205 73.1926 94.559 72.8003 94.5636 72.3433C94.559 71.891 94.7205 71.5032 95.0482 71.1801C95.376 70.857 95.7683 70.6955 96.2253 70.6955C96.6638 70.6955 97.0492 70.857 97.3815 71.1801C97.7139 71.5032 97.8823 71.891 97.8869 72.3433C97.8823 72.6479 97.8015 72.9272 97.6446 73.1811C97.4923 73.4303 97.2915 73.6311 97.0423 73.7834C96.793 73.9311 96.5207 74.005 96.2253 74.005Z" fill="#F79E1B"/>
</svg>
