<svg width="141" height="140" viewBox="0 0 141 140" fill="none" xmlns="http://www.w3.org/2000/svg">
<circle cx="70.8267" cy="70" r="70" fill="#F8F8F8"/>
<path fill-rule="evenodd" clip-rule="evenodd" d="M40.651 56.5959C39.6472 57.1085 39.0154 58.1406 39.0154 59.2677V97.0473C39.0154 98.7041 40.3585 100.047 42.0154 100.047H101.243C102.9 100.047 104.243 98.7041 104.243 97.0473V59.2677C104.243 58.1406 103.611 57.1085 102.607 56.5959L72.9934 41.4741C72.1364 41.0365 71.1216 41.0365 70.2647 41.4741L40.651 56.5959ZM49.5608 69.4137C49.0085 69.4137 48.5608 69.8614 48.5608 70.4137V82.7319C48.5608 83.2842 49.0085 83.7319 49.5608 83.7319H65.0608C65.6131 83.7319 66.0608 83.2842 66.0608 82.7319V70.4137C66.0608 69.8614 65.6131 69.4137 65.0608 69.4137H49.5608Z" fill="#22674B"/>
<path d="M75.6062 70.4137C75.6062 69.8614 76.0539 69.4137 76.6062 69.4137H93.6971C94.2494 69.4137 94.6971 69.8614 94.6971 70.4137V100.047H75.6062V70.4137Z" fill="#F79E1B"/>
</svg>
