<svg width="528" height="435" viewBox="0 0 528 435" fill="none" xmlns="http://www.w3.org/2000/svg">
<rect x="77" y="0.5" width="308" height="434" rx="24" fill="#F0F0F0"/>
<path d="M294.64 202.14C307.226 189.553 315.798 173.516 319.271 156.058C322.743 138.6 320.961 120.504 314.149 104.058C307.337 87.6131 295.802 73.557 281.001 63.6677C266.201 53.7784 248.8 48.5 231 48.5C213.2 48.5 195.799 53.7784 180.999 63.6677C166.198 73.557 154.663 87.6131 147.851 104.058C141.039 120.504 139.257 138.6 142.729 156.058C146.202 173.516 154.774 189.553 167.36 202.14" stroke="#E1E1E1" stroke-width="10" stroke-linecap="round"/>
<path d="M283.423 65.3438C273.01 57.8816 261.123 52.7286 248.558 50.2293C235.993 47.73 223.039 47.942 210.563 50.8511C198.087 53.7602 186.375 59.2993 176.211 67.0982C166.048 74.8971 157.666 84.7759 151.627 96.0743C145.588 107.373 142.031 119.83 141.193 132.614C140.355 145.397 142.256 158.213 146.768 170.202C151.281 182.192 158.302 193.081 167.36 202.14" stroke="#53E77A" stroke-width="10" stroke-linecap="round"/>
<path d="M200.9 153.977C199.344 153.955 197.81 153.67 196.298 153.125C194.798 152.58 193.435 151.67 192.207 150.398C190.98 149.125 189.997 147.415 189.258 145.267C188.531 143.119 188.167 140.437 188.167 137.222C188.167 134.176 188.469 131.472 189.071 129.108C189.685 126.744 190.565 124.75 191.713 123.125C192.861 121.489 194.247 120.244 195.872 119.392C197.497 118.54 199.321 118.114 201.344 118.114C203.423 118.114 205.27 118.523 206.883 119.341C208.497 120.159 209.804 121.29 210.804 122.733C211.815 124.176 212.457 125.818 212.73 127.659H207.531C207.179 126.205 206.48 125.017 205.435 124.097C204.389 123.176 203.025 122.716 201.344 122.716C198.787 122.716 196.793 123.83 195.361 126.057C193.94 128.284 193.224 131.381 193.213 135.347H193.469C194.071 134.358 194.81 133.517 195.685 132.824C196.571 132.119 197.56 131.58 198.65 131.205C199.753 130.818 200.912 130.625 202.128 130.625C204.15 130.625 205.98 131.119 207.616 132.108C209.264 133.085 210.577 134.437 211.554 136.165C212.531 137.892 213.02 139.869 213.02 142.097C213.02 144.324 212.514 146.341 211.503 148.148C210.503 149.955 209.094 151.386 207.275 152.443C205.457 153.489 203.332 154 200.9 153.977ZM200.883 149.545C202.224 149.545 203.423 149.216 204.48 148.557C205.537 147.898 206.372 147.011 206.986 145.898C207.599 144.784 207.906 143.54 207.906 142.165C207.906 140.824 207.605 139.602 207.003 138.5C206.412 137.398 205.594 136.523 204.548 135.875C203.514 135.227 202.332 134.903 201.003 134.903C199.991 134.903 199.054 135.097 198.19 135.483C197.338 135.869 196.588 136.403 195.94 137.085C195.292 137.767 194.781 138.551 194.406 139.438C194.042 140.312 193.861 141.239 193.861 142.216C193.861 143.523 194.162 144.733 194.764 145.847C195.378 146.96 196.213 147.858 197.27 148.54C198.338 149.21 199.543 149.545 200.883 149.545ZM230.544 153.977C228.101 153.977 225.942 153.557 224.067 152.716C222.203 151.875 220.743 150.716 219.686 149.239C218.629 147.761 218.107 146.08 218.118 144.193C218.107 142.716 218.408 141.358 219.021 140.119C219.646 138.869 220.493 137.83 221.561 137C222.629 136.159 223.822 135.625 225.141 135.398V135.193C223.402 134.773 222.01 133.841 220.964 132.398C219.919 130.955 219.402 129.295 219.413 127.42C219.402 125.636 219.874 124.045 220.828 122.648C221.794 121.239 223.118 120.131 224.8 119.324C226.482 118.517 228.396 118.114 230.544 118.114C232.669 118.114 234.567 118.523 236.237 119.341C237.919 120.148 239.243 121.256 240.209 122.665C241.175 124.062 241.663 125.648 241.675 127.42C241.663 129.295 241.129 130.955 240.072 132.398C239.016 133.841 237.641 134.773 235.947 135.193V135.398C237.254 135.625 238.43 136.159 239.476 137C240.533 137.83 241.374 138.869 241.999 140.119C242.635 141.358 242.959 142.716 242.97 144.193C242.959 146.08 242.425 147.761 241.368 149.239C240.311 150.716 238.845 151.875 236.97 152.716C235.107 153.557 232.964 153.977 230.544 153.977ZM230.544 149.665C231.987 149.665 233.237 149.426 234.294 148.949C235.351 148.46 236.169 147.784 236.749 146.92C237.328 146.045 237.624 145.023 237.635 143.852C237.624 142.636 237.305 141.562 236.68 140.631C236.067 139.699 235.232 138.966 234.175 138.432C233.118 137.898 231.908 137.631 230.544 137.631C229.169 137.631 227.947 137.898 226.879 138.432C225.811 138.966 224.97 139.699 224.357 140.631C223.743 141.562 223.442 142.636 223.453 143.852C223.442 145.023 223.72 146.045 224.288 146.92C224.868 147.784 225.692 148.46 226.76 148.949C227.828 149.426 229.089 149.665 230.544 149.665ZM230.544 133.42C231.703 133.42 232.732 133.187 233.629 132.722C234.527 132.256 235.232 131.608 235.743 130.778C236.266 129.949 236.533 128.977 236.544 127.864C236.533 126.773 236.271 125.818 235.76 125C235.26 124.182 234.561 123.551 233.663 123.108C232.766 122.653 231.726 122.426 230.544 122.426C229.339 122.426 228.283 122.653 227.374 123.108C226.476 123.551 225.777 124.182 225.277 125C224.777 125.818 224.533 126.773 224.544 127.864C224.533 128.977 224.783 129.949 225.294 130.778C225.805 131.608 226.51 132.256 227.408 132.722C228.317 133.187 229.362 133.42 230.544 133.42ZM247.864 146.682V142.42L262.949 118.591H266.307V124.864H264.176L253.386 141.943V142.216H274.063V146.682H247.864ZM264.415 153.5V145.386L264.449 143.443V118.591H269.443V153.5H264.415Z" fill="black"/>
<path d="M215.666 188.644C215.61 188.435 215.527 188.251 215.417 188.092C215.308 187.93 215.174 187.792 215.015 187.68C214.856 187.567 214.673 187.482 214.468 187.426C214.262 187.366 214.037 187.337 213.792 187.337C213.298 187.337 212.87 187.456 212.509 187.695C212.151 187.933 211.874 188.281 211.679 188.739C211.483 189.193 211.386 189.745 211.386 190.394C211.386 191.047 211.48 191.604 211.669 192.065C211.858 192.525 212.131 192.877 212.489 193.119C212.847 193.361 213.281 193.482 213.792 193.482C214.243 193.482 214.624 193.409 214.935 193.263C215.25 193.114 215.489 192.903 215.651 192.631C215.814 192.36 215.895 192.04 215.895 191.672L216.352 191.727H213.876V189.932H218.266V191.279C218.266 192.191 218.072 192.971 217.685 193.621C217.3 194.27 216.77 194.769 216.094 195.117C215.421 195.465 214.647 195.639 213.772 195.639C212.801 195.639 211.947 195.429 211.212 195.008C210.476 194.587 209.902 193.987 209.491 193.208C209.08 192.426 208.875 191.498 208.875 190.424C208.875 189.589 208.999 188.848 209.248 188.202C209.496 187.552 209.843 187.002 210.287 186.551C210.734 186.1 211.251 185.759 211.838 185.527C212.428 185.295 213.063 185.179 213.742 185.179C214.332 185.179 214.881 185.263 215.388 185.433C215.898 185.602 216.349 185.84 216.74 186.148C217.134 186.457 217.454 186.823 217.699 187.247C217.945 187.671 218.097 188.137 218.157 188.644H215.666ZM230.167 190.409C230.167 191.529 229.951 192.479 229.52 193.258C229.09 194.037 228.506 194.628 227.77 195.033C227.038 195.437 226.216 195.639 225.305 195.639C224.39 195.639 223.566 195.435 222.834 195.028C222.101 194.62 221.519 194.028 221.089 193.253C220.661 192.474 220.447 191.526 220.447 190.409C220.447 189.289 220.661 188.339 221.089 187.56C221.519 186.781 222.101 186.19 222.834 185.786C223.566 185.381 224.39 185.179 225.305 185.179C226.216 185.179 227.038 185.381 227.77 185.786C228.506 186.19 229.09 186.781 229.52 187.56C229.951 188.339 230.167 189.289 230.167 190.409ZM227.651 190.409C227.651 189.746 227.557 189.186 227.368 188.729C227.182 188.271 226.914 187.925 226.562 187.69C226.214 187.454 225.795 187.337 225.305 187.337C224.817 187.337 224.398 187.454 224.047 187.69C223.695 187.925 223.425 188.271 223.236 188.729C223.051 189.186 222.958 189.746 222.958 190.409C222.958 191.072 223.051 191.632 223.236 192.089C223.425 192.547 223.695 192.893 224.047 193.129C224.398 193.364 224.817 193.482 225.305 193.482C225.795 193.482 226.214 193.364 226.562 193.129C226.914 192.893 227.182 192.547 227.368 192.089C227.557 191.632 227.651 191.072 227.651 190.409ZM242.054 190.409C242.054 191.529 241.838 192.479 241.407 193.258C240.976 194.037 240.393 194.628 239.657 195.033C238.925 195.437 238.103 195.639 237.191 195.639C236.277 195.639 235.453 195.435 234.721 195.028C233.988 194.62 233.406 194.028 232.975 193.253C232.548 192.474 232.334 191.526 232.334 190.409C232.334 189.289 232.548 188.339 232.975 187.56C233.406 186.781 233.988 186.19 234.721 185.786C235.453 185.381 236.277 185.179 237.191 185.179C238.103 185.179 238.925 185.381 239.657 185.786C240.393 186.19 240.976 186.781 241.407 187.56C241.838 188.339 242.054 189.289 242.054 190.409ZM239.538 190.409C239.538 189.746 239.444 189.186 239.255 188.729C239.069 188.271 238.801 187.925 238.449 187.69C238.101 187.454 237.682 187.337 237.191 187.337C236.704 187.337 236.285 187.454 235.934 187.69C235.582 187.925 235.312 188.271 235.123 188.729C234.938 189.186 234.845 189.746 234.845 190.409C234.845 191.072 234.938 191.632 235.123 192.089C235.312 192.547 235.582 192.893 235.934 193.129C236.285 193.364 236.704 193.482 237.191 193.482C237.682 193.482 238.101 193.364 238.449 193.129C238.801 192.893 239.069 192.547 239.255 192.089C239.444 191.632 239.538 191.072 239.538 190.409ZM248.094 195.5H244.33V185.318H248.089C249.126 185.318 250.02 185.522 250.769 185.93C251.521 186.334 252.101 186.917 252.509 187.68C252.916 188.439 253.12 189.347 253.12 190.404C253.12 191.465 252.916 192.376 252.509 193.138C252.104 193.901 251.526 194.486 250.774 194.893C250.021 195.298 249.128 195.5 248.094 195.5ZM246.791 193.402H247.999C248.57 193.402 249.052 193.306 249.446 193.114C249.844 192.918 250.144 192.602 250.346 192.164C250.552 191.723 250.654 191.137 250.654 190.404C250.654 189.672 250.552 189.088 250.346 188.654C250.141 188.217 249.837 187.902 249.436 187.71C249.038 187.514 248.548 187.416 247.965 187.416H246.791V193.402ZM188.263 212.5V202.318H192.469C193.231 202.318 193.889 202.467 194.443 202.766C195 203.061 195.429 203.473 195.73 204.004C196.032 204.531 196.183 205.144 196.183 205.843C196.183 206.546 196.029 207.161 195.721 207.688C195.416 208.211 194.98 208.617 194.413 208.906C193.846 209.194 193.173 209.338 192.395 209.338H189.799V207.399H191.937C192.308 207.399 192.618 207.335 192.867 207.205C193.119 207.076 193.309 206.895 193.439 206.663C193.568 206.428 193.632 206.155 193.632 205.843C193.632 205.528 193.568 205.256 193.439 205.028C193.309 204.796 193.119 204.617 192.867 204.491C192.615 204.365 192.305 204.302 191.937 204.302H190.724V212.5H188.263ZM207.846 207.409C207.846 208.529 207.631 209.479 207.2 210.258C206.769 211.037 206.186 211.628 205.45 212.033C204.717 212.437 203.895 212.639 202.984 212.639C202.069 212.639 201.245 212.435 200.513 212.028C199.78 211.62 199.199 211.028 198.768 210.253C198.34 209.474 198.127 208.526 198.127 207.409C198.127 206.289 198.34 205.339 198.768 204.56C199.199 203.781 199.78 203.19 200.513 202.786C201.245 202.381 202.069 202.179 202.984 202.179C203.895 202.179 204.717 202.381 205.45 202.786C206.186 203.19 206.769 203.781 207.2 204.56C207.631 205.339 207.846 206.289 207.846 207.409ZM205.33 207.409C205.33 206.746 205.236 206.186 205.047 205.729C204.861 205.271 204.593 204.925 204.242 204.69C203.894 204.454 203.474 204.337 202.984 204.337C202.497 204.337 202.077 204.454 201.726 204.69C201.375 204.925 201.105 205.271 200.916 205.729C200.73 206.186 200.637 206.746 200.637 207.409C200.637 208.072 200.73 208.632 200.916 209.089C201.105 209.547 201.375 209.893 201.726 210.129C202.077 210.364 202.497 210.482 202.984 210.482C203.474 210.482 203.894 210.364 204.242 210.129C204.593 209.893 204.861 209.547 205.047 209.089C205.236 208.632 205.33 208.072 205.33 207.409ZM209.325 204.317V202.318H217.931V204.317H214.843V212.5H212.417V204.317H209.325ZM219.973 212.5V202.318H227.072V204.317H222.434V206.405H226.709V208.408H222.434V210.501H227.072V212.5H219.973ZM238.119 202.318V212.5H236.031L231.979 206.624H231.914V212.5H229.453V202.318H231.571L235.578 208.185H235.663V202.318H238.119ZM240.173 204.317V202.318H248.779V204.317H245.691V212.5H243.265V204.317H240.173ZM253.282 202.318V212.5H250.821V202.318H253.282ZM257.869 212.5H255.224L258.659 202.318H261.936L265.371 212.5H262.726L260.335 204.884H260.255L257.869 212.5ZM257.516 208.493H263.044V210.362H257.516V208.493ZM267.307 212.5V202.318H269.768V210.501H274.004V212.5H267.307Z" fill="#53E77A"/>
<path d="M101 263.5C101 259.082 104.582 255.5 109 255.5H353C357.418 255.5 361 259.082 361 263.5V303.5C361 307.918 357.418 311.5 353 311.5H109C104.582 311.5 101 307.918 101 303.5V263.5Z" fill="#F79E1B"/>
<path d="M142.561 281.589C142.455 281.244 142.308 280.935 142.12 280.663C141.937 280.386 141.715 280.149 141.455 279.953C141.2 279.757 140.906 279.61 140.573 279.512C140.241 279.41 139.879 279.359 139.487 279.359C138.783 279.359 138.157 279.536 137.607 279.889C137.058 280.243 136.625 280.763 136.31 281.449C135.999 282.131 135.843 282.962 135.843 283.942C135.843 284.93 135.999 285.768 136.31 286.454C136.621 287.14 137.053 287.662 137.607 288.02C138.161 288.374 138.805 288.55 139.538 288.55C140.202 288.55 140.778 288.423 141.263 288.167C141.754 287.911 142.131 287.549 142.395 287.08C142.659 286.607 142.791 286.053 142.791 285.418L143.328 285.501H139.774V283.648H145.086V285.22C145.086 286.341 144.847 287.31 144.37 288.129C143.893 288.947 143.237 289.577 142.401 290.021C141.566 290.46 140.607 290.679 139.525 290.679C138.319 290.679 137.26 290.408 136.348 289.867C135.44 289.322 134.731 288.548 134.219 287.547C133.712 286.541 133.459 285.348 133.459 283.967C133.459 282.911 133.608 281.967 133.906 281.136C134.209 280.305 134.631 279.599 135.172 279.02C135.713 278.436 136.348 277.993 137.077 277.69C137.805 277.384 138.598 277.23 139.455 277.23C140.179 277.23 140.854 277.337 141.481 277.55C142.107 277.759 142.663 278.057 143.149 278.445C143.639 278.832 144.042 279.293 144.357 279.825C144.673 280.358 144.879 280.946 144.977 281.589H142.561ZM151.623 290.692C150.639 290.692 149.789 290.487 149.073 290.078C148.361 289.665 147.814 289.081 147.43 288.327C147.047 287.568 146.855 286.675 146.855 285.648C146.855 284.638 147.047 283.752 147.43 282.989C147.818 282.222 148.359 281.626 149.054 281.2C149.748 280.769 150.564 280.554 151.502 280.554C152.107 280.554 152.678 280.652 153.215 280.848C153.756 281.04 154.233 281.338 154.647 281.743C155.064 282.148 155.393 282.663 155.631 283.29C155.87 283.912 155.989 284.653 155.989 285.514V286.224H147.942V284.664H153.771C153.767 284.221 153.671 283.827 153.483 283.482C153.296 283.132 153.034 282.857 152.697 282.657C152.365 282.457 151.977 282.357 151.534 282.357C151.061 282.357 150.645 282.472 150.287 282.702C149.93 282.928 149.65 283.226 149.45 283.597C149.254 283.963 149.154 284.366 149.15 284.805V286.166C149.15 286.737 149.254 287.227 149.463 287.636C149.672 288.041 149.964 288.352 150.339 288.57C150.714 288.783 151.153 288.889 151.655 288.889C151.992 288.889 152.297 288.842 152.569 288.749C152.842 288.651 153.079 288.508 153.279 288.32C153.479 288.133 153.631 287.901 153.733 287.624L155.893 287.866C155.757 288.437 155.497 288.936 155.113 289.362C154.734 289.784 154.248 290.112 153.656 290.347C153.064 290.577 152.386 290.692 151.623 290.692ZM162.849 280.682V282.472H157.205V280.682H162.849ZM158.599 278.33H160.913V287.547C160.913 287.858 160.96 288.097 161.053 288.263C161.151 288.425 161.279 288.536 161.437 288.595C161.594 288.655 161.769 288.685 161.961 288.685C162.106 288.685 162.238 288.674 162.357 288.653C162.481 288.631 162.575 288.612 162.638 288.595L163.028 290.404C162.905 290.447 162.728 290.494 162.498 290.545C162.272 290.596 161.995 290.626 161.667 290.634C161.087 290.651 160.565 290.564 160.101 290.372C159.636 290.176 159.268 289.874 158.995 289.464C158.727 289.055 158.594 288.544 158.599 287.93V278.33ZM169.352 290.5V277.409H177.738V279.397H171.723V282.951H177.163V284.939H171.723V290.5H169.352ZM179.899 290.5V277.409H184.808C185.813 277.409 186.657 277.584 187.339 277.933C188.025 278.283 188.543 278.773 188.892 279.403C189.246 280.03 189.423 280.761 189.423 281.596C189.423 282.435 189.244 283.164 188.886 283.782C188.532 284.396 188.01 284.871 187.32 285.207C186.629 285.54 185.781 285.706 184.776 285.706H181.279V283.737H184.456C185.044 283.737 185.526 283.656 185.901 283.494C186.276 283.328 186.553 283.087 186.732 282.772C186.915 282.452 187.007 282.06 187.007 281.596C187.007 281.131 186.915 280.735 186.732 280.407C186.548 280.075 186.269 279.823 185.894 279.653C185.519 279.478 185.036 279.391 184.443 279.391H182.27V290.5H179.899ZM186.661 284.568L189.902 290.5H187.256L184.073 284.568H186.661ZM191.606 290.5V277.409H200.12V279.397H193.977V282.951H199.679V284.939H193.977V288.512H200.171V290.5H191.606ZM202.539 290.5V277.409H211.053V279.397H204.911V282.951H210.612V284.939H204.911V288.512H211.105V290.5H202.539ZM217.938 290.5V277.409H226.452V279.397H220.309V282.951H226.011V284.939H220.309V288.512H226.503V290.5H217.938ZM230.661 280.682L232.643 284.306L234.656 280.682H237.104L234.145 285.591L237.155 290.5H234.72L232.643 286.965L230.584 290.5H228.13L231.121 285.591L228.206 280.682H230.661ZM238.894 294.182V280.682H241.17V282.305H241.304C241.423 282.067 241.591 281.813 241.809 281.545C242.026 281.272 242.32 281.04 242.691 280.848C243.062 280.652 243.535 280.554 244.11 280.554C244.868 280.554 245.552 280.748 246.162 281.136C246.775 281.519 247.261 282.088 247.619 282.842C247.981 283.592 248.162 284.513 248.162 285.604C248.162 286.682 247.986 287.598 247.632 288.352C247.278 289.107 246.797 289.682 246.187 290.078C245.578 290.474 244.888 290.673 244.116 290.673C243.554 290.673 243.087 290.579 242.716 290.391C242.346 290.204 242.047 289.978 241.822 289.714C241.6 289.445 241.427 289.192 241.304 288.953H241.208V294.182H238.894ZM241.163 285.591C241.163 286.226 241.253 286.782 241.432 287.259C241.615 287.737 241.877 288.109 242.218 288.378C242.563 288.642 242.981 288.774 243.471 288.774C243.982 288.774 244.41 288.638 244.756 288.365C245.101 288.088 245.361 287.711 245.535 287.234C245.714 286.752 245.804 286.205 245.804 285.591C245.804 284.982 245.716 284.44 245.542 283.967C245.367 283.494 245.107 283.124 244.762 282.855C244.417 282.587 243.986 282.452 243.471 282.452C242.976 282.452 242.557 282.582 242.211 282.842C241.866 283.102 241.604 283.467 241.425 283.935C241.251 284.404 241.163 284.956 241.163 285.591ZM254.491 290.692C253.506 290.692 252.656 290.487 251.94 290.078C251.229 289.665 250.681 289.081 250.297 288.327C249.914 287.568 249.722 286.675 249.722 285.648C249.722 284.638 249.914 283.752 250.297 282.989C250.685 282.222 251.226 281.626 251.921 281.2C252.616 280.769 253.432 280.554 254.369 280.554C254.974 280.554 255.545 280.652 256.082 280.848C256.623 281.04 257.101 281.338 257.514 281.743C257.932 282.148 258.26 282.663 258.498 283.29C258.737 283.912 258.856 284.653 258.856 285.514V286.224H250.809V284.664H256.638C256.634 284.221 256.538 283.827 256.351 283.482C256.163 283.132 255.901 282.857 255.564 282.657C255.232 282.457 254.844 282.357 254.401 282.357C253.928 282.357 253.513 282.472 253.155 282.702C252.797 282.928 252.518 283.226 252.317 283.597C252.121 283.963 252.021 284.366 252.017 284.805V286.166C252.017 286.737 252.121 287.227 252.33 287.636C252.539 288.041 252.831 288.352 253.206 288.57C253.581 288.783 254.02 288.889 254.523 288.889C254.859 288.889 255.164 288.842 255.437 288.749C255.709 288.651 255.946 288.508 256.146 288.32C256.346 288.133 256.498 287.901 256.6 287.624L258.76 287.866C258.624 288.437 258.364 288.936 257.981 289.362C257.601 289.784 257.116 290.112 256.523 290.347C255.931 290.577 255.253 290.692 254.491 290.692ZM260.814 290.5V280.682H263.058V282.318H263.16C263.339 281.751 263.646 281.315 264.08 281.008C264.519 280.697 265.02 280.541 265.582 280.541C265.71 280.541 265.853 280.548 266.011 280.56C266.173 280.569 266.307 280.584 266.413 280.605V282.734C266.315 282.7 266.16 282.67 265.947 282.644C265.738 282.614 265.536 282.599 265.339 282.599C264.918 282.599 264.538 282.691 264.202 282.874C263.869 283.053 263.607 283.303 263.415 283.622C263.224 283.942 263.128 284.31 263.128 284.728V290.5H260.814ZM273.381 280.682V282.472H267.737V280.682H273.381ZM269.13 278.33H271.444V287.547C271.444 287.858 271.491 288.097 271.585 288.263C271.683 288.425 271.81 288.536 271.968 288.595C272.126 288.655 272.3 288.685 272.492 288.685C272.637 288.685 272.769 288.674 272.888 288.653C273.012 288.631 273.106 288.612 273.17 288.595L273.56 290.404C273.436 290.447 273.259 290.494 273.029 290.545C272.803 290.596 272.526 290.626 272.198 290.634C271.619 290.651 271.097 290.564 270.632 290.372C270.168 290.176 269.799 289.874 269.526 289.464C269.258 289.055 269.126 288.544 269.13 287.93V278.33ZM275.316 290.5V280.682H277.63V290.5H275.316ZM276.479 279.288C276.113 279.288 275.797 279.167 275.533 278.924C275.269 278.677 275.137 278.381 275.137 278.036C275.137 277.686 275.269 277.39 275.533 277.147C275.797 276.9 276.113 276.776 276.479 276.776C276.85 276.776 277.165 276.9 277.425 277.147C277.689 277.39 277.822 277.686 277.822 278.036C277.822 278.381 277.689 278.677 277.425 278.924C277.165 279.167 276.85 279.288 276.479 279.288ZM287.769 283.277L285.66 283.507C285.6 283.294 285.496 283.094 285.347 282.906C285.202 282.719 285.006 282.567 284.759 282.452C284.511 282.337 284.209 282.28 283.851 282.28C283.369 282.28 282.964 282.384 282.636 282.593C282.312 282.802 282.153 283.072 282.157 283.405C282.153 283.69 282.257 283.923 282.47 284.102C282.688 284.281 283.045 284.428 283.544 284.543L285.219 284.901C286.148 285.101 286.838 285.418 287.29 285.853C287.746 286.288 287.976 286.857 287.98 287.56C287.976 288.178 287.795 288.723 287.437 289.196C287.083 289.665 286.591 290.031 285.96 290.295C285.33 290.56 284.605 290.692 283.787 290.692C282.585 290.692 281.618 290.44 280.885 289.938C280.152 289.43 279.715 288.725 279.575 287.822L281.831 287.604C281.933 288.048 282.151 288.382 282.483 288.608C282.815 288.834 283.248 288.947 283.781 288.947C284.33 288.947 284.771 288.834 285.104 288.608C285.44 288.382 285.609 288.103 285.609 287.771C285.609 287.489 285.5 287.257 285.283 287.074C285.07 286.891 284.737 286.75 284.286 286.652L282.611 286.3C281.669 286.104 280.972 285.774 280.521 285.31C280.069 284.841 279.845 284.249 279.849 283.533C279.845 282.928 280.009 282.403 280.342 281.96C280.678 281.513 281.145 281.168 281.741 280.925C282.342 280.678 283.035 280.554 283.819 280.554C284.969 280.554 285.875 280.799 286.536 281.289C287.2 281.779 287.612 282.442 287.769 283.277ZM294.235 290.692C293.25 290.692 292.4 290.487 291.684 290.078C290.973 289.665 290.425 289.081 290.042 288.327C289.658 287.568 289.466 286.675 289.466 285.648C289.466 284.638 289.658 283.752 290.042 282.989C290.429 282.222 290.971 281.626 291.665 281.2C292.36 280.769 293.176 280.554 294.113 280.554C294.718 280.554 295.289 280.652 295.826 280.848C296.368 281.04 296.845 281.338 297.258 281.743C297.676 282.148 298.004 282.663 298.243 283.29C298.481 283.912 298.6 284.653 298.6 285.514V286.224H290.553V284.664H296.382C296.378 284.221 296.282 283.827 296.095 283.482C295.907 283.132 295.645 282.857 295.309 282.657C294.976 282.457 294.588 282.357 294.145 282.357C293.672 282.357 293.257 282.472 292.899 282.702C292.541 282.928 292.262 283.226 292.061 283.597C291.865 283.963 291.765 284.366 291.761 284.805V286.166C291.761 286.737 291.865 287.227 292.074 287.636C292.283 288.041 292.575 288.352 292.95 288.57C293.325 288.783 293.764 288.889 294.267 288.889C294.603 288.889 294.908 288.842 295.181 288.749C295.453 288.651 295.69 288.508 295.89 288.32C296.091 288.133 296.242 287.901 296.344 287.624L298.505 287.866C298.368 288.437 298.108 288.936 297.725 289.362C297.346 289.784 296.86 290.112 296.267 290.347C295.675 290.577 294.998 290.692 294.235 290.692Z" fill="white"/>
<path d="M319.722 277.083L325.833 283.5M325.833 283.5L319.722 289.917M325.833 283.5L311.167 283.5" stroke="white" stroke-width="2"/>
<rect x="101" y="323.5" width="260" height="87" rx="12" fill="#E1E1E1"/>
<path d="M123.528 341.045H125.259L128.269 348.395H128.38L131.39 341.045H133.121V350.5H131.764V343.658H131.676L128.888 350.486H127.761L124.973 343.654H124.885V350.5H123.528V341.045ZM137.018 350.657C136.568 350.657 136.162 350.574 135.799 350.408C135.436 350.238 135.148 349.994 134.936 349.674C134.727 349.354 134.622 348.961 134.622 348.496C134.622 348.096 134.699 347.767 134.853 347.509C135.007 347.25 135.214 347.045 135.476 346.895C135.738 346.744 136.03 346.63 136.353 346.553C136.676 346.476 137.006 346.417 137.341 346.377C137.766 346.328 138.11 346.288 138.375 346.257C138.64 346.224 138.832 346.17 138.952 346.096C139.072 346.022 139.132 345.902 139.132 345.736V345.703C139.132 345.3 139.018 344.988 138.791 344.766C138.566 344.545 138.23 344.434 137.784 344.434C137.319 344.434 136.953 344.537 136.685 344.743C136.421 344.946 136.238 345.173 136.136 345.422L134.839 345.126C134.993 344.696 135.217 344.348 135.513 344.083C135.811 343.815 136.155 343.621 136.542 343.501C136.93 343.378 137.338 343.317 137.766 343.317C138.049 343.317 138.349 343.351 138.666 343.418C138.986 343.483 139.285 343.603 139.562 343.778C139.842 343.954 140.071 344.205 140.249 344.531C140.428 344.854 140.517 345.274 140.517 345.791V350.5H139.169V349.531H139.114C139.024 349.709 138.891 349.884 138.712 350.057C138.534 350.229 138.304 350.372 138.024 350.486C137.744 350.6 137.409 350.657 137.018 350.657ZM137.318 349.549C137.7 349.549 138.026 349.474 138.297 349.323C138.571 349.172 138.778 348.975 138.92 348.732C139.064 348.486 139.137 348.223 139.137 347.942V347.028C139.088 347.078 138.992 347.124 138.851 347.167C138.712 347.207 138.554 347.242 138.375 347.273C138.197 347.301 138.023 347.327 137.853 347.352C137.684 347.373 137.543 347.392 137.429 347.407C137.161 347.441 136.916 347.498 136.695 347.578C136.476 347.658 136.301 347.773 136.168 347.924C136.039 348.072 135.975 348.269 135.975 348.515C135.975 348.857 136.101 349.115 136.353 349.29C136.605 349.463 136.927 349.549 137.318 349.549ZM143.606 346.29V350.5H142.226V343.409H143.551V344.563H143.638C143.801 344.188 144.057 343.886 144.405 343.658C144.755 343.431 145.197 343.317 145.73 343.317C146.213 343.317 146.636 343.418 146.999 343.621C147.362 343.821 147.644 344.12 147.844 344.517C148.044 344.914 148.144 345.405 148.144 345.99V350.5H146.764V346.156C146.764 345.642 146.63 345.24 146.362 344.951C146.094 344.659 145.726 344.512 145.259 344.512C144.939 344.512 144.654 344.582 144.405 344.72C144.158 344.859 143.963 345.062 143.818 345.33C143.677 345.594 143.606 345.914 143.606 346.29ZM150.484 353.159C150.278 353.159 150.09 353.142 149.921 353.108C149.751 353.078 149.625 353.044 149.542 353.007L149.874 351.876C150.127 351.943 150.351 351.973 150.548 351.963C150.745 351.954 150.919 351.88 151.07 351.742C151.224 351.603 151.359 351.377 151.476 351.063L151.647 350.592L149.053 343.409H150.53L152.326 348.912H152.4L154.195 343.409H155.677L152.755 351.446C152.62 351.816 152.447 352.128 152.238 352.384C152.029 352.642 151.779 352.836 151.49 352.965C151.201 353.094 150.865 353.159 150.484 353.159ZM163.53 343.409V344.517H159.523V343.409H163.53ZM160.621 350.5V342.587C160.621 342.144 160.718 341.776 160.912 341.484C161.106 341.189 161.363 340.969 161.683 340.824C162.003 340.676 162.351 340.602 162.726 340.602C163.003 340.602 163.24 340.625 163.437 340.672C163.634 340.715 163.78 340.755 163.876 340.792L163.553 341.909C163.488 341.89 163.405 341.869 163.303 341.844C163.202 341.816 163.079 341.803 162.934 341.803C162.599 341.803 162.359 341.886 162.214 342.052C162.072 342.218 162.002 342.458 162.002 342.772V350.5H160.621ZM166.672 350.657C166.222 350.657 165.816 350.574 165.453 350.408C165.09 350.238 164.802 349.994 164.59 349.674C164.38 349.354 164.276 348.961 164.276 348.496C164.276 348.096 164.353 347.767 164.506 347.509C164.66 347.25 164.868 347.045 165.13 346.895C165.391 346.744 165.684 346.63 166.007 346.553C166.33 346.476 166.659 346.417 166.995 346.377C167.419 346.328 167.764 346.288 168.029 346.257C168.293 346.224 168.486 346.17 168.606 346.096C168.726 346.022 168.786 345.902 168.786 345.736V345.703C168.786 345.3 168.672 344.988 168.444 344.766C168.22 344.545 167.884 344.434 167.438 344.434C166.973 344.434 166.607 344.537 166.339 344.743C166.074 344.946 165.891 345.173 165.79 345.422L164.493 345.126C164.646 344.696 164.871 344.348 165.167 344.083C165.465 343.815 165.808 343.621 166.196 343.501C166.584 343.378 166.992 343.317 167.419 343.317C167.703 343.317 168.003 343.351 168.32 343.418C168.64 343.483 168.938 343.603 169.215 343.778C169.495 343.954 169.725 344.205 169.903 344.531C170.082 344.854 170.171 345.274 170.171 345.791V350.5H168.823V349.531H168.767C168.678 349.709 168.544 349.884 168.366 350.057C168.187 350.229 167.958 350.372 167.678 350.486C167.398 350.6 167.062 350.657 166.672 350.657ZM166.972 349.549C167.353 349.549 167.679 349.474 167.95 349.323C168.224 349.172 168.432 348.975 168.574 348.732C168.718 348.486 168.791 348.223 168.791 347.942V347.028C168.741 347.078 168.646 347.124 168.504 347.167C168.366 347.207 168.207 347.242 168.029 347.273C167.85 347.301 167.676 347.327 167.507 347.352C167.338 347.373 167.196 347.392 167.082 347.407C166.815 347.441 166.57 347.498 166.348 347.578C166.13 347.658 165.954 347.773 165.822 347.924C165.693 348.072 165.628 348.269 165.628 348.515C165.628 348.857 165.754 349.115 166.007 349.29C166.259 349.463 166.581 349.549 166.972 349.549ZM174.866 350.643C174.18 350.643 173.589 350.488 173.093 350.177C172.601 349.863 172.222 349.431 171.958 348.88C171.693 348.329 171.561 347.698 171.561 346.987C171.561 346.267 171.696 345.631 171.967 345.08C172.238 344.526 172.62 344.094 173.112 343.783C173.604 343.472 174.185 343.317 174.852 343.317C175.391 343.317 175.871 343.417 176.293 343.617C176.714 343.814 177.054 344.091 177.313 344.448C177.575 344.805 177.73 345.222 177.779 345.699H176.436C176.362 345.366 176.193 345.08 175.928 344.84C175.666 344.6 175.316 344.48 174.875 344.48C174.491 344.48 174.154 344.582 173.864 344.785C173.578 344.985 173.355 345.271 173.195 345.643C173.035 346.013 172.955 346.45 172.955 346.955C172.955 347.472 173.033 347.918 173.19 348.293C173.347 348.669 173.569 348.96 173.855 349.166C174.144 349.372 174.485 349.475 174.875 349.475C175.137 349.475 175.374 349.427 175.586 349.332C175.802 349.234 175.982 349.094 176.126 348.912C176.274 348.73 176.377 348.512 176.436 348.256H177.779C177.73 348.715 177.581 349.124 177.331 349.484C177.082 349.844 176.748 350.128 176.33 350.334C175.914 350.54 175.426 350.643 174.866 350.643ZM182.435 343.409V344.517H178.562V343.409H182.435ZM179.601 341.71H180.981V348.418C180.981 348.686 181.021 348.887 181.101 349.023C181.181 349.155 181.284 349.246 181.41 349.295C181.54 349.341 181.68 349.364 181.831 349.364C181.941 349.364 182.038 349.357 182.121 349.341C182.205 349.326 182.269 349.314 182.315 349.304L182.565 350.445C182.485 350.475 182.371 350.506 182.223 350.537C182.075 350.571 181.891 350.589 181.669 350.592C181.306 350.598 180.967 350.534 180.653 350.398C180.339 350.263 180.086 350.054 179.892 349.771C179.698 349.487 179.601 349.132 179.601 348.704V341.71ZM186.743 350.643C186.078 350.643 185.498 350.491 185.003 350.186C184.507 349.881 184.122 349.455 183.848 348.907C183.574 348.359 183.438 347.719 183.438 346.987C183.438 346.251 183.574 345.608 183.848 345.057C184.122 344.506 184.507 344.078 185.003 343.774C185.498 343.469 186.078 343.317 186.743 343.317C187.408 343.317 187.988 343.469 188.483 343.774C188.979 344.078 189.364 344.506 189.637 345.057C189.911 345.608 190.048 346.251 190.048 346.987C190.048 347.719 189.911 348.359 189.637 348.907C189.364 349.455 188.979 349.881 188.483 350.186C187.988 350.491 187.408 350.643 186.743 350.643ZM186.748 349.484C187.178 349.484 187.535 349.371 187.819 349.143C188.102 348.915 188.311 348.612 188.446 348.233C188.585 347.855 188.654 347.438 188.654 346.982C188.654 346.53 188.585 346.114 188.446 345.736C188.311 345.354 188.102 345.048 187.819 344.817C187.535 344.586 187.178 344.471 186.748 344.471C186.314 344.471 185.954 344.586 185.667 344.817C185.384 345.048 185.173 345.354 185.035 345.736C184.899 346.114 184.832 346.53 184.832 346.982C184.832 347.438 184.899 347.855 185.035 348.233C185.173 348.612 185.384 348.915 185.667 349.143C185.954 349.371 186.314 349.484 186.748 349.484ZM191.459 350.5V343.409H192.793V344.536H192.867C192.996 344.154 193.224 343.854 193.55 343.635C193.88 343.414 194.252 343.303 194.668 343.303C194.754 343.303 194.855 343.306 194.972 343.312C195.092 343.318 195.186 343.326 195.254 343.335V344.656C195.198 344.64 195.1 344.623 194.958 344.605C194.817 344.583 194.675 344.572 194.534 344.572C194.207 344.572 193.917 344.642 193.661 344.78C193.409 344.916 193.209 345.105 193.061 345.348C192.913 345.588 192.839 345.862 192.839 346.17V350.5H191.459ZM201.632 345.14L200.381 345.362C200.329 345.202 200.245 345.049 200.132 344.905C200.021 344.76 199.87 344.642 199.679 344.549C199.488 344.457 199.25 344.411 198.964 344.411C198.573 344.411 198.246 344.499 197.985 344.674C197.723 344.846 197.592 345.069 197.592 345.343C197.592 345.58 197.68 345.771 197.856 345.916C198.031 346.06 198.314 346.179 198.705 346.271L199.831 346.53C200.484 346.681 200.97 346.913 201.29 347.227C201.61 347.541 201.77 347.949 201.77 348.45C201.77 348.875 201.647 349.254 201.401 349.586C201.158 349.915 200.818 350.174 200.381 350.362C199.947 350.549 199.444 350.643 198.871 350.643C198.077 350.643 197.429 350.474 196.928 350.135C196.426 349.794 196.118 349.309 196.004 348.681L197.339 348.478C197.422 348.826 197.592 349.089 197.851 349.267C198.11 349.443 198.447 349.531 198.862 349.531C199.314 349.531 199.676 349.437 199.947 349.249C200.218 349.058 200.353 348.826 200.353 348.552C200.353 348.33 200.27 348.144 200.104 347.993C199.941 347.842 199.69 347.729 199.351 347.652L198.151 347.388C197.489 347.238 197 346.998 196.683 346.668C196.369 346.339 196.212 345.922 196.212 345.417C196.212 344.999 196.329 344.632 196.563 344.319C196.797 344.005 197.12 343.76 197.532 343.585C197.945 343.406 198.417 343.317 198.95 343.317C199.716 343.317 200.319 343.483 200.759 343.815C201.199 344.145 201.49 344.586 201.632 345.14ZM209.441 353.307C208.878 353.307 208.394 353.233 207.987 353.085C207.584 352.938 207.255 352.742 206.999 352.499C206.744 352.256 206.553 351.99 206.427 351.7L207.613 351.211C207.696 351.346 207.807 351.489 207.946 351.64C208.087 351.794 208.278 351.925 208.518 352.033C208.761 352.14 209.074 352.194 209.455 352.194C209.979 352.194 210.411 352.067 210.753 351.811C211.094 351.559 211.265 351.156 211.265 350.602V349.207H211.177C211.094 349.358 210.974 349.526 210.817 349.711C210.663 349.895 210.451 350.055 210.18 350.191C209.909 350.326 209.557 350.394 209.123 350.394C208.563 350.394 208.058 350.263 207.609 350.001C207.162 349.737 206.809 349.347 206.547 348.833C206.288 348.316 206.159 347.681 206.159 346.927C206.159 346.173 206.287 345.527 206.542 344.988C206.801 344.449 207.155 344.037 207.604 343.751C208.053 343.461 208.563 343.317 209.132 343.317C209.572 343.317 209.928 343.391 210.199 343.538C210.469 343.683 210.68 343.852 210.831 344.046C210.985 344.24 211.103 344.411 211.187 344.559H211.288V343.409H212.641V350.657C212.641 351.266 212.499 351.766 212.216 352.157C211.933 352.548 211.55 352.837 211.066 353.025C210.586 353.213 210.045 353.307 209.441 353.307ZM209.428 349.249C209.825 349.249 210.16 349.157 210.434 348.972C210.711 348.784 210.92 348.516 211.062 348.169C211.207 347.818 211.279 347.398 211.279 346.908C211.279 346.431 211.208 346.011 211.066 345.648C210.925 345.285 210.717 345.002 210.443 344.799C210.169 344.592 209.831 344.489 209.428 344.489C209.012 344.489 208.666 344.597 208.389 344.812C208.112 345.025 207.903 345.314 207.761 345.68C207.623 346.047 207.553 346.456 207.553 346.908C207.553 347.373 207.624 347.781 207.766 348.132C207.907 348.483 208.117 348.757 208.394 348.953C208.674 349.15 209.018 349.249 209.428 349.249ZM217.349 350.643C216.684 350.643 216.104 350.491 215.608 350.186C215.113 349.881 214.728 349.455 214.454 348.907C214.18 348.359 214.043 347.719 214.043 346.987C214.043 346.251 214.18 345.608 214.454 345.057C214.728 344.506 215.113 344.078 215.608 343.774C216.104 343.469 216.684 343.317 217.349 343.317C218.014 343.317 218.594 343.469 219.089 343.774C219.585 344.078 219.969 344.506 220.243 345.057C220.517 345.608 220.654 346.251 220.654 346.987C220.654 347.719 220.517 348.359 220.243 348.907C219.969 349.455 219.585 349.881 219.089 350.186C218.594 350.491 218.014 350.643 217.349 350.643ZM217.353 349.484C217.784 349.484 218.141 349.371 218.424 349.143C218.708 348.915 218.917 348.612 219.052 348.233C219.191 347.855 219.26 347.438 219.26 346.982C219.26 346.53 219.191 346.114 219.052 345.736C218.917 345.354 218.708 345.048 218.424 344.817C218.141 344.586 217.784 344.471 217.353 344.471C216.919 344.471 216.559 344.586 216.273 344.817C215.99 345.048 215.779 345.354 215.641 345.736C215.505 346.114 215.438 346.53 215.438 346.982C215.438 347.438 215.505 347.855 215.641 348.233C215.779 348.612 215.99 348.915 216.273 349.143C216.559 349.371 216.919 349.484 217.353 349.484ZM225.375 350.5V343.409H226.756V350.5H225.375ZM226.072 342.315C225.832 342.315 225.626 342.235 225.454 342.075C225.285 341.912 225.2 341.718 225.2 341.493C225.2 341.266 225.285 341.072 225.454 340.912C225.626 340.748 225.832 340.667 226.072 340.667C226.312 340.667 226.517 340.748 226.686 340.912C226.859 341.072 226.945 341.266 226.945 341.493C226.945 341.718 226.859 341.912 226.686 342.075C226.517 342.235 226.312 342.315 226.072 342.315ZM229.863 346.29V350.5H228.483V343.409H229.808V344.563H229.895C230.058 344.188 230.314 343.886 230.662 343.658C231.012 343.431 231.454 343.317 231.987 343.317C232.47 343.317 232.893 343.418 233.256 343.621C233.619 343.821 233.901 344.12 234.101 344.517C234.301 344.914 234.401 345.405 234.401 345.99V350.5H233.021V346.156C233.021 345.642 232.887 345.24 232.619 344.951C232.351 344.659 231.983 344.512 231.516 344.512C231.196 344.512 230.911 344.582 230.662 344.72C230.415 344.859 230.22 345.062 230.075 345.33C229.934 345.594 229.863 345.914 229.863 346.29ZM239.432 343.409V344.517H235.559V343.409H239.432ZM236.598 341.71H237.978V348.418C237.978 348.686 238.018 348.887 238.098 349.023C238.178 349.155 238.281 349.246 238.407 349.295C238.537 349.341 238.677 349.364 238.827 349.364C238.938 349.364 239.035 349.357 239.118 349.341C239.201 349.326 239.266 349.314 239.312 349.304L239.561 350.445C239.481 350.475 239.368 350.506 239.22 350.537C239.072 350.571 238.887 350.589 238.666 350.592C238.303 350.598 237.964 350.534 237.65 350.398C237.336 350.263 237.082 350.054 236.889 349.771C236.695 349.487 236.598 349.132 236.598 348.704V341.71ZM243.74 350.643C243.075 350.643 242.495 350.491 241.999 350.186C241.504 349.881 241.119 349.455 240.845 348.907C240.571 348.359 240.434 347.719 240.434 346.987C240.434 346.251 240.571 345.608 240.845 345.057C241.119 344.506 241.504 344.078 241.999 343.774C242.495 343.469 243.075 343.317 243.74 343.317C244.405 343.317 244.985 343.469 245.48 343.774C245.976 344.078 246.36 344.506 246.634 345.057C246.908 345.608 247.045 346.251 247.045 346.987C247.045 347.719 246.908 348.359 246.634 348.907C246.36 349.455 245.976 349.881 245.48 350.186C244.985 350.491 244.405 350.643 243.74 350.643ZM243.744 349.484C244.175 349.484 244.532 349.371 244.815 349.143C245.099 348.915 245.308 348.612 245.443 348.233C245.582 347.855 245.651 347.438 245.651 346.982C245.651 346.53 245.582 346.114 245.443 345.736C245.308 345.354 245.099 345.048 244.815 344.817C244.532 344.586 244.175 344.471 243.744 344.471C243.31 344.471 242.95 344.586 242.664 344.817C242.381 345.048 242.17 345.354 242.032 345.736C241.896 346.114 241.829 346.53 241.829 346.982C241.829 347.438 241.896 347.855 242.032 348.233C242.17 348.612 242.381 348.915 242.664 349.143C242.95 349.371 243.31 349.484 243.744 349.484ZM253.83 350.657C253.381 350.657 252.974 350.574 252.611 350.408C252.248 350.238 251.96 349.994 251.748 349.674C251.539 349.354 251.434 348.961 251.434 348.496C251.434 348.096 251.511 347.767 251.665 347.509C251.819 347.25 252.026 347.045 252.288 346.895C252.55 346.744 252.842 346.63 253.165 346.553C253.488 346.476 253.818 346.417 254.153 346.377C254.578 346.328 254.923 346.288 255.187 346.257C255.452 346.224 255.644 346.17 255.764 346.096C255.884 346.022 255.944 345.902 255.944 345.736V345.703C255.944 345.3 255.83 344.988 255.603 344.766C255.378 344.545 255.043 344.434 254.596 344.434C254.132 344.434 253.765 344.537 253.498 344.743C253.233 344.946 253.05 345.173 252.948 345.422L251.651 345.126C251.805 344.696 252.03 344.348 252.325 344.083C252.624 343.815 252.967 343.621 253.354 343.501C253.742 343.378 254.15 343.317 254.578 343.317C254.861 343.317 255.161 343.351 255.478 343.418C255.798 343.483 256.097 343.603 256.374 343.778C256.654 343.954 256.883 344.205 257.061 344.531C257.24 344.854 257.329 345.274 257.329 345.791V350.5H255.981V349.531H255.926C255.837 349.709 255.703 349.884 255.524 350.057C255.346 350.229 255.116 350.372 254.836 350.486C254.556 350.6 254.221 350.657 253.83 350.657ZM254.13 349.549C254.512 349.549 254.838 349.474 255.109 349.323C255.383 349.172 255.59 348.975 255.732 348.732C255.877 348.486 255.949 348.223 255.949 347.942V347.028C255.9 347.078 255.804 347.124 255.663 347.167C255.524 347.207 255.366 347.242 255.187 347.273C255.009 347.301 254.835 347.327 254.666 347.352C254.496 347.373 254.355 347.392 254.241 347.407C253.973 347.441 253.728 347.498 253.507 347.578C253.288 347.658 253.113 347.773 252.981 347.924C252.851 348.072 252.787 348.269 252.787 348.515C252.787 348.857 252.913 349.115 253.165 349.29C253.418 349.463 253.739 349.549 254.13 349.549ZM260.418 346.29V350.5H259.038V343.409H260.363V344.563H260.45C260.614 344.188 260.869 343.886 261.217 343.658C261.568 343.431 262.009 343.317 262.542 343.317C263.025 343.317 263.448 343.418 263.811 343.621C264.174 343.821 264.456 344.12 264.656 344.517C264.856 344.914 264.956 345.405 264.956 345.99V350.5H263.576V346.156C263.576 345.642 263.442 345.24 263.174 344.951C262.906 344.659 262.539 344.512 262.071 344.512C261.751 344.512 261.466 344.582 261.217 344.72C260.971 344.859 260.775 345.062 260.63 345.33C260.489 345.594 260.418 345.914 260.418 346.29ZM268.741 350.657C268.291 350.657 267.885 350.574 267.522 350.408C267.159 350.238 266.871 349.994 266.659 349.674C266.45 349.354 266.345 348.961 266.345 348.496C266.345 348.096 266.422 347.767 266.576 347.509C266.73 347.25 266.937 347.045 267.199 346.895C267.461 346.744 267.753 346.63 268.076 346.553C268.399 346.476 268.729 346.417 269.064 346.377C269.489 346.328 269.833 346.288 270.098 346.257C270.363 346.224 270.555 346.17 270.675 346.096C270.795 346.022 270.855 345.902 270.855 345.736V345.703C270.855 345.3 270.741 344.988 270.514 344.766C270.289 344.545 269.953 344.434 269.507 344.434C269.042 344.434 268.676 344.537 268.408 344.743C268.144 344.946 267.961 345.173 267.859 345.422L266.562 345.126C266.716 344.696 266.94 344.348 267.236 344.083C267.534 343.815 267.878 343.621 268.265 343.501C268.653 343.378 269.061 343.317 269.489 343.317C269.772 343.317 270.072 343.351 270.389 343.418C270.709 343.483 271.008 343.603 271.285 343.778C271.565 343.954 271.794 344.205 271.972 344.531C272.151 344.854 272.24 345.274 272.24 345.791V350.5H270.892V349.531H270.837C270.747 349.709 270.614 349.884 270.435 350.057C270.257 350.229 270.027 350.372 269.747 350.486C269.467 350.6 269.132 350.657 268.741 350.657ZM269.041 349.549C269.423 349.549 269.749 349.474 270.02 349.323C270.294 349.172 270.501 348.975 270.643 348.732C270.787 348.486 270.86 348.223 270.86 347.942V347.028C270.811 347.078 270.715 347.124 270.574 347.167C270.435 347.207 270.277 347.242 270.098 347.273C269.92 347.301 269.746 347.327 269.576 347.352C269.407 347.373 269.266 347.392 269.152 347.407C268.884 347.441 268.639 347.498 268.418 347.578C268.199 347.658 268.024 347.773 267.891 347.924C267.762 348.072 267.698 348.269 267.698 348.515C267.698 348.857 267.824 349.115 268.076 349.29C268.328 349.463 268.65 349.549 269.041 349.549ZM275.329 341.045V350.5H273.949V341.045H275.329ZM277.928 353.159C277.722 353.159 277.535 353.142 277.365 353.108C277.196 353.078 277.07 353.044 276.987 353.007L277.319 351.876C277.571 351.943 277.796 351.973 277.993 351.963C278.19 351.954 278.364 351.88 278.515 351.742C278.669 351.603 278.804 351.377 278.921 351.063L279.092 350.592L276.497 343.409H277.975L279.77 348.912H279.844L281.64 343.409H283.122L280.2 351.446C280.064 351.816 279.892 352.128 279.683 352.384C279.473 352.642 279.224 352.836 278.935 352.965C278.646 353.094 278.31 353.159 277.928 353.159ZM284.141 350.5V349.554L287.982 344.674V344.609H284.266V343.409H289.704V344.415L286.011 349.235V349.3H289.834V350.5H284.141ZM291.332 350.5V343.409H292.712V350.5H291.332ZM292.029 342.315C291.789 342.315 291.583 342.235 291.411 342.075C291.241 341.912 291.157 341.718 291.157 341.493C291.157 341.266 291.241 341.072 291.411 340.912C291.583 340.748 291.789 340.667 292.029 340.667C292.269 340.667 292.474 340.748 292.643 340.912C292.816 341.072 292.902 341.266 292.902 341.493C292.902 341.718 292.816 341.912 292.643 342.075C292.474 342.235 292.269 342.315 292.029 342.315ZM295.82 346.29V350.5H294.439V343.409H295.764V344.563H295.852C296.015 344.188 296.271 343.886 296.618 343.658C296.969 343.431 297.411 343.317 297.943 343.317C298.426 343.317 298.85 343.418 299.213 343.621C299.576 343.821 299.858 344.12 300.058 344.517C300.258 344.914 300.358 345.405 300.358 345.99V350.5H298.977V346.156C298.977 345.642 298.844 345.24 298.576 344.951C298.308 344.659 297.94 344.512 297.472 344.512C297.152 344.512 296.868 344.582 296.618 344.72C296.372 344.859 296.177 345.062 296.032 345.33C295.89 345.594 295.82 345.914 295.82 346.29ZM305.052 353.307C304.489 353.307 304.004 353.233 303.598 353.085C303.195 352.938 302.865 352.742 302.61 352.499C302.354 352.256 302.164 351.99 302.037 351.7L303.224 351.211C303.307 351.346 303.418 351.489 303.556 351.64C303.698 351.794 303.889 351.925 304.129 352.033C304.372 352.14 304.684 352.194 305.066 352.194C305.589 352.194 306.021 352.067 306.363 351.811C306.705 351.559 306.875 351.156 306.875 350.602V349.207H306.788C306.705 349.358 306.585 349.526 306.428 349.711C306.274 349.895 306.061 350.055 305.791 350.191C305.52 350.326 305.167 350.394 304.733 350.394C304.173 350.394 303.669 350.263 303.219 350.001C302.773 349.737 302.419 349.347 302.157 348.833C301.899 348.316 301.77 347.681 301.77 346.927C301.77 346.173 301.897 345.527 302.153 344.988C302.411 344.449 302.765 344.037 303.215 343.751C303.664 343.461 304.173 343.317 304.743 343.317C305.183 343.317 305.538 343.391 305.809 343.538C306.08 343.683 306.291 343.852 306.441 344.046C306.595 344.24 306.714 344.411 306.797 344.559H306.899V343.409H308.251V350.657C308.251 351.266 308.11 351.766 307.826 352.157C307.543 352.548 307.16 352.837 306.677 353.025C306.197 353.213 305.655 353.307 305.052 353.307ZM305.038 349.249C305.435 349.249 305.771 349.157 306.044 348.972C306.321 348.784 306.531 348.516 306.672 348.169C306.817 347.818 306.889 347.398 306.889 346.908C306.889 346.431 306.818 346.011 306.677 345.648C306.535 345.285 306.328 345.002 306.054 344.799C305.78 344.592 305.441 344.489 305.038 344.489C304.623 344.489 304.276 344.597 303.999 344.812C303.722 345.025 303.513 345.314 303.372 345.68C303.233 346.047 303.164 346.456 303.164 346.908C303.164 347.373 303.235 347.781 303.376 348.132C303.518 348.483 303.727 348.757 304.004 348.953C304.284 349.15 304.629 349.249 305.038 349.249ZM314.155 353.159C313.949 353.159 313.761 353.142 313.592 353.108C313.423 353.078 313.297 353.044 313.214 353.007L313.546 351.876C313.798 351.943 314.023 351.973 314.22 351.963C314.417 351.954 314.591 351.88 314.742 351.742C314.895 351.603 315.031 351.377 315.148 351.063L315.319 350.592L312.724 343.409H314.201L315.997 348.912H316.071L317.867 343.409H319.349L316.427 351.446C316.291 351.816 316.119 352.128 315.91 352.384C315.7 352.642 315.451 352.836 315.162 352.965C314.872 353.094 314.537 353.159 314.155 353.159ZM323.262 350.643C322.597 350.643 322.017 350.491 321.521 350.186C321.026 349.881 320.641 349.455 320.367 348.907C320.093 348.359 319.956 347.719 319.956 346.987C319.956 346.251 320.093 345.608 320.367 345.057C320.641 344.506 321.026 344.078 321.521 343.774C322.017 343.469 322.597 343.317 323.262 343.317C323.926 343.317 324.507 343.469 325.002 343.774C325.498 344.078 325.882 344.506 326.156 345.057C326.43 345.608 326.567 346.251 326.567 346.987C326.567 347.719 326.43 348.359 326.156 348.907C325.882 349.455 325.498 349.881 325.002 350.186C324.507 350.491 323.926 350.643 323.262 350.643ZM323.266 349.484C323.697 349.484 324.054 349.371 324.337 349.143C324.62 348.915 324.83 348.612 324.965 348.233C325.104 347.855 325.173 347.438 325.173 346.982C325.173 346.53 325.104 346.114 324.965 345.736C324.83 345.354 324.62 345.048 324.337 344.817C324.054 344.586 323.697 344.471 323.266 344.471C322.832 344.471 322.472 344.586 322.186 344.817C321.903 345.048 321.692 345.354 321.554 345.736C321.418 346.114 321.35 346.53 321.35 346.982C321.35 347.438 321.418 347.855 321.554 348.233C321.692 348.612 321.903 348.915 322.186 349.143C322.472 349.371 322.832 349.484 323.266 349.484ZM332.47 347.559V343.409H333.855V350.5H332.497V349.272H332.424C332.26 349.651 331.999 349.966 331.639 350.218C331.282 350.468 330.837 350.592 330.305 350.592C329.849 350.592 329.446 350.492 329.095 350.292C328.747 350.089 328.473 349.789 328.273 349.392C328.076 348.995 327.978 348.504 327.978 347.919V343.409H329.358V347.753C329.358 348.236 329.492 348.621 329.76 348.907C330.028 349.194 330.375 349.337 330.803 349.337C331.062 349.337 331.319 349.272 331.574 349.143C331.833 349.013 332.047 348.818 332.216 348.556C332.388 348.295 332.473 347.962 332.47 347.559ZM335.579 350.5V343.409H336.913V344.536H336.987C337.117 344.154 337.344 343.854 337.671 343.635C338 343.414 338.372 343.303 338.788 343.303C338.874 343.303 338.975 343.306 339.092 343.312C339.212 343.318 339.306 343.326 339.374 343.335V344.656C339.319 344.64 339.22 344.623 339.079 344.605C338.937 344.583 338.795 344.572 338.654 344.572C338.328 344.572 338.037 344.642 337.781 344.78C337.529 344.916 337.329 345.105 337.181 345.348C337.034 345.588 336.96 345.862 336.96 346.17V350.5H335.579ZM142.134 371.643C141.448 371.643 140.857 371.488 140.361 371.177C139.869 370.863 139.49 370.431 139.225 369.88C138.961 369.329 138.828 368.698 138.828 367.987C138.828 367.267 138.964 366.631 139.235 366.08C139.506 365.526 139.887 365.094 140.38 364.783C140.872 364.472 141.452 364.317 142.12 364.317C142.659 364.317 143.139 364.417 143.56 364.617C143.982 364.814 144.322 365.091 144.581 365.448C144.842 365.805 144.998 366.222 145.047 366.699H143.703C143.63 366.366 143.46 366.08 143.196 365.84C142.934 365.6 142.583 365.48 142.143 365.48C141.758 365.48 141.421 365.582 141.132 365.785C140.846 365.985 140.623 366.271 140.463 366.643C140.303 367.013 140.223 367.45 140.223 367.955C140.223 368.472 140.301 368.918 140.458 369.293C140.615 369.669 140.837 369.96 141.123 370.166C141.412 370.372 141.752 370.475 142.143 370.475C142.405 370.475 142.642 370.427 142.854 370.332C143.069 370.234 143.25 370.094 143.394 369.912C143.542 369.73 143.645 369.512 143.703 369.256H145.047C144.998 369.715 144.848 370.124 144.599 370.484C144.35 370.844 144.016 371.128 143.597 371.334C143.182 371.54 142.694 371.643 142.134 371.643ZM150.885 368.559V364.409H152.27V371.5H150.913V370.272H150.839C150.676 370.651 150.414 370.966 150.054 371.218C149.697 371.468 149.252 371.592 148.72 371.592C148.264 371.592 147.861 371.492 147.51 371.292C147.162 371.089 146.888 370.789 146.688 370.392C146.491 369.995 146.393 369.504 146.393 368.919V364.409H147.773V368.753C147.773 369.236 147.907 369.621 148.175 369.907C148.443 370.194 148.79 370.337 149.218 370.337C149.477 370.337 149.734 370.272 149.989 370.143C150.248 370.013 150.462 369.818 150.631 369.556C150.803 369.295 150.888 368.962 150.885 368.559ZM153.994 371.5V364.409H155.329V365.536H155.402C155.532 365.154 155.759 364.854 156.086 364.635C156.415 364.414 156.787 364.303 157.203 364.303C157.289 364.303 157.391 364.306 157.508 364.312C157.628 364.318 157.721 364.326 157.789 364.335V365.656C157.734 365.64 157.635 365.623 157.494 365.605C157.352 365.583 157.211 365.572 157.069 365.572C156.743 365.572 156.452 365.642 156.196 365.78C155.944 365.916 155.744 366.105 155.596 366.348C155.449 366.588 155.375 366.862 155.375 367.17V371.5H153.994ZM158.854 371.5V364.409H160.188V365.536H160.262C160.391 365.154 160.619 364.854 160.945 364.635C161.274 364.414 161.647 364.303 162.062 364.303C162.148 364.303 162.25 364.306 162.367 364.312C162.487 364.318 162.581 364.326 162.648 364.335V365.656C162.593 365.64 162.495 365.623 162.353 365.605C162.211 365.583 162.07 365.572 161.928 365.572C161.602 365.572 161.311 365.642 161.056 365.78C160.803 365.916 160.603 366.105 160.456 366.348C160.308 366.588 160.234 366.862 160.234 367.17V371.5H158.854ZM166.515 371.643C165.817 371.643 165.215 371.494 164.71 371.195C164.208 370.894 163.821 370.471 163.547 369.926C163.276 369.378 163.141 368.736 163.141 368.001C163.141 367.274 163.276 366.634 163.547 366.08C163.821 365.526 164.202 365.094 164.692 364.783C165.184 364.472 165.76 364.317 166.418 364.317C166.818 364.317 167.206 364.383 167.582 364.515C167.957 364.648 168.294 364.855 168.593 365.138C168.891 365.422 169.127 365.789 169.299 366.242C169.471 366.691 169.557 367.237 169.557 367.881V368.37H163.921V367.336H168.205C168.205 366.973 168.131 366.651 167.983 366.371C167.835 366.088 167.628 365.865 167.36 365.702C167.095 365.539 166.784 365.457 166.427 365.457C166.04 365.457 165.701 365.552 165.412 365.743C165.126 365.931 164.904 366.177 164.747 366.482C164.593 366.783 164.516 367.111 164.516 367.465V368.273C164.516 368.747 164.599 369.15 164.766 369.483C164.935 369.815 165.17 370.069 165.472 370.244C165.773 370.417 166.126 370.503 166.529 370.503C166.791 370.503 167.029 370.466 167.245 370.392C167.46 370.315 167.646 370.201 167.803 370.05C167.96 369.9 168.08 369.713 168.163 369.492L169.47 369.727C169.365 370.112 169.177 370.449 168.906 370.738C168.639 371.025 168.302 371.248 167.895 371.408C167.492 371.565 167.032 371.643 166.515 371.643ZM172.339 367.29V371.5H170.959V364.409H172.284V365.563H172.372C172.535 365.188 172.79 364.886 173.138 364.658C173.489 364.431 173.93 364.317 174.463 364.317C174.946 364.317 175.369 364.418 175.732 364.621C176.096 364.821 176.377 365.12 176.577 365.517C176.777 365.914 176.877 366.405 176.877 366.99V371.5H175.497V367.156C175.497 366.642 175.363 366.24 175.095 365.951C174.828 365.659 174.46 365.512 173.992 365.512C173.672 365.512 173.387 365.582 173.138 365.72C172.892 365.859 172.696 366.062 172.552 366.33C172.41 366.594 172.339 366.914 172.339 367.29ZM181.908 364.409V365.517H178.035V364.409H181.908ZM179.074 362.71H180.454V369.418C180.454 369.686 180.494 369.887 180.574 370.023C180.654 370.155 180.757 370.246 180.884 370.295C181.013 370.341 181.153 370.364 181.304 370.364C181.415 370.364 181.511 370.357 181.595 370.341C181.678 370.326 181.742 370.314 181.788 370.304L182.038 371.445C181.958 371.475 181.844 371.506 181.696 371.537C181.548 371.571 181.364 371.589 181.142 371.592C180.779 371.598 180.44 371.534 180.127 371.398C179.813 371.263 179.559 371.054 179.365 370.771C179.171 370.487 179.074 370.132 179.074 369.704V362.71ZM186.616 374.159V364.409H187.964V365.559H188.079C188.159 365.411 188.275 365.24 188.425 365.046C188.576 364.852 188.786 364.683 189.053 364.538C189.321 364.391 189.675 364.317 190.115 364.317C190.688 364.317 191.198 364.461 191.648 364.751C192.097 365.04 192.449 365.457 192.705 366.002C192.963 366.547 193.093 367.202 193.093 367.968C193.093 368.735 192.965 369.392 192.71 369.94C192.454 370.484 192.103 370.904 191.657 371.2C191.211 371.492 190.701 371.638 190.129 371.638C189.698 371.638 189.346 371.566 189.072 371.422C188.801 371.277 188.589 371.108 188.435 370.914C188.281 370.72 188.162 370.547 188.079 370.397H187.996V374.159H186.616ZM187.968 367.955C187.968 368.453 188.041 368.89 188.185 369.266C188.33 369.641 188.539 369.935 188.813 370.147C189.087 370.357 189.423 370.461 189.82 370.461C190.232 370.461 190.577 370.352 190.854 370.134C191.131 369.912 191.34 369.612 191.482 369.233C191.626 368.855 191.699 368.429 191.699 367.955C191.699 367.487 191.628 367.067 191.486 366.694C191.348 366.322 191.138 366.028 190.858 365.812C190.581 365.597 190.235 365.489 189.82 365.489C189.42 365.489 189.081 365.592 188.804 365.799C188.53 366.005 188.322 366.293 188.181 366.662C188.039 367.031 187.968 367.462 187.968 367.955ZM197.496 371.643C196.831 371.643 196.251 371.491 195.756 371.186C195.26 370.881 194.875 370.455 194.602 369.907C194.328 369.359 194.191 368.719 194.191 367.987C194.191 367.251 194.328 366.608 194.602 366.057C194.875 365.506 195.26 365.078 195.756 364.774C196.251 364.469 196.831 364.317 197.496 364.317C198.161 364.317 198.741 364.469 199.237 364.774C199.732 365.078 200.117 365.506 200.391 366.057C200.665 366.608 200.802 367.251 200.802 367.987C200.802 368.719 200.665 369.359 200.391 369.907C200.117 370.455 199.732 370.881 199.237 371.186C198.741 371.491 198.161 371.643 197.496 371.643ZM197.501 370.484C197.932 370.484 198.289 370.371 198.572 370.143C198.855 369.915 199.064 369.612 199.2 369.233C199.338 368.855 199.407 368.438 199.407 367.982C199.407 367.53 199.338 367.114 199.2 366.736C199.064 366.354 198.855 366.048 198.572 365.817C198.289 365.586 197.932 365.471 197.501 365.471C197.067 365.471 196.707 365.586 196.42 365.817C196.137 366.048 195.926 366.354 195.788 366.736C195.653 367.114 195.585 367.53 195.585 367.982C195.585 368.438 195.653 368.855 195.788 369.233C195.926 369.612 196.137 369.915 196.42 370.143C196.707 370.371 197.067 370.484 197.501 370.484ZM207.526 366.14L206.275 366.362C206.222 366.202 206.139 366.049 206.025 365.905C205.915 365.76 205.764 365.642 205.573 365.549C205.382 365.457 205.144 365.411 204.857 365.411C204.467 365.411 204.14 365.499 203.879 365.674C203.617 365.846 203.486 366.069 203.486 366.343C203.486 366.58 203.574 366.771 203.75 366.916C203.925 367.06 204.208 367.179 204.599 367.271L205.725 367.53C206.378 367.681 206.864 367.913 207.184 368.227C207.504 368.541 207.664 368.949 207.664 369.45C207.664 369.875 207.541 370.254 207.295 370.586C207.052 370.915 206.712 371.174 206.275 371.362C205.841 371.549 205.338 371.643 204.765 371.643C203.971 371.643 203.323 371.474 202.822 371.135C202.32 370.794 202.012 370.309 201.898 369.681L203.232 369.478C203.316 369.826 203.486 370.089 203.745 370.267C204.003 370.443 204.34 370.531 204.756 370.531C205.208 370.531 205.57 370.437 205.841 370.249C206.112 370.058 206.247 369.826 206.247 369.552C206.247 369.33 206.164 369.144 205.998 368.993C205.835 368.842 205.584 368.729 205.245 368.652L204.045 368.388C203.383 368.238 202.894 367.998 202.577 367.668C202.263 367.339 202.106 366.922 202.106 366.417C202.106 365.999 202.223 365.632 202.457 365.319C202.691 365.005 203.014 364.76 203.426 364.585C203.839 364.406 204.311 364.317 204.844 364.317C205.61 364.317 206.213 364.483 206.653 364.815C207.093 365.145 207.384 365.586 207.526 366.14ZM209.052 371.5V364.409H210.432V371.5H209.052ZM209.749 363.315C209.509 363.315 209.303 363.235 209.13 363.075C208.961 362.912 208.877 362.718 208.877 362.493C208.877 362.266 208.961 362.072 209.13 361.912C209.303 361.748 209.509 361.667 209.749 361.667C209.989 361.667 210.194 361.748 210.363 361.912C210.535 362.072 210.622 362.266 210.622 362.493C210.622 362.718 210.535 362.912 210.363 363.075C210.194 363.235 209.989 363.315 209.749 363.315ZM215.469 364.409V365.517H211.596V364.409H215.469ZM212.635 362.71H214.015V369.418C214.015 369.686 214.055 369.887 214.135 370.023C214.215 370.155 214.318 370.246 214.444 370.295C214.574 370.341 214.714 370.364 214.865 370.364C214.975 370.364 215.072 370.357 215.155 370.341C215.238 370.326 215.303 370.314 215.349 370.304L215.599 371.445C215.519 371.475 215.405 371.506 215.257 371.537C215.109 371.571 214.925 371.589 214.703 371.592C214.34 371.598 214.001 371.534 213.687 371.398C213.373 371.263 213.12 371.054 212.926 370.771C212.732 370.487 212.635 370.132 212.635 369.704V362.71ZM216.866 371.5V364.409H218.247V371.5H216.866ZM217.563 363.315C217.323 363.315 217.117 363.235 216.945 363.075C216.775 362.912 216.691 362.718 216.691 362.493C216.691 362.266 216.775 362.072 216.945 361.912C217.117 361.748 217.323 361.667 217.563 361.667C217.803 361.667 218.008 361.748 218.177 361.912C218.35 362.072 218.436 362.266 218.436 362.493C218.436 362.718 218.35 362.912 218.177 363.075C218.008 363.235 217.803 363.315 217.563 363.315ZM222.96 371.643C222.296 371.643 221.715 371.491 221.22 371.186C220.724 370.881 220.34 370.455 220.066 369.907C219.792 369.359 219.655 368.719 219.655 367.987C219.655 367.251 219.792 366.608 220.066 366.057C220.34 365.506 220.724 365.078 221.22 364.774C221.715 364.469 222.296 364.317 222.96 364.317C223.625 364.317 224.205 364.469 224.701 364.774C225.196 365.078 225.581 365.506 225.855 366.057C226.129 366.608 226.266 367.251 226.266 367.987C226.266 368.719 226.129 369.359 225.855 369.907C225.581 370.455 225.196 370.881 224.701 371.186C224.205 371.491 223.625 371.643 222.96 371.643ZM222.965 370.484C223.396 370.484 223.753 370.371 224.036 370.143C224.319 369.915 224.528 369.612 224.664 369.233C224.802 368.855 224.872 368.438 224.872 367.982C224.872 367.53 224.802 367.114 224.664 366.736C224.528 366.354 224.319 366.048 224.036 365.817C223.753 365.586 223.396 365.471 222.965 365.471C222.531 365.471 222.171 365.586 221.885 365.817C221.602 366.048 221.391 366.354 221.252 366.736C221.117 367.114 221.049 367.53 221.049 367.982C221.049 368.438 221.117 368.855 221.252 369.233C221.391 369.612 221.602 369.915 221.885 370.143C222.171 370.371 222.531 370.484 222.965 370.484ZM229.057 367.29V371.5H227.677V364.409H229.001V365.563H229.089C229.252 365.188 229.508 364.886 229.855 364.658C230.206 364.431 230.648 364.317 231.18 364.317C231.664 364.317 232.087 364.418 232.45 364.621C232.813 364.821 233.095 365.12 233.295 365.517C233.495 365.914 233.595 366.405 233.595 366.99V371.5H232.215V367.156C232.215 366.642 232.081 366.24 231.813 365.951C231.545 365.659 231.177 365.512 230.71 365.512C230.389 365.512 230.105 365.582 229.855 365.72C229.609 365.859 229.414 366.062 229.269 366.33C229.128 366.594 229.057 366.914 229.057 367.29ZM238.626 371.5V364.409H240.007V371.5H238.626ZM239.324 363.315C239.083 363.315 238.877 363.235 238.705 363.075C238.536 362.912 238.451 362.718 238.451 362.493C238.451 362.266 238.536 362.072 238.705 361.912C238.877 361.748 239.083 361.667 239.324 361.667C239.564 361.667 239.768 361.748 239.938 361.912C240.11 362.072 240.196 362.266 240.196 362.493C240.196 362.718 240.11 362.912 239.938 363.075C239.768 363.235 239.564 363.315 239.324 363.315ZM243.114 367.29V371.5H241.734V364.409H243.059V365.563H243.146C243.31 365.188 243.565 364.886 243.913 364.658C244.264 364.431 244.705 364.317 245.238 364.317C245.721 364.317 246.144 364.418 246.507 364.621C246.87 364.821 247.152 365.12 247.352 365.517C247.552 365.914 247.652 366.405 247.652 366.99V371.5H246.272V367.156C246.272 366.642 246.138 366.24 245.87 365.951C245.602 365.659 245.235 365.512 244.767 365.512C244.447 365.512 244.162 365.582 243.913 365.72C243.667 365.859 243.471 366.062 243.326 366.33C243.185 366.594 243.114 366.914 243.114 367.29ZM255.994 364.409V365.517H252.121V364.409H255.994ZM253.159 362.71H254.54V369.418C254.54 369.686 254.58 369.887 254.66 370.023C254.74 370.155 254.843 370.246 254.969 370.295C255.098 370.341 255.238 370.364 255.389 370.364C255.5 370.364 255.597 370.357 255.68 370.341C255.763 370.326 255.828 370.314 255.874 370.304L256.123 371.445C256.043 371.475 255.929 371.506 255.781 371.537C255.634 371.571 255.449 371.589 255.227 371.592C254.864 371.598 254.526 371.534 254.212 371.398C253.898 371.263 253.644 371.054 253.45 370.771C253.256 370.487 253.159 370.132 253.159 369.704V362.71ZM258.923 367.29V371.5H257.543V362.045H258.905V365.563H258.993C259.159 365.182 259.413 364.878 259.754 364.654C260.096 364.429 260.542 364.317 261.093 364.317C261.579 364.317 262.004 364.417 262.367 364.617C262.733 364.817 263.017 365.115 263.217 365.512C263.42 365.906 263.521 366.399 263.521 366.99V371.5H262.141V367.156C262.141 366.636 262.007 366.233 261.739 365.946C261.472 365.657 261.099 365.512 260.622 365.512C260.296 365.512 260.004 365.582 259.745 365.72C259.49 365.859 259.288 366.062 259.14 366.33C258.996 366.594 258.923 366.914 258.923 367.29ZM268.289 371.643C267.591 371.643 266.989 371.494 266.484 371.195C265.983 370.894 265.595 370.471 265.321 369.926C265.05 369.378 264.915 368.736 264.915 368.001C264.915 367.274 265.05 366.634 265.321 366.08C265.595 365.526 265.977 365.094 266.466 364.783C266.958 364.472 267.534 364.317 268.192 364.317C268.593 364.317 268.98 364.383 269.356 364.515C269.731 364.648 270.068 364.855 270.367 365.138C270.665 365.422 270.901 365.789 271.073 366.242C271.245 366.691 271.332 367.237 271.332 367.881V368.37H265.695V367.336H269.979C269.979 366.973 269.905 366.651 269.757 366.371C269.61 366.088 269.402 365.865 269.134 365.702C268.87 365.539 268.559 365.457 268.202 365.457C267.814 365.457 267.475 365.552 267.186 365.743C266.9 365.931 266.678 366.177 266.521 366.482C266.367 366.783 266.29 367.111 266.29 367.465V368.273C266.29 368.747 266.374 369.15 266.54 369.483C266.709 369.815 266.944 370.069 267.246 370.244C267.548 370.417 267.9 370.503 268.303 370.503C268.565 370.503 268.803 370.466 269.019 370.392C269.234 370.315 269.42 370.201 269.577 370.05C269.734 369.9 269.854 369.713 269.937 369.492L271.244 369.727C271.139 370.112 270.952 370.449 270.681 370.738C270.413 371.025 270.076 371.248 269.67 371.408C269.267 371.565 268.806 371.643 268.289 371.643ZM276.154 371.5V362.045H277.535V365.559H277.618C277.698 365.411 277.813 365.24 277.964 365.046C278.115 364.852 278.324 364.683 278.592 364.538C278.86 364.391 279.214 364.317 279.654 364.317C280.226 364.317 280.737 364.461 281.186 364.751C281.636 365.04 281.988 365.457 282.244 366.002C282.502 366.547 282.631 367.202 282.631 367.968C282.631 368.735 282.504 369.392 282.248 369.94C281.993 370.484 281.642 370.904 281.196 371.2C280.749 371.492 280.24 371.638 279.668 371.638C279.237 371.638 278.884 371.566 278.61 371.422C278.34 371.277 278.127 371.108 277.973 370.914C277.819 370.72 277.701 370.547 277.618 370.397H277.502V371.5H276.154ZM277.507 367.955C277.507 368.453 277.579 368.89 277.724 369.266C277.869 369.641 278.078 369.935 278.352 370.147C278.626 370.357 278.961 370.461 279.358 370.461C279.771 370.461 280.115 370.352 280.392 370.134C280.669 369.912 280.879 369.612 281.02 369.233C281.165 368.855 281.237 368.429 281.237 367.955C281.237 367.487 281.166 367.067 281.025 366.694C280.886 366.322 280.677 366.028 280.397 365.812C280.12 365.597 279.774 365.489 279.358 365.489C278.958 365.489 278.62 365.592 278.343 365.799C278.069 366.005 277.861 366.293 277.719 366.662C277.578 367.031 277.507 367.462 277.507 367.955ZM286.115 371.657C285.666 371.657 285.259 371.574 284.896 371.408C284.533 371.238 284.245 370.994 284.033 370.674C283.824 370.354 283.719 369.961 283.719 369.496C283.719 369.096 283.796 368.767 283.95 368.509C284.104 368.25 284.311 368.045 284.573 367.895C284.835 367.744 285.127 367.63 285.45 367.553C285.773 367.476 286.103 367.417 286.438 367.377C286.863 367.328 287.207 367.288 287.472 367.257C287.737 367.224 287.929 367.17 288.049 367.096C288.169 367.022 288.229 366.902 288.229 366.736V366.703C288.229 366.3 288.115 365.988 287.888 365.766C287.663 365.545 287.327 365.434 286.881 365.434C286.416 365.434 286.05 365.537 285.782 365.743C285.518 365.946 285.335 366.173 285.233 366.422L283.936 366.126C284.09 365.696 284.314 365.348 284.61 365.083C284.908 364.815 285.252 364.621 285.639 364.501C286.027 364.378 286.435 364.317 286.863 364.317C287.146 364.317 287.446 364.351 287.763 364.418C288.083 364.483 288.382 364.603 288.659 364.778C288.939 364.954 289.168 365.205 289.346 365.531C289.525 365.854 289.614 366.274 289.614 366.791V371.5H288.266V370.531H288.211C288.122 370.709 287.988 370.884 287.809 371.057C287.631 371.229 287.401 371.372 287.121 371.486C286.841 371.6 286.506 371.657 286.115 371.657ZM286.415 370.549C286.797 370.549 287.123 370.474 287.394 370.323C287.668 370.172 287.875 369.975 288.017 369.732C288.162 369.486 288.234 369.223 288.234 368.942V368.028C288.185 368.078 288.089 368.124 287.948 368.167C287.809 368.207 287.651 368.242 287.472 368.273C287.294 368.301 287.12 368.327 286.95 368.352C286.781 368.373 286.64 368.392 286.526 368.407C286.258 368.441 286.013 368.498 285.792 368.578C285.573 368.658 285.398 368.773 285.265 368.924C285.136 369.072 285.072 369.269 285.072 369.515C285.072 369.857 285.198 370.115 285.45 370.29C285.702 370.463 286.024 370.549 286.415 370.549ZM292.703 367.29V371.5H291.323V364.409H292.648V365.563H292.735C292.898 365.188 293.154 364.886 293.502 364.658C293.853 364.431 294.294 364.317 294.827 364.317C295.31 364.317 295.733 364.418 296.096 364.621C296.459 364.821 296.741 365.12 296.941 365.517C297.141 365.914 297.241 366.405 297.241 366.99V371.5H295.861V367.156C295.861 366.642 295.727 366.24 295.459 365.951C295.191 365.659 294.824 365.512 294.356 365.512C294.036 365.512 293.751 365.582 293.502 365.72C293.255 365.859 293.06 366.062 292.915 366.33C292.774 366.594 292.703 366.914 292.703 367.29ZM300.232 369.095L300.223 367.41H300.463L303.288 364.409H304.941L301.718 367.825H301.501L300.232 369.095ZM298.962 371.5V362.045H300.343V371.5H298.962ZM303.44 371.5L300.901 368.13L301.852 367.165L305.134 371.5H303.44ZM306.069 371.5V364.409H307.449V371.5H306.069ZM306.766 363.315C306.526 363.315 306.319 363.235 306.147 363.075C305.978 362.912 305.893 362.718 305.893 362.493C305.893 362.266 305.978 362.072 306.147 361.912C306.319 361.748 306.526 361.667 306.766 361.667C307.006 361.667 307.21 361.748 307.38 361.912C307.552 362.072 307.638 362.266 307.638 362.493C307.638 362.718 307.552 362.912 307.38 363.075C307.21 363.235 307.006 363.315 306.766 363.315ZM310.556 367.29V371.5H309.176V364.409H310.501V365.563H310.588C310.752 365.188 311.007 364.886 311.355 364.658C311.706 364.431 312.147 364.317 312.68 364.317C313.163 364.317 313.586 364.418 313.949 364.621C314.312 364.821 314.594 365.12 314.794 365.517C314.994 365.914 315.094 366.405 315.094 366.99V371.5H313.714V367.156C313.714 366.642 313.58 366.24 313.312 365.951C313.044 365.659 312.677 365.512 312.209 365.512C311.889 365.512 311.604 365.582 311.355 365.72C311.109 365.859 310.913 366.062 310.769 366.33C310.627 366.594 310.556 366.914 310.556 367.29ZM319.788 374.307C319.225 374.307 318.74 374.233 318.334 374.085C317.931 373.938 317.602 373.742 317.346 373.499C317.091 373.256 316.9 372.99 316.774 372.7L317.96 372.211C318.043 372.346 318.154 372.489 318.293 372.64C318.434 372.794 318.625 372.925 318.865 373.033C319.108 373.14 319.421 373.194 319.802 373.194C320.325 373.194 320.758 373.067 321.099 372.811C321.441 372.559 321.612 372.156 321.612 371.602V370.207H321.524C321.441 370.358 321.321 370.526 321.164 370.711C321.01 370.895 320.798 371.055 320.527 371.191C320.256 371.326 319.904 371.394 319.47 371.394C318.91 371.394 318.405 371.263 317.956 371.001C317.509 370.737 317.155 370.347 316.894 369.833C316.635 369.316 316.506 368.681 316.506 367.927C316.506 367.173 316.634 366.527 316.889 365.988C317.148 365.449 317.502 365.037 317.951 364.751C318.4 364.461 318.91 364.317 319.479 364.317C319.919 364.317 320.275 364.391 320.545 364.538C320.816 364.683 321.027 364.852 321.178 365.046C321.332 365.24 321.45 365.411 321.533 365.559H321.635V364.409H322.988V371.657C322.988 372.266 322.846 372.766 322.563 373.157C322.28 373.548 321.897 373.837 321.413 374.025C320.933 374.213 320.392 374.307 319.788 374.307ZM319.775 370.249C320.172 370.249 320.507 370.157 320.781 369.972C321.058 369.784 321.267 369.516 321.409 369.169C321.553 368.818 321.626 368.398 321.626 367.908C321.626 367.431 321.555 367.011 321.413 366.648C321.272 366.285 321.064 366.002 320.79 365.799C320.516 365.592 320.178 365.489 319.775 365.489C319.359 365.489 319.013 365.597 318.736 365.812C318.459 366.025 318.25 366.314 318.108 366.68C317.969 367.047 317.9 367.456 317.9 367.908C317.9 368.373 317.971 368.781 318.113 369.132C318.254 369.483 318.463 369.757 318.74 369.953C319.021 370.15 319.365 370.249 319.775 370.249ZM145.28 387.14L144.029 387.362C143.976 387.202 143.893 387.049 143.779 386.905C143.669 386.76 143.518 386.642 143.327 386.549C143.136 386.457 142.898 386.411 142.611 386.411C142.22 386.411 141.894 386.499 141.633 386.674C141.371 386.846 141.24 387.069 141.24 387.343C141.24 387.58 141.328 387.771 141.503 387.916C141.679 388.06 141.962 388.179 142.353 388.271L143.479 388.53C144.132 388.681 144.618 388.913 144.938 389.227C145.258 389.541 145.418 389.949 145.418 390.45C145.418 390.875 145.295 391.254 145.049 391.586C144.806 391.915 144.466 392.174 144.029 392.362C143.595 392.549 143.091 392.643 142.519 392.643C141.725 392.643 141.077 392.474 140.575 392.135C140.074 391.794 139.766 391.309 139.652 390.681L140.986 390.478C141.069 390.826 141.24 391.089 141.499 391.267C141.757 391.443 142.094 391.531 142.51 391.531C142.962 391.531 143.324 391.437 143.595 391.249C143.865 391.058 144.001 390.826 144.001 390.552C144.001 390.33 143.918 390.144 143.752 389.993C143.589 389.842 143.338 389.729 142.999 389.652L141.799 389.388C141.137 389.238 140.648 388.998 140.331 388.668C140.017 388.339 139.86 387.922 139.86 387.417C139.86 386.999 139.977 386.632 140.211 386.319C140.445 386.005 140.768 385.76 141.18 385.585C141.593 385.406 142.065 385.317 142.598 385.317C143.364 385.317 143.967 385.483 144.407 385.815C144.847 386.145 145.138 386.586 145.28 387.14ZM147.678 395.159C147.472 395.159 147.284 395.142 147.115 395.108C146.946 395.078 146.82 395.044 146.737 395.007L147.069 393.876C147.321 393.943 147.546 393.973 147.743 393.963C147.94 393.954 148.114 393.88 148.265 393.742C148.419 393.603 148.554 393.377 148.671 393.063L148.842 392.592L146.247 385.409H147.725L149.52 390.912H149.594L151.39 385.409H152.872L149.95 393.446C149.814 393.816 149.642 394.128 149.433 394.384C149.223 394.642 148.974 394.836 148.685 394.965C148.395 395.094 148.06 395.159 147.678 395.159ZM159.353 387.14L158.102 387.362C158.049 387.202 157.966 387.049 157.852 386.905C157.742 386.76 157.591 386.642 157.4 386.549C157.209 386.457 156.971 386.411 156.684 386.411C156.293 386.411 155.967 386.499 155.706 386.674C155.444 386.846 155.313 387.069 155.313 387.343C155.313 387.58 155.401 387.771 155.576 387.916C155.752 388.06 156.035 388.179 156.426 388.271L157.552 388.53C158.205 388.681 158.691 388.913 159.011 389.227C159.331 389.541 159.491 389.949 159.491 390.45C159.491 390.875 159.368 391.254 159.122 391.586C158.879 391.915 158.539 392.174 158.102 392.362C157.668 392.549 157.164 392.643 156.592 392.643C155.798 392.643 155.15 392.474 154.648 392.135C154.147 391.794 153.839 391.309 153.725 390.681L155.059 390.478C155.142 390.826 155.313 391.089 155.572 391.267C155.83 391.443 156.167 391.531 156.583 391.531C157.035 391.531 157.397 391.437 157.668 391.249C157.939 391.058 158.074 390.826 158.074 390.552C158.074 390.33 157.991 390.144 157.825 389.993C157.662 389.842 157.411 389.729 157.072 389.652L155.872 389.388C155.21 389.238 154.721 388.998 154.404 388.668C154.09 388.339 153.933 387.922 153.933 387.417C153.933 386.999 154.05 386.632 154.284 386.319C154.518 386.005 154.841 385.76 155.253 385.585C155.666 385.406 156.138 385.317 156.671 385.317C157.437 385.317 158.04 385.483 158.48 385.815C158.92 386.145 159.211 386.586 159.353 387.14ZM164.189 385.409V386.517H160.316V385.409H164.189ZM161.354 383.71H162.735V390.418C162.735 390.686 162.775 390.887 162.855 391.023C162.935 391.155 163.038 391.246 163.164 391.295C163.293 391.341 163.433 391.364 163.584 391.364C163.695 391.364 163.792 391.357 163.875 391.341C163.958 391.326 164.023 391.314 164.069 391.304L164.318 392.445C164.238 392.475 164.124 392.506 163.977 392.537C163.829 392.571 163.644 392.589 163.423 392.592C163.059 392.598 162.721 392.534 162.407 392.398C162.093 392.263 161.839 392.054 161.645 391.771C161.451 391.487 161.354 391.132 161.354 390.704V383.71ZM168.566 392.643C167.867 392.643 167.265 392.494 166.761 392.195C166.259 391.894 165.871 391.471 165.597 390.926C165.326 390.378 165.191 389.736 165.191 389.001C165.191 388.274 165.326 387.634 165.597 387.08C165.871 386.526 166.253 386.094 166.742 385.783C167.235 385.472 167.81 385.317 168.469 385.317C168.869 385.317 169.257 385.383 169.632 385.515C170.008 385.648 170.345 385.855 170.643 386.138C170.942 386.422 171.177 386.789 171.349 387.242C171.522 387.691 171.608 388.237 171.608 388.881V389.37H165.971V388.336H170.255C170.255 387.973 170.181 387.651 170.034 387.371C169.886 387.088 169.678 386.865 169.411 386.702C169.146 386.539 168.835 386.457 168.478 386.457C168.09 386.457 167.752 386.552 167.462 386.743C167.176 386.931 166.955 387.177 166.798 387.482C166.644 387.783 166.567 388.111 166.567 388.465V389.273C166.567 389.747 166.65 390.15 166.816 390.483C166.985 390.815 167.221 391.069 167.522 391.244C167.824 391.417 168.176 391.503 168.58 391.503C168.841 391.503 169.08 391.466 169.295 391.392C169.511 391.315 169.697 391.201 169.854 391.05C170.011 390.9 170.131 390.713 170.214 390.492L171.52 390.727C171.416 391.112 171.228 391.449 170.957 391.738C170.689 392.025 170.352 392.248 169.946 392.408C169.543 392.565 169.083 392.643 168.566 392.643ZM173.009 392.5V385.409H174.334V386.563H174.422C174.57 386.172 174.811 385.868 175.147 385.649C175.482 385.428 175.884 385.317 176.352 385.317C176.826 385.317 177.223 385.428 177.543 385.649C177.866 385.871 178.105 386.175 178.258 386.563H178.332C178.502 386.185 178.771 385.883 179.14 385.658C179.509 385.431 179.95 385.317 180.46 385.317C181.104 385.317 181.628 385.518 182.035 385.922C182.444 386.325 182.649 386.933 182.649 387.745V392.5H181.268V387.874C181.268 387.394 181.138 387.046 180.876 386.831C180.614 386.616 180.302 386.508 179.939 386.508C179.489 386.508 179.14 386.646 178.891 386.923C178.642 387.197 178.517 387.55 178.517 387.98V392.5H177.141V387.787C177.141 387.402 177.021 387.093 176.781 386.859C176.541 386.625 176.229 386.508 175.844 386.508C175.582 386.508 175.341 386.577 175.119 386.716C174.901 386.851 174.724 387.04 174.588 387.283C174.456 387.527 174.39 387.808 174.39 388.128V392.5H173.009ZM186.165 391.207L186.095 391.711C186.049 392.08 185.971 392.465 185.86 392.865C185.752 393.268 185.64 393.642 185.523 393.987C185.409 394.331 185.315 394.605 185.241 394.808H184.263C184.303 394.617 184.358 394.359 184.429 394.033C184.5 393.71 184.569 393.348 184.636 392.948C184.704 392.548 184.755 392.14 184.789 391.724L184.835 391.207H186.165ZM192.679 392.5L190.593 385.409H192.019L193.409 390.616H193.478L194.872 385.409H196.299L197.683 390.593H197.753L199.133 385.409H200.56L198.478 392.5H197.069L195.629 387.38H195.523L194.083 392.5H192.679ZM204.58 392.643C203.881 392.643 203.279 392.494 202.775 392.195C202.273 391.894 201.885 391.471 201.611 390.926C201.341 390.378 201.205 389.736 201.205 389.001C201.205 388.274 201.341 387.634 201.611 387.08C201.885 386.526 202.267 386.094 202.756 385.783C203.249 385.472 203.824 385.317 204.483 385.317C204.883 385.317 205.271 385.383 205.646 385.515C206.022 385.648 206.359 385.855 206.657 386.138C206.956 386.422 207.191 386.789 207.363 387.242C207.536 387.691 207.622 388.237 207.622 388.881V389.37H201.985V388.336H206.269C206.269 387.973 206.196 387.651 206.048 387.371C205.9 387.088 205.692 386.865 205.425 386.702C205.16 386.539 204.849 386.457 204.492 386.457C204.104 386.457 203.766 386.552 203.476 386.743C203.19 386.931 202.969 387.177 202.812 387.482C202.658 387.783 202.581 388.111 202.581 388.465V389.273C202.581 389.747 202.664 390.15 202.83 390.483C202.999 390.815 203.235 391.069 203.536 391.244C203.838 391.417 204.19 391.503 204.594 391.503C204.855 391.503 205.094 391.466 205.309 391.392C205.525 391.315 205.711 391.201 205.868 391.05C206.025 390.9 206.145 390.713 206.228 390.492L207.534 390.727C207.43 391.112 207.242 391.449 206.971 391.738C206.703 392.025 206.366 392.248 205.96 392.408C205.557 392.565 205.097 392.643 204.58 392.643ZM213.871 392.5L211.785 385.409H213.211L214.601 390.616H214.67L216.064 385.409H217.491L218.876 390.593H218.945L220.325 385.409H221.752L219.67 392.5H218.262L216.821 387.38H216.715L215.275 392.5H213.871ZM225.703 392.643C225.038 392.643 224.458 392.491 223.962 392.186C223.467 391.881 223.082 391.455 222.808 390.907C222.534 390.359 222.397 389.719 222.397 388.987C222.397 388.251 222.534 387.608 222.808 387.057C223.082 386.506 223.467 386.078 223.962 385.774C224.458 385.469 225.038 385.317 225.703 385.317C226.367 385.317 226.947 385.469 227.443 385.774C227.938 386.078 228.323 386.506 228.597 387.057C228.871 387.608 229.008 388.251 229.008 388.987C229.008 389.719 228.871 390.359 228.597 390.907C228.323 391.455 227.938 391.881 227.443 392.186C226.947 392.491 226.367 392.643 225.703 392.643ZM225.707 391.484C226.138 391.484 226.495 391.371 226.778 391.143C227.061 390.915 227.271 390.612 227.406 390.233C227.545 389.855 227.614 389.438 227.614 388.982C227.614 388.53 227.545 388.114 227.406 387.736C227.271 387.354 227.061 387.048 226.778 386.817C226.495 386.586 226.138 386.471 225.707 386.471C225.273 386.471 224.913 386.586 224.627 386.817C224.344 387.048 224.133 387.354 223.994 387.736C223.859 388.114 223.791 388.53 223.791 388.982C223.791 389.438 223.859 389.855 223.994 390.233C224.133 390.612 224.344 390.915 224.627 391.143C224.913 391.371 225.273 391.484 225.707 391.484ZM230.419 392.5V385.409H231.753V386.536H231.827C231.956 386.154 232.184 385.854 232.51 385.635C232.839 385.414 233.212 385.303 233.627 385.303C233.713 385.303 233.815 385.306 233.932 385.312C234.052 385.318 234.146 385.326 234.213 385.335V386.656C234.158 386.64 234.06 386.623 233.918 386.605C233.776 386.583 233.635 386.572 233.493 386.572C233.167 386.572 232.876 386.642 232.621 386.78C232.368 386.916 232.168 387.105 232.021 387.348C231.873 387.588 231.799 387.862 231.799 388.17V392.5H230.419ZM236.547 390.095L236.538 388.41H236.778L239.604 385.409H241.256L238.034 388.825H237.817L236.547 390.095ZM235.278 392.5V383.045H236.658V392.5H235.278ZM239.756 392.5L237.217 389.13L238.168 388.165L241.45 392.5H239.756ZM248.682 392.643C248.017 392.643 247.437 392.491 246.941 392.186C246.446 391.881 246.061 391.455 245.787 390.907C245.513 390.359 245.376 389.719 245.376 388.987C245.376 388.251 245.513 387.608 245.787 387.057C246.061 386.506 246.446 386.078 246.941 385.774C247.437 385.469 248.017 385.317 248.682 385.317C249.346 385.317 249.926 385.469 250.422 385.774C250.917 386.078 251.302 386.506 251.576 387.057C251.85 387.608 251.987 388.251 251.987 388.987C251.987 389.719 251.85 390.359 251.576 390.907C251.302 391.455 250.917 391.881 250.422 392.186C249.926 392.491 249.346 392.643 248.682 392.643ZM248.686 391.484C249.117 391.484 249.474 391.371 249.757 391.143C250.04 390.915 250.25 390.612 250.385 390.233C250.524 389.855 250.593 389.438 250.593 388.982C250.593 388.53 250.524 388.114 250.385 387.736C250.25 387.354 250.04 387.048 249.757 386.817C249.474 386.586 249.117 386.471 248.686 386.471C248.252 386.471 247.892 386.586 247.606 386.817C247.323 387.048 247.112 387.354 246.973 387.736C246.838 388.114 246.77 388.53 246.77 388.982C246.77 389.438 246.838 389.855 246.973 390.233C247.112 390.612 247.323 390.915 247.606 391.143C247.892 391.371 248.252 391.484 248.686 391.484ZM254.778 388.29V392.5H253.398V385.409H254.723V386.563H254.81C254.973 386.188 255.229 385.886 255.577 385.658C255.928 385.431 256.369 385.317 256.902 385.317C257.385 385.317 257.808 385.418 258.171 385.621C258.534 385.821 258.816 386.12 259.016 386.517C259.216 386.914 259.316 387.405 259.316 387.99V392.5H257.936V388.156C257.936 387.642 257.802 387.24 257.534 386.951C257.266 386.659 256.899 386.512 256.431 386.512C256.111 386.512 255.826 386.582 255.577 386.72C255.33 386.859 255.135 387.062 254.99 387.33C254.849 387.594 254.778 387.914 254.778 388.29ZM267.404 392.643C266.705 392.643 266.103 392.494 265.599 392.195C265.097 391.894 264.709 391.471 264.435 390.926C264.165 390.378 264.029 389.736 264.029 389.001C264.029 388.274 264.165 387.634 264.435 387.08C264.709 386.526 265.091 386.094 265.58 385.783C266.073 385.472 266.648 385.317 267.307 385.317C267.707 385.317 268.095 385.383 268.47 385.515C268.846 385.648 269.183 385.855 269.481 386.138C269.78 386.422 270.015 386.789 270.188 387.242C270.36 387.691 270.446 388.237 270.446 388.881V389.37H264.809V388.336H269.093C269.093 387.973 269.02 387.651 268.872 387.371C268.724 387.088 268.516 386.865 268.249 386.702C267.984 386.539 267.673 386.457 267.316 386.457C266.928 386.457 266.59 386.552 266.3 386.743C266.014 386.931 265.793 387.177 265.636 387.482C265.482 387.783 265.405 388.111 265.405 388.465V389.273C265.405 389.747 265.488 390.15 265.654 390.483C265.823 390.815 266.059 391.069 266.36 391.244C266.662 391.417 267.014 391.503 267.418 391.503C267.679 391.503 267.918 391.466 268.133 391.392C268.349 391.315 268.535 391.201 268.692 391.05C268.849 390.9 268.969 390.713 269.052 390.492L270.358 390.727C270.254 391.112 270.066 391.449 269.795 391.738C269.527 392.025 269.19 392.248 268.784 392.408C268.381 392.565 267.921 392.643 267.404 392.643ZM273.911 392.657C273.462 392.657 273.056 392.574 272.692 392.408C272.329 392.238 272.041 391.994 271.829 391.674C271.62 391.354 271.515 390.961 271.515 390.496C271.515 390.096 271.592 389.767 271.746 389.509C271.9 389.25 272.108 389.045 272.369 388.895C272.631 388.744 272.923 388.63 273.246 388.553C273.57 388.476 273.899 388.417 274.234 388.377C274.659 388.328 275.004 388.288 275.268 388.257C275.533 388.224 275.725 388.17 275.845 388.096C275.965 388.022 276.025 387.902 276.025 387.736V387.703C276.025 387.3 275.912 386.988 275.684 386.766C275.459 386.545 275.124 386.434 274.677 386.434C274.213 386.434 273.846 386.537 273.579 386.743C273.314 386.946 273.131 387.173 273.029 387.422L271.732 387.126C271.886 386.696 272.111 386.348 272.406 386.083C272.705 385.815 273.048 385.621 273.436 385.501C273.823 385.378 274.231 385.317 274.659 385.317C274.942 385.317 275.242 385.351 275.559 385.418C275.879 385.483 276.178 385.603 276.455 385.778C276.735 385.954 276.964 386.205 277.143 386.531C277.321 386.854 277.41 387.274 277.41 387.791V392.5H276.062V391.531H276.007C275.918 391.709 275.784 391.884 275.605 392.057C275.427 392.229 275.198 392.372 274.918 392.486C274.637 392.6 274.302 392.657 273.911 392.657ZM274.211 391.549C274.593 391.549 274.919 391.474 275.19 391.323C275.464 391.172 275.672 390.975 275.813 390.732C275.958 390.486 276.03 390.223 276.03 389.942V389.028C275.981 389.078 275.885 389.124 275.744 389.167C275.605 389.207 275.447 389.242 275.268 389.273C275.09 389.301 274.916 389.327 274.747 389.352C274.577 389.373 274.436 389.392 274.322 389.407C274.054 389.441 273.81 389.498 273.588 389.578C273.369 389.658 273.194 389.773 273.062 389.924C272.932 390.072 272.868 390.269 272.868 390.515C272.868 390.857 272.994 391.115 273.246 391.29C273.499 391.463 273.82 391.549 274.211 391.549ZM282.106 392.643C281.419 392.643 280.829 392.488 280.333 392.177C279.841 391.863 279.462 391.431 279.197 390.88C278.933 390.329 278.8 389.698 278.8 388.987C278.8 388.267 278.936 387.631 279.207 387.08C279.477 386.526 279.859 386.094 280.352 385.783C280.844 385.472 281.424 385.317 282.092 385.317C282.631 385.317 283.111 385.417 283.532 385.617C283.954 385.814 284.294 386.091 284.553 386.448C284.814 386.805 284.97 387.222 285.019 387.699H283.675C283.602 387.366 283.432 387.08 283.168 386.84C282.906 386.6 282.555 386.48 282.115 386.48C281.73 386.48 281.393 386.582 281.104 386.785C280.818 386.985 280.595 387.271 280.435 387.643C280.275 388.013 280.195 388.45 280.195 388.955C280.195 389.472 280.273 389.918 280.43 390.293C280.587 390.669 280.809 390.96 281.095 391.166C281.384 391.372 281.724 391.475 282.115 391.475C282.377 391.475 282.614 391.427 282.826 391.332C283.041 391.234 283.221 391.094 283.366 390.912C283.514 390.73 283.617 390.512 283.675 390.256H285.019C284.97 390.715 284.82 391.124 284.571 391.484C284.322 391.844 283.988 392.128 283.569 392.334C283.154 392.54 282.666 392.643 282.106 392.643ZM287.745 388.29V392.5H286.365V383.045H287.727V386.563H287.814C287.981 386.182 288.235 385.878 288.576 385.654C288.918 385.429 289.364 385.317 289.915 385.317C290.401 385.317 290.826 385.417 291.189 385.617C291.555 385.817 291.838 386.115 292.039 386.512C292.242 386.906 292.343 387.399 292.343 387.99V392.5H290.963V388.156C290.963 387.636 290.829 387.233 290.561 386.946C290.294 386.657 289.921 386.512 289.444 386.512C289.118 386.512 288.825 386.582 288.567 386.72C288.312 386.859 288.11 387.062 287.962 387.33C287.818 387.594 287.745 387.914 287.745 388.29ZM300.353 392.643C299.688 392.643 299.108 392.491 298.612 392.186C298.117 391.881 297.732 391.455 297.458 390.907C297.184 390.359 297.047 389.719 297.047 388.987C297.047 388.251 297.184 387.608 297.458 387.057C297.732 386.506 298.117 386.078 298.612 385.774C299.108 385.469 299.688 385.317 300.353 385.317C301.017 385.317 301.597 385.469 302.093 385.774C302.588 386.078 302.973 386.506 303.247 387.057C303.521 387.608 303.658 388.251 303.658 388.987C303.658 389.719 303.521 390.359 303.247 390.907C302.973 391.455 302.588 391.881 302.093 392.186C301.597 392.491 301.017 392.643 300.353 392.643ZM300.357 391.484C300.788 391.484 301.145 391.371 301.428 391.143C301.711 390.915 301.921 390.612 302.056 390.233C302.194 389.855 302.264 389.438 302.264 388.982C302.264 388.53 302.194 388.114 302.056 387.736C301.921 387.354 301.711 387.048 301.428 386.817C301.145 386.586 300.788 386.471 300.357 386.471C299.923 386.471 299.563 386.586 299.277 386.817C298.994 387.048 298.783 387.354 298.644 387.736C298.509 388.114 298.441 388.53 298.441 388.982C298.441 389.438 298.509 389.855 298.644 390.233C298.783 390.612 298.994 390.915 299.277 391.143C299.563 391.371 299.923 391.484 300.357 391.484ZM306.449 388.29V392.5H305.069V385.409H306.394V386.563H306.481C306.644 386.188 306.9 385.886 307.248 385.658C307.598 385.431 308.04 385.317 308.573 385.317C309.056 385.317 309.479 385.418 309.842 385.621C310.205 385.821 310.487 386.12 310.687 386.517C310.887 386.914 310.987 387.405 310.987 387.99V392.5H309.607V388.156C309.607 387.642 309.473 387.24 309.205 386.951C308.937 386.659 308.569 386.512 308.102 386.512C307.782 386.512 307.497 386.582 307.248 386.72C307.001 386.859 306.806 387.062 306.661 387.33C306.52 387.594 306.449 387.914 306.449 388.29ZM315.764 392.643C315.066 392.643 314.464 392.494 313.959 392.195C313.458 391.894 313.07 391.471 312.796 390.926C312.525 390.378 312.39 389.736 312.39 389.001C312.39 388.274 312.525 387.634 312.796 387.08C313.07 386.526 313.451 386.094 313.941 385.783C314.433 385.472 315.009 385.317 315.667 385.317C316.067 385.317 316.455 385.383 316.831 385.515C317.206 385.648 317.543 385.855 317.842 386.138C318.14 386.422 318.376 386.789 318.548 387.242C318.72 387.691 318.807 388.237 318.807 388.881V389.37H313.17V388.336H317.454C317.454 387.973 317.38 387.651 317.232 387.371C317.085 387.088 316.877 386.865 316.609 386.702C316.344 386.539 316.034 386.457 315.677 386.457C315.289 386.457 314.95 386.552 314.661 386.743C314.375 386.931 314.153 387.177 313.996 387.482C313.842 387.783 313.765 388.111 313.765 388.465V389.273C313.765 389.747 313.848 390.15 314.015 390.483C314.184 390.815 314.419 391.069 314.721 391.244C315.023 391.417 315.375 391.503 315.778 391.503C316.04 391.503 316.278 391.466 316.494 391.392C316.709 391.315 316.895 391.201 317.052 391.05C317.209 390.9 317.329 390.713 317.412 390.492L318.719 390.727C318.614 391.112 318.426 391.449 318.156 391.738C317.888 392.025 317.551 392.248 317.145 392.408C316.741 392.565 316.281 392.643 315.764 392.643ZM321.118 392.588C320.865 392.588 320.648 392.498 320.467 392.32C320.285 392.138 320.194 391.92 320.194 391.664C320.194 391.412 320.285 391.197 320.467 391.018C320.648 390.837 320.865 390.746 321.118 390.746C321.37 390.746 321.587 390.837 321.768 391.018C321.95 391.197 322.041 391.412 322.041 391.664C322.041 391.834 321.998 391.989 321.912 392.131C321.828 392.269 321.718 392.38 321.579 392.463C321.441 392.546 321.287 392.588 321.118 392.588Z" fill="black" fill-opacity="0.48"/>
<rect x="355" y="31.5" width="80" height="80" rx="20" fill="#22674B"/>
<path d="M382.333 86.8335H406.333C408.543 86.8335 410.333 85.0426 410.333 82.8335V58.8335C410.333 56.6244 408.543 54.8335 406.333 54.8335H382.333C380.124 54.8335 378.333 56.6244 378.333 58.8335V82.8335C378.333 85.0426 380.124 86.8335 382.333 86.8335Z" stroke="white" stroke-width="3" stroke-linecap="round" stroke-linejoin="round"/>
<path d="M385.834 74.8339L392.834 67.8339L397.834 72.8339L403.834 66.8339" stroke="white" stroke-width="3" stroke-linecap="round" stroke-linejoin="round"/>
<rect x="412" y="183.5" width="80" height="80" rx="20" fill="#53E77A"/>
<path d="M451.059 240.971C459.039 240.971 465.57 234.762 466.085 226.912C466.121 226.361 465.67 225.912 465.118 225.912H452.059C451.507 225.912 451.059 225.464 451.059 224.912L451.059 211.853C451.059 211.301 450.61 210.85 450.059 210.886C442.208 211.4 436 217.931 436 225.912C436 234.229 442.742 240.971 451.059 240.971Z" stroke="white" stroke-width="3" stroke-linecap="round" stroke-linejoin="round"/>
<path d="M458.646 208.077C458.096 208.024 457.647 208.477 457.647 209.029V218.178C457.647 218.731 458.095 219.178 458.647 219.178H467.204C467.643 219.178 468 218.822 468 218.382V218.382C468 213.001 463.895 208.579 458.646 208.077Z" stroke="white" stroke-width="3" stroke-linecap="round" stroke-linejoin="round"/>
<rect x="36" y="144.5" width="80" height="80" rx="20" fill="#53E77A"/>
<path d="M71.5 171.5C71.5 170.948 71.9477 170.5 72.5 170.5H79.5C80.0523 170.5 80.5 170.948 80.5 171.5V198.5H71.5V171.5Z" stroke="white" stroke-width="3" stroke-linecap="round" stroke-linejoin="round"/>
<path d="M80.5 182.5C80.5 181.948 80.9477 181.5 81.5 181.5H88.5C89.0523 181.5 89.5 181.948 89.5 182.5V197.5C89.5 198.052 89.0523 198.5 88.5 198.5H80.5V182.5Z" stroke="white" stroke-width="3" stroke-linecap="round" stroke-linejoin="round"/>
<path d="M62.5 191.5C62.5 190.948 62.9477 190.5 63.5 190.5H70.5C71.0523 190.5 71.5 190.948 71.5 191.5V198.5H63.5C62.9477 198.5 62.5 198.052 62.5 197.5V191.5Z" stroke="white" stroke-width="3" stroke-linecap="round" stroke-linejoin="round"/>
</svg>
