<svg width="163" height="120" viewBox="0 0 163 120" fill="none" xmlns="http://www.w3.org/2000/svg">
<circle cx="60.5" cy="60" r="60" fill="#D9D9D9"/>
<path d="M84 16.5H147C155.284 16.5 162 23.2157 162 31.5C162 39.7843 155.284 46.5 147 46.5H84C75.7157 46.5 69 39.7843 69 31.5C69 23.345 75.5077 16.71 83.6133 16.5049L84 16.5Z" fill="white"/>
<path d="M84 16.5H147C155.284 16.5 162 23.2157 162 31.5C162 39.7843 155.284 46.5 147 46.5H84C75.7157 46.5 69 39.7843 69 31.5C69 23.345 75.5077 16.71 83.6133 16.5049L84 16.5Z" stroke="#D9D9D9"/>
<path d="M85.7722 24.0153C86.041 23.3461 86.9883 23.3461 87.257 24.0153L88.7102 27.6341C88.8246 27.9191 89.0921 28.1134 89.3985 28.1341L93.2892 28.398C94.0087 28.4467 94.3014 29.3477 93.748 29.81L90.7554 32.3104C90.5198 32.5073 90.4176 32.8217 90.4925 33.1195L91.4439 36.9013C91.6199 37.6006 90.8535 38.1575 90.2427 37.774L86.94 35.7005C86.6799 35.5373 86.3493 35.5373 86.0893 35.7005L82.7865 37.774C82.1758 38.1575 81.4094 37.6006 81.5853 36.9013L82.5367 33.1195C82.6116 32.8217 82.5095 32.5073 82.2738 32.3104L79.2812 29.81C78.7278 29.3477 79.0206 28.4467 79.74 28.398L83.6308 28.1341C83.9372 28.1134 84.2046 27.9191 84.319 27.6341L85.7722 24.0153Z" fill="#FABB05"/>
<path d="M107.972 29.0625C107.919 28.5663 107.695 28.1799 107.301 27.9034C106.911 27.6269 106.403 27.4886 105.778 27.4886C105.339 27.4886 104.962 27.5549 104.648 27.6875C104.333 27.8201 104.093 28 103.926 28.2273C103.759 28.4545 103.674 28.714 103.67 29.0057C103.67 29.2481 103.725 29.4583 103.835 29.6364C103.949 29.8144 104.102 29.9659 104.295 30.0909C104.489 30.2121 104.703 30.3144 104.938 30.3977C105.172 30.4811 105.409 30.5511 105.648 30.608L106.739 30.8807C107.178 30.983 107.6 31.1212 108.006 31.2955C108.415 31.4697 108.78 31.6894 109.102 31.9545C109.428 32.2197 109.686 32.5398 109.875 32.9148C110.064 33.2898 110.159 33.7292 110.159 34.233C110.159 34.9148 109.985 35.5152 109.636 36.0341C109.288 36.5492 108.784 36.9527 108.125 37.2443C107.47 37.5322 106.676 37.6761 105.744 37.6761C104.839 37.6761 104.053 37.536 103.386 37.2557C102.723 36.9754 102.205 36.5663 101.83 36.0284C101.458 35.4905 101.258 34.8352 101.227 34.0625H103.301C103.331 34.4678 103.456 34.8049 103.676 35.0739C103.896 35.3428 104.182 35.5436 104.534 35.6761C104.89 35.8087 105.288 35.875 105.727 35.875C106.186 35.875 106.587 35.8068 106.932 35.6705C107.28 35.5303 107.553 35.3371 107.75 35.0909C107.947 34.8409 108.047 34.5492 108.051 34.2159C108.047 33.9129 107.958 33.6629 107.784 33.4659C107.61 33.2652 107.366 33.0985 107.051 32.9659C106.741 32.8295 106.377 32.7083 105.96 32.6023L104.636 32.2614C103.678 32.0152 102.92 31.642 102.364 31.142C101.811 30.6383 101.534 29.9697 101.534 29.1364C101.534 28.4508 101.72 27.8504 102.091 27.3352C102.466 26.8201 102.975 26.4205 103.619 26.1364C104.263 25.8485 104.992 25.7045 105.807 25.7045C106.633 25.7045 107.356 25.8485 107.977 26.1364C108.602 26.4205 109.093 26.8163 109.449 27.3239C109.805 27.8277 109.989 28.4072 110 29.0625H107.972ZM116.305 28.7727V30.3636H111.288V28.7727H116.305ZM112.527 26.6818H114.584V34.875C114.584 35.1515 114.625 35.3636 114.709 35.5114C114.796 35.6553 114.91 35.7538 115.05 35.8068C115.19 35.8598 115.345 35.8864 115.516 35.8864C115.644 35.8864 115.762 35.8769 115.868 35.858C115.978 35.839 116.061 35.822 116.118 35.8068L116.464 37.4148C116.355 37.4527 116.197 37.4943 115.993 37.5398C115.792 37.5852 115.546 37.6117 115.254 37.6193C114.739 37.6345 114.275 37.5568 113.862 37.3864C113.449 37.2121 113.122 36.9432 112.879 36.5795C112.641 36.2159 112.523 35.7614 112.527 35.2159V26.6818ZM121.795 37.6705C120.92 37.6705 120.165 37.4886 119.528 37.125C118.896 36.7576 118.409 36.2386 118.068 35.5682C117.727 34.8939 117.557 34.1004 117.557 33.1875C117.557 32.2898 117.727 31.5019 118.068 30.8239C118.413 30.142 118.894 29.6117 119.511 29.233C120.129 28.8504 120.854 28.6591 121.688 28.6591C122.225 28.6591 122.733 28.7462 123.21 28.9205C123.691 29.0909 124.116 29.3561 124.483 29.7159C124.854 30.0758 125.146 30.5341 125.358 31.0909C125.57 31.6439 125.676 32.303 125.676 33.0682V33.6989H118.523V32.3125H123.705C123.701 31.9186 123.616 31.5682 123.449 31.2614C123.282 30.9508 123.049 30.7064 122.75 30.5284C122.455 30.3504 122.11 30.2614 121.716 30.2614C121.295 30.2614 120.926 30.3636 120.608 30.5682C120.29 30.7689 120.042 31.0341 119.864 31.3636C119.689 31.6894 119.6 32.0473 119.597 32.4375V33.6477C119.597 34.1553 119.689 34.5909 119.875 34.9545C120.061 35.3144 120.32 35.5909 120.653 35.7841C120.987 35.9735 121.377 36.0682 121.824 36.0682C122.123 36.0682 122.394 36.0265 122.636 35.9432C122.879 35.8561 123.089 35.7292 123.267 35.5625C123.445 35.3958 123.58 35.1894 123.67 34.9432L125.591 35.1591C125.47 35.6667 125.239 36.1098 124.898 36.4886C124.561 36.8636 124.129 37.1553 123.602 37.3636C123.076 37.5682 122.473 37.6705 121.795 37.6705ZM127.416 40.7727V28.7727H129.439V30.2159H129.558C129.664 30.0038 129.814 29.7784 130.007 29.5398C130.2 29.2973 130.462 29.0909 130.791 28.9205C131.121 28.7462 131.541 28.6591 132.053 28.6591C132.727 28.6591 133.335 28.8314 133.876 29.1761C134.422 29.517 134.854 30.0227 135.172 30.6932C135.494 31.3598 135.655 32.178 135.655 33.1477C135.655 34.1061 135.498 34.9205 135.183 35.5909C134.869 36.2614 134.441 36.7727 133.899 37.125C133.357 37.4773 132.744 37.6534 132.058 37.6534C131.558 37.6534 131.143 37.5701 130.814 37.4034C130.484 37.2367 130.219 37.036 130.018 36.8011C129.821 36.5625 129.668 36.3371 129.558 36.125H129.473V40.7727H127.416ZM129.433 33.1364C129.433 33.7008 129.513 34.1951 129.672 34.6193C129.835 35.0436 130.068 35.375 130.371 35.6136C130.678 35.8485 131.049 35.9659 131.484 35.9659C131.939 35.9659 132.32 35.8447 132.626 35.6023C132.933 35.3561 133.164 35.0208 133.32 34.5966C133.479 34.1686 133.558 33.6818 133.558 33.1364C133.558 32.5947 133.481 32.1136 133.325 31.6932C133.17 31.2727 132.939 30.9432 132.632 30.7045C132.325 30.4659 131.943 30.3466 131.484 30.3466C131.045 30.3466 130.672 30.4621 130.365 30.6932C130.058 30.9242 129.825 31.2481 129.666 31.6648C129.511 32.0814 129.433 32.572 129.433 33.1364ZM141.362 37.5V35.9773L145.402 32.017C145.788 31.6269 146.11 31.2803 146.368 30.9773C146.625 30.6742 146.819 30.3807 146.947 30.0966C147.076 29.8125 147.141 29.5095 147.141 29.1875C147.141 28.8201 147.057 28.5057 146.891 28.2443C146.724 27.9792 146.495 27.7746 146.203 27.6307C145.911 27.4867 145.58 27.4148 145.209 27.4148C144.826 27.4148 144.491 27.4943 144.203 27.6534C143.915 27.8087 143.692 28.0303 143.533 28.3182C143.377 28.6061 143.3 28.9489 143.3 29.3466H141.294C141.294 28.608 141.463 27.9659 141.8 27.4205C142.137 26.875 142.601 26.4527 143.192 26.1534C143.786 25.8542 144.468 25.7045 145.237 25.7045C146.018 25.7045 146.703 25.8504 147.294 26.142C147.885 26.4337 148.343 26.8333 148.669 27.3409C148.999 27.8485 149.163 28.428 149.163 29.0795C149.163 29.5152 149.08 29.9432 148.913 30.3636C148.747 30.7841 148.453 31.25 148.033 31.7614C147.616 32.2727 147.031 32.892 146.277 33.6193L144.271 35.6591V35.7386H149.339V37.5H141.362Z" fill="#22674B"/>
</svg>
