<svg width="116" height="26" viewBox="0 0 116 26" fill="none" xmlns="http://www.w3.org/2000/svg">
<path d="M11.7362 2.69325C11.837 2.44231 12.1922 2.44231 12.293 2.69325L14.8037 8.94547C14.8466 9.05233 14.9469 9.1252 15.0618 9.13299L21.7839 9.58878C22.0537 9.60708 22.1635 9.94493 21.956 10.1183L16.7856 14.4382C16.6972 14.512 16.6589 14.6299 16.687 14.7416L18.3308 21.2755C18.3967 21.5378 18.1093 21.7466 17.8803 21.6028L12.1741 18.0204C12.0766 17.9592 11.9526 17.9592 11.8551 18.0204L6.14894 21.6028C5.91991 21.7466 5.63252 21.5378 5.69849 21.2755L7.34224 14.7416C7.37033 14.6299 7.33202 14.512 7.24365 14.4382L2.0733 10.1183C1.86578 9.94493 1.97555 9.60708 2.24535 9.58878L8.96742 9.13299C9.08231 9.1252 9.1826 9.05233 9.22551 8.94547L11.7362 2.69325Z" fill="#F79E1B"/>
<path d="M34.7362 2.69325C34.837 2.44231 35.1922 2.44231 35.293 2.69325L37.8037 8.94547C37.8466 9.05233 37.9469 9.1252 38.0618 9.13299L44.7839 9.58878C45.0537 9.60708 45.1635 9.94493 44.956 10.1183L39.7856 14.4382C39.6972 14.512 39.6589 14.6299 39.687 14.7416L41.3308 21.2755C41.3967 21.5378 41.1093 21.7466 40.8803 21.6028L35.1741 18.0204C35.0766 17.9592 34.9526 17.9592 34.8551 18.0204L29.1489 21.6028C28.9199 21.7466 28.6325 21.5378 28.6985 21.2755L30.3422 14.7416C30.3703 14.6299 30.332 14.512 30.2437 14.4382L25.0733 10.1183C24.8658 9.94493 24.9756 9.60708 25.2454 9.58878L31.9674 9.13299C32.0823 9.1252 32.1826 9.05233 32.2255 8.94547L34.7362 2.69325Z" fill="#F79E1B"/>
<path d="M57.7362 2.69325C57.837 2.44231 58.1922 2.44231 58.293 2.69325L60.8037 8.94547C60.8466 9.05233 60.9469 9.1252 61.0618 9.13299L67.7839 9.58878C68.0537 9.60708 68.1635 9.94493 67.956 10.1183L62.7856 14.4382C62.6972 14.512 62.6589 14.6299 62.687 14.7416L64.3308 21.2755C64.3967 21.5378 64.1093 21.7466 63.8803 21.6028L58.1741 18.0204C58.0766 17.9592 57.9526 17.9592 57.8551 18.0204L52.1489 21.6028C51.9199 21.7466 51.6325 21.5378 51.6985 21.2755L53.3422 14.7416C53.3703 14.6299 53.332 14.512 53.2437 14.4382L48.0733 10.1183C47.8658 9.94493 47.9756 9.60708 48.2454 9.58878L54.9674 9.13299C55.0823 9.1252 55.1826 9.05233 55.2255 8.94547L57.7362 2.69325Z" fill="#F79E1B"/>
<path d="M80.7362 2.69325C80.837 2.44231 81.1922 2.44231 81.293 2.69325L83.8037 8.94547C83.8466 9.05233 83.9469 9.1252 84.0618 9.13299L90.7839 9.58878C91.0537 9.60708 91.1635 9.94493 90.956 10.1183L85.7856 14.4382C85.6972 14.512 85.6589 14.6299 85.687 14.7416L87.3308 21.2755C87.3967 21.5378 87.1093 21.7466 86.8803 21.6028L81.1741 18.0204C81.0766 17.9592 80.9526 17.9592 80.8551 18.0204L75.1489 21.6028C74.9199 21.7466 74.6325 21.5378 74.6985 21.2755L76.3422 14.7416C76.3703 14.6299 76.332 14.512 76.2437 14.4382L71.0733 10.1183C70.8658 9.94493 70.9756 9.60708 71.2454 9.58878L77.9674 9.13299C78.0823 9.1252 78.1826 9.05233 78.2255 8.94547L80.7362 2.69325Z" fill="#F79E1B"/>
<path d="M103.736 2.69325C103.837 2.44231 104.192 2.44231 104.293 2.69325L106.804 8.94547C106.847 9.05233 106.947 9.1252 107.062 9.13299L113.784 9.58878C114.054 9.60708 114.163 9.94493 113.956 10.1183L108.786 14.4382C108.697 14.512 108.659 14.6299 108.687 14.7416L110.331 21.2755C110.397 21.5378 110.109 21.7466 109.88 21.6028L104.174 18.0204C104.077 17.9592 103.953 17.9592 103.855 18.0204L98.1489 21.6028C97.9199 21.7466 97.6325 21.5378 97.6985 21.2755L99.3422 14.7416C99.3703 14.6299 99.332 14.512 99.2437 14.4382L94.0733 10.1183C93.8658 9.94493 93.9756 9.60708 94.2454 9.58878L100.967 9.13299C101.082 9.1252 101.183 9.05233 101.226 8.94547L103.736 2.69325Z" fill="#F79E1B"/>
</svg>
