<svg width="32" height="32" viewBox="0 0 32 32" fill="none" xmlns="http://www.w3.org/2000/svg">
<g clip-path="url(#clip0_849_1771)">
<path d="M16.0067 32.0133C24.8469 32.0133 32.0133 24.8469 32.0133 16.0067C32.0133 7.16643 24.8469 0 16.0067 0C7.16643 0 0 7.16643 0 16.0067C0 24.8469 7.16643 32.0133 16.0067 32.0133Z" fill="url(#paint0_linear_849_1771)"/>
<path fill-rule="evenodd" clip-rule="evenodd" d="M7.23693 15.8334C11.9017 13.8076 15.007 12.4615 16.5664 11.8084C21.0045 9.95588 21.9375 9.63601 22.5372 9.62268C22.6705 9.62268 22.9637 9.64934 23.1636 9.80927C23.3236 9.94255 23.3635 10.1158 23.3902 10.2491C23.4169 10.3824 23.4435 10.6622 23.4169 10.8755C23.177 13.4078 22.1374 19.5519 21.6043 22.3774C21.3777 23.5769 20.9379 23.9767 20.5114 24.0167C19.5785 24.0967 18.8721 23.4036 17.9791 22.8172C16.5664 21.8976 15.78 21.3245 14.4073 20.4182C12.8213 19.3786 13.8475 18.8055 14.7538 17.8726C14.9937 17.6327 19.0853 13.9009 19.1653 13.5677C19.1786 13.5277 19.1786 13.3678 19.0853 13.2878C18.992 13.2079 18.8588 13.2345 18.7521 13.2612C18.6055 13.2878 16.3665 14.7805 12.0083 17.726C11.3685 18.1658 10.7954 18.379 10.2757 18.3657C9.70257 18.3524 8.60969 18.0458 7.78337 17.7793C6.78379 17.4594 5.98412 17.2862 6.05076 16.7264C6.09074 16.4332 6.49057 16.14 7.23693 15.8334Z" fill="white"/>
</g>
<defs>
<linearGradient id="paint0_linear_849_1771" x1="15.9933" y1="0" x2="15.9933" y2="31.7601" gradientUnits="userSpaceOnUse">
<stop stop-color="#2AABEE"/>
<stop offset="1" stop-color="#229ED9"/>
</linearGradient>
<clipPath id="clip0_849_1771">
<rect width="32" height="32" fill="white"/>
</clipPath>
</defs>
</svg>
