<svg width="65" height="64" viewBox="0 0 65 64" fill="none" xmlns="http://www.w3.org/2000/svg">
<path d="M11.8633 15.9999V47.9999C11.8633 53.3018 16.1613 57.5999 21.4633 57.5999H43.8633C49.1652 57.5999 53.4633 53.3018 53.4633 47.9999V15.9999C53.4633 10.698 49.1652 6.3999 43.8633 6.3999H21.4633C16.1613 6.3999 11.8633 10.698 11.8633 15.9999Z" stroke="#22674B" stroke-width="2.5" stroke-linecap="round" stroke-linejoin="round"/>
<path d="M25.1633 32C25.1633 30.6193 26.2826 29.5 27.6633 29.5H37.6633C39.044 29.5 40.1633 30.6193 40.1633 32V39.5C40.1633 40.8807 39.044 42 37.6633 42H27.6633C26.2826 42 25.1633 40.8807 25.1633 39.5V32Z" fill="#F79E1B"/>
<path d="M28.9133 29.5V25.75C28.9133 23.6789 30.5923 22 32.6633 22C34.7344 22 36.4133 23.6789 36.4133 25.75V29.5M27.6633 42H37.6633C39.044 42 40.1633 40.8807 40.1633 39.5V32C40.1633 30.6193 39.044 29.5 37.6633 29.5H27.6633C26.2826 29.5 25.1633 30.6193 25.1633 32V39.5C25.1633 40.8807 26.2826 42 27.6633 42Z" stroke="#F79E1B" stroke-width="3" stroke-linecap="round" stroke-linejoin="round"/>
<path d="M32.7157 33.875V36.375" stroke="#22674B" stroke-width="2.5" stroke-linecap="round" stroke-linejoin="round"/>
</svg>
