<svg width="64" height="64" viewBox="0 0 64 64" fill="none" xmlns="http://www.w3.org/2000/svg">
<path d="M30.3999 43.2067H12.0888C8.9469 43.2067 6.3999 40.6597 6.3999 37.5179V20.0956C6.3999 16.9537 8.9469 14.4067 12.0888 14.4067H51.911C55.0529 14.4067 57.5999 16.9537 57.5999 20.0956V28.8067" stroke="#22674B" stroke-width="2.5" stroke-linecap="round" stroke-linejoin="round"/>
<path d="M17.4103 28.8066H17.7837M32 28.8066H32.3734M46.2119 28.8066H46.5853" stroke="#22674B" stroke-width="4" stroke-linecap="round" stroke-linejoin="round"/>
<path d="M53.7666 35.3045C50.3883 33.5652 46.4118 33.5652 43.0335 35.3045L38.4 37.69V49.1711C38.4 52.2773 41.9589 55.8114 48.4 60C54.8411 55.8114 58.4 53.1354 58.4 49.1711C58.4 45.2067 58.4 37.69 58.4 37.69L53.7666 35.3045Z" fill="#F79E1B"/>
<path d="M44.0001 45.7692L47.1501 49L53.0001 43" stroke="#22674B" stroke-width="2.5" stroke-linecap="round" stroke-linejoin="round"/>
</svg>
