<svg width="120" height="120" viewBox="0 0 120 120" fill="none" xmlns="http://www.w3.org/2000/svg">
<circle cx="60" cy="60" r="60" fill="#164E37"/>
<path d="M58.3999 71.2067H40.0888C36.9469 71.2067 34.3999 68.6597 34.3999 65.5179V48.0956C34.3999 44.9537 36.9469 42.4067 40.0888 42.4067H79.911C83.0529 42.4067 85.5999 44.9537 85.5999 48.0956V56.8067" stroke="white" stroke-width="3" stroke-linecap="round" stroke-linejoin="round"/>
<path d="M45.4102 56.8066H45.7836M59.9998 56.8066H60.3732M74.2117 56.8066H74.5852" stroke="white" stroke-width="4" stroke-linecap="round" stroke-linejoin="round"/>
<path d="M81.7665 63.3045C78.3881 61.5652 74.4117 61.5652 71.0333 63.3045L66.3999 65.69V77.1711C66.3999 80.2773 69.9588 83.8114 76.3999 88C82.841 83.8114 86.3999 81.1354 86.3999 77.1711C86.3999 73.2067 86.3999 65.69 86.3999 65.69L81.7665 63.3045Z" fill="#F79E1B"/>
<path d="M72 73.7692L75.15 77L81 71" stroke="white" stroke-width="3" stroke-linecap="round" stroke-linejoin="round"/>
</svg>
