<svg width="121" height="120" viewBox="0 0 121 120" fill="none" xmlns="http://www.w3.org/2000/svg">
<circle cx="60.3333" cy="60" r="60" fill="#164E37"/>
<path d="M55.5332 85.5999H49.1332C43.8313 85.5999 39.5332 81.3018 39.5332 75.9999V43.9999C39.5332 38.698 43.8313 34.3999 49.1332 34.3999H71.5332C76.8351 34.3999 81.1332 38.698 81.1332 43.9999V51.9999M69.9332 47.1999H49.1332M60.3332 56.7999H49.1332M55.5332 66.3999H49.1332" stroke="white" stroke-width="3" stroke-linecap="round" stroke-linejoin="round"/>
<path d="M79.7667 61.3045C76.3884 59.5652 72.4119 59.5652 69.0336 61.3045L64.4001 63.69V75.1711C64.4001 78.2773 67.959 81.8114 74.4001 86C80.8413 81.8114 84.4001 79.1354 84.4001 75.1711C84.4001 71.2067 84.4001 63.69 84.4001 63.69L79.7667 61.3045Z" fill="#F79E1B"/>
<path d="M70.0002 71.9694L73.1502 75.2002L79.0002 69.2002" stroke="white" stroke-width="3" stroke-linecap="round" stroke-linejoin="round"/>
</svg>
