<svg width="121" height="120" viewBox="0 0 121 120" fill="none" xmlns="http://www.w3.org/2000/svg">
<circle cx="60.667" cy="60" r="60" fill="#164E37"/>
<path d="M39.8638 43.9999V75.9999C39.8638 81.3018 44.1618 85.5999 49.4638 85.5999H71.8638C77.1657 85.5999 81.4638 81.3018 81.4638 75.9999V43.9999C81.4638 38.698 77.1657 34.3999 71.8638 34.3999H49.4638C44.1618 34.3999 39.8638 38.698 39.8638 43.9999Z" stroke="white" stroke-width="3" stroke-linecap="round" stroke-linejoin="round"/>
<path d="M51.0635 60.0002C51.0635 58.2329 52.4962 56.8002 54.2635 56.8002H67.0635C68.8308 56.8002 70.2635 58.2329 70.2635 60.0002V69.6002C70.2635 71.3675 68.8308 72.8002 67.0635 72.8002H54.2635C52.4962 72.8002 51.0635 71.3675 51.0635 69.6002V60.0002Z" fill="#F79E1B"/>
<path d="M55.8635 56.8002V52.0002C55.8635 49.3492 58.0125 47.2002 60.6635 47.2002C63.3144 47.2002 65.4635 49.3492 65.4635 52.0002V56.8002M54.2635 72.8002H67.0635C68.8308 72.8002 70.2635 71.3675 70.2635 69.6002V60.0002C70.2635 58.2329 68.8308 56.8002 67.0635 56.8002H54.2635C52.4962 56.8002 51.0635 58.2329 51.0635 60.0002V69.6002C51.0635 71.3675 52.4962 72.8002 54.2635 72.8002Z" stroke="#F79E1B" stroke-width="3" stroke-linecap="round" stroke-linejoin="round"/>
<path d="M60.7305 62.3999V65.5999" stroke="white" stroke-width="3" stroke-linecap="round" stroke-linejoin="round"/>
</svg>
