<svg width="65" height="64" viewBox="0 0 65 64" fill="none" xmlns="http://www.w3.org/2000/svg">
<path d="M27.5333 57.5999H21.1333C15.8314 57.5999 11.5333 53.3018 11.5333 47.9999V15.9999C11.5333 10.698 15.8314 6.3999 21.1333 6.3999H43.5333C48.8353 6.3999 53.1333 10.698 53.1333 15.9999V23.9999M41.9333 19.1999H21.1333M32.3333 28.7999H21.1333M27.5333 38.3999H21.1333" stroke="#22674B" stroke-width="2.5" stroke-linecap="round" stroke-linejoin="round"/>
<path d="M51.7667 33.3045C48.3884 31.5652 44.4119 31.5652 41.0336 33.3045L36.4001 35.69V47.1711C36.4001 50.2773 39.959 53.8114 46.4001 58C52.8412 53.8114 56.4001 51.1354 56.4001 47.1711C56.4001 43.2067 56.4001 35.69 56.4001 35.69L51.7667 33.3045Z" fill="#F79E1B"/>
<path d="M42.0001 43.9694L45.1501 47.2002L51.0001 41.2002" stroke="#22674B" stroke-width="2.5" stroke-linecap="round" stroke-linejoin="round"/>
</svg>
