<svg width="88" height="88" viewBox="0 0 88 88" fill="none" xmlns="http://www.w3.org/2000/svg">
<path fill-rule="evenodd" clip-rule="evenodd" d="M30.2002 22H53.6007C56.4726 22 58.8007 24.3282 58.8007 27.2001L58.8001 58.4001C58.8 61.2719 56.4719 63.6 53.6001 63.6L30.2 63.5999C27.3281 63.5999 25 61.2717 25 58.3999L25.0002 27.2C25.0002 24.3281 27.3283 22 30.2002 22ZM34.1006 30.9C33.2722 30.9 32.6006 31.5716 32.6006 32.4C32.6006 33.2285 33.2722 33.9 34.1006 33.9H49.7006C50.529 33.9 51.2006 33.2285 51.2006 32.4C51.2006 31.5716 50.529 30.9 49.7006 30.9H34.1006ZM34.1006 38.7C33.2722 38.7 32.6006 39.3716 32.6006 40.2C32.6006 41.0285 33.2722 41.7 34.1006 41.7H49.7006C50.529 41.7 51.2006 41.0285 51.2006 40.2C51.2006 39.3716 50.529 38.7 49.7006 38.7H34.1006ZM34.1006 46.5C33.2722 46.5 32.6006 47.1716 32.6006 48C32.6006 48.8285 33.2722 49.5 34.1006 49.5H41.9006C42.729 49.5 43.4006 48.8285 43.4006 48C43.4006 47.1716 42.729 46.5 41.9006 46.5H34.1006Z" fill="#22674B"/>
<circle cx="54.5" cy="57.5" r="8.5" fill="#F79E1B"/>
<path d="M51 57.9002L53.2 60.1002L58 55.3" stroke="#F8F8F8" stroke-width="3" stroke-linecap="round" stroke-linejoin="round"/>
</svg>
