<svg width="88" height="88" viewBox="0 0 88 88" fill="none" xmlns="http://www.w3.org/2000/svg">
<circle cx="44" cy="44" r="44" fill="#F8F8F8"/>
<path fill-rule="evenodd" clip-rule="evenodd" d="M25.6357 35.2644C24.6318 35.777 24 36.809 24 37.9362V59.8869C24 61.5437 25.3431 62.8869 27 62.8869H62C63.6569 62.8869 65 61.5437 65 59.8869V37.9362C65 36.809 64.3682 35.777 63.3643 35.2644L45.8643 26.3282C45.0074 25.8906 43.9926 25.8906 43.1357 26.3282L25.6357 35.2644ZM31 43.6315C30.4477 43.6315 30 44.0792 30 44.6315V51.6315C30 52.1838 30.4477 52.6315 31 52.6315H40C40.5523 52.6315 41 52.1838 41 51.6315V44.6315C41 44.0792 40.5523 43.6315 40 43.6315H31Z" fill="#22674B"/>
<path d="M47 44.6315C47 44.0792 47.4477 43.6315 48 43.6315H58C58.5523 43.6315 59 44.0792 59 44.6315V62.8868H47V44.6315Z" fill="#F79E1B"/>
</svg>
