<svg width="88" height="88" viewBox="0 0 88 88" fill="none" xmlns="http://www.w3.org/2000/svg">
<circle cx="44" cy="44" r="44" fill="#F8F8F8"/>
<path d="M24 44.7476C24 41.9471 26.4165 39.6768 29.1503 39.6768H58.8503C59.1443 39.6768 59.4323 39.7031 59.7123 39.7534C62.0352 40.1713 64 42.2482 64 44.7476V50.5125C64 53.313 61.5841 55.5832 58.8503 55.5832H29.1503C26.4165 55.5832 24 53.313 24 50.5125V44.7476Z" fill="#22674B"/>
<path d="M29.1503 39.6768H58.8503C59.1443 39.6768 59.4323 39.7031 59.7123 39.7534M29.1503 39.6768C26.4165 39.6768 24 41.9471 24 44.7476V50.5125C24 53.313 26.4165 55.5832 29.1503 55.5832H58.8503C61.5841 55.5832 64 53.313 64 50.5125V44.7476C64 42.2482 62.0352 40.1713 59.7123 39.7534M29.1503 39.6768L31.7971 29.5095C32.1823 28.0296 33.4906 27 34.9857 27H53.1718C54.5922 27 55.8533 27.9311 56.3025 29.3115L59.7123 39.7534" stroke="#22674B" stroke-width="4" stroke-linecap="round" stroke-linejoin="round"/>
<path d="M22 50.5126H30.3875V59.6501C30.3875 60.7546 29.4921 61.6501 28.3875 61.6501H24C22.8954 61.6501 22 60.7546 22 59.6501V50.5126Z" fill="#22674B"/>
<path d="M57.6123 50.5126H65.9998V59.6501C65.9998 60.7546 65.1044 61.6501 63.9998 61.6501H59.6123C58.5077 61.6501 57.6123 60.7546 57.6123 59.6501V50.5126Z" fill="#22674B"/>
<path d="M29.9741 47.283H35.7491M52.2491 47.283H58.0241" stroke="#F79E1B" stroke-width="4.5" stroke-linecap="round" stroke-linejoin="round"/>
</svg>
