<svg width="88" height="88" viewBox="0 0 88 88" fill="none" xmlns="http://www.w3.org/2000/svg">
<circle cx="44" cy="44" r="44" fill="#F8F8F8"/>
<path fill-rule="evenodd" clip-rule="evenodd" d="M23 29C21.3431 29 20 30.3431 20 32V58C20 59.6569 21.3431 61 23 61H65C66.6569 61 68 59.6569 68 58V42H20V36H68V32C68 30.3431 66.6569 29 65 29H23Z" fill="#22674B"/>
<path d="M25 50C25 49.4477 25.4477 49 26 49H33C33.5523 49 34 49.4477 34 50V55C34 55.5523 33.5523 56 33 56H26C25.4477 56 25 55.5523 25 55V50Z" fill="#F79E1B"/>
</svg>
