<svg width="88" height="88" viewBox="0 0 88 88" fill="none" xmlns="http://www.w3.org/2000/svg">
<circle cx="44" cy="44" r="44" fill="#F8F8F8"/>
<path fill-rule="evenodd" clip-rule="evenodd" d="M23 27C21.3431 27 20 28.3431 20 30V53.8753C20 55.5321 21.3431 56.8753 23 56.8753H29.2128C29.7651 56.8753 30.2128 57.323 30.2128 57.8753V63.0129C30.2128 63.8068 31.0933 64.2841 31.7585 63.8508L41.7216 57.3615C42.2087 57.0442 42.7776 56.8753 43.3589 56.8753H65C66.6569 56.8753 68 55.5321 68 53.8753V30C68 28.3431 66.6569 27 65 27H23ZM27.02 46.4043V37.4913H28.9044V41.1688H32.7299V37.4913H34.61V46.4043H32.7299V42.7225H28.9044V46.4043H27.02ZM36.1636 37.4913V46.4043H42.1868V44.8506H38.048V42.7225H41.8604V41.1688H38.048V39.045H42.1694V37.4913H36.1636ZM43.6675 46.4043V37.4913H45.5519V44.8506H49.373V46.4043H43.6675ZM50.6206 46.4043V37.4913H54.137C54.8131 37.4913 55.389 37.6204 55.8648 37.8787C56.3406 38.134 56.7033 38.4894 56.9528 38.9449C57.2052 39.3975 57.3314 39.9198 57.3314 40.5116C57.3314 41.1035 57.2038 41.6258 56.9485 42.0784C56.6931 42.531 56.3232 42.8835 55.8387 43.1359C55.3571 43.3883 54.7739 43.5145 54.0892 43.5145H52.505V46.4043H50.6206ZM53.7845 42.0044H52.505V39.032H53.7758C54.1414 39.032 54.4431 39.0943 54.6811 39.2191C54.919 39.3409 55.0959 39.5136 55.212 39.737C55.331 39.9575 55.3904 40.2157 55.3904 40.5116C55.3904 40.8047 55.331 41.0644 55.212 41.2907C55.0959 41.5141 54.919 41.6896 54.6811 41.8173C54.446 41.942 54.1472 42.0044 53.7845 42.0044Z" fill="#22674B"/>
<path d="M60.7363 37.4913L60.5666 43.7321H58.9737L58.7996 37.4913H60.7363ZM59.7701 46.5174C59.4829 46.5174 59.2363 46.4159 59.0303 46.2128C58.8243 46.0068 58.7227 45.7602 58.7256 45.473C58.7227 45.1886 58.8243 44.9449 59.0303 44.7418C59.2363 44.5387 59.4829 44.4372 59.7701 44.4372C60.0458 44.4372 60.288 44.5387 60.4969 44.7418C60.7058 44.9449 60.8117 45.1886 60.8146 45.473C60.8117 45.6644 60.7609 45.84 60.6623 45.9996C60.5666 46.1562 60.4403 46.2824 60.2837 46.3782C60.127 46.471 59.9558 46.5174 59.7701 46.5174Z" fill="#F79E1B"/>
</svg>
