<svg width="56" height="56" viewBox="0 0 56 56" fill="none" xmlns="http://www.w3.org/2000/svg">
<path d="M36.75 14H13.4167C10.8393 14 8.75 16.0893 8.75 18.6667V32.6667C8.75 35.244 10.8393 37.3333 13.4167 37.3333H36.75C39.3273 37.3333 41.4167 35.244 41.4167 32.6667V18.6667C41.4167 16.0893 39.3273 14 36.75 14Z" fill="#4CAA83" stroke="#22674B" stroke-width="1.5" stroke-linecap="round" stroke-linejoin="round"/>
<path d="M42.5833 21H19.25C16.6727 21 14.5833 23.0893 14.5833 25.6667V39.6667C14.5833 42.244 16.6727 44.3333 19.25 44.3333H42.5833C45.1607 44.3333 47.25 42.244 47.25 39.6667V25.6667C47.25 23.0893 45.1607 21 42.5833 21Z" fill="#4CAA83" stroke="#22674B" stroke-width="1.5" stroke-linecap="round" stroke-linejoin="round"/>
<path d="M30.9167 37.3333C33.494 37.3333 35.5833 35.244 35.5833 32.6667C35.5833 30.0893 33.494 28 30.9167 28C28.3393 28 26.25 30.0893 26.25 32.6667C26.25 35.244 28.3393 37.3333 30.9167 37.3333Z" fill="#22674B"/>
</svg>
