<svg width="19" height="19" viewBox="0 0 19 19" fill="none" xmlns="http://www.w3.org/2000/svg">
<path d="M8.60556 3.84868C8.87429 3.1795 9.8216 3.1795 10.0903 3.84868L11.3053 6.87411C11.4197 7.15908 11.6871 7.35339 11.9935 7.37416L15.2463 7.59472C15.9658 7.6435 16.2585 8.54445 15.7051 9.00681L13.2032 11.0972C12.9675 11.2941 12.8654 11.6085 12.9403 11.9063L13.7357 15.068C13.9116 15.7674 13.1452 16.3242 12.5345 15.9407L9.77331 14.2072C9.51323 14.044 9.18265 14.044 8.92258 14.2072L6.16137 15.9407C5.55064 16.3242 4.78425 15.7674 4.96018 15.068L5.75558 11.9063C5.8305 11.6085 5.72835 11.2941 5.49269 11.0972L2.99077 9.00681C2.43738 8.54445 2.73012 7.6435 3.44958 7.59472L6.70238 7.37416C7.00875 7.35339 7.2762 7.15908 7.39063 6.87411L8.60556 3.84868Z" fill="white"/>
</svg>
