<svg width="22" height="22" viewBox="0 0 22 22" fill="none" xmlns="http://www.w3.org/2000/svg">
<path d="M10.272 2.68169C10.5407 2.01251 11.488 2.01251 11.7568 2.68169L13.4482 6.89383C13.5627 7.17879 13.8301 7.37311 14.1365 7.39388L18.6652 7.70095C19.3846 7.74973 19.6774 8.65068 19.124 9.11304L15.6407 12.0234C15.405 12.2202 15.3029 12.5346 15.3778 12.8324L16.4852 17.2344C16.6611 17.9337 15.8948 18.4905 15.284 18.1071L11.4397 15.6936C11.1797 15.5303 10.8491 15.5303 10.589 15.6936L6.74474 18.1071C6.13401 18.4905 5.36762 17.9337 5.54355 17.2344L6.65095 12.8324C6.72587 12.5346 6.62371 12.2202 6.38806 12.0234L2.90477 9.11304C2.35139 8.65068 2.64412 7.74973 3.36358 7.70095L7.89226 7.39388C8.19864 7.37311 8.46609 7.17879 8.58052 6.89383L10.272 2.68169Z" fill="#FABB05"/>
</svg>
